<svg xmlns="http://www.w3.org/2000/svg" data-name="Layer 1" viewBox="0 0 512 512" x="0px" y="0px"><title>Open book</title><g data-name="Group"><path data-name="Compound Path" d="M456.036,59H325.913a47.713,47.713,0,0,0-16.4,2.73l-42.574,15.4a32.052,32.052,0,0,1-21.872-.039L202.49,61.751A47.709,47.709,0,0,0,186.087,59H55.964A47.752,47.752,0,0,0,8,106.682V385.021A48.006,48.006,0,0,0,55.964,433H186.087a31.885,31.885,0,0,1,10.934,1.937L239.6,450.424a48.071,48.071,0,0,0,32.808,0l42.575-15.491A31.908,31.908,0,0,1,325.913,433H456.036A48.006,48.006,0,0,0,504,385.021V106.682A47.752,47.752,0,0,0,456.036,59ZM202.49,419.9a47.851,47.851,0,0,0-16.4-2.9H55.964A31.987,31.987,0,0,1,24,385.021V106.682A31.735,31.735,0,0,1,55.964,75H186.087a31.728,31.728,0,0,1,10.934,1.768l42.575,15.4A47.582,47.582,0,0,0,248,94.3v342c-.989-.256-1.97-.559-2.936-.911ZM488,385.021A31.987,31.987,0,0,1,456.036,417H325.913a47.851,47.851,0,0,0-16.4,2.9l-42.574,15.486c-.966.352-1.947.655-2.936.911V94.3a47.818,47.818,0,0,0,8.4-2.21l42.575-15.323A31.751,31.751,0,0,1,325.913,75H456.036A31.735,31.735,0,0,1,488,106.682Z"></path><path data-name="Path" d="M318.3,160h51.161a8,8,0,0,0,0-16H318.3a8,8,0,0,0,0,16Z"></path><path data-name="Path" d="M439.456,207H318.3a8,8,0,0,0,0,16H439.456a8,8,0,0,0,0-16Z"></path><path data-name="Path" d="M439.456,270H318.3a8,8,0,0,0,0,16H439.456a8,8,0,0,0,0-16Z"></path><path data-name="Path" d="M439.456,332H318.3a8,8,0,0,0,0,16H439.456a8,8,0,0,0,0-16Z"></path><path data-name="Compound Path" d="M198.851,244.813A56.937,56.937,0,0,0,94.968,225.427c-29.884.117-45.955,6.224-47.839,18.189-1.554,9.864,7.01,18.652,26.178,26.865,4.988,2.138,10.56,4.165,16.567,6.051a56.917,56.917,0,0,0,99.272,12.8c.858-.064,1.721-.125,2.556-.2,20.766-1.923,31.615-7.652,33.169-17.519C226.421,261.766,217.9,252.978,198.851,244.813ZM143,215.035a40.958,40.958,0,0,1,36.911,58.724,267.128,267.128,0,0,1-45.9-3.5,292.961,292.961,0,0,1-31.254-6.633A40.931,40.931,0,0,1,143,215.035Zm-59.586,42.3c-12.452-4.876-17.9-9.019-19.769-11.119,2.624-1.543,9.794-3.943,24.238-4.612A56.866,56.866,0,0,0,86.03,256c0,.788.028,1.569.06,2.35Q84.725,257.844,83.409,257.331ZM111.623,282.3c6.41,1.425,13.076,2.691,19.895,3.765a306.018,306.018,0,0,0,34.866,3.533,40.869,40.869,0,0,1-54.761-7.3Zm85.964-10.06a56.439,56.439,0,0,0,1.946-9.391c4.977,2.655,7.63,4.822,8.823,6.159C206.766,269.944,203.432,271.235,197.587,272.244Z"></path></g></svg>