<svg xmlns="http://www.w3.org/2000/svg" xmlns:xlink="http://www.w3.org/1999/xlink" version="1.1" x="0px" y="0px" viewBox="0 0 100 100"  xml:space="preserve"><path d="M94.707,85.293L83.414,74l1.293-1.293c0.391-0.391,0.391-1.023,0-1.414L75.414,62l2.293-2.293  c0.391-0.391,0.391-1.023,0-1.414L34.414,15l1.293-1.293c0.391-0.391,0.391-1.023,0-1.414l-6.999-6.999  c-0.093-0.093-0.203-0.166-0.326-0.217C28.26,5.026,28.13,5,28,5C14.458,5,5,14.458,5,28c0,0.13,0.026,0.26,0.077,0.382  c0.051,0.123,0.124,0.233,0.217,0.326l6.999,7C12.488,35.902,12.744,36,13,36s0.512-0.098,0.707-0.293L15,34.414l13.441,13.441  C26.933,49.467,26,51.624,26,54c0,3.163,1.644,5.945,4.118,7.551c-0.009,0.018-0.026,0.029-0.034,0.049l-14,32  c-0.222,0.506,0.009,1.096,0.516,1.316C16.729,94.973,16.865,95,16.999,95c0.386,0,0.753-0.224,0.917-0.6l13.983-31.963  c0.668,0.247,1.369,0.422,2.101,0.504V94c0,0.553,0.447,1,1,1s1-0.447,1-1V62.941c0.731-0.082,1.433-0.257,2.101-0.504L52.084,94.4  c0.164,0.376,0.531,0.6,0.917,0.6c0.134,0,0.27-0.027,0.399-0.084c0.507-0.221,0.737-0.811,0.516-1.316l-14-32  c-0.008-0.02-0.025-0.031-0.034-0.049c0.451-0.293,0.872-0.627,1.263-0.992l17.148,17.148C58.488,77.902,58.744,78,59,78  s0.512-0.098,0.707-0.293L62,75.414l9.293,9.293C71.488,84.902,71.744,85,72,85s0.512-0.098,0.707-0.293L74,83.414l11.293,11.293  C85.488,94.902,85.744,95,86,95s0.512-0.098,0.707-0.293l8-8C95.098,86.316,95.098,85.684,94.707,85.293z M25.448,7.138  L7.138,25.448C8.162,15.299,15.3,8.163,25.448,7.138z M13,33.586L12.414,33l4.293-4.293c0.391-0.391,0.391-1.023,0-1.414  s-1.023-0.391-1.414,0L11,31.586L9.414,30l4.293-4.293c0.391-0.391,0.391-1.023,0-1.414s-1.023-0.391-1.414,0L8,28.586L7.414,28  L28,7.414L33.586,13l-1.293,1.293l-18,18L13,33.586z M35.437,60.979l1.271-1.271c0.391-0.391,0.391-1.023,0-1.414  s-1.023-0.391-1.414,0l-2,2c-0.122,0.123-0.192,0.271-0.238,0.426c-0.818-0.236-1.573-0.621-2.239-1.121l1.892-1.891  c0.391-0.391,0.391-1.023,0-1.414s-1.023-0.391-1.414,0l-1.892,1.891c-0.499-0.665-0.883-1.42-1.12-2.238  c0.154-0.046,0.304-0.115,0.426-0.238l2-2c0.391-0.391,0.391-1.023,0-1.414s-1.023-0.391-1.414,0l-1.271,1.271  c0.111-1.799,0.899-3.413,2.118-4.592c0.206-0.029,0.407-0.107,0.566-0.266l0.708-0.709C32.466,47.369,33.689,47,35,47  c1.973,0,3.754,0.823,5.027,2.141c0.029,0.207,0.106,0.408,0.266,0.566c0.115,0.115,0.254,0.186,0.398,0.232  C41.512,51.086,42,52.486,42,54C42,57.713,39.092,60.751,35.437,60.979z M59,75.586L58.414,75l5.293-5.293  c0.391-0.391,0.391-1.023,0-1.414s-1.023-0.391-1.414,0L57,73.586L55.414,72l5.293-5.293c0.391-0.391,0.391-1.023,0-1.414  s-1.023-0.391-1.414,0L54,70.586L52.414,69l5.293-5.293c0.391-0.391,0.391-1.023,0-1.414s-1.023-0.391-1.414,0L51,67.586L49.414,66  l5.293-5.293c0.391-0.391,0.391-1.023,0-1.414s-1.023-0.391-1.414,0L48,64.586L46.414,63l5.293-5.293  c0.391-0.391,0.391-1.023,0-1.414s-1.023-0.391-1.414,0L45,61.586L43.414,60l5.293-5.293c0.391-0.391,0.391-1.023,0-1.414  s-1.023-0.391-1.414,0l-3.883,3.883C43.785,56.186,44,55.119,44,54c0-0.188-0.017-0.372-0.028-0.558l1.735-1.735  c0.391-0.391,0.391-1.023,0-1.414s-1.023-0.391-1.414,0l-0.788,0.788c-0.261-0.756-0.611-1.47-1.052-2.12l0.254-0.254  c0.391-0.391,0.391-1.023,0-1.414s-1.023-0.391-1.414,0l-0.148,0.148c-0.553-0.518-1.164-0.973-1.833-1.338l0.396-0.396  c0.391-0.391,0.391-1.023,0-1.414s-1.023-0.391-1.414,0l-1,1c-0.004,0.004-0.005,0.009-0.008,0.012C36.554,45.113,35.791,45,35,45  c-0.208,0-0.412,0.018-0.617,0.031l2.324-2.324c0.391-0.391,0.391-1.023,0-1.414s-1.023-0.391-1.414,0l-5.129,5.129  c-0.067,0.043-0.138,0.08-0.203,0.125L28.414,45l5.293-5.293c0.391-0.391,0.391-1.023,0-1.414s-1.023-0.391-1.414,0L27,43.586  L25.414,42l5.293-5.293c0.391-0.391,0.391-1.023,0-1.414s-1.023-0.391-1.414,0L24,40.586L22.414,39l5.293-5.293  c0.391-0.391,0.391-1.023,0-1.414s-1.023-0.391-1.414,0L21,37.586L19.414,36l5.293-5.293c0.391-0.391,0.391-1.023,0-1.414  s-1.023-0.391-1.414,0L18,34.586L16.414,33L33,16.414L75.586,59l-2.293,2.293l-12,12L59,75.586z M72,82.586L69.914,80.5l2.793-2.793  c0.391-0.391,0.391-1.023,0-1.414s-1.023-0.391-1.414,0L68.5,79.086L66.914,77.5l2.793-2.793c0.391-0.391,0.391-1.023,0-1.414  s-1.023-0.391-1.414,0L65.5,76.086L63.414,74L74,63.414L82.586,72l-1.293,1.293l-8,8L72,82.586z M86,92.586L84.414,91l2.293-2.293  c0.391-0.391,0.391-1.023,0-1.414s-1.023-0.391-1.414,0L83,89.586L81.414,88l2.293-2.293c0.391-0.391,0.391-1.023,0-1.414  s-1.023-0.391-1.414,0L80,86.586L78.414,85l2.293-2.293c0.391-0.391,0.391-1.023,0-1.414s-1.023-0.391-1.414,0L77,83.586L75.414,82  L82,75.414L92.586,86L86,92.586z"></path></svg>