<svg xmlns="http://www.w3.org/2000/svg" xmlns:xlink="http://www.w3.org/1999/xlink" version="1.1" x="0px" y="0px" viewBox="0 0 32 32"  xml:space="preserve"><g><g><path d="M28.3,25.5h-0.5l-5.9-5.9c0.5-0.5,0.9-1.3,0.9-2.1v-7.1c0-1.6-1.3-2.9-2.8-3V7.2c0-0.9-0.8-1.7-1.7-1.7h-5.9    c-0.9,0-1.7,0.8-1.7,1.7v0.3C9,7.5,7.7,8.7,7.7,10.2c0,0.1,0,0.2,0,0.2v7.1c0,0.1,0,0.2,0,0.2c0,0,0,0,0,0.1c0,0,0,0,0,0    c0,0,0,0,0,0c0.1,1,0.6,1.8,1.4,2.3l-5.5,5.5H3.3c-0.3,0-0.5,0.2-0.5,0.5s0.2,0.5,0.5,0.5h1.9c0.3,0,0.5-0.2,0.5-0.5    s-0.2-0.5-0.5-0.5H5.1l5.1-5.1c0.2,0,0.3,0,0.5,0h4v5.1h-0.5c-0.3,0-0.5,0.2-0.5,0.5s0.2,0.5,0.5,0.5h1.9c0.3,0,0.5-0.2,0.5-0.5    s-0.2-0.5-0.5-0.5h-0.5v-5.1h4c0.5,0,0.9-0.1,1.3-0.3l5.4,5.4c-0.3,0-0.5,0.2-0.5,0.5c0,0.3,0.2,0.5,0.5,0.5h1.9    c0.3,0,0.5-0.2,0.5-0.5S28.6,25.5,28.3,25.5z M11.5,7.2c0-0.4,0.3-0.7,0.7-0.7h5.9c0.4,0,0.7,0.3,0.7,0.7v0.3h-7.3V7.2z M8.6,17.1    v-6.4h4.2c0.9,0,1.6,0.7,1.6,1.6l0,3.1c0,0.9-0.7,1.6-1.6,1.6H8.6z M10.6,19.5c-0.9,0-1.6-0.6-1.9-1.3h4.1c1.4,0,2.6-1.2,2.6-2.6    v0l0-3.1c0-1.4-1.2-2.6-2.6-2.6H8.8C9,9,9.8,8.4,10.6,8.4h9c1.1,0,2,0.9,2,2v7.1c0,1.1-0.9,2-2,2H10.6z"></path><path d="M18.6,12.2c-1,0-1.7,0.8-1.7,1.7c0,1,0.8,1.7,1.7,1.7s1.7-0.8,1.7-1.7C20.4,13,19.6,12.2,18.6,12.2z M18.6,14.7    c-0.4,0-0.7-0.3-0.7-0.7c0-0.4,0.3-0.7,0.7-0.7c0.4,0,0.7,0.3,0.7,0.7C19.4,14.4,19,14.7,18.6,14.7z"></path></g></g></svg>