<svg xmlns="http://www.w3.org/2000/svg" version="1.1" viewBox="0 0 25.399999 25.400001" x="0px" y="0px"><g transform="translate(0 -271.6)"><path  d="m48 2a46 46 0 0 0 -46 46 46 46 0 0 0 46 46 46 46 0 0 0 46 -46 46 46 0 0 0 -46 -46zm3.301 4.4551a18.656 18.656 0 0 1 18.656 18.656 18.656 18.656 0 0 1 -18.656 18.657 18.656 18.656 0 0 1 -18.656 -18.657 18.656 18.656 0 0 1 18.656 -18.656zm28.367 43.121c0.429 0.038 1.276 0.706 1.6 0.793 0.37 0.099 1.712-0.119 1.904 0.213 0.191 0.332-0.669 1.386-0.768 1.756s0.119 1.713-0.213 1.904c-0.331 0.192-1.385-0.668-1.755-0.767-0.371-0.1-1.711 0.119-1.903-0.213-0.191-0.332 0.667-1.386 0.766-1.756s-0.117-1.713 0.215-1.904c0.041-0.024 0.093-0.031 0.154-0.026zm-64.063 2.701a6.0975 6.0975 0 0 1 6.098 6.098 6.0975 6.0975 0 0 1 -6.098 6.098 6.0975 6.0975 0 0 1 -6.0952 -6.098 6.0975 6.0975 0 0 1 6.0952 -6.098zm56.85 2.082c0.333 0.03 0.993 0.55 1.244 0.618 0.288 0.077 1.33-0.092 1.479 0.166 0.149 0.257-0.519 1.075-0.596 1.363-0.077 0.287 0.092 1.331-0.166 1.48s-1.076-0.518-1.363-0.595c-0.288-0.077-1.332 0.091-1.481-0.166-0.149-0.258 0.521-1.078 0.598-1.366 0.077-0.287-0.094-1.329 0.164-1.478 0.032-0.019 0.073-0.026 0.121-0.022zm5.158 5.459c0.388 0.034 1.155 0.639 1.448 0.717 0.334 0.09 1.549-0.107 1.722 0.194 0.173 0.3-0.605 1.253-0.695 1.587-0.09 0.335 0.109 1.55-0.192 1.723-0.3 0.173-1.253-0.606-1.587-0.695-0.335-0.09-1.55 0.108-1.723-0.192s0.604-1.253 0.693-1.588c0.09-0.334-0.106-1.549 0.194-1.722 0.037-0.022 0.085-0.028 0.14-0.024zm-30.238 7.743a11.516 11.516 75 0 0 5.508 12.285 11.516 11.516 75 0 0 13.388 -1.36 11.516 11.516 75 0 1 -1.294 3.448 11.516 11.516 75 0 1 -15.731 4.214 11.516 11.516 75 0 1 -4.217 -15.732 11.516 11.516 75 0 1 2.346 -2.855z" fill-rule="evenodd" transform="matrix(.26458 0 0 .26458 0 271.6)"></path></g></svg>