<svg xmlns="http://www.w3.org/2000/svg" xmlns:xlink="http://www.w3.org/1999/xlink" version="1.1" x="0px" y="0px" viewBox="0 0 90 90" enable-background="new 0 0 90 90" xml:space="preserve"><g><path d="M50.871,37.251c0.295-6.856,0.487-15.569,0.487-15.961c0,0-7.135-21.29-7.785-21.29c-0.65,0-7.424,21.29-7.424,21.29   c0,0.393,0.192,9.104,0.487,15.96c0,0-4.64,0.664-4.64,16.141c0,0,3.093-9.948,4.993-9.948c0.107,1.263,0.221,2.032,0.338,2.032   h2.729c-0.125,0.925-0.161,2.234,0.277,3.548c0.738,2.213,3.29,2.408,3.518,3.898c0.066-1.639,2.77-1.768,3.533-4.057   c0.427-1.279,0.403-2.512,0.285-3.39h2.511c0.117,0,0.231-0.77,0.338-2.032c1.901,0.037,4.982,9.948,4.982,9.948   C55.5,38.342,51.114,37.282,50.871,37.251z M43.753,19.189c1.959,0,3.548,1.588,3.548,3.548c0,1.959-1.589,3.548-3.548,3.548   c-1.96,0-3.549-1.589-3.549-3.548C40.205,20.778,41.793,19.189,43.753,19.189z M45.604,47.248c0,0.701-0.295,1.07-1.13,1.736   c-0.577,0.459-0.646,0.725-0.633,0.846c0.009,0.025,0.019,0.051,0.027,0.078c0,0-0.022-0.023-0.027-0.078   c-0.352-0.947-1.208-0.803-1.784-2.027c-0.301-0.643-0.295-1.57-0.217-2.328h1.007c0.112,0.583,0.33,1.142,0.754,1.144   c0.446,0.002,0.664-0.559,0.771-1.144h1.232C45.604,45.917,45.604,46.75,45.604,47.248z"></path><path d="M43.867,53.232c0-0.006-0.001-0.012-0.001-0.016c-0.001,0.025-0.003,0.051-0.005,0.076L43.867,53.232z"></path><path d="M43.851,52.922c-0.004,0.094,0.001,0.191,0.015,0.295C43.87,53.113,43.865,53.016,43.851,52.922z"></path></g><path d="M45,68.333c-9.446,0-18.357,2.263-26.25,6.248V54.954h-0.492c0,0-5.167-0.491-8.036,1.931  c-1.434,1.211-6.972-1.931-6.972-1.931v9.35c0,0,5.832,2.455,6.972,0.964c1.557-2.03,8.036-0.964,8.036-0.964v10.531  C11.218,78.475,5.003,83.488,0,89.547v2.452h90v-2.452C79.301,76.591,63.114,68.333,45,68.333z"></path><g><rect x="31.875" y="56.736" width="1" height="7.833"></rect><rect x="36.625" y="52.944" width="1" height="7.833"></rect><rect x="49.875" y="52.944" width="1" height="7.833"></rect><rect x="40.627" y="56.524" width="1" height="7.833"></rect><rect x="45.872" y="56.524" width="1" height="7.833"></rect><rect x="54.625" y="56.736" width="1" height="7.833"></rect></g></svg>