<svg xmlns="http://www.w3.org/2000/svg" xmlns:xlink="http://www.w3.org/1999/xlink" version="1.1" x="0px" y="0px" viewBox="0 0 100 100"  xml:space="preserve"><path d="M75.715,27.817c-0.257,0-0.514-0.098-0.709-0.294c-0.907-0.911-1.88-1.782-2.893-2.588  c-0.432-0.344-0.503-0.973-0.159-1.405c0.343-0.432,0.971-0.505,1.405-0.159c1.072,0.854,2.103,1.776,3.064,2.741  c0.39,0.391,0.388,1.024-0.003,1.414C76.225,27.72,75.97,27.817,75.715,27.817z"></path><path d="M69.477,21.839c-0.186,0.319-0.521,0.497-0.865,0.497c-0.171,0-0.344-0.043-0.502-0.136c-1.115-0.649-2.28-1.238-3.46-1.751  c-0.507-0.22-0.739-0.809-0.519-1.316c0.221-0.506,0.807-0.741,1.315-0.518c1.252,0.544,2.486,1.169,3.669,1.857  C69.594,20.75,69.756,21.362,69.477,21.839z"></path><path d="M23.763,72.605c-0.305,0-0.606-0.139-0.803-0.402c-0.816-1.095-1.578-2.251-2.264-3.437  c-0.276-0.478-0.112-1.09,0.366-1.366c0.478-0.278,1.09-0.113,1.366,0.365c0.646,1.119,1.364,2.209,2.135,3.241  c0.33,0.443,0.239,1.069-0.204,1.4C24.18,72.541,23.971,72.605,23.763,72.605z"></path><path d="M19.417,38.267c-0.506-0.221-0.738-0.81-0.518-1.316c0.544-1.249,1.17-2.483,1.86-3.667c0.279-0.477,0.891-0.637,1.368-0.36  c0.477,0.278,0.638,0.891,0.36,1.368c-0.651,1.117-1.242,2.28-1.755,3.458c-0.164,0.376-0.531,0.601-0.918,0.601  C19.682,38.35,19.547,38.323,19.417,38.267z"></path><path d="M18.421,41.096c0.533,0.145,0.848,0.694,0.703,1.227c-0.337,1.246-0.604,2.523-0.793,3.797  c-0.073,0.497-0.501,0.854-0.988,0.854c-0.049,0-0.098-0.003-0.147-0.011c-0.547-0.081-0.924-0.589-0.843-1.136  c0.2-1.351,0.483-2.706,0.842-4.027C17.338,41.267,17.887,40.955,18.421,41.096z"></path><path d="M16.202,55.182c-0.157-1.354-0.236-2.735-0.236-4.127l0.001-0.102c0-0.552,0.447-1,1-1s1,0.448,1,1l-0.001,0.125  c0,1.293,0.075,2.596,0.223,3.875c0.063,0.548-0.329,1.044-0.878,1.108c-0.039,0.005-0.078,0.007-0.116,0.007  C16.693,56.067,16.261,55.692,16.202,55.182z"></path><path d="M23.82,30.45c-0.432-0.344-0.503-0.973-0.159-1.405c0.851-1.068,1.773-2.099,2.744-3.063  c0.392-0.389,1.024-0.386,1.414,0.004c0.39,0.392,0.388,1.025-0.004,1.415c-0.916,0.91-1.787,1.882-2.59,2.89  c-0.197,0.248-0.488,0.377-0.783,0.377C24.224,30.667,24.005,30.596,23.82,30.45z"></path><path d="M35.109,20.747c0.275,0.479,0.11,1.09-0.369,1.365c-1.117,0.642-2.21,1.357-3.247,2.126  c-0.18,0.133-0.388,0.197-0.595,0.197c-0.307,0-0.608-0.14-0.805-0.405c-0.328-0.443-0.235-1.07,0.208-1.398  c1.1-0.815,2.258-1.573,3.442-2.254C34.224,20.102,34.836,20.268,35.109,20.747z"></path><path d="M60.338,18.881c-0.087,0-0.175-0.012-0.262-0.035c-1.241-0.335-2.52-0.602-3.798-0.791c-0.547-0.081-0.924-0.59-0.843-1.136  c0.082-0.546,0.588-0.922,1.136-0.843c1.355,0.201,2.71,0.483,4.026,0.839c0.533,0.144,0.849,0.693,0.705,1.226  C61.181,18.587,60.778,18.881,60.338,18.881z"></path><path d="M85.732,52.109c-0.552,0-0.999-0.479-0.999-1.031c0-1.274-0.072-2.558-0.215-3.814c-0.062-0.549,0.331-1.044,0.88-1.106  c0.57-0.069,1.045,0.332,1.106,0.881c0.151,1.331,0.229,2.69,0.228,4.082l-1,0.021h1C86.732,51.693,86.285,52.109,85.732,52.109z"></path><path d="M19.753,64.699c-0.121,0.048-0.246,0.071-0.369,0.071c-0.397,0-0.773-0.239-0.93-0.631  c-0.504-1.268-0.938-2.583-1.292-3.907c-0.143-0.534,0.174-1.082,0.708-1.225c0.525-0.14,1.081,0.174,1.224,0.708  c0.334,1.25,0.744,2.489,1.22,3.685C20.516,63.914,20.266,64.495,19.753,64.699z"></path><path d="M27.736,74.677c0.913,0.913,1.888,1.782,2.897,2.582c0.433,0.343,0.506,0.972,0.163,1.405  c-0.197,0.249-0.49,0.379-0.785,0.379c-0.217,0-0.437-0.071-0.62-0.216c-1.07-0.848-2.104-1.769-3.069-2.736  c-0.391-0.391-0.391-1.024,0-1.414C26.713,74.286,27.345,74.285,27.736,74.677z"></path><path d="M79.777,30.006c0.816,1.099,1.575,2.256,2.256,3.439c0.276,0.479,0.111,1.09-0.367,1.366  c-0.157,0.09-0.329,0.133-0.498,0.133c-0.346,0-0.683-0.18-0.867-0.501c-0.644-1.116-1.359-2.208-2.129-3.246  c-0.329-0.443-0.236-1.07,0.207-1.399C78.821,29.47,79.447,29.563,79.777,30.006z"></path><path d="M34.64,79.987c1.119,0.648,2.284,1.235,3.463,1.745c0.507,0.219,0.74,0.808,0.521,1.314  c-0.163,0.378-0.531,0.604-0.918,0.604c-0.133,0-0.268-0.027-0.396-0.083c-1.251-0.54-2.486-1.163-3.672-1.85  c-0.479-0.277-0.642-0.889-0.364-1.367C33.551,79.874,34.163,79.711,34.64,79.987z"></path><path d="M78.917,71.657c0.433,0.344,0.505,0.973,0.161,1.405c-0.853,1.072-1.773,2.104-2.739,3.067  c-0.195,0.195-0.45,0.292-0.706,0.292s-0.513-0.098-0.708-0.294c-0.39-0.391-0.39-1.024,0.002-1.414  c0.911-0.909,1.781-1.883,2.585-2.896C77.855,71.385,78.485,71.312,78.917,71.657z"></path><path d="M83.307,63.833c0.507,0.22,0.739,0.809,0.519,1.315c-0.545,1.255-1.169,2.49-1.853,3.669  c-0.186,0.32-0.521,0.498-0.866,0.498c-0.17,0-0.343-0.043-0.501-0.135c-0.478-0.277-0.641-0.889-0.363-1.367  c0.646-1.113,1.234-2.278,1.749-3.462C82.212,63.845,82.799,63.611,83.307,63.833z"></path><path d="M50.334,85.462c0-0.553,0.463-1,1.016-1c1.284,0,2.577-0.074,3.844-0.219c0.559-0.066,1.045,0.331,1.107,0.88  c0.063,0.548-0.33,1.044-0.879,1.107c-1.338,0.153-2.704,0.231-4.085,0.231c-0.004,0-0.009,0-0.013,0l-0.006-1v1  C50.765,86.462,50.334,86.015,50.334,85.462z"></path><path d="M63.643,82.126c0.507-0.202,1.095,0.046,1.298,0.561c0.203,0.514-0.048,1.095-0.562,1.298  c-1.271,0.504-2.586,0.938-3.908,1.29c-0.086,0.023-0.173,0.034-0.258,0.034c-0.441,0-0.847-0.296-0.966-0.744  c-0.142-0.534,0.176-1.081,0.71-1.223C61.204,83.011,62.444,82.602,63.643,82.126z"></path><path d="M71.254,77.882c0.442-0.329,1.069-0.237,1.398,0.205c0.33,0.443,0.238,1.07-0.205,1.399  c-1.099,0.817-2.255,1.578-3.438,2.26c-0.158,0.091-0.329,0.134-0.499,0.134c-0.346,0-0.682-0.179-0.867-0.5  c-0.276-0.479-0.111-1.09,0.366-1.366C69.126,79.371,70.217,78.653,71.254,77.882z"></path><path d="M42.681,83.327c1.242,0.333,2.521,0.597,3.8,0.784c0.547,0.08,0.925,0.588,0.845,1.134c-0.072,0.497-0.5,0.855-0.988,0.855  c-0.048,0-0.097-0.003-0.146-0.011c-1.356-0.198-2.711-0.478-4.028-0.831c-0.533-0.143-0.85-0.691-0.707-1.225  C41.599,83.5,42.147,83.185,42.681,83.327z"></path><path d="M83.589,59.774c0.335-1.241,0.6-2.519,0.787-3.798c0.08-0.546,0.578-0.928,1.135-0.844c0.546,0.08,0.924,0.588,0.844,1.134  c-0.199,1.356-0.479,2.711-0.834,4.028c-0.12,0.446-0.524,0.74-0.965,0.74c-0.086,0-0.174-0.011-0.261-0.035  C83.762,60.856,83.445,60.308,83.589,59.774z"></path><path d="M51.349,17.694c-1.262,0-2.535,0.071-3.784,0.212c-0.038,0.004-0.076,0.006-0.113,0.006c-0.502,0-0.936-0.377-0.993-0.888  c-0.062-0.549,0.333-1.044,0.882-1.105c1.322-0.149,2.67-0.225,4.021-0.225c0.001,0,0.002,0,0.003,0l0.078,1v-1  c0.553,0,0.953,0.447,0.953,1C52.396,17.247,51.902,17.694,51.349,17.694z"></path><path d="M43.512,17.577c0.141,0.534-0.178,1.081-0.712,1.222c-1.247,0.33-2.488,0.736-3.688,1.209  c-0.121,0.047-0.245,0.07-0.367,0.07c-0.398,0-0.775-0.24-0.931-0.634c-0.202-0.514,0.05-1.094,0.563-1.297  c1.272-0.502,2.589-0.934,3.912-1.283C42.817,16.728,43.371,17.042,43.512,17.577z"></path><path d="M82.971,37.515c0.508-0.2,1.094,0.048,1.297,0.562c0.504,1.273,0.936,2.588,1.286,3.91c0.142,0.534-0.177,1.081-0.711,1.223  c-0.086,0.022-0.172,0.034-0.257,0.034c-0.442,0-0.847-0.296-0.966-0.745c-0.33-1.246-0.738-2.486-1.212-3.687  C82.206,38.299,82.458,37.718,82.971,37.515z"></path><path d="M51.349,24.539c-14.634,0-26.539,11.906-26.539,26.54s11.905,26.54,26.539,26.54c14.634,0,26.539-11.906,26.539-26.54  S65.983,24.539,51.349,24.539z M51.349,26.539c13.531,0,24.539,11.008,24.539,24.54s-11.008,24.54-24.539,24.54  c-13.531,0-24.539-11.008-24.539-24.54S37.818,26.539,51.349,26.539z"></path><path d="M36.802,43.475c-2.696,0-4.891,2.194-4.891,4.891c0,2.697,2.194,4.892,4.891,4.892c2.697,0,4.892-2.194,4.892-4.892  C41.693,45.669,39.499,43.475,36.802,43.475z M39.693,48.366c0,1.594-1.297,2.892-2.892,2.892c-1.594,0-2.891-1.297-2.891-2.892  s1.297-2.891,2.891-2.891C38.396,45.475,39.693,46.771,39.693,48.366z"></path><path d="M49.237,36.558c0-2.697-2.194-4.891-4.892-4.891c-2.696,0-4.891,2.194-4.891,4.891c0,2.697,2.194,4.892,4.891,4.892  C47.043,41.449,49.237,39.255,49.237,36.558z M47.237,36.558c0,1.594-1.297,2.892-2.892,2.892c-1.594,0-2.891-1.297-2.891-2.892  s1.297-2.891,2.891-2.891C45.94,33.667,47.237,34.963,47.237,36.558z"></path><path d="M55.594,63.523c0,2.697,2.194,4.892,4.892,4.892s4.892-2.194,4.892-4.892c0-2.697-2.194-4.891-4.892-4.891  S55.594,60.826,55.594,63.523z M57.594,63.523c0-1.594,1.297-2.891,2.892-2.891s2.892,1.297,2.892,2.891s-1.297,2.892-2.892,2.892  S57.594,65.117,57.594,63.523z"></path><path d="M51.729,55.971c2.697,0,4.892-2.194,4.892-4.892c0-2.697-2.194-4.891-4.892-4.891s-4.892,2.194-4.892,4.891  C46.838,53.777,49.032,55.971,51.729,55.971z M51.729,53.971c-1.595,0-2.892-1.297-2.892-2.892s1.297-2.891,2.892-2.891  s2.892,1.297,2.892,2.891S53.324,53.971,51.729,53.971z"></path><path d="M67.334,44.696c0-2.106-1.713-3.82-3.819-3.82s-3.82,1.714-3.82,3.82s1.714,3.82,3.82,3.82S67.334,46.802,67.334,44.696z   M65.334,44.696c0,1.003-0.816,1.82-1.819,1.82c-1.004,0-1.82-0.816-1.82-1.82c0-1.004,0.816-1.82,1.82-1.82  C64.517,42.875,65.334,43.692,65.334,44.696z"></path><path d="M64.727,54.302c0,1.792,1.458,3.25,3.251,3.25c1.792,0,3.25-1.458,3.25-3.25s-1.458-3.25-3.25-3.25  C66.185,51.052,64.727,52.51,64.727,54.302z M66.727,54.302c0-0.689,0.562-1.25,1.251-1.25s1.25,0.561,1.25,1.25  s-0.561,1.25-1.25,1.25S66.727,54.992,66.727,54.302z"></path><path d="M45.477,68.608c0,2.106,1.714,3.82,3.82,3.82s3.819-1.713,3.819-3.82s-1.713-3.82-3.819-3.82S45.477,66.502,45.477,68.608z   M47.477,68.608c0-1.003,0.816-1.82,1.82-1.82c1.003,0,1.819,0.816,1.819,1.82s-0.816,1.82-1.819,1.82  C48.294,70.428,47.477,69.612,47.477,68.608z"></path><path d="M35.555,60.456c0,2.106,1.714,3.82,3.82,3.82s3.82-1.713,3.82-3.82s-1.714-3.82-3.82-3.82S35.555,58.349,35.555,60.456z   M37.555,60.456c0-1.004,0.816-1.82,1.82-1.82s1.82,0.816,1.82,1.82c0,1.003-0.816,1.82-1.82,1.82S37.555,61.459,37.555,60.456z"></path><path d="M62.285,34.205c0-2.106-1.713-3.82-3.819-3.82s-3.82,1.713-3.82,3.82s1.714,3.82,3.82,3.82S62.285,36.312,62.285,34.205z   M60.285,34.205c0,1.004-0.816,1.82-1.819,1.82c-1.004,0-1.82-0.816-1.82-1.82c0-1.003,0.816-1.82,1.82-1.82  C59.469,32.385,60.285,33.202,60.285,34.205z"></path></svg>