<svg xmlns="http://www.w3.org/2000/svg" viewBox="0 0 24 24"  x="0px" y="0px"><path d="M3 21C3 20.4477 3.44772 20 4 20H6C6.55228 20 7 19.5523 7 19L7 5C7 4.44771 6.55228 4 6 4L4 4C3.44772 4 3 3.55228 3 3C3 2.44772 3.44772 2 4 2H6C7.65686 2 9 3.34315 9 5L9 19C9 20.6569 7.65685 22 6 22H4C3.44771 22 3 21.5523 3 21Z" ></path><path d="M21 21C21 20.4477 20.5523 20 20 20H18C17.4477 20 17 19.5523 17 19L17 5C17 4.44771 17.4477 4 18 4L20 4C20.5523 4 21 3.55228 21 3C21 2.44772 20.5523 2 20 2H18C16.3431 2 15 3.34315 15 5L15 19C15 20.6569 16.3431 22 18 22H20C20.5523 22 21 21.5523 21 21Z" ></path><path d="M11 18C11 18.5523 11.4477 19 12 19C12.5523 19 13 18.5523 13 18V6C13 5.44771 12.5523 5 12 5C11.4477 5 11 5.44771 11 6V18Z" ></path></svg>