<svg xmlns="http://www.w3.org/2000/svg" xmlns:xlink="http://www.w3.org/1999/xlink" version="1.1" x="0px" y="0px" viewBox="0 0 100 100" enable-background="new 0 0 100 100" xml:space="preserve"><path fill-rule="evenodd" clip-rule="evenodd" d="M42.374,19.216c1.421-5.68,4.175-10.822,6.49-16.144  c0.905-2.079,1.853-2.03,2.67,0.003c2.208,5.505,5.517,10.587,6.381,16.606C52.728,19.768,47.526,20.266,42.374,19.216z"></path><path fill-rule="evenodd" clip-rule="evenodd" d="M56.502,83.919c1.319,2.585,0.697,6.774,3.441,6.552  c2.865-0.233,2.534-4.173,2.756-7.544c0.503,0.821,0.697,1.063,0.807,1.335c1.931,4.78,0.88,10.893-2.281,13.711  c-0.787,0.701-1.332,1.098-2.387,0.276C55.72,95.82,54.476,88.945,56.502,83.919z"></path><path fill-rule="evenodd" clip-rule="evenodd" d="M36.425,84.511c2.038,2.25,1.69,5.275,3.967,6.767  c2.455-1.76,2.34-4.715,3.492-7.49c2.595,5.178,0.883,9.429-1.653,13.555c-1.053,1.714-2.137,2.146-3.539,0.148  C36.011,93.675,35.002,89.649,36.425,84.511z"></path><g><path fill-rule="evenodd" clip-rule="evenodd" d="M31.845,52.845c0.02,0.002,0.039,0.002,0.059,0.004   c0-0.01,0.002-0.018,0.002-0.027L31.845,52.845z"></path><path fill-rule="evenodd" clip-rule="evenodd" d="M84.119,77.558c-1.113-5.594-2.775-11.021-5.313-16.133   c-2.251-4.535-5.513-7.887-10.823-8.5c-0.008-0.061-0.012-0.119-0.02-0.18c-0.136-0.014-0.261-0.056-0.389-0.101   c-1.398-9.863-3.944-19.407-7.927-28.556c-6.293,0.321-12.588,0.42-18.879-0.053c-0.389,0.851-0.815,1.686-1.156,2.556   c-3.35,8.516-4.94,17.54-7.572,26.265c-0.045-0.002-0.092-0.004-0.136-0.008c-0.004,0.039-0.008,0.08-0.012,0.119   c-5.914,0.523-9.096,4.525-11.327,9.392c-2.223,4.851-3.829,9.958-4.894,15.214c-1.646,0.997-2.552,2.316-1.423,4.197   c0.637,1.059,1.785,1.257,2.9,0.81c2.231-0.911,1.637-2.663,1.205-4.341c3.562-5.073,6.575-10.644,12.427-13.622   c0.235,2.169,0.257,4.376,1.251,6.4c0.041,0.008,0.082,0.008,0.123,0.012c1.146,2.655,3.65,3.224,6.114,3.85   c0.006,0,0.009,0,0.013,0c0.109,1.387,0.218,2.776,0.323,4.166c-0.666,2.199-0.652,4.31,1.038,6.089   c0.605,0.639,1.242,0.023,1.555-0.397c1.289-1.717,1.791-3.589,0.681-5.613c0.205-1.374,0.407-2.749,0.611-4.119   c0.01,0.004,0.018,0.008,0.027,0.008c5.02-0.012,10.039-0.023,15.058-0.031c0.004-0.004,0.012-0.004,0.02-0.008   c0.145,1.351,0.288,2.702,0.429,4.049c-0.825,2.25-0.491,4.306,1.16,6.069c0.202,0.222,0.98,0.276,1.168,0.082   c1.744-1.775,1.717-3.901,1.09-6.116c0.116-1.394,0.233-2.787,0.354-4.178c0.004,0,0.012,0,0.016,0   c2.347-0.677,4.808-1.183,5.897-3.76c0.039-0.008,0.078-0.008,0.121-0.012c1.288-1.951,1.063-4.229,1.405-6.381   c5.598,3.177,8.981,8.315,12.115,13.684c-0.027,0.012-0.055,0.02-0.082,0.035c-0.358,1.554-0.735,3.142,1.227,3.947   c1.145,0.468,2.285,0.133,2.9-0.841C86.537,79.746,85.61,78.52,84.119,77.558z M44.083,37.58c2.35-0.489,4.392-1.158,5.135-3.891   c0.218-0.798,1.504-0.765,1.744,0.235c0.758,3.185,3.645,3.017,6.61,4.1c-2.943,2.242-4.772,4.495-2.624,8.269   c-3.344-2.11-6.096-2.291-8.995,0.086c-0.508-2.665,1.193-5.688-2.11-7.111C43.468,39.106,42.699,37.868,44.083,37.58z"></path></g></svg>