<svg xmlns="http://www.w3.org/2000/svg" data-name="Layer 1" viewBox="0 0 64 64" x="0px" y="0px"><title>space_12</title><path d="M8,24v8c.33,0,.66,0,1,0H55c.34,0,.67,0,1,0V24A24,24,0,0,0,8,24Zm7.55-9.5A19,19,0,0,1,25.67,6.09a1,1,0,0,1,1.27.6A1,1,0,0,1,26.33,8a17.07,17.07,0,0,0-9,7.53,1,1,0,0,1-.86.5,1,1,0,0,1-.51-.13A1,1,0,0,1,15.55,14.5Zm-3,39.5h4.21L13.9,62.63A2,2,0,0,1,12,64a2,2,0,0,1-.63-.1,2,2,0,0,1-1.27-2.53ZM53.9,61.37a2,2,0,0,1-1.27,2.53A2,2,0,0,1,52,64a2,2,0,0,1-1.9-1.37L47.23,54h4.21ZM30,54h4v8a2,2,0,0,1-4,0ZM55,34H9A9,9,0,0,0,9,52H55a9,9,0,0,0,0-18ZM11,46a3,3,0,1,1,3-3A3,3,0,0,1,11,46Zm14,0a3,3,0,1,1,3-3A3,3,0,0,1,25,46Zm14,0a3,3,0,1,1,3-3A3,3,0,0,1,39,46Zm14,0a3,3,0,1,1,3-3A3,3,0,0,1,53,46Z"></path></svg>