<svg xmlns="http://www.w3.org/2000/svg" xmlns:xlink="http://www.w3.org/1999/xlink" version="1.1" x="0px" y="0px" viewBox="0 0 100 100"  xml:space="preserve"><path d="M15.85,74.98c4.12,0,9.74-1.63,14.69-3.42c5.42,4.91,12.43,7.47,19.51,7.47c4.99,0,10-1.27,14.5-3.86  c6.22-3.59,10.73-9.32,12.95-15.86c0.03-0.07,0.05-0.13,0.06-0.2c0.98-2.94,1.49-6.04,1.49-9.17c0-0.03,0-0.05,0-0.07  c0-1.97-0.22-3.96-0.64-5.93c6.49-5.47,13.5-12.67,11.14-16.76c-2.36-4.09-12.11-1.62-20.08,1.26c-1.5-1.35-3.11-2.53-4.82-3.52  c-0.02-0.01-0.04-0.02-0.06-0.03c-2.72-1.57-5.66-2.68-8.69-3.3c-0.07-0.03-0.14-0.04-0.21-0.05c-6.77-1.34-13.99-0.3-20.21,3.29  c-10.87,6.27-16.5,19.06-13.88,31.25C15.1,61.53,8.11,68.73,10.47,72.82C11.36,74.37,13.32,74.98,15.85,74.98z M64.96,57.59  c0.17,0.3,0.49,0.47,0.81,0.47c0.16,0,0.32-0.04,0.47-0.13l10.87-6.28c-0.15,2.29-0.57,4.53-1.28,6.69l-12,6.93  c-0.45,0.26-0.6,0.83-0.34,1.28c0.17,0.3,0.49,0.47,0.81,0.47c0.16,0,0.32-0.04,0.47-0.13l10-5.77c-2.29,5.1-6.12,9.52-11.16,12.43  c-9.89,5.71-22.46,4.52-31.1-2.75c7.19-2.78,15.1-6.6,23.05-11.19c7.92-4.57,15.21-9.51,21.2-14.34c0.25,1.4,0.38,2.8,0.4,4.19  L65.3,56.32C64.85,56.57,64.7,57.15,64.96,57.59z M36.4,26.44c5.04-2.91,10.78-4.02,16.35-3.45l-10,5.78  c-0.45,0.26-0.6,0.83-0.34,1.28c0.17,0.3,0.49,0.47,0.81,0.47c0.16,0,0.32-0.04,0.47-0.13l12-6.93c2.22,0.47,4.38,1.23,6.43,2.24  l-10.87,6.28c-0.45,0.26-0.6,0.83-0.34,1.28c0.17,0.3,0.49,0.47,0.81,0.47c0.16,0,0.32-0.04,0.47-0.13l11.86-6.85  c1.59,0.96,3.1,2.07,4.49,3.37l-11.26,6.5c-0.45,0.26-0.6,0.83-0.34,1.28c0.17,0.3,0.49,0.47,0.81,0.47c0.16,0,0.32-0.04,0.47-0.13  l11.69-6.75c0.64,0.69,1.27,1.41,1.86,2.2c0.48,0.66,0.91,1.29,1.31,1.93l-11.52,6.65c-0.45,0.26-0.6,0.83-0.34,1.28  C61.36,43.84,61.67,44,62,44c0.16,0,0.32-0.04,0.47-0.13l11.52-6.65c0.25,0.47,0.49,0.96,0.73,1.47c-5.1,4.43-13.2,9.96-22.41,15.28  c-9,5.19-18.06,9.55-24.46,11.78c-0.51-0.73-0.99-1.44-1.4-2.16c-0.52-0.91-1-1.86-1.46-2.91c-0.64-1.5-1.13-3-1.47-4.47  C20.78,44.64,26.07,32.4,36.4,26.44z M74,33.64c4.69-1.39,5.59-0.75,5.6-0.75c0,0.01,0.14,1.1-3.44,4.5  c-0.3-0.63-0.62-1.24-0.95-1.82c-0.02-0.04-0.02-0.08-0.04-0.11c-0.02-0.04-0.05-0.06-0.08-0.09C74.76,34.8,74.39,34.22,74,33.64z   M25.98,66.35c-4.77,1.4-5.57,0.74-5.58,0.74c0-0.01-0.19-1.02,3.42-4.48c0.32,0.66,0.65,1.3,1,1.91  C25.17,65.14,25.57,65.75,25.98,66.35z M22.1,58.09c0.26,0.9,0.57,1.8,0.93,2.71c-3.77,3.5-5.1,5.75-4.25,7.22  c0.42,0.73,1.27,1.1,2.61,1.1c1.49,0,3.59-0.45,6.4-1.35c6.55-2.2,16.06-6.75,25.45-12.17c9.63-5.56,18.1-11.37,23.25-15.95  c5.36-4.8,5.35-6.63,4.74-7.68c-0.54-0.94-2.06-1.9-8.4,0.08c-0.6-0.77-1.23-1.48-1.88-2.16c11-3.87,16.03-3.42,16.97-1.79  c0.98,1.7-1.34,6.59-11.14,14.75c-6.12,5.07-13.79,10.31-22.16,15.14c-8.39,4.84-16.76,8.87-24.21,11.63  c-11.95,4.39-17.34,3.96-18.32,2.26C11.14,70.25,13.27,65.67,22.1,58.09z"></path></svg>