<svg xmlns="http://www.w3.org/2000/svg" xmlns:xlink="http://www.w3.org/1999/xlink" version="1.1" x="0px" y="0px" viewBox="0 0 100 100"  xml:space="preserve"><g><path d="M54.4,39.4c0.1-0.9,0.2-1.8,0.3-2.7c0,0,0,0,0,0c0-0.4,0.1-0.7,0.1-1c0-0.4,0.1-0.8,0.2-1.1c0.1-0.5-0.3-0.9-0.8-1   c-0.5-0.1-0.9,0.2-1,0.7c0,0.4-0.1,0.8-0.2,1.2c0,0.3-0.1,0.7-0.1,1c0,0,0,0.1,0,0.1c-0.4,3.6-0.7,7.8-0.7,12.3h-1.3V34.1   c0-0.5-0.4-0.9-0.9-0.9c-0.5,0-0.9,0.4-0.9,0.9v14.7h-1.5c-0.1-5.5-0.4-10.5-1.1-14.6c-0.1-0.5-0.5-0.8-1-0.7   c-0.5,0.1-0.8,0.5-0.8,1c0.2,1.5,0.4,3.2,0.6,5C33.5,41.7,25,51.9,25,64c0,13.8,11.2,25,25,25c13.8,0,25-11.2,25-25   C75,51.9,66.3,41.6,54.4,39.4z M40.6,81.7h2.1c-0.3,1.4-0.7,2.8-1.1,4C32.9,82.3,26.8,73.9,26.8,64c0-11.2,7.8-20.6,18.7-22.8   c0.2,2.4,0.3,4.9,0.3,7.5h-2c-0.5,0-0.9,0.4-0.9,0.9c0,0.5,0.4,0.9,0.9,0.9h2c0,9.9-0.8,20.9-2.6,29.3h-2.5c-0.5,0-0.9,0.4-0.9,0.9   C39.7,81.3,40.1,81.7,40.6,81.7z M49,87.2c-2-0.1-3.9-0.4-5.8-1c0.5-1.4,0.9-2.9,1.3-4.6H49V87.2z M49,79.9H45   c1.8-8.5,2.6-19.4,2.6-29.3H49V79.9z M50.8,50.6h1.3c0,9.9,0.8,20.8,2.6,29.3h-3.9V50.6z M50.8,87.2v-5.6h4.3   c0.4,1.7,0.8,3.3,1.3,4.7C54.7,86.9,52.8,87.2,50.8,87.2z M58.2,85.8c-0.4-1.3-0.8-2.7-1.1-4.1h2c0.5,0,0.9-0.4,0.9-0.9   c0-0.5-0.4-0.9-0.9-0.9h-2.4c-2-9.4-2.8-20.1-2.8-29.3h2c0.5,0,0.9-0.4,0.9-0.9c0-0.5-0.4-0.9-0.9-0.9h-2c0-2.7,0.1-5.3,0.3-7.6   c11,2,18.9,11.6,18.9,22.8C73.2,74,67,82.4,58.2,85.8z"></path><path d="M42.2,30.2c-0.5,0-0.9,0.4-0.9,0.9c0,0.5,0.4,0.9,0.9,0.9h15.3c0.5,0,0.9-0.4,0.9-0.9c0-0.5-0.4-0.9-0.9-0.9H42.2z"></path><path d="M42.2,25.8h15.3c0.5,0,0.9-0.4,0.9-0.9c0-0.5-0.4-0.9-0.9-0.9H42.2c-0.5,0-0.9,0.4-0.9,0.9C41.3,25.4,41.7,25.8,42.2,25.8z   "></path><path d="M45.3,22.6h9.1c0.5,0,0.9-0.4,0.9-0.9c0-0.5-0.4-0.9-0.9-0.9h-9.1c-0.5,0-0.9,0.4-0.9,0.9C44.4,22.3,44.8,22.6,45.3,22.6z"></path><path d="M39.1,28.9h21.5c0.5,0,0.9-0.4,0.9-0.9c0-0.5-0.4-0.9-0.9-0.9H39.1c-0.5,0-0.9,0.4-0.9,0.9C38.2,28.5,38.6,28.9,39.1,28.9z   "></path><path d="M50,18.9c0.5,0,0.9-0.4,0.9-0.9v-6.2c0-0.5-0.4-0.9-0.9-0.9c-0.5,0-0.9,0.4-0.9,0.9v6.2C49.1,18.6,49.5,18.9,50,18.9z"></path></g></svg>