<svg xmlns="http://www.w3.org/2000/svg" xmlns:xlink="http://www.w3.org/1999/xlink" version="1.1" x="0px" y="0px" viewBox="0 0 512 512"  xml:space="preserve"><g><g><g><path d="M130.743,386.921c-28.829,0-48.821-8.169-57.817-23.623c-2.624-4.369-4.278-9.336-4.917-14.762     c-0.604-5.121-0.309-10.701,0.879-16.585c0.195-0.967,0.776-1.813,1.608-2.342c0.832-0.528,1.844-0.697,2.803-0.461     c0.638,0.153,1.282,0.233,1.915,0.233c0.829,0,2.033-0.142,3.063-0.819c0.075-0.051,0.152-0.097,0.231-0.141     c1.558-0.865,2.676-2.266,3.149-3.946c0.468-1.658,0.259-3.417-0.587-4.957c-0.815-1.261-1.932-2.202-3.411-2.875     c-0.883-0.402-1.569-1.142-1.903-2.052c-0.333-0.911-0.288-1.92,0.128-2.797c3.475-7.344,8.081-15.072,13.692-22.972     c5.561-7.83,12.158-15.898,19.608-23.981c15.21-16.503,33.643-32.81,54.786-48.467c1.603-1.188,3.864-0.855,5.059,0.742     c1.268,1.696,3.291,2.709,5.409,2.709c1.157,0,2.296-0.309,3.294-0.893c0.023-0.014,0.047-0.027,0.071-0.041     c1.557-0.865,2.675-2.265,3.148-3.944c0.452-1.603,0.272-3.296-0.504-4.799c-0.032-0.044-0.061-0.083-0.086-0.12     c-0.011-0.015-0.023-0.032-0.036-0.049c-0.78-0.747-1.188-1.804-1.109-2.883c0.082-1.111,0.668-2.123,1.593-2.744     c11.64-7.824,23.328-15.058,35.731-22.115c15.629-8.933,31.606-17.055,47.481-24.138c15.423-6.881,30.791-12.801,45.678-17.595     c14.657-4.721,28.84-8.348,42.151-10.782c13.331-2.438,25.767-3.674,36.961-3.674c28.848,0,48.849,8.177,57.838,23.648     c3.764,6.449,5.483,13.976,5.106,22.367c-0.353,7.906-2.575,16.607-6.607,25.861c-3.892,8.934-9.481,18.42-16.615,28.195     c-7.054,9.666-15.62,19.62-25.46,29.584c-0.676,0.685-1.598,1.072-2.56,1.077c-0.006,0-0.013,0-0.019,0     c-0.956,0-1.871-0.377-2.551-1.049c-1.248-1.237-2.976-1.946-4.738-1.946c-1.184,0-2.341,0.321-3.344,0.93     c-0.04,0.024-0.078,0.046-0.119,0.068c-1.501,0.835-2.577,2.187-3.03,3.81c-0.478,1.71-0.232,3.54,0.689,5.154     c0.034,0.059,0.065,0.12,0.096,0.181c0.091,0.182,0.286,0.485,0.706,0.905c0.702,0.702,1.086,1.661,1.061,2.654     c-0.025,0.992-0.458,1.932-1.194,2.597c-11.762,10.618-24.889,21.122-39.018,31.22c-14.442,10.322-29.937,20.223-46.055,29.426     c-15.633,8.936-31.609,17.058-47.483,24.141c-15.421,6.881-30.787,12.8-45.672,17.595c-14.655,4.72-28.834,8.348-42.144,10.782     C154.366,385.686,141.934,386.921,130.743,386.921z M75.432,336.628c-1.281,9.007-0.035,16.718,3.717,22.956     c0.01,0.016,0.019,0.031,0.028,0.048c7.62,13.111,25.451,20.041,51.565,20.041c45.092,0,108.142-20.648,168.658-55.235     c30.361-17.339,58.447-37.211,81.429-57.602c-1.66-3.187-2.053-6.784-1.101-10.192c0.972-3.48,3.255-6.376,6.431-8.162     c2.124-1.273,4.557-1.945,7.044-1.945c2.422,0,4.812,0.646,6.904,1.829c18.048-18.646,31.296-37.041,38.393-53.335     c7.329-16.823,7.979-31.238,1.884-41.687c-7.623-13.117-25.456-20.047-51.575-20.047c-45.105,0-108.163,20.648-168.681,55.236     c-11.266,6.409-21.927,12.963-32.502,19.981c0.974,2.696,1.087,5.607,0.3,8.399c-0.998,3.539-3.33,6.483-6.57,8.295     c-2.098,1.22-4.49,1.864-6.919,1.864c0,0,0,0-0.001,0c-3.158,0-6.214-1.086-8.659-3.005     c-38.463,28.895-68.029,60.64-81.911,87.912c1.334,1.044,2.466,2.297,3.38,3.747c0.031,0.049,0.062,0.099,0.09,0.149     c1.839,3.253,2.299,7.005,1.297,10.564c-0.99,3.512-3.292,6.438-6.491,8.253C80.22,335.924,77.908,336.592,75.432,336.628z"></path></g><g><path d="M168.9,349.385c-20.751,0-35.176-5.947-41.715-17.2c-2.11-3.607-3.348-7.696-3.682-12.153     c-0.313-4.213,0.183-8.804,1.476-13.642c2.049-7.667,6.094-16.02,12.023-24.83c5.786-8.597,13.28-17.508,22.276-26.484     c18.559-18.521,42.577-36.428,69.456-51.787c11.039-6.307,22.318-12.04,33.525-17.039c10.89-4.858,21.744-9.039,32.259-12.425     c20.774-6.691,40.144-10.227,56.015-10.227c20.718,0,35.131,5.941,41.683,17.183c2.127,3.604,3.382,7.688,3.729,12.14     c0.329,4.215-0.153,8.805-1.437,13.644c-2.03,7.667-6.064,16.022-11.986,24.836c-5.775,8.596-13.266,17.508-22.261,26.488     c-18.546,18.517-42.557,36.426-69.438,51.792c-11.04,6.307-22.325,12.041-33.541,17.043c-10.9,4.86-21.764,9.041-32.291,12.429     C204.192,345.848,184.796,349.385,168.9,349.385z M350.534,170.846c-31.564,0-75.752,14.48-118.202,38.737     c-26.331,15.044-49.822,32.549-67.933,50.624c-17.213,17.177-28.726,34.243-32.417,48.055     c-2.163,8.092-1.671,14.911,1.462,20.266c0.001,0.005,0.004,0.008,0.005,0.011c6.527,11.24,22.881,13.6,35.452,13.6     c31.627,0,75.862-14.484,118.328-38.749c26.331-15.053,49.816-32.56,67.913-50.628c17.212-17.185,28.705-34.249,32.363-48.051     c2.143-8.086,1.626-14.9-1.534-20.252c-0.004-0.006-0.008-0.013-0.012-0.019C379.417,173.204,363.085,170.846,350.534,170.846z"></path></g><g><path d="M205.068,313.86c-13.004,0-22.099-3.833-26.301-11.088c-2.701-4.661-3.186-10.302-1.444-16.767     c5.172-19.193,29.894-43.819,62.987-62.739c1.075-0.627,2.215-1.266,3.316-1.884c0.817-0.458,1.661-0.933,2.456-1.388     c0.944-0.541,2.081-0.629,3.097-0.241c1.016,0.389,1.804,1.213,2.146,2.247l0.025,0.079c1.213,1.897,3.332,3.063,5.605,3.063     c1.164,0,2.302-0.315,3.29-0.914c0.035-0.021,0.071-0.042,0.108-0.063c2.997-1.676,4.129-5.184,2.691-8.341     c-0.405-0.892-0.433-1.911-0.076-2.823c0.357-0.912,1.068-1.641,1.973-2.02c9.142-3.836,18.056-6.809,26.496-8.835     c8.415-2.019,16.128-3.043,22.924-3.043c13.068,0,22.204,3.831,26.422,11.079l0,0c2.682,4.588,3.178,10.156,1.472,16.548     c-2.51,9.41-9.782,20.317-21.031,31.544c-11.268,11.245-25.838,22.125-42.139,31.462c-13.164,7.529-26.948,13.712-39.865,17.882     C226.572,311.703,214.763,313.86,205.068,313.86z M246.756,227.938c-0.949,0.532-1.914,1.076-2.809,1.599     c-0.009,0.005-0.019,0.01-0.027,0.016c-15.718,8.985-29.719,19.408-40.488,30.141c-10.149,10.116-16.937,20.131-19.11,28.199     c-1.222,4.532-0.98,8.316,0.718,11.248c1.358,2.345,3.686,4.173,6.917,5.436c3.464,1.352,7.876,2.038,13.112,2.038     c18.737,0,45.061-8.659,70.416-23.164c31.163-17.851,55.182-41.394,59.769-58.585c1.189-4.455,0.944-8.163-0.727-11.021     c-0.001-0.003-0.003-0.005-0.005-0.009c-1.36-2.342-3.701-4.171-6.952-5.436c-3.491-1.358-7.935-2.045-13.207-2.045     c-11.947,0-27.342,3.569-43.626,10.088c0.879,5.533-1.688,11.138-6.791,14.021c-2.107,1.261-4.522,1.928-6.989,1.928     C253.046,232.391,249.355,230.738,246.756,227.938z"></path></g><g><path d="M75.129,336.665c-2.371,0-4.731-0.627-6.827-1.813c-2.128-1.204-3.933-2.962-5.219-5.081     c-0.011-0.02-0.021-0.037-0.032-0.055c-1.839-3.154-2.324-6.868-1.365-10.458c0.965-3.612,3.257-6.608,6.454-8.441     c0.017-0.01,0.033-0.02,0.05-0.029c2.118-1.168,4.506-1.786,6.909-1.786c2.39,0,4.766,0.606,6.868,1.753     c2.152,1.175,3.98,2.898,5.285,4.981c0.028,0.046,0.056,0.094,0.083,0.14c1.839,3.253,2.299,7.005,1.297,10.564     c-0.995,3.529-3.315,6.468-6.54,8.28C79.985,335.994,77.579,336.665,75.129,336.665z M69.297,326.038     c1.277,2.086,3.509,3.38,5.833,3.38c1.157,0,2.249-0.31,3.248-0.92c0.042-0.027,0.086-0.051,0.13-0.076     c1.558-0.865,2.676-2.266,3.149-3.946c0.468-1.661,0.258-3.42-0.59-4.962c-1.313-2.046-3.537-3.264-5.966-3.264     c-1.187,0-2.324,0.292-3.379,0.869c-1.495,0.866-2.571,2.289-3.032,4.012C68.235,322.83,68.451,324.572,69.297,326.038z"></path></g><g><path d="M174.382,227.136c-4.979,0-9.593-2.668-12.045-6.966c-1.831-3.149-2.313-6.856-1.355-10.439     c0.965-3.611,3.257-6.61,6.453-8.442c0.014-0.008,0.029-0.016,0.042-0.024c2.111-1.173,4.498-1.792,6.904-1.792     c2.389,0,4.766,0.606,6.872,1.752c2.159,1.176,3.989,2.899,5.294,4.983c0.028,0.045,0.057,0.092,0.083,0.139     c1.839,3.254,2.3,7.006,1.296,10.566c-0.994,3.528-3.315,6.465-6.54,8.278C179.279,226.464,176.858,227.136,174.382,227.136z      M171.018,207.588c-1.497,0.866-2.574,2.291-3.034,4.014c-0.457,1.709-0.235,3.462,0.624,4.934     c0.006,0.012,0.013,0.023,0.02,0.035c1.164,2.046,3.369,3.317,5.754,3.317c1.167,0,2.303-0.318,3.288-0.919     c0.043-0.027,0.087-0.052,0.131-0.077c1.557-0.865,2.675-2.265,3.148-3.944c0.468-1.661,0.258-3.42-0.59-4.963     c-1.294-2.015-3.577-3.264-5.979-3.264C173.194,206.72,172.063,207.012,171.018,207.588z"></path></g><g><path d="M256.957,232.391c-4.97,0-9.587-2.671-12.055-6.974c-1.825-3.12-2.313-6.803-1.374-10.373     c0.955-3.629,3.246-6.65,6.451-8.508c0.02-0.011,0.038-0.022,0.058-0.034c2.109-1.171,4.492-1.79,6.892-1.79     c2.398,0,4.772,0.613,6.862,1.772c2.156,1.197,3.957,2.949,5.209,5.068c1.916,3.218,2.448,6.947,1.499,10.501     c-0.951,3.567-3.276,6.551-6.55,8.407C261.841,231.724,259.424,232.391,256.957,232.391z M253.586,212.823     c-1.509,0.885-2.591,2.328-3.049,4.066c-0.447,1.698-0.225,3.43,0.625,4.878c0.007,0.012,0.014,0.024,0.021,0.036     c1.177,2.061,3.39,3.34,5.772,3.34c1.164,0,2.302-0.315,3.29-0.914c0.033-0.021,0.066-0.04,0.102-0.059     c1.582-0.89,2.701-2.305,3.149-3.986c0.44-1.652,0.182-3.403-0.728-4.929c-0.004-0.005-0.005-0.01-0.008-0.014     c-1.194-2.024-3.43-3.282-5.833-3.282C255.769,211.96,254.614,212.258,253.586,212.823z"></path></g><g><path d="M393.166,274.218c-4.949,0-9.563-2.62-12.038-6.838c-0.008-0.013-0.015-0.024-0.021-0.037     c-1.893-3.309-2.382-7.108-1.379-10.699c0.973-3.482,3.258-6.381,6.438-8.166c2.116-1.258,4.534-1.924,7-1.924     c4.98,0,9.592,2.675,12.04,6.981c1.836,3.143,2.319,6.845,1.364,10.423c-0.966,3.612-3.265,6.607-6.473,8.435     c-0.006,0.003-0.013,0.008-0.02,0.011C397.966,273.59,395.576,274.218,393.166,274.218z M387.389,263.728     c1.183,2,3.395,3.242,5.777,3.242c1.165,0,2.326-0.304,3.354-0.881c1.506-0.86,2.587-2.282,3.046-4     c0.455-1.703,0.232-3.447-0.626-4.909c-0.01-0.018-0.02-0.035-0.028-0.052c-1.161-2.051-3.363-3.326-5.746-3.326     c-1.17,0-2.318,0.318-3.318,0.919c-0.034,0.021-0.071,0.042-0.107,0.062c-1.501,0.835-2.577,2.187-3.03,3.81     C386.234,260.297,386.475,262.12,387.389,263.728z"></path></g></g></g></svg>