<svg xmlns="http://www.w3.org/2000/svg" xmlns:xlink="http://www.w3.org/1999/xlink" xml:space="preserve" version="1.1"  viewBox="0 0 100 100" x="0px" y="0px" fill-rule="evenodd" clip-rule="evenodd"><defs></defs><g><path  d="M50.9 22.56c3.21,0.1 6.28,0.75 9.12,1.87 0.86,-6.91 -1.64,-14.04 -7.11,-18.92 -2.34,-2.09 0.84,-5.66 3.19,-3.56 7.1,6.34 10.1,15.8 8.41,24.73 2.65,1.66 5.01,3.76 6.95,6.19 4.2,-5.56 5.59,-12.97 3.3,-19.93 -0.99,-3 3.57,-4.5 4.56,-1.5 2.97,9.03 0.83,18.72 -5.1,25.62 1.45,2.7 2.46,5.68 2.93,8.83 6.42,-2.72 11.34,-8.43 12.83,-15.61 0.64,-3.08 5.33,-2.11 4.69,0.98 -1.94,9.33 -8.63,16.64 -17.23,19.64 -0.1,3.21 -0.75,6.28 -1.87,9.12 6.91,0.86 14.04,-1.64 18.92,-7.11 2.09,-2.34 5.66,0.84 3.56,3.19 -6.34,7.1 -15.79,10.1 -24.73,8.41 -1.66,2.65 -3.76,5.01 -6.19,6.95 5.56,4.2 12.97,5.59 19.93,3.3 3,-0.99 4.5,3.57 1.5,4.56 -9.03,2.97 -18.72,0.83 -25.62,-5.1 -2.7,1.45 -5.68,2.46 -8.83,2.93 2.72,6.42 8.43,11.34 15.61,12.83 3.08,0.64 2.11,5.33 -0.98,4.69 -9.33,-1.94 -16.64,-8.63 -19.64,-17.23 -3.21,-0.1 -6.28,-0.76 -9.12,-1.87 -0.86,6.91 1.64,14.04 7.11,18.92 2.34,2.09 -0.84,5.66 -3.19,3.56 -7.1,-6.34 -10.1,-15.8 -8.41,-24.73 -2.65,-1.66 -5.01,-3.76 -6.95,-6.19 -4.2,5.55 -5.6,12.97 -3.3,19.93 0.99,3 -3.57,4.5 -4.56,1.5 -2.97,-9.02 -0.83,-18.72 5.1,-25.62 -1.45,-2.7 -2.46,-5.68 -2.93,-8.83 -6.42,2.72 -11.34,8.43 -12.83,15.61 -0.64,3.08 -5.33,2.11 -4.69,-0.98 1.94,-9.33 8.63,-16.64 17.23,-19.64 0.1,-3.21 0.76,-6.28 1.87,-9.12 -6.91,-0.86 -14.04,1.64 -18.92,7.11 -2.09,2.34 -5.66,-0.84 -3.56,-3.19 6.34,-7.1 15.8,-10.1 24.73,-8.41 1.66,-2.65 3.76,-5.01 6.19,-6.95 -5.55,-4.2 -12.97,-5.59 -19.93,-3.3 -3,0.99 -4.5,-3.57 -1.5,-4.56 9.03,-2.97 18.72,-0.83 25.62,5.1 2.7,-1.45 5.68,-2.46 8.83,-2.93 -2.72,-6.42 -8.43,-11.34 -15.61,-12.83 -3.08,-0.64 -2.11,-5.33 0.98,-4.69 9.33,1.94 16.64,8.63 19.64,17.23zm12.21 8.96c-0.49,1.24 -1.09,2.45 -1.78,3.64 -1.59,2.71 -5.72,0.29 -4.12,-2.42 0.67,-1.16 1.23,-2.36 1.68,-3.59 -2.12,-0.9 -4.4,-1.49 -6.78,-1.71 0.19,1.32 0.29,2.67 0.28,4.03 -0.01,3.15 -4.8,3.13 -4.78,-0.02 0.01,-1.34 -0.11,-2.66 -0.34,-3.94 -2.37,0.28 -4.63,0.93 -6.72,1.89 0.83,1.05 1.59,2.17 2.26,3.37 1.56,2.73 -2.6,5.1 -4.16,2.36 -0.66,-1.17 -1.42,-2.25 -2.26,-3.25 -1.87,1.41 -3.52,3.1 -4.87,5.01 1.24,0.49 2.45,1.09 3.64,1.78 2.71,1.59 0.29,5.72 -2.42,4.12 -1.16,-0.67 -2.36,-1.23 -3.59,-1.68 -0.9,2.12 -1.49,4.4 -1.71,6.78 1.32,-0.19 2.67,-0.29 4.03,-0.28 3.15,0.01 3.13,4.8 -0.02,4.78 -1.34,-0.01 -2.66,0.11 -3.94,0.34 0.28,2.37 0.93,4.63 1.89,6.72 1.05,-0.83 2.17,-1.58 3.37,-2.26 2.73,-1.56 5.1,2.6 2.36,4.16 -1.17,0.66 -2.25,1.42 -3.25,2.26 1.41,1.87 3.1,3.52 5.01,4.87 0.49,-1.24 1.09,-2.45 1.78,-3.64 1.59,-2.71 5.72,-0.29 4.12,2.42 -0.67,1.16 -1.23,2.36 -1.68,3.59 2.12,0.9 4.4,1.49 6.78,1.71 -0.19,-1.32 -0.29,-2.67 -0.28,-4.03 0.01,-3.15 4.8,-3.13 4.78,0.02 -0.01,1.34 0.11,2.66 0.34,3.94 2.37,-0.28 4.63,-0.93 6.72,-1.89 -0.83,-1.05 -1.59,-2.17 -2.26,-3.37 -1.56,-2.73 2.6,-5.1 4.16,-2.36 0.66,1.17 1.42,2.25 2.26,3.25 1.87,-1.41 3.52,-3.1 4.87,-5.01 -1.24,-0.49 -2.45,-1.09 -3.64,-1.78 -2.71,-1.59 -0.29,-5.72 2.42,-4.12 1.16,0.67 2.36,1.23 3.59,1.68 0.9,-2.12 1.49,-4.4 1.71,-6.78 -1.32,0.19 -2.67,0.29 -4.03,0.28 -3.15,-0.01 -3.13,-4.8 0.02,-4.78 1.34,0.01 2.66,-0.11 3.94,-0.34 -0.28,-2.37 -0.93,-4.63 -1.89,-6.72 -1.05,0.83 -2.17,1.59 -3.37,2.26 -2.73,1.56 -5.1,-2.6 -2.36,-4.16 1.17,-0.66 2.25,-1.42 3.25,-2.26 -1.41,-1.87 -3.1,-3.52 -5.01,-4.87zm-13.11 11.1c4.07,0 7.38,3.31 7.38,7.38 0,4.06 -3.32,7.38 -7.38,7.38 -4.08,0 -7.38,-3.3 -7.38,-7.38 0,-4.08 3.3,-7.38 7.38,-7.38zm0 4.8c-1.43,0 -2.58,1.15 -2.58,2.58 0,1.43 1.15,2.58 2.58,2.58 1.44,0 2.58,-1.14 2.58,-2.58 0,-1.43 -1.15,-2.58 -2.58,-2.58zm0 -12.27c8.2,0 14.85,6.65 14.85,14.85 0,8.2 -6.65,14.85 -14.85,14.85 -8.2,0 -14.85,-6.65 -14.85,-14.85 0,-8.2 6.65,-14.85 14.85,-14.85zm0 4.8c-5.55,0 -10.05,4.5 -10.05,10.05 0,5.55 4.5,10.05 10.05,10.05 5.55,0 10.05,-4.5 10.05,-10.05 0,-5.55 -4.5,-10.05 -10.05,-10.05z"></path></g></svg>