<svg xmlns="http://www.w3.org/2000/svg" xmlns:xlink="http://www.w3.org/1999/xlink" version="1.1" x="0px" y="0px" viewBox="0 0 100 100"  xml:space="preserve"><path d="M89.9931641,61.7060547c0-4.3157959-0.9749146-8.4070435-2.710083-12.0707397  c1.7103271-3.7158203,2.6785889-7.0907593,2.6817627-9.7954712c0.0024414-2.0986328-0.5688477-3.7353516-1.6977539-4.8642578  c-3.0856934-3.0856934-9.3518677-1.0745239-14.2359619,1.2664795c-0.8540649-0.4154663-1.7312012-0.7907715-2.6303711-1.1201172  C68.7113037,20.5432129,55.9822998,10,40.9790039,10C23.8969727,10,10,23.8974609,10,40.9794922  c0,14.9256592,10.522583,27.6190796,25.1020508,30.4143066c0.3210449,0.87854,0.6837158,1.7370605,1.0870361,2.5725098  C33.8483276,78.8190918,31.8355713,85.0458984,34.902832,88.125c1.2451172,1.25,3.0527344,1.8740234,5.3232422,1.8740234  c2.5576172,0,5.703125-0.7910156,9.2929688-2.3691406c0.1382446-0.060791,0.2786865-0.1289062,0.4176025-0.1916504  c3.583313,1.6437988,7.5628052,2.567627,11.7562256,2.567627c4.1871338,0,8.1608276-0.9211426,11.7399292-2.5600586  c0.1334229,0.0603027,0.2683105,0.1257324,0.4011841,0.184082c3.590332,1.578125,6.7353516,2.3691406,9.2929688,2.3691406  c2.2705078,0,4.0786133-0.6240234,5.3237305-1.8740234c3.0603027-3.0721436,1.0635986-9.2785645-1.2703857-14.1257324  C88.9817505,70.279541,89.9931641,66.1087646,89.9931641,61.7060547z M87.9931641,61.7060547  c0,4.277832-1.0332642,8.3164062-2.8530884,11.8903809c-0.0089111,0.0217285-0.0245361,0.0397949-0.0318604,0.0621338  c-2.5561523,4.9869385-6.6555786,9.053833-11.6676025,11.5675049c-3.2663574-1.5578613-6.6904297-3.6796875-10.1251221-6.2593994  c2.4544067-1.9698486,4.8911743-4.145874,7.2528687-6.4979248c6.6624756-6.6348267,12.1375732-13.9628296,15.5560913-20.4802246  C87.3254395,54.9970703,87.9931641,58.2741089,87.9931641,61.7060547z M35.3930664,61.7060547  c0-3.418335,0.6625366-6.6828613,1.8544312-9.6816406c3.4198608,6.5083008,8.8874512,13.8218994,15.5371704,20.4443359  c2.3616943,2.3520508,4.7984619,4.5280762,7.2528687,6.4979248c-3.4287109,2.5753174-6.8469238,4.6940918-10.1081543,6.2513428  C41.3189087,80.892334,35.3930664,71.980835,35.3930664,61.7060547z M54.1958008,71.0507812  c-6.927063-6.8981323-12.6377563-14.7154541-15.8862915-21.3588867C42.6813354,41.2175903,51.5182495,35.40625,61.6928711,35.40625  c10.161377,0,18.9888306,5.7961426,23.3666992,14.2525024c-3.2457275,6.6506348-8.9633179,14.4822998-15.9023438,21.3920288  c-2.4375,2.4278564-4.953064,4.661377-7.4807129,6.6655273C59.1488647,75.7121582,56.6333008,73.4786377,54.1958008,71.0507812z   M37.2803345,47.4172974c-1.2070923-2.8843384-1.8892822-5.4833374-1.8916626-7.5794067  c-0.0014648-1.5488281,0.3725586-2.7080078,1.1118164-3.4482422c1.5982056-1.59729,5.513855-1.1870117,10.6419067,1.0545654  C43.0802612,39.8895874,39.6835327,43.3272705,37.2803345,47.4172974z M86.8530273,36.3896484  c0.7392578,0.7402344,1.1132812,1.8994141,1.1118164,3.4482422c-0.0023804,2.0879517-0.6798096,4.6752319-1.8780518,7.5462036  c-2.4049072-4.0802612-5.7999268-7.5088501-9.8574829-9.9481812C81.3482666,35.201355,85.2567749,34.793396,86.8530273,36.3896484z   M12,40.9794922C12,25,25,12,40.9790039,12c13.6714478,0,25.3258057,9.3505859,28.244751,22.4315186  c-2.3995972-0.6633911-4.9230957-1.0252686-7.5308838-1.0252686c-4.4269409,0-8.6185913,1.0238647-12.3538208,2.8439331  c-4.8857422-2.3446045-11.1642456-4.3648682-14.2526245-1.2745972c-1.1289062,1.1289062-1.7001953,2.765625-1.6977539,4.8642578  c0.0030518,2.7131958,0.977356,6.1010742,2.6981812,9.8312988c-1.7246704,3.6546021-2.6937866,7.7330322-2.6937866,12.0349121  c0,2.5966797,0.3586426,5.1098633,1.0166626,7.5003662C21.3305664,66.1897583,12,54.5737915,12,40.9794922z M36.3198242,86.7128906  c-1.583252-1.5889893-1.1707764-5.4691162,1.059082-10.546875c2.4945068,4.1784668,6.0354614,7.6590576,10.2576904,10.0864258  C42.34729,88.3795166,38.1630859,88.5644531,36.3198242,86.7128906z M61.6928711,88.0058594  c-3.2992554,0-6.4556885-0.6164551-9.367981-1.7305908c3.0477905-1.5905762,6.2036133-3.6273193,9.3516235-6.0253906  c3.152771,2.4017334,6.3135986,4.4412842,9.3656006,6.0328369C68.1350098,87.392334,64.9849854,88.0058594,61.6928711,88.0058594z   M87.0336914,86.7128906c-1.8413696,1.8481445-6.0188599,1.6663818-11.2974854-0.4528809  c4.2174683-2.4213867,7.7565918-5.8931885,10.2526245-10.0618896  C88.2063599,81.2601318,88.6136475,85.1271973,87.0336914,86.7128906z"></path></svg>