<svg xmlns="http://www.w3.org/2000/svg" xmlns:xlink="http://www.w3.org/1999/xlink" version="1.1" x="0px" y="0px" viewBox="0 0 100 100" enable-background="new 0 0 100 100" xml:space="preserve"><g><path d="M75.982,55.749L54.469,43.329l0.858-1.485c0.353,0.099,0.718,0.153,1.086,0.153c1.441,0,2.785-0.775,3.504-2.023   c1.115-1.929,0.451-4.405-1.479-5.52c-0.613-0.355-1.312-0.542-2.018-0.542c-1.441,0-2.785,0.775-3.504,2.023   c-0.939,1.629-0.601,3.638,0.684,4.898l-0.864,1.497L31.223,29.91c-0.345-0.198-0.755-0.253-1.138-0.149   c-0.385,0.103-0.713,0.354-0.912,0.699c-7.284,12.621-3.33,28.696,8.733,36.562l-9.152,15.852c-0.269,0.464-0.269,1.036,0,1.5   c0.268,0.464,0.763,0.75,1.299,0.75h26.689c0.536,0,1.031-0.286,1.299-0.75c0.269-0.464,0.269-1.036,0-1.5l-6.608-11.444   c0.465,0.024,0.93,0.046,1.396,0.046c0.001,0,0.001,0,0.001,0c9.749,0,18.831-5.241,23.702-13.677   c0.199-0.344,0.253-0.754,0.149-1.138C76.578,56.275,76.327,55.948,75.982,55.749z M54.144,82.123H32.651l7.855-13.608   c2.282,1.156,4.707,1.985,7.203,2.465L54.144,82.123z M52.828,68.475c-4.247,0-8.446-1.13-12.146-3.266   c-11.187-6.458-15.309-20.518-9.62-31.928l42.082,24.293C68.657,64.334,61.007,68.475,52.828,68.475z"></path><path d="M66.812,19.951c4.809,2.777,8.25,7.261,9.688,12.624l0.965-0.259c-1.506-5.621-5.111-10.32-10.152-13.231   c-5.04-2.911-10.912-3.684-16.535-2.178l0.258,0.966C56.399,16.437,62.003,17.174,66.812,19.951z"></path><path d="M70.624,34.154l0.967-0.259c-1.086-4.055-3.686-7.444-7.32-9.544c-3.633-2.098-7.868-2.654-11.924-1.565l0.258,0.966   c3.799-1.021,7.765-0.5,11.166,1.466C67.174,27.183,69.608,30.356,70.624,34.154z"></path><path d="M61.228,29.619c-2.223-1.284-4.817-1.626-7.301-0.959l0.258,0.966c2.227-0.596,4.551-0.292,6.543,0.859   c1.996,1.152,3.424,3.012,4.02,5.237l0.965-0.259C65.048,32.98,63.456,30.905,61.228,29.619z"></path></g></svg>