<svg xmlns="http://www.w3.org/2000/svg" viewBox="0 0 100 100" x="0px" y="0px"><title>Artboard 5</title><g data-name="Layer 3"><path d="M65,50A15,15,0,1,0,50,65,15.017,15.017,0,0,0,65,50ZM50,63A13,13,0,1,1,63,50,13.01442,13.01442,0,0,1,50,63ZM24,50A26,26,0,1,0,50,24,26.02948,26.02948,0,0,0,24,50Zm50,0A24,24,0,1,1,50,26,24.0275,24.0275,0,0,1,74,50ZM31.21,58.19971a1.00221,1.00221,0,0,1-.52,1.32031.95909.95909,0,0,1-.3999.07959A1.00995,1.00995,0,0,1,29.36963,59a.994.994,0,0,1,.52-1.31006A1.0056,1.0056,0,0,1,31.21,58.19971Zm-3.51025-11.21a.99851.99851,0,1,1,.99023,1.12988.58036.58036,0,0,1-.12988-.00977A1.00037,1.00037,0,0,1,27.69971,46.98975ZM28.83984,53.96a.62951.62951,0,0,1-.14014.00977.99918.99918,0,1,1,.99023-1.14014h.00977A1.00989,1.00989,0,0,1,28.83984,53.96Zm5.27979,9A1.00917,1.00917,0,0,1,33.98,64.36963a1.0234,1.0234,0,0,1-.64014.23A1.003,1.003,0,1,1,34.11963,62.96ZM38.19971,66.77a.9938.9938,0,0,1,.24023,1.38965.96928.96928,0,0,1-.81006.41992,1.041,1.041,0,0,1-.58008-.17969A.99735.99735,0,0,1,38.19971,66.77ZM63.93994,34.96973A1.00119,1.00119,0,0,1,65.2998,33.5a1.00814,1.00814,0,0,1,.0498,1.41992,1.01592,1.01592,0,0,1-1.40967.0498Zm-34.6001,6.10986A.99671.99671,0,1,1,30.25,42.48a1.09039,1.09039,0,0,1-.39014-.08008A1.00139,1.00139,0,0,1,29.33984,41.07959ZM67.48,39.27979a.99889.99889,0,1,1,1.36963.33008.97745.97745,0,0,1-.52.1499A1.00031,1.00031,0,0,1,67.48,39.27979Zm1.75,22.41016a1.0047,1.0047,0,0,1-.86035.48.975.975,0,0,1-.50977-.1499A1.00071,1.00071,0,1,1,69.23,61.68994ZM49.5498,71.52a.98721.98721,0,0,1-.98975.92969h-.07031A.997.997,0,1,1,49.5498,71.52ZM43.77,70.60986a1.01076,1.01076,0,0,1-.9502.66016.94607.94607,0,0,1-.33008-.05029A1.00267,1.00267,0,1,1,43.77,70.60986ZM58.93994,30.41992A.98956.98956,0,0,1,60.27979,29.98H60.29a1.00846,1.00846,0,0,1,.42969,1.34961.99274.99274,0,0,1-.89014.54.94611.94611,0,0,1-.46-.10986A.99446.99446,0,0,1,58.93994,30.41992ZM53.32959,28.73a1.00041,1.00041,0,1,1,1.96045.3999,1.01258,1.01258,0,0,1-.98.7998,1.20293,1.20293,0,0,1-.2002-.02A.9944.9944,0,0,1,53.32959,28.73ZM71.5,48.90967a.99662.99662,0,0,1,1,1V50a1,1,0,0,1-2,0v-.08008A.9989.9989,0,0,1,71.5,48.90967ZM36.73975,33.0498A1.00751,1.00751,0,0,1,36.98,31.6499a.99735.99735,0,0,1,1.1499,1.62988.93133.93133,0,0,1-.56982.18994A1.01449,1.01449,0,0,1,36.73975,33.0498Zm18.62988,37.7998a.99507.99507,0,0,1-.77,1.18018,1.448,1.448,0,0,1-.21.02,1.00124,1.00124,0,0,1-.19971-1.98A1.00177,1.00177,0,0,1,55.36963,70.84961ZM60.79,68.62988a1.00578,1.00578,0,0,1-.88037,1.46,1.012,1.012,0,0,1-.88965-.54.9974.9974,0,1,1,1.77-.91992Zm-18.99023-38.54a.98317.98317,0,0,1,.6001-1.27.99949.99949,0,1,1,.67969,1.87988.9938.9938,0,0,1-1.27979-.60986Zm5.66992-1.47021A.99758.99758,0,1,1,48.54,29.5498h-.07031A.99669.99669,0,0,1,47.46973,28.61963Zm24.2002,27.4502a.99345.99345,0,0,1-.96.73.833.833,0,0,1-.27-.04.99644.99644,0,0,1-.68994-1.23.99726.99726,0,1,1,1.91992.54ZM65.40967,65.02a1.00736,1.00736,0,0,1-.04,1.41992,1.00352,1.00352,0,0,1-1.41992-.05029,1.00095,1.00095,0,0,1,1.46-1.36963Zm4.31006-20.63037a1.00348,1.00348,0,1,1,1.24023.68994,1.26239,1.26239,0,0,1-.27.04A1.01423,1.01423,0,0,1,69.71973,44.38965ZM32.65967,37.25a.999.999,0,1,1,1.26025-1.55029.98826.98826,0,0,1,.14014,1.3999.957.957,0,0,1-.77.37012A.97013.97013,0,0,1,32.65967,37.25ZM46.98,68.23975a.98943.98943,0,0,1-.16992-.00977,1.01207,1.01207,0,0,1-.82031-1.16016A.99966.99966,0,1,1,46.98,68.23975ZM52,32.57959A.99946.99946,0,1,1,52.98975,33.75a.89048.89048,0,0,1-.16992-.01025A1.00631,1.00631,0,0,1,52,32.57959ZM66.5,50v-.07031a1,1,0,0,1,2-.00977V50a1,1,0,0,1-2,0ZM59.25977,66.02a1.01341,1.01341,0,0,1-1.37012-.37012A.99845.99845,0,0,1,58.25977,64.29a.98418.98418,0,0,1,1.35986.35986A.99836.99836,0,0,1,59.25977,66.02ZM34.48,44.38965a.99806.99806,0,0,1-.93994.66016.97568.97568,0,0,1-.34033-.06006.99957.99957,0,1,1,1.28027-.6001Zm28.11963-5.04a1.00058,1.00058,0,1,1,1.41016.12012.9876.9876,0,0,1-.64014.23A1.01348,1.01348,0,0,1,62.59961,39.34961Zm1.58008,22.54a1.02785,1.02785,0,0,1-.77.3501.94964.94964,0,0,1-.63965-.23.99121.99121,0,0,1-.12012-1.41016h-.01025a1.00451,1.00451,0,0,1,1.54,1.29Zm-6.3501-27.56982a.99471.99471,0,1,1,.37012,1.35986A1.002,1.002,0,0,1,57.82959,34.31982ZM53.23,68.21973a1.06236,1.06236,0,0,1-.18018.01025A.99793.99793,0,1,1,54.04,67.06006,1.01247,1.01247,0,0,1,53.23,68.21973Zm12.84961-25.21A1.00133,1.00133,0,0,1,66.77,44.88965a1.01683,1.01683,0,0,1-.34033.06006,1.00112,1.00112,0,0,1-.3501-1.93994Zm-25.73-7.64014A.99825.99825,0,0,1,40.71,34a.98649.98649,0,0,1,1.35986.35986A.99878.99878,0,0,1,41.71,35.73a1.01131,1.01131,0,0,1-.5.12988A.98089.98089,0,0,1,40.34961,35.36963ZM34.5,55.66992a1.01186,1.01186,0,0,1-.59033,1.29,1.07012,1.07012,0,0,1-.34961.06006A1.0005,1.0005,0,1,1,34.5,55.66992Zm32.88965.65967a1.00178,1.00178,0,0,1-.93994.65039,1.01407,1.01407,0,0,1-.33984-.06006.99425.99425,0,0,1-.6001-1.28027,1.00125,1.00125,0,1,1,1.87988.68994ZM32.5,51.04a1,1,0,0,1,0-2,.98794.98794,0,0,1,1,.98975A1.012,1.012,0,0,1,32.5,51.04ZM35.92969,39.5498a1.00468,1.00468,0,1,1,.64014.23A.95174.95174,0,0,1,35.92969,39.5498Zm10-6.6001A.987.987,0,0,1,46.73975,31.79a.99725.99725,0,0,1,1.16016.80957,1.0127,1.0127,0,0,1-.81006,1.16016,1.06236,1.06236,0,0,1-.18018.01025A.9966.9966,0,0,1,45.92969,32.94971ZM37.25,62.02979a.9781.9781,0,0,1-1.40039-.12012h-.00977A1.00867,1.00867,0,0,1,35.96,60.5a1.02037,1.02037,0,0,1,1.41992.11963l-.01025.01025A.97836.97836,0,0,1,37.25,62.02979Zm4.02,4.14014a1.00424,1.00424,0,1,1,.85986-.5A.9911.9911,0,0,1,41.27,66.16992Zm8.54-46.18018a1.00319,1.00319,0,0,1,1,1,.98392.98392,0,0,1-.29.7002.96032.96032,0,0,1-.7002.2998c-.9502.01025-1.93018.06006-2.89014.16016a.45886.45886,0,0,1-.10986.00977A1.00571,1.00571,0,0,1,46.04,20.52979a.95691.95691,0,0,1,.66992-.35986C47.73,20.06006,48.77,20,49.81006,19.98975Zm11.7998,58.68994a1.02808,1.02808,0,0,1-.02.77.98568.98568,0,0,1-.56006.52,1.03751,1.03751,0,0,1-.3501.07031,1.00347,1.00347,0,0,1-.35986-1.94043A1.02349,1.02349,0,0,1,61.60986,78.67969Zm-.68018-56.68994a31.13783,31.13783,0,0,1,6.41016,3.31006.99921.99921,0,0,1,.27,1.39014.99254.99254,0,0,1-1.37988.27,29.92331,29.92331,0,0,0-6-3.1001,1.00371,1.00371,0,0,1-.59033-1.29A1.02349,1.02349,0,0,1,60.92969,21.98975Zm-26.3501,3.25a1.00452,1.00452,0,0,1-.08984-.75977,1.00324,1.00324,0,0,1,1.83984-.21,1.013,1.013,0,0,1,.09033.75977,1.02878,1.02878,0,0,1-.48.6001,1.04683,1.04683,0,0,1-.48.12988A1.00564,1.00564,0,0,1,34.57959,25.23975ZM19.00977,52.07959c-.00977-.33984-.02-.68994-.02-1.06982,0-.68018.02-1.35986.07031-2.02979a.99775.99775,0,0,1,1.05957-.93018.99191.99191,0,0,1,.93018,1.06982q-.06006.93018-.06006,1.89014c0,.31006.01025.6499.02,1.01025A1.007,1.007,0,0,1,20.04,53.0498h-.03027A1.00372,1.00372,0,0,1,19.00977,52.07959ZM68.73,75.71a.98435.98435,0,0,1-.61035.21,1.015,1.015,0,0,1-.98975-1.14014,1.0073,1.0073,0,0,1,.39014-.66016,1.02949,1.02949,0,0,1,1.3999.19043A1.01057,1.01057,0,0,1,68.73,75.71ZM27.16992,33.09961a29.56729,29.56729,0,0,0-3.51025,5.77,1.00488,1.00488,0,0,1-.90967.58008,1.05944,1.05944,0,0,1-.42041-.08984.98644.98644,0,0,1-.51953-.56006,1.02518,1.02518,0,0,1,.02979-.77,31.54283,31.54283,0,0,1,3.75977-6.16016A1.01973,1.01973,0,0,1,27,31.69971a.98683.98683,0,0,1,.16992,1.3999Zm51.75,15.66016c-.07031-.93994-.2002-1.91016-.37012-2.87988a.99759.99759,0,0,1,.81006-1.16016,1.01827,1.01827,0,0,1,1.16016.81006c.17969,1.01025.30957,2.0498.38965,3.06982a.99913.99913,0,0,1-.91992,1.08008h-.06982A1.00233,1.00233,0,0,1,78.91992,48.75977Zm-55.22021,14.46a1.0233,1.0233,0,0,1,.03027.77.995.995,0,0,1-.93994.6499,1.01678,1.01678,0,0,1-.91016-.57959,1.00262,1.00262,0,0,1-.03027-.76025.99983.99983,0,0,1,1.8501-.08008ZM75.98,34.07959a.99969.99969,0,0,1-.29,1.38037.95026.95026,0,0,1-.54.15967.99619.99619,0,1,1,.83008-1.54ZM35.06006,78.15967A31.50443,31.50443,0,0,1,29.17969,73.98a1.00634,1.00634,0,0,1-.06982-1.41016A1.02765,1.02765,0,0,1,30.52979,72.5a28.99533,28.99533,0,0,0,5.5,3.90967.01.01,0,0,0,.01025.01025.971.971,0,0,1,.46.58984.96068.96068,0,0,1-.08008.76025,1.00642,1.00642,0,0,1-.87988.52A1.04589,1.04589,0,0,1,35.06006,78.15967ZM49.90967,81.02a1.00112,1.00112,0,0,1-.98975.96973h-.04c-1.03027-.04-2.06982-.12988-3.08984-.27a1.00537,1.00537,0,0,1-.66016-.39014.9812.9812,0,0,1-.18994-.73975.9982.9982,0,0,1,1.12012-.8501c.94971.12988,1.92969.21,2.88965.25A.99481.99481,0,0,1,49.90967,81.02ZM75.5,66.83984a1.00143,1.00143,0,0,1-.37012-1.37012A29.14769,29.14769,0,0,0,77.7998,59.27,1.00919,1.00919,0,0,1,79.04,58.59961a.91912.91912,0,0,1,.58984.48.9634.9634,0,0,1,.08008.76025,30.846,30.846,0,0,1-2.8501,6.62988.98746.98746,0,0,1-.85986.5A.9583.9583,0,0,1,75.5,66.83984ZM18.22607,67.94336a35.87274,35.87274,0,0,1-2.76172-6.77344.99984.99984,0,1,1,1.91895-.5625,33.91761,33.91761,0,0,0,2.60742,6.39551.9998.9998,0,1,1-1.76465.94043Zm1.21045-35.9668a36.276,36.276,0,0,1,4.47266-5.78564.99988.99988,0,0,1,1.4502,1.377,34.3043,34.3043,0,0,0-4.22559,5.46631.99991.99991,0,1,1-1.69727-1.05762ZM14.99121,51.88428a.99963.99963,0,0,1,1.05371.94336,34.42929,34.42929,0,0,0,.61523,4.84033,1.02773,1.02773,0,0,1-.77344,1.207,1.08416,1.08416,0,0,1-.21484.022.96254.96254,0,0,1-.9585-.76562c-.00049-.00488-.01416-.07129-.01514-.07568a36.38567,36.38567,0,0,1-.65039-5.11768A1,1,0,0,1,14.99121,51.88428ZM26.08057,25.42236a1.00035,1.00035,0,0,1,.08643-1.41162,35.97483,35.97483,0,0,1,4.15674-3.16943,1.00016,1.00016,0,0,1,1.09375,1.6748,33.89313,33.89313,0,0,0-3.92529,2.99268,1.00012,1.00012,0,0,1-1.41162-.08643ZM61.437,16.85889a36.10375,36.10375,0,0,1,4.82373,2.02148.99992.99992,0,1,1-.90527,1.7832,34.18153,34.18153,0,0,0-4.55518-1.90918.9998.9998,0,1,1,.63672-1.89551ZM18.44971,38.31494A33.98541,33.98541,0,0,0,17.1875,42.062a1.001,1.001,0,0,1-.96436.73682,1.01141,1.01141,0,0,1-.26416-.03564,1.00045,1.00045,0,0,1-.70117-1.22852,36.22948,36.22948,0,0,1,1.33643-3.9668,1.00011,1.00011,0,0,1,1.85547.74707ZM51.10547,17.01025a1,1,0,1,1,.0625-1.999,35.77624,35.77624,0,0,1,7.252.97852,1,1,0,0,1-.46875,1.94434A33.78736,33.78736,0,0,0,51.10547,17.01025ZM49.79932,86.02051a1.00022,1.00022,0,0,1-.999.9668l-.03369-.00049a35.83738,35.83738,0,0,1-7.251-.9917,1,1,0,0,1,.47266-1.94336,33.80345,33.80345,0,0,0,6.84473.936A1.00006,1.00006,0,0,1,49.79932,86.02051Zm-3.7627-69.812a.99984.99984,0,0,1-.84717,1.13232q-.92725.134-1.85791.31934-1.02173.20508-2.01807.46729a1.00018,1.00018,0,0,1-.50879-1.93457q1.05249-.27686,2.13477-.49365.98364-.197,1.96484-.33789A1.00322,1.00322,0,0,1,46.03662,16.2085Zm-21.61816,60.127a36.09592,36.09592,0,0,1-2.76855-3.13574.99985.99985,0,0,1,1.57324-1.23437,34.02068,34.02068,0,0,0,2.61523,2.96094,1.00025,1.00025,0,0,1-1.41992,1.40918Zm51.1167-50.71729a36.03192,36.03192,0,0,1,2.77441,3.13037,1,1,0,1,1-1.57129,1.2373,34.1019,34.1019,0,0,0-2.62012-2.95654.9999.9999,0,0,1,1.417-1.41113Zm8.49023,33.68018a1.00042,1.00042,0,0,1,.69922,1.22949,36.09642,36.09642,0,0,1-1.34424,3.96436.99994.99994,0,0,1-1.85352-.751,34.072,34.072,0,0,0,1.269-3.74365A1.0003,1.0003,0,0,1,84.02539,59.29834ZM74.59766,74.47705a34.23626,34.23626,0,0,0,4.23535-5.4585A1.00027,1.00027,0,0,1,80.5293,70.0791a36.27686,36.27686,0,0,1-4.4834,5.77783,1.00019,1.00019,0,1,1-1.44824-1.37988ZM85.95605,49.127a.99989.99989,0,0,1-.94531,1.05176q-.0271.00146-.0542.00146a.99961.99961,0,0,1-.99756-.94678,34.44572,34.44572,0,0,0-.61914-4.90137l-.02539-.12451a.99992.99992,0,0,1,1.96094-.39258l.02344.11377A36.531,36.531,0,0,1,85.95605,49.127ZM59.84668,84.60352a.9991.9991,0,0,1-.71436,1.22021q-1.02173.26733-2.07227.47705-1.01514.20361-2.02881.34717a.99976.99976,0,1,1-.28223-1.97949q.958-.137,1.91895-.32861.99316-.19849,1.9585-.45068A.999.999,0,0,1,59.84668,84.60352Zm13.937-6.57031a35.9768,35.9768,0,0,1-4.16309,3.16113.99991.99991,0,0,1-1.08984-1.67676,33.98925,33.98925,0,0,0,3.93066-2.98535,1.00016,1.00016,0,1,1,1.32227,1.501Zm-35.2832,7.0874a36.19077,36.19077,0,0,1-4.81934-2.02979.99992.99992,0,1,1,.90723-1.78223,34.19189,34.19189,0,0,0,4.55273,1.91748,1,1,0,1,1-.64062,1.89453ZM79.98,34.94238a1.00006,1.00006,0,1,1,1.76367-.94336,35.91371,35.91371,0,0,1,2.77393,6.76758.99993.99993,0,1,1-1.918.56641A33.935,33.935,0,0,0,79.98,34.94238Zm-69.29,5.42725a1.00465,1.00465,0,0,1-.09033-.75977,42.34208,42.34208,0,0,1,2.59033-6.68018,1.02388,1.02388,0,0,1,1.33984-.46,1.00607,1.00607,0,0,1,.46,1.34033,38.34382,38.34382,0,0,0-2.46,6.35986,1.02,1.02,0,0,1-.96973.71973,1.2534,1.2534,0,0,1-.27-.04A1.027,1.027,0,0,1,10.68994,40.36963ZM62.52,11.94971a.99808.99808,0,0,1-.30029,1.9502,1.06368,1.06368,0,0,1-.31006-.04,1.02284,1.02284,0,0,1-.58008-.5.96206.96206,0,0,1-.05957-.76025A1,1,0,0,1,62.52,11.94971Zm-44.71,64.46a.9857.9857,0,0,1,.16992-1.3999,1.02734,1.02734,0,0,1,1.3999.16016,38.54455,38.54455,0,0,0,4.68018,4.96A.998.998,0,0,1,24.13965,81.54a.98127.98127,0,0,1-.75.33984,1.00191,1.00191,0,0,1-.65967-.25A41.125,41.125,0,0,1,17.81006,76.40967ZM31.60986,86.54a1.00882,1.00882,0,0,1,1.33984-.46045c.87012.42041,1.77.82031,2.66992,1.18018A1.0004,1.0004,0,0,1,35.25,89.18994a1.15464,1.15464,0,0,1-.37012-.07031c-.9502-.37988-1.8999-.7998-2.81006-1.25A.99934.99934,0,0,1,31.60986,86.54ZM29.43994,16.65967a1.00081,1.00081,0,0,1,.37988-1.35986c.8999-.5,1.81982-.98,2.73-1.41016a1.02942,1.02942,0,0,1,1.33008.48.994.994,0,0,1-.48,1.33008c-.85986.41016-1.73.86035-2.6001,1.34033a.94763.94763,0,0,1-.48975.12988A.9913.9913,0,0,1,29.43994,16.65967ZM11.75,65.77979v-.02A.95468.95468,0,0,1,11.77,65a.98637.98637,0,0,1,.5498-.53027,1.0386,1.0386,0,0,1,1.2998.58008,1.00546,1.00546,0,0,1-.57959,1.29,1.04906,1.04906,0,0,1-.36035.06982A1.03553,1.03553,0,0,1,11.75,65.77979ZM42.62988,10.96a1.03489,1.03489,0,0,1,.6499-.41016A40.40691,40.40691,0,0,1,50.23,9.98975h.19971A1.00519,1.00519,0,0,1,50.41992,12c-.14014-.01025-.26025-.01025-.37988-.01025a38.32368,38.32368,0,0,0-6.43018.54.83834.83834,0,0,1-.16016.01025.99935.99935,0,0,1-.98975-.84033A1.02581,1.02581,0,0,1,42.62988,10.96ZM20.21973,24.27a.99133.99133,0,0,1-.0498-1.41016,1.03673,1.03673,0,0,1,1.41992-.0498,1.04992,1.04992,0,0,1,.31006.69971,1.03868,1.03868,0,0,1-.26025.71c-.00977,0-.00977,0-.00977.01025a.9987.9987,0,0,1-.73.31006A.98722.98722,0,0,1,20.21973,24.27Zm-11.12988,29.54c-.06006-.97021-.1001-1.93018-.1001-2.8501v-.23a1.00115,1.00115,0,0,1,1-.99023.99018.99018,0,0,1,1,1V50.96c0,.90967.04,1.81982.1001,2.71A.99741.99741,0,0,1,10.15967,54.73a.1731.1731,0,0,1-.06982.00977A1.01121,1.01121,0,0,1,9.08984,53.81006ZM85.69971,71.15967c-.06982.12012-.12988.23-.18994.34033a1.00337,1.00337,0,0,1-.87012.5,1.09533,1.09533,0,0,1-.5-.13037A1.00746,1.00746,0,0,1,83.77,70.50977V70.5l.05957-.09033c.04-.06982.08008-.1499.12012-.21973a.01.01,0,0,1,.01025-.01025,1.02959,1.02959,0,0,1,1.35986-.37988A1.00175,1.00175,0,0,1,85.69971,71.15967Zm-2.1001-43.66992a40.27466,40.27466,0,0,1,3.57031,6.21,1.00532,1.00532,0,0,1-.48,1.33008,1.05893,1.05893,0,0,1-.41992.08984,1.006,1.006,0,0,1-.91016-.57959A39.21394,39.21394,0,0,0,81.96,28.62988a1.04121,1.04121,0,0,1-.16992-.75,1.0004,1.0004,0,0,1,.41992-.64014A1.01742,1.01742,0,0,1,83.59961,27.48975ZM77.91992,79.66992a.9702.9702,0,0,1,.27.71973.95648.95648,0,0,1-.32031.68994c-.73975.69043-1.52,1.37012-2.32959,2.01025a1.02062,1.02062,0,0,1-.62012.22021A1.00486,1.00486,0,0,1,74.29,81.52c.77-.61035,1.50977-1.25,2.21-1.89014l.00977-.01025A1.01506,1.01506,0,0,1,77.91992,79.66992Zm-31.1001,12.21a.993.993,0,0,1-.91992-1.06982,1.01178,1.01178,0,0,1,1.06982-.92041H46.98a1.002,1.002,0,0,1-.09033,2A.1731.1731,0,0,1,46.81982,91.87988ZM87.8999,60.23975c.21973-.91992.41992-1.87988.58008-2.8501v-.00977a1.00346,1.00346,0,0,1,1.1499-.81982.93583.93583,0,0,1,.6499.3999.98546.98546,0,0,1,.18018.73975c-.16992,1.02-.38037,2.03027-.62012,3.02a.99922.99922,0,1,1-1.93994-.48ZM88.63965,45.73A1.00483,1.00483,0,0,1,89.5,44.59961a.99916.99916,0,0,1,.27,1.98.64767.64767,0,0,1-.14014.01025A1.00965,1.00965,0,0,1,88.63965,45.73ZM65.85986,88.81006A41.33737,41.33737,0,0,1,59.04,90.98975a.823.823,0,0,1-.22021.02,1.006,1.006,0,0,1-.98-.77,1.01661,1.01661,0,0,1,.12988-.75977.98409.98409,0,0,1,.62988-.43994A39.54056,39.54056,0,0,0,65.08984,86.96a1.01651,1.01651,0,0,1,1.31006.54A1.0048,1.0048,0,0,1,65.85986,88.81006ZM73.5,17.3999c.83984.58984,1.66992,1.21,2.44971,1.8501a.95749.95749,0,0,1,.36035.66992.99052.99052,0,0,1-.99023,1.1001.95017.95017,0,0,1-.62988-.22021c-.75-.60986-1.54-1.2002-2.34033-1.75977a1.00781,1.00781,0,0,1-.25-1.39014A1.02891,1.02891,0,0,1,73.5,17.3999ZM38.31006,95.19971a.99118.99118,0,0,1,1.08984-1.48,44.09914,44.09914,0,0,0,7.06982,1.14014.99394.99394,0,0,1,.91016,1.08008,1.001,1.001,0,0,1-.99023.91992.18788.18788,0,0,1-.07959-.01025,46.58384,46.58384,0,0,1-7.39014-1.18994A1.00772,1.00772,0,0,1,38.31006,95.19971ZM26.52979,12.58984a.98753.98753,0,0,1,.35986-1.37012,1.00426,1.00426,0,0,1,1.47021,1.12012,1.025,1.025,0,0,1-.47021.60986h-.00977a.94346.94346,0,0,1-.49023.12988A.99957.99957,0,0,1,26.52979,12.58984ZM73.38965,89.46a.96089.96089,0,0,1,.1001.75977.97283.97283,0,0,1-.46.60986.9541.9541,0,0,1-.5.13037.98874.98874,0,0,1-.96973-1.25.99782.99782,0,0,1,.46973-.61035A1.01348,1.01348,0,0,1,73.38965,89.46ZM28.0498,89.13965a1.001,1.001,0,0,1-.5,1.87012,1.09322,1.09322,0,0,1-.5-.12988,1.0283,1.0283,0,0,1-.47021-.60986,1.01181,1.01181,0,0,1,.11035-.76025A1.02633,1.02633,0,0,1,28.0498,89.13965ZM71.5,11.44971a1.02628,1.02628,0,0,1,1.36963-.37012.99871.99871,0,0,1-.5,1.86035.96072.96072,0,0,1-.5-.12988A.99887.99887,0,0,1,71.5,11.44971ZM61.8999,94.41992a1.01242,1.01242,0,0,1-.12012.75977.93576.93576,0,0,1-.60986.4502c-1.02.25977-2.07031.48-3.14014.66992a1.08519,1.08519,0,0,1-.16992.02,1.00308,1.00308,0,0,1-.18018-1.99023c1.01025-.17969,2.02-.38965,3.01025-.63965A1.02025,1.02025,0,0,1,61.8999,94.41992ZM38.00977,7.59961a1.02512,1.02512,0,0,1,.10986-.75.99541.99541,0,0,1,.62012-.46c1.01025-.25977,2.06006-.48,3.12988-.66992a.99426.99426,0,0,1,1.16016.81006.9749.9749,0,0,1-.16016.74023.95284.95284,0,0,1-.63965.40967c-1.01025.18018-2.02.3999-3,.6499a1.0673,1.0673,0,0,1-.25.03027A.995.995,0,0,1,38.00977,7.59961ZM96,50.81006a.32958.32958,0,0,1-.01025.09961A.1914.1914,0,0,1,96,50.98975V51a1,1,0,0,1-2,0v-.2002a.94335.94335,0,0,1,.29-.68994.99719.99719,0,0,1,1.71.7002ZM52.75977,6.79a1,1,0,0,1,.83008-1.65039A45.71438,45.71438,0,0,1,60.98,6.31982a.97877.97877,0,0,1,.61963.4502.96625.96625,0,0,1,.11035.75977.99439.99439,0,0,1-1.21.73,45.14574,45.14574,0,0,0-7.06006-1.12988A.97631.97631,0,0,1,52.75977,6.79ZM14.92969,79.21973a1.01848,1.01848,0,0,1,1.41016.12012c.6499.77,1.33984,1.54,2.06006,2.27a1.008,1.008,0,0,1-.03027,1.41992.97412.97412,0,0,1-.68994.28027,1.00515,1.00515,0,0,1-.71973-.30029c-.73-.75977-1.46-1.56006-2.1499-2.39014a.99363.99363,0,0,1,.11963-1.3999ZM89.71,32.00977a1.00176,1.00176,0,0,1-.05029-.75977.976.976,0,0,1,.52-.57031,1.0225,1.0225,0,0,1,1.33008.47021,47.24931,47.24931,0,0,1,2.66992,6.98975,1.00326,1.00326,0,0,1-.08984.76025.94176.94176,0,0,1-.58984.48.95468.95468,0,0,1-.28027.04.99957.99957,0,0,1-.96-.72021A44.10788,44.10788,0,0,0,89.71,32.00977ZM93.5498,62.43994a.978.978,0,0,1,.68018,1.23c-.29,1.02979-.62012,2.0498-.99023,3.0498a.99256.99256,0,0,1-.93994.66016,1.01407,1.01407,0,0,1-.33984-.06006.97018.97018,0,0,1-.56006-.50977.98437.98437,0,0,1-.04-.77c.3501-.9502.66992-1.93018.9502-2.92041A1.01816,1.01816,0,0,1,93.5498,62.43994ZM6,51.08984a1,1,0,1,1-2,.00977,1,1,0,0,1,2-.00977Zm75.54-30.77a.9411.9411,0,0,1-.28027-.71.95889.95889,0,0,1,.30029-.7002,1.00517,1.00517,0,0,1,1.40967.02c.76025.77,1.48,1.57031,2.16016,2.37012a1.01749,1.01749,0,0,1,.23.73.94885.94885,0,0,1-.3501.68018,1.01627,1.01627,0,0,1-.64014.23975.99337.99337,0,0,1-.77-.35986C82.94971,21.81982,82.25977,21.06006,81.54,20.31982Zm6.0498,55.43994a1.0004,1.0004,0,0,1,.41992.64014.98737.98737,0,0,1-.16016.75,47.70978,47.70978,0,0,1-4.73975,5.79.98325.98325,0,0,1-.72021.2998.99486.99486,0,0,1-.71973-1.68994,44.54289,44.54289,0,0,0,4.52979-5.54A1.03591,1.03591,0,0,1,87.58984,75.75977ZM9.34961,71.32959a.99244.99244,0,0,1-.8999-.56982A45.46371,45.46371,0,0,1,5.7998,63.77.9835.9835,0,0,1,6.48,62.52979,1.02262,1.02262,0,0,1,7.71973,63.21a42.51077,42.51077,0,0,0,2.54,6.68994,1.0746,1.0746,0,0,1,.04.77.98715.98715,0,0,1-.52.56006A.90815.90815,0,0,1,9.34961,71.32959Zm3-45.00977a1.00514,1.00514,0,0,1-.25-1.39014,46.07825,46.07825,0,0,1,4.73-5.7998,1.02527,1.02527,0,0,1,1.41016-.03027,1.04981,1.04981,0,0,1,.31006.7002A1.00518,1.00518,0,0,1,18.27,20.52a44.59092,44.59092,0,0,0-4.53027,5.54.98712.98712,0,0,1-1.39014.25977ZM5.73975,38.41992c.29-1.02.62012-2.05029.98-3.05029a1.02067,1.02067,0,0,1,1.29-.59961,1.00963,1.00963,0,0,1,.6001,1.27979c-.3501.93994-.66016,1.93018-.9502,2.91992a.99534.99534,0,0,1-.96.73,1.26239,1.26239,0,0,1-.27-.04A1.00775,1.00775,0,0,1,5.73975,38.41992Z"></path></g></svg>