<svg xmlns="http://www.w3.org/2000/svg" viewBox="0 0 100 100" x="0px" y="0px"><title>galaxy,galaxy education</title><g data-name="Layer 1"><polygon points="36.01 14.37 37.53 13.62 39.22 13.64 38.97 11.97 39.52 10.37 37.85 10.09 36.5 9.08 35.72 10.57 34.34 11.54 35.52 12.75 36.01 14.37"></polygon><polygon points="58.11 87.16 56.76 86.14 55.97 87.64 54.59 88.61 55.77 89.82 56.27 91.44 57.78 90.69 59.47 90.71 59.23 89.04 59.77 87.44 58.11 87.16"></polygon><path d="M50.82,58.25a8.28,8.28,0,0,0,5.72-13.33l2.36-2.34a1,1,0,1,0-1.4-1.42L55.13,43.5a8.28,8.28,0,0,0-13.38,7.32,8.22,8.22,0,0,0,1.71,4.26L41.1,57.42a1,1,0,0,0,0,1.42,1,1,0,0,0,.71.29,1,1,0,0,0,.7-.29l2.37-2.34A8.27,8.27,0,0,0,50,58.29C50.27,58.29,50.54,58.27,50.82,58.25Zm-7.08-7.63a6.3,6.3,0,0,1,5.64-6.88l.62,0a6.3,6.3,0,0,1,3.7,1.21l-8.81,8.74A6.36,6.36,0,0,1,43.74,50.62Zm2.57,4.45,8.8-8.73a6.28,6.28,0,0,1-4.49,9.92A6.27,6.27,0,0,1,46.31,55.07Z"></path><path d="M49,67.25a1,1,0,0,0,.47-.12c.82-.43,1.66-.91,2.48-1.43A1,1,0,1,0,50.86,64c-.78.49-1.57.94-2.35,1.35A1,1,0,0,0,49,67.25Z"></path><path d="M61.84,56.68a1,1,0,0,0,.76-.36c.62-.73,1.21-1.48,1.77-2.24a1,1,0,0,0-.22-1.4,1,1,0,0,0-1.39.22c-.54.72-1.1,1.44-1.69,2.14a1,1,0,0,0,.12,1.41A1.05,1.05,0,0,0,61.84,56.68Z"></path><path d="M59.5,59.68q.61-.61,1.2-1.23a1,1,0,1,0-1.45-1.37c-.37.39-.76.78-1.15,1.17l-.78.75a1,1,0,0,0,0,1.41,1,1,0,0,0,1.41.05Z"></path><path d="M33,54.65c.32-.8.69-1.63,1.1-2.46a1,1,0,1,0-1.78-.9c-.45.88-.84,1.77-1.18,2.63a1,1,0,0,0,.56,1.3,1,1,0,0,0,.37.07A1,1,0,0,0,33,54.65Z"></path><path d="M33.71,48.79A1,1,0,0,0,34,50.16a1,1,0,0,0,1.37-.33c.47-.76,1-1.52,1.5-2.27a1,1,0,0,0-1.62-1.16C34.73,47.18,34.2,48,33.71,48.79Z"></path><path d="M65.13,52.18a1,1,0,0,0,.85-.46c.52-.83,1-1.66,1.44-2.49a1,1,0,1,0-1.77-.93c-.41.78-.87,1.57-1.36,2.35A1,1,0,0,0,64.6,52,1,1,0,0,0,65.13,52.18Z"></path><path d="M37.79,45.76a1,1,0,0,0,.78-.37c.57-.69,1.17-1.38,1.79-2A1,1,0,1,0,38.89,42c-.64.7-1.27,1.42-1.87,2.15a1,1,0,0,0,.77,1.63Z"></path><path d="M63.62,32.12a1.07,1.07,0,0,0,.25,0,1,1,0,0,0,1-.75,1,1,0,0,0-.72-1.22,12.07,12.07,0,0,0-3-.35H61.1a1,1,0,0,0-1,1,1,1,0,0,0,1,1A9.54,9.54,0,0,1,63.62,32.12Z"></path><path d="M49.64,34.5a1,1,0,0,0,.88.52A.93.93,0,0,0,51,34.9c.81-.44,1.63-.84,2.43-1.2a1,1,0,0,0-.81-1.83c-.85.38-1.72.81-2.58,1.28A1,1,0,0,0,49.64,34.5Z"></path><path d="M46.06,66.51a23.32,23.32,0,0,1-2.52.91,1,1,0,0,0,.28,2,1,1,0,0,0,.29,0,28.82,28.82,0,0,0,2.72-1,1,1,0,0,0-.77-1.85Z"></path><path d="M45,37.65a1,1,0,0,0,.81.4,1,1,0,0,0,.59-.2c.74-.55,1.49-1.07,2.24-1.56a1,1,0,1,0-1.09-1.67c-.79.51-1.57,1.06-2.34,1.63A1,1,0,0,0,45,37.65Z"></path><path d="M41,68a13.61,13.61,0,0,1-2.59.15,1,1,0,0,0-1,1,1,1,0,0,0,1,1h.56A15.62,15.62,0,0,0,41.25,70a1,1,0,1,0-.3-2Z"></path><path d="M58.15,30.12a23.06,23.06,0,0,0-2.83.72,1,1,0,0,0,.31,1.95.87.87,0,0,0,.31,0,22.62,22.62,0,0,1,2.57-.66,1,1,0,1,0-.36-2Z"></path><path d="M41.58,41.67a1.05,1.05,0,0,0,.7-.28c.65-.63,1.33-1.25,2-1.84A1,1,0,0,0,43,38c-.71.61-1.42,1.26-2.11,1.91a1,1,0,0,0,0,1.42A1,1,0,0,0,41.58,41.67Z"></path><path d="M55.27,60.81c-.71.58-1.43,1.14-2.16,1.67a1,1,0,0,0-.22,1.4,1,1,0,0,0,.81.41,1,1,0,0,0,.59-.19c.76-.55,1.52-1.14,2.25-1.75a1,1,0,1,0-1.27-1.54Z"></path><path d="M35.9,67.74a6.24,6.24,0,0,1-2.09-1.16,1,1,0,0,0-1.3,1.52,8.23,8.23,0,0,0,2.75,1.54,1.25,1.25,0,0,0,.32,0,1,1,0,0,0,.32-2Z"></path><path d="M68.94,42.65a1,1,0,0,0-1.24.69,24,24,0,0,1-.9,2.52,1,1,0,0,0,.54,1.31,1.07,1.07,0,0,0,.39.07,1,1,0,0,0,.92-.61,28.23,28.23,0,0,0,1-2.74A1,1,0,0,0,68.94,42.65Z"></path><path d="M32.37,64.7a7.39,7.39,0,0,1-.67-2.36,1,1,0,0,0-2,.25,9.72,9.72,0,0,0,.86,3,1,1,0,0,0,.9.56,1,1,0,0,0,.44-.1A1,1,0,0,0,32.37,64.7Z"></path><path d="M31.44,56a1,1,0,0,0-1.22.72,18.75,18.75,0,0,0-.53,2.9,1,1,0,0,0,.9,1.09h.1a1,1,0,0,0,1-.9,16.21,16.21,0,0,1,.48-2.59A1,1,0,0,0,31.44,56Z"></path><path d="M59.7,25.3a1,1,0,0,0-1.23-.7,38.16,38.16,0,0,0-7.1,2.81,1,1,0,0,0-.43,1.35,1,1,0,0,0,.89.54.91.91,0,0,0,.45-.11A35.74,35.74,0,0,1,59,26.53,1,1,0,0,0,59.7,25.3Z"></path><path d="M66.94,54.24a60,60,0,0,1-4.73,5.58,1,1,0,0,0,0,1.41,1,1,0,0,0,.69.28,1,1,0,0,0,.72-.31,58.58,58.58,0,0,0,4.89-5.77,1,1,0,1,0-1.6-1.19Z"></path><path d="M29.6,49.08a1.08,1.08,0,0,0,.54.15,1,1,0,0,0,.85-.46,54.39,54.39,0,0,1,4.34-5.87,1,1,0,0,0-.11-1.41,1,1,0,0,0-1.41.12,57.12,57.12,0,0,0-4.51,6.08A1,1,0,0,0,29.6,49.08Z"></path><path d="M44.9,31.37A62.17,62.17,0,0,0,39,36.15a1,1,0,0,0,0,1.42,1,1,0,0,0,1.41,0A57.77,57.77,0,0,1,46.06,33a1,1,0,1,0-1.16-1.63Z"></path><path d="M45.71,72.87a1,1,0,0,0-1.3-.56,27.91,27.91,0,0,1-6.92,1.87,1,1,0,0,0,.12,2h.12a29.58,29.58,0,0,0,7.42-2A1,1,0,0,0,45.71,72.87Z"></path><path d="M71.73,49.56a1,1,0,0,0,.89-.53,38,38,0,0,0,2.94-7,1,1,0,0,0-.68-1.24,1,1,0,0,0-1.24.67,35.7,35.7,0,0,1-2.79,6.67,1,1,0,0,0,.41,1.35A1,1,0,0,0,71.73,49.56Z"></path><path d="M51.41,70.88a1,1,0,0,0,.52-.15,55.48,55.48,0,0,0,6.17-4.4,1,1,0,0,0,.14-1.4,1,1,0,0,0-1.41-.14A56.4,56.4,0,0,1,50.89,69a1,1,0,0,0,.52,1.85Z"></path><path d="M30.67,73.5a8.06,8.06,0,0,1-2.75-1.82,8.16,8.16,0,0,1-1.77-2.77,1,1,0,0,0-1.3-.57,1,1,0,0,0-.56,1.29,9.9,9.9,0,0,0,5.62,5.72,1,1,0,0,0,.38.08,1,1,0,0,0,.38-1.93Z"></path><path d="M72.07,28.31l0,0a9.3,9.3,0,0,1,2.47,6.1,1,1,0,0,0,1,.93h.06a1,1,0,0,0,.94-1.06,11.26,11.26,0,0,0-3-7.38l0,0a11.29,11.29,0,0,0-7.31-3.16,1,1,0,0,0-.17,2A9.36,9.36,0,0,1,72.07,28.31Z"></path><path d="M78.6,46.73a.94.94,0,0,0,.43.1,1,1,0,0,0,.9-.58A35.94,35.94,0,0,0,83.8,31.31c0-4.41-1.34-8.11-3.87-10.69a1,1,0,0,0-1.42,0,1,1,0,0,0,0,1.41c2.19,2.23,3.3,5.36,3.3,9.29A34,34,0,0,1,78.12,45.4,1,1,0,0,0,78.6,46.73Z"></path><path d="M39.39,31.93a1,1,0,0,0,.64-.24A61.11,61.11,0,0,1,59.51,20.24a3.24,3.24,0,1,0-.39-2A62.88,62.88,0,0,0,38.74,30.16a1,1,0,0,0-.12,1.41A1,1,0,0,0,39.39,31.93Z"></path><path d="M17.69,76a1,1,0,0,0,.9.57.94.94,0,0,0,.43-.1,1,1,0,0,0,.48-1.33,14.86,14.86,0,0,1-1.3-6.4c0-5.11,1.87-11.15,5.42-17.46a1,1,0,0,0-.38-1.36,1,1,0,0,0-1.37.38c-3.71,6.61-5.67,13-5.67,18.44A16.81,16.81,0,0,0,17.69,76Z"></path><path d="M62.81,65.77C56.1,72.05,48.49,76.91,41.37,79.45a1,1,0,0,0,.68,1.89c7.36-2.64,15.22-7.64,22.13-14.1a1,1,0,0,0-1.37-1.47Z"></path><path d="M85.79,14.86C82.69,11.71,78.16,10,72.68,10a37.22,37.22,0,0,0-10.81,1.78,1,1,0,0,0-.67,1.24,1,1,0,0,0,1.25.67A35.39,35.39,0,0,1,72.68,12c5,0,8.93,1.42,11.69,4.23s4,6.51,4,11.29c0,10.38-6.37,23.69-17,35.6a1,1,0,0,0,.07,1.41,1,1,0,0,0,.67.26,1,1,0,0,0,.75-.33c11-12.27,17.56-26.08,17.56-36.94C90.38,22.31,88.8,17.92,85.79,14.86Z"></path><path d="M91.17,49.92A3.25,3.25,0,0,0,93,44c3.44-7.38,5.32-14.57,5.32-21S96.45,11.55,92.88,7.91,83.79,2.17,77.26,2.17c-14.65,0-33.6,9.67-49.45,25.22C11.68,43.22,1.67,62.22,1.67,77c0,6.25,1.88,11.48,5.45,15.12s9.09,5.74,15.62,5.74c14.65,0,33.6-9.67,49.45-25.22a106,106,0,0,0,17.86-22.9A3.18,3.18,0,0,0,91.17,49.92ZM70.79,71.18C55.3,86.38,36.89,95.83,22.74,95.83c-6.07,0-10.84-1.73-14.19-5.14S3.67,82.77,3.67,77c0-14.23,9.79-32.68,25.54-48.15C44.7,13.62,63.11,4.17,77.26,4.17c6.07,0,10.84,1.73,14.19,5.14h0c3.24,3.31,4.88,7.92,4.88,13.72,0,6.2-1.85,13.19-5.25,20.4a3.24,3.24,0,0,0-2.61,5A104,104,0,0,1,70.79,71.18Z"></path><path d="M24.5,85.58a3.23,3.23,0,0,0-2.81,1.65,13.53,13.53,0,0,1-6.06-3.5c-2.66-2.71-4-6.51-4-11.29,0-7.59,3.43-16.88,9.67-26.16A1,1,0,0,0,21,44.9a1,1,0,0,0-1.39.27c-6.46,9.6-10,19.29-10,27.27,0,5.25,1.58,9.64,4.59,12.69a15.44,15.44,0,0,0,7.08,4.06,3.24,3.24,0,1,0,3.21-3.61Z"></path><path d="M24.84,56.79a28.43,28.43,0,0,0-1.23,5,1,1,0,0,0,.85,1.13h.14a1,1,0,0,0,1-.86,25.62,25.62,0,0,1,1.15-4.65h0a3.27,3.27,0,1,0-1.91-.63Z"></path><path d="M72.33,36.83a3.25,3.25,0,0,0-3.25-3.25l-.11,0a8,8,0,0,0-1-1.25,7.45,7.45,0,0,0-1-.85,1,1,0,0,0-1.39.22,1,1,0,0,0,.23,1.4,6.32,6.32,0,0,1,.74.63,5.29,5.29,0,0,1,.47.59A3.23,3.23,0,0,0,68.33,40c0,.25,0,.5-.08.76a1,1,0,0,0,.86,1.13h.14a1,1,0,0,0,1-.87c.05-.4.09-.8.11-1.19A3.27,3.27,0,0,0,72.33,36.83Z"></path><path d="M8.51,38.17A3.79,3.79,0,0,0,9.56,38,3.19,3.19,0,0,0,11.87,36a28.44,28.44,0,0,1,1.88-3.68,1,1,0,0,0,.19,1.07,1,1,0,0,0,.73.31,1,1,0,0,0,.68-.27l7.28-6.89-2-.86,5.12-10.9-9.06,6.87-.3-.86a.6.6,0,0,0-.06-.11,1,1,0,0,0-.1-.17.71.71,0,0,0-.15-.15s0-.06-.08-.08l-.06,0a.64.64,0,0,0-.19-.08l-.18,0a1.08,1.08,0,0,0-.18,0,1.52,1.52,0,0,0-.21,0h-.06s-.06,0-.1.06l-.18.1a.93.93,0,0,0-.14.14s-.06,0-.09.09l-6,9a1,1,0,0,0,.28,1.39,1,1,0,0,0,.56.16,1,1,0,0,0,.83-.44l4.88-7.33.54,1.57,4.78-3.63L17.9,26.68l1.13.48L14,31.94a1,1,0,0,0-.19.27c.7-1.23,1.46-2.52,2.07-3.53l3-5L7.53,33l0,0c-.41.38-1.76,1.72-1.75,3a1.77,1.77,0,0,0,.58,1.34A3.27,3.27,0,0,0,8.51,38.17Z"></path><path d="M79.9,67.56A2.29,2.29,0,0,0,79,69a1.26,1.26,0,0,0,.35,1,1.76,1.76,0,0,0,1.27.51,1.9,1.9,0,0,0,.41,0,1.7,1.7,0,0,0,1.29-1c.11-.25.81-1.33,1.4-2.18L87,62.44,80,67.53Z"></path><path d="M78.23,79.41a2.3,2.3,0,0,0-1.17,1.24,1.31,1.31,0,0,0,.15,1,1.84,1.84,0,0,0,1.55.79h0a1.72,1.72,0,0,0,1.47-.76,22.45,22.45,0,0,1,1.81-1.86l4.2-4-8,3.56Z"></path><path d="M90.48,63.29a2.24,2.24,0,0,0-.82,1.48,1.25,1.25,0,0,0,.39,1,1.77,1.77,0,0,0,1.21.45,2,2,0,0,0,.48-.06A1.73,1.73,0,0,0,93,65c.1-.26.75-1.37,1.3-2.25l3.1-4.9-6.86,5.39Z"></path><polygon points="6.88 49.27 8.39 48.52 10.08 48.55 9.84 46.87 10.38 45.27 8.72 44.99 7.37 43.98 6.58 45.47 5.2 46.45 6.38 47.65 6.88 49.27"></polygon></g></svg>