<svg xmlns="http://www.w3.org/2000/svg" xmlns:xlink="http://www.w3.org/1999/xlink" version="1.1" x="0px" y="0px" viewBox="0 0 100 100" enable-background="new 0 0 100 100" xml:space="preserve"><g><path d="M36.535,17.034c-0.179-1.275-0.935-2.238-1.692-2.153c-0.756,0.087-1.225,1.193-1.046,2.468s0.937,2.238,1.692,2.151   C36.246,19.414,36.714,18.309,36.535,17.034z"></path><path d="M65.929,19.5c0.755,0.087,1.512-0.876,1.691-2.151c0.179-1.275-0.29-2.381-1.044-2.468   c-0.759-0.085-1.515,0.877-1.693,2.153C64.703,18.309,65.172,19.414,65.929,19.5z"></path><path d="M93.578,78.476c-1.641-11.829-5.037-17.853-5.694-19.278c-0.658-1.423,1.313-3.066,0.548-4.601   c-0.768-1.533-2.628-3.942-2.628-3.942s1.422-1.205,0.656-2.19c-0.768-0.987-3.614-3.834-3.614-3.834s0.688-0.767-0.11-1.644   c-1.095-1.206-1.862-1.861-1.862-1.861s0.768-0.659-0.438-1.863c-1.205-1.205-5.04-3.943-5.04-3.943s0.658-1.205-0.547-3.396   c-0.9-1.639-3.401-4.698-4.756-6.346c-0.705,0.51-1.458,1.121-1.624,1.508c-0.328,0.767,0.903,1.771,0.903,1.771   s-1.222-0.299-2.207-1.064c-0.986-0.768-0.39-1.674,1.032-2.879c0.456-0.384,0.755-0.744,1.133-1.195   c0.295-0.614,0.792-1.485,1.795-3.625c2.375-5.072,5.087-15.712-2.033-17.026s-9.977,9.595-10.3,11.664   c-0.191,1.224-0.355,3.394-0.701,3.61c-0.394,0.246-1.109-0.701-1.109-0.701s-2.386-3.106-4.226-4.03   c-0.891-0.448-1.744-0.515-2.005-0.525v-0.002c0,0-0.015,0-0.042,0c-0.028,0-0.044,0-0.044,0v0.002   c-0.26,0.01-1.112,0.077-2.005,0.525c-1.838,0.923-4.224,4.03-4.224,4.03s-0.715,0.947-1.109,0.701   c-0.345-0.217-0.509-2.387-0.701-3.61c-0.323-2.069-3.181-12.978-10.302-11.664c-7.118,1.314-4.407,11.954-2.032,17.026   c1.001,2.14,1.5,3.01,1.795,3.625c0.378,0.451,0.677,0.811,1.132,1.195c1.423,1.205,2.02,2.111,1.034,2.879   c-0.986,0.765-2.208,1.064-2.208,1.064s1.233-1.004,0.904-1.771c-0.166-0.387-0.919-0.998-1.625-1.508   c-1.353,1.648-3.854,4.707-4.756,6.346c-1.205,2.191-0.548,3.396-0.548,3.396s-3.833,2.738-5.038,3.943   c-1.205,1.204-0.438,1.863-0.438,1.863s-0.767,0.656-1.862,1.861c-0.797,0.877-0.109,1.644-0.109,1.644s-2.848,2.847-3.615,3.834   c-0.766,0.986,0.657,2.19,0.657,2.19s-1.862,2.409-2.629,3.942c-0.767,1.534,1.206,3.178,0.547,4.601   c-0.657,1.426-4.052,7.449-5.695,19.278s1.051,19.998,5.805,18.621c8.325-2.411,13.694-1.093,15.775-3.944   c2.082-2.848,1.509-8.543,2.057-15.334c0.548-6.79-1.284-13.786-1.504-14.23c-0.218-0.442-1.251-3.545-3.049-8.467   c-1.247-3.413-1.281-8.464-0.593-11.644c0.445-2.059,1.333-3.448,1.333-3.448s-0.162,1.147-0.328,2.629   c-0.185,1.639-0.375,4.174,1.72,10.101c1.478,4.185,2.024,6.145,2.773,7.643c0.219,0.438,0.135,3.452,1.752,12.159   c0.451,2.429,3.305,6.134,3.085,9.529c-0.218,3.395-1.316,11.413-1.316,11.413s2.323-0.484,5.718,0.283   c3.395,0.766,4.041,1.609,6.421,2.542c1.48,0.58,2.831,0.648,3.176,0.657c0,0,0.018,0,0.044,0c0.025,0,0.042,0,0.042,0   c0.347-0.009,1.696-0.077,3.177-0.657c2.381-0.933,3.026-1.776,6.423-2.542c3.395-0.768,5.719-0.283,5.719-0.283   s-1.1-8.019-1.318-11.413c-0.219-3.396,2.635-7.101,3.085-9.529c1.616-8.707,1.534-11.721,1.751-12.159   c0.75-1.498,1.296-3.458,2.776-7.643c2.094-5.927,1.903-8.462,1.719-10.101c-0.165-1.482-0.326-2.629-0.326-2.629   s0.888,1.389,1.333,3.448c0.688,3.179,0.652,8.23-0.595,11.644c-1.797,4.922-2.83,8.024-3.049,8.467   c-0.219,0.444-1.969,7.647-1.421,14.439c0.548,6.789-0.107,12.277,1.975,15.125c2.08,2.852,7.451,1.533,15.775,3.944   C92.527,98.474,95.222,90.305,93.578,78.476z M66.635,13.632c3.286,0,3.942,3.396,3.942,3.396s-0.825,4.137-5.146,3.944   c-3.393-0.152-3.726-4.712-3.726-4.712S63.348,13.632,66.635,13.632z M58.628,42.766c2.518,0.43,1.754,6.858,1.754,6.858   s-1.757-1.806-3.154-2.268c-1.446-0.478-3.418-0.478-3.418-0.478S55.343,42.207,58.628,42.766z M42.79,42.766   c3.284-0.56,4.816,4.112,4.816,4.112s-1.971,0-3.417,0.478c-1.396,0.462-3.154,2.268-3.154,2.268S40.269,43.196,42.79,42.766z    M30.839,17.027c0,0,0.658-3.396,3.943-3.396c3.286,0,4.929,2.628,4.929,2.628s-0.332,4.56-3.724,4.712   C31.667,21.165,30.839,17.027,30.839,17.027z M66.65,65.788c-0.058,0.28-1.488,6.9-7.693,9.831   c-3.202,1.512-6.221,1.902-8.189,1.964c-0.021,0.001-0.042,0.001-0.062,0.001s-0.042,0-0.062-0.001   c-1.968-0.062-4.986-0.452-8.187-1.964c-6.205-2.931-7.636-9.551-7.694-9.831c-0.189-0.915,0.287-1.832,1.139-2.218   c0.264-0.12,0.542-0.178,0.819-0.177c0.616,0,1.218,0.284,1.607,0.799c0.017,0.022,1.705,2.211,5.755,3.909   c3.252,1.36,6.061,1.438,6.595,1.44c0.534-0.002,3.402-0.08,6.653-1.44c4.005-1.679,5.699-3.837,5.753-3.907   c0.387-0.522,0.989-0.811,1.609-0.811c0.271,0,0.546,0.056,0.808,0.171C66.361,63.936,66.841,64.865,66.65,65.788z"></path><path d="M58.104,70.942c-3.588,1.501-6.704,1.594-7.355,1.596c-0.01,0-0.029,0-0.042,0c-0.012,0-0.032,0-0.042,0   c-0.651-0.002-3.767-0.095-7.354-1.596c-4.706-1.973-6.589-5.559-6.589-5.559s1.216,4.893,6.589,7.431   c3,1.417,5.831,1.725,7.396,1.773c1.566-0.049,4.397-0.356,7.398-1.773c5.373-2.538,6.588-7.431,6.588-7.431   S62.809,68.97,58.104,70.942z"></path></g></svg>