<svg xmlns="http://www.w3.org/2000/svg" xmlns:xlink="http://www.w3.org/1999/xlink" version="1.1" x="0px" y="0px" viewBox="0 0 100 100" enable-background="new 0 0 100 100" xml:space="preserve"><g><g><circle cx="54.321" cy="55.245" r="1.162"></circle></g><g><circle cx="48.655" cy="57.745" r="1.162"></circle></g><g><circle cx="49.208" cy="52.243" r="1.427"></circle></g><g><circle cx="60.053" cy="52.427" r="1.826"></circle></g><path d="M84.413,22.799c0.222-1.15,0.249-2.343,0.058-3.525l-1.417-8.738c-0.132-0.818-0.904-1.37-1.721-1.24   c-0.817,0.132-1.373,0.903-1.24,1.721l1.417,8.738c0.116,0.717,0.107,1.437,0.006,2.14c-0.409,0.125-0.797,0.337-1.121,0.661   c-0.811,0.811-0.992,2.007-0.556,2.997c-0.104,0.12-0.203,0.244-0.316,0.357l-3.769,3.769l-0.647-0.647   c-0.586-0.585-1.535-0.585-2.121,0l-2.554,2.554c-1.797-1.074-3.684-1.673-5.407-1.673c-1.187,0-2.243,0.29-3.12,0.834   c-0.262-0.186-0.566-0.304-0.889-0.315c-0.405,0.006-0.791,0.175-1.068,0.47L28.9,63.76c-0.807,0.806-1.25,1.878-1.25,3.019   c0,0.308,0.038,0.61,0.101,0.904c-0.245,0.168-0.484,0.204-0.913,0.258c-0.861,0.107-2.162,0.271-3.486,1.892   c-0.731,0.895-0.858,2.042-0.981,3.151c-0.082,0.74-0.175,1.579-0.458,1.967c-0.229,0.312-0.94,0.636-1.567,0.921   c-1.039,0.472-2.216,1.006-2.881,2.098c-0.777,1.276-0.641,2.76-0.531,3.951c0.051,0.554,0.114,1.243,0.018,1.509   c-0.196,0.536-0.517,1.127-0.828,1.697c-0.801,1.471-1.798,3.3-0.478,4.768c0.55,0.61,1.205,0.829,1.894,0.829   c0.967,0,2.001-0.43,2.906-0.806c0.601-0.25,1.223-0.509,1.778-0.647c0.271-0.068,0.954,0.065,1.5,0.175   c1.173,0.233,2.635,0.523,3.985-0.115c1.155-0.548,1.811-1.662,2.389-2.646c0.349-0.594,0.745-1.268,1.082-1.463   c0.419-0.244,1.266-0.25,2.013-0.256c1.118-0.008,2.274-0.016,3.24-0.649c1.751-1.148,2.05-2.425,2.248-3.271   c0.14-0.596,0.192-0.818,0.671-1.173c0.082-0.061,0.155-0.128,0.221-0.201c0.37,0.103,0.75,0.175,1.145,0.175   c1.141,0,2.213-0.444,2.989-1.222l32.89-31.075c0.294-0.278,0.464-0.664,0.47-1.069c0.005-0.333-0.106-0.653-0.304-0.916   c1.348-2.2,0.985-5.429-0.85-8.501l2.554-2.554c0.281-0.281,0.439-0.663,0.439-1.061s-0.158-0.779-0.439-1.061l-0.591-0.591   l3.769-3.768c0.277-0.277,0.535-0.57,0.775-0.875c0.652-0.028,1.297-0.282,1.795-0.78C85.192,25.396,85.25,23.859,84.413,22.799z    M61.067,34.083l10.347,10.347c-0.548-0.251-1.225-0.435-2.1-0.435c-1.791,0-2.762,0.764-3.471,1.321   c-0.558,0.438-0.864,0.679-1.616,0.679c-0.752,0-1.059-0.241-1.614-0.679c-0.709-0.558-1.679-1.321-3.469-1.321   s-2.76,0.764-3.468,1.322c-0.556,0.438-0.861,0.678-1.611,0.678c-0.751,0-1.058-0.241-1.613-0.679   c-0.331-0.261-0.724-0.565-1.227-0.816L61.067,34.083z M31.051,65.851l5.956-6.304l1.77,1.768l-7.058,7.058l-0.697-0.697   c-0.24-0.24-0.372-0.559-0.372-0.898C30.649,66.44,30.781,66.122,31.051,65.851z M35.759,80.362   c-0.154,0.655-0.224,0.954-0.972,1.445c-0.227,0.148-1.063,0.154-1.617,0.158c-1.121,0.008-2.392,0.018-3.5,0.662   c-1.015,0.591-1.623,1.624-2.159,2.536c-0.341,0.58-0.766,1.303-1.086,1.455c-0.453,0.213-1.336,0.039-2.116-0.116   c-0.926-0.184-1.884-0.374-2.813-0.143c-0.772,0.193-1.531,0.509-2.201,0.787c-0.313,0.13-0.714,0.297-1.06,0.417   c0.155-0.328,0.361-0.706,0.522-1.002c0.347-0.637,0.74-1.358,1.012-2.105c0.328-0.898,0.238-1.87,0.152-2.811   c-0.073-0.791-0.155-1.688,0.106-2.116c0.184-0.303,0.946-0.649,1.559-0.927c0.962-0.438,2.053-0.934,2.747-1.881   c0.756-1.034,0.896-2.295,1.02-3.407c0.061-0.548,0.152-1.376,0.322-1.584c0.565-0.691,0.87-0.729,1.537-0.813   c0.553-0.07,1.311-0.171,2.12-0.687l7.695,7.695C36.131,78.806,35.909,79.723,35.759,80.362z M36.491,73.147l-2.652-2.652   l7.059-7.059l2.653,2.65L36.491,73.147z M41.614,76.474c-0.479,0.48-1.315,0.48-1.795,0l-1.207-1.206l7.061-7.061l2.28,2.278   L41.614,76.474z M50.136,68.423L39.068,57.366l9.809-10.382c0.036,0.003,0.07,0.011,0.106,0.011c0.75,0,1.057,0.241,1.613,0.679   c0.708,0.558,1.679,1.321,3.469,1.321c1.789,0,2.759-0.764,3.467-1.321c0.556-0.438,0.862-0.679,1.612-0.679   c0.751,0,1.058,0.241,1.613,0.679c0.709,0.558,1.679,1.321,3.47,1.321c1.79,0,2.762-0.763,3.47-1.321   c0.558-0.438,0.864-0.679,1.617-0.679c0.752,0,1.059,0.241,1.615,0.679c0.194,0.152,0.411,0.32,0.656,0.483L50.136,68.423z    M74.49,43.263L64.231,33.004c0.244-0.055,0.502-0.092,0.793-0.092c1.946,0,4.382,1.228,6.357,3.203   C73.914,38.648,74.879,41.517,74.49,43.263z M73.502,33.993c-0.209-0.209-0.427-0.399-0.644-0.594l1.187-1.187l1.238,1.237   l-1.181,1.18C73.91,34.415,73.711,34.202,73.502,33.993z"></path><g><path d="M23.293,50.094c-0.603,0-1.147-0.361-1.382-0.916l-1.53-3.622l-3.622-1.53c-0.555-0.235-0.916-0.779-0.916-1.382    s0.361-1.147,0.916-1.382l3.622-1.53l1.53-3.622c0.234-0.553,0.775-0.914,1.375-0.916c0.585-0.02,1.145,0.354,1.383,0.904    l1.594,3.687l3.553,1.473c0.559,0.232,0.923,0.776,0.925,1.381c0.002,0.604-0.359,1.151-0.916,1.387l-3.622,1.53l-1.53,3.622    C24.44,49.733,23.896,50.094,23.293,50.094z M21.196,42.644l0.913,0.386c0.359,0.152,0.646,0.438,0.798,0.798l0.386,0.913    l0.386-0.913c0.152-0.359,0.438-0.646,0.798-0.798l0.882-0.373l-0.805-0.333c-0.36-0.149-0.647-0.433-0.802-0.79l-0.442-1.024    l-0.402,0.951c-0.152,0.359-0.438,0.646-0.798,0.798L21.196,42.644z"></path></g><g><path d="M71.743,82.844c-0.603,0-1.147-0.361-1.382-0.916l-1.53-3.622l-3.622-1.53c-0.555-0.234-0.916-0.779-0.916-1.382    s0.361-1.147,0.916-1.382l3.622-1.53l1.53-3.622c0.234-0.553,0.775-0.913,1.376-0.916c0.002,0,0.004,0,0.006,0    c0.598,0,1.14,0.355,1.377,0.904l1.594,3.687l3.554,1.474c0.559,0.231,0.924,0.776,0.926,1.381s-0.359,1.151-0.916,1.387    l-3.622,1.53l-1.53,3.622C72.89,82.483,72.345,82.844,71.743,82.844z M69.646,75.394l0.913,0.386    c0.359,0.152,0.646,0.438,0.798,0.798l0.386,0.913l0.386-0.913c0.152-0.359,0.438-0.646,0.798-0.798l0.882-0.372l-0.805-0.334    c-0.36-0.149-0.648-0.433-0.803-0.79l-0.442-1.023l-0.401,0.95c-0.152,0.359-0.438,0.646-0.798,0.798L69.646,75.394z"></path></g><g><path d="M46.043,25.594c-0.603,0-1.147-0.361-1.382-0.916l-1.53-3.622l-3.622-1.53c-0.555-0.235-0.916-0.779-0.916-1.382    s0.361-1.147,0.916-1.382l3.622-1.53l1.53-3.622c0.234-0.553,0.775-0.914,1.375-0.916c0.002,0,0.004,0,0.006,0    c0.598,0,1.139,0.355,1.377,0.904l1.594,3.687l3.553,1.473c0.559,0.232,0.924,0.776,0.926,1.381    c0.002,0.604-0.359,1.151-0.916,1.387l-3.622,1.53l-1.53,3.622C47.19,25.233,46.646,25.594,46.043,25.594z M43.946,18.144    l0.913,0.386c0.359,0.152,0.646,0.438,0.798,0.798l0.386,0.913l0.386-0.913c0.152-0.359,0.438-0.646,0.798-0.798l0.882-0.373    l-0.805-0.333c-0.36-0.149-0.647-0.433-0.802-0.79l-0.442-1.024l-0.402,0.951c-0.152,0.359-0.438,0.646-0.798,0.798L43.946,18.144    z"></path></g></g></svg>