<svg xmlns="http://www.w3.org/2000/svg" xmlns:xlink="http://www.w3.org/1999/xlink" version="1.1" x="0px" y="0px" viewBox="0 0 100 100" enable-background="new 0 0 100 100" xml:space="preserve"><path d="M86.249,40.662c-1.256-4.687-8.258-4.751-14.105-4.157C67.529,28.99,59.236,23.966,49.79,23.966  c-14.23,0-25.842,11.401-26.197,25.548c-5.363,2.409-11.394,5.966-10.139,10.652c0.791,2.949,3.955,4.4,9.639,4.4  c1.107,0,2.311-0.055,3.609-0.165c0.333-0.028,0.676-0.061,1.021-0.097c4.666,7.263,12.811,12.089,22.066,12.089  c14.049-0.001,25.548-11.111,26.182-25.006C84.047,47.767,87.231,44.324,86.249,40.662z M49.79,27.966  c12.248,0,22.213,9.965,22.213,22.214c0,0.049-0.004,0.098-0.004,0.146c-2.162,0.859-4.69,1.767-7.628,2.723  c-1.208-1.923-3.566-2.924-5.873-2.305c-2.413,0.646-3.984,2.854-3.933,5.244c-0.973,0.271-1.965,0.543-3,0.82  c-8.592,2.302-15.486,3.823-20.924,4.613c-1.945-3.3-3.066-7.141-3.066-11.241C27.575,37.932,37.541,27.966,49.79,27.966z   M15.87,59.52c-0.553-2.06,2.201-4.611,7.793-7.279c0.271,3.457,1.213,6.727,2.699,9.68C21.93,62.286,16.575,62.152,15.87,59.52z   M49.79,72.395c-7.158,0-13.533-3.407-17.598-8.681c5.346-0.847,11.953-2.329,20.021-4.491c1.024-0.275,2.016-0.546,2.991-0.817  c1.144,2.113,3.62,3.25,6.043,2.602c2.521-0.676,4.126-3.058,3.915-5.571c2.432-0.789,4.645-1.563,6.641-2.328  C70.364,63.978,61.043,72.394,49.79,72.395z M75.953,48.629c-0.203-3.464-1.079-6.75-2.505-9.727  c6.178-0.485,9.836,0.348,10.387,2.407C84.289,43.003,82.792,45.423,75.953,48.629z"></path></svg>