<svg xmlns="http://www.w3.org/2000/svg" xmlns:xlink="http://www.w3.org/1999/xlink" version="1.1" x="0px" y="0px" viewBox="0 0 64 64"  xml:space="preserve"><g><g><path d="M42.25,33.82c0.42-0.15,0.69-0.56,0.66-1.01c-0.11-1.63-0.36-3.24-0.73-4.8c3.38,0.05,6.61,1.3,9.12,3.56    c0.19,0.17,0.43,0.26,0.67,0.26c0.14,0,0.28-0.03,0.41-0.09c0.36-0.16,0.59-0.52,0.59-0.91V22c0-0.55-0.45-1-1-1H39.65    c-4.5-8.89-12.96-15.08-22.79-16.62c0,0-0.01,0-0.01,0c0,0,0,0,0,0C15.31,4.13,13.69,4,12.03,4c-1.85,0-3.4,0.37-5.03,0.75    C6.78,4.8,6.56,4.85,6.35,4.9L3.7,2.29C3.31,1.9,2.68,1.9,2.29,2.3C1.9,2.69,1.9,3.32,2.3,3.71l2.64,2.61    c-0.05,0.22-0.1,0.44-0.15,0.65C4.4,8.6,4.04,10.15,4.04,12c0,1.65,0.13,3.26,0.38,4.8c0,0.01,0,0.03,0,0.04    c1.53,9.84,7.72,18.31,16.6,22.81V52c0,0.55,0.45,1,1,1h8.82c0.39,0,0.75-0.23,0.91-0.59c0.16-0.36,0.09-0.78-0.17-1.08    c-2.25-2.51-3.51-5.75-3.56-9.13c1.58,0.36,3.18,0.61,4.79,0.72c0.02,0,0.05,0,0.07,0c0.42,0,0.8-0.26,0.94-0.66    C35.24,38.31,38.31,35.24,42.25,33.82z M50.97,23v5.77c-2.63-1.8-5.75-2.77-8.98-2.77c-0.05,0-0.17,0-0.34,0    c-0.03-0.09-0.06-0.18-0.09-0.27c-0.09-0.29-0.18-0.57-0.28-0.85c-0.06-0.19-0.13-0.37-0.19-0.56c-0.11-0.32-0.24-0.63-0.36-0.94    c-0.05-0.13-0.09-0.25-0.15-0.38H50.97z M6.04,12c0-1.62,0.34-3.05,0.7-4.57c0.05-0.2,0.09-0.39,0.14-0.59    c0.2-0.05,0.39-0.09,0.58-0.14c1.6-0.38,3.12-0.71,4.83-0.7c0,0,0,0-0.01,0C12,6.16,11.73,6.32,11.47,6.49    c-0.05,0.03-0.1,0.06-0.15,0.09c-2.19,1.43-4.01,3.38-5.28,5.67C6.04,12.16,6.04,12.08,6.04,12z M28.78,51h-5.77V40.59    c0.12,0.05,0.23,0.09,0.35,0.14c0.33,0.14,0.66,0.27,1,0.39c0.17,0.06,0.34,0.12,0.51,0.18c0.3,0.11,0.61,0.21,0.91,0.3    c0.08,0.02,0.16,0.05,0.24,0.08c0,0.16,0,0.27,0,0.33C26.01,45.24,26.98,48.37,28.78,51z M32.22,40.86    c-1.67-0.16-3.32-0.46-4.94-0.91c-0.4-0.11-0.81-0.23-1.21-0.36c-1.21-0.39-2.43-0.88-3.63-1.46c0,0,0,0,0,0    c-8.52-4.11-14.5-12.09-16.02-21.4c0.06-0.26,0.13-0.52,0.2-0.77c0-0.01,0.01-0.03,0.01-0.04c0.09-0.31,0.2-0.61,0.31-0.91    c0-0.01,0-0.01,0.01-0.02c0.12-0.31,0.25-0.61,0.38-0.9c0,0,0,0,0,0c0.83-1.78,2.03-3.36,3.5-4.65c0,0,0,0,0.01-0.01    c0.24-0.21,0.48-0.41,0.74-0.6c0.07-0.05,0.14-0.1,0.22-0.15c0.19-0.14,0.38-0.27,0.57-0.4c0.1-0.07,0.21-0.13,0.31-0.19    c0.17-0.11,0.34-0.21,0.51-0.31c0.12-0.07,0.24-0.13,0.37-0.19c0.16-0.09,0.33-0.17,0.49-0.25c0.13-0.06,0.27-0.12,0.4-0.18    c0.16-0.07,0.32-0.14,0.49-0.21c0.14-0.05,0.28-0.1,0.42-0.15c0.17-0.06,0.33-0.12,0.5-0.17c0.14-0.04,0.29-0.08,0.44-0.12    c0.14-0.04,0.29-0.08,0.44-0.12c9.3,1.52,17.29,7.5,21.39,16.04c0.2,0.42,0.39,0.84,0.57,1.27c0.49,1.17,0.9,2.37,1.23,3.58    c0.45,1.6,0.75,3.26,0.92,4.94C36.93,33.84,33.84,36.94,32.22,40.86z"></path><path d="M21.01,12c-4.96,0-8.99,4.04-8.99,9s4.03,9,8.99,9S30,25.96,30,21S25.97,12,21.01,12z M21.01,28c-3.85,0-6.99-3.14-6.99-7    s3.14-7,6.99-7c3.85,0,6.99,3.14,6.99,7S24.87,28,21.01,28z"></path><path d="M61.79,60.4L61.79,60.4c-0.03-0.05-0.11-0.18-0.24-0.37c-4.86-7.32-8.1-10.98-9.97-12.76c-1.38-1.32-1.33-1.83-1.33-1.83    c0.16-0.26,1.39-0.52,2.58-0.45c0.56,0.04,0.97-0.34,1.05-0.85c0.08-0.51-0.24-1-0.74-1.12c-1.23-0.31-2.25-0.83-3.06-1.38    c2.78,0.34,5.64,0.35,5.81,0.35c0.46,0,0.87-0.32,0.97-0.77c0.11-0.45-0.11-0.92-0.53-1.12l-7.99-4    c-4.52-2.26-9.77,1.94-9.99,2.12c-0.05,0.04-0.1,0.1-0.15,0.15c-0.18,0.22-4.37,5.55-2.11,10.07l4,8    c0.21,0.41,0.67,0.63,1.12,0.53c0.45-0.11,0.77-0.51,0.77-0.97c0-0.17-0.01-3.03-0.35-5.82c0.55,0.81,1.07,1.83,1.37,3.06    c0.13,0.5,0.61,0.82,1.12,0.75c0.51-0.08,0.88-0.53,0.85-1.05c-0.07-1.2,0.19-2.42,0.44-2.58c0,0,0.52-0.05,1.84,1.33    c2.59,2.71,7.18,6.26,12.94,9.98l0.22,0.14C60.57,61.94,60.74,62,61,62c0.44,0,0.83-0.29,0.96-0.72    C62.07,60.9,61.97,60.62,61.79,60.4z M48.7,50.31c-0.5-0.52-1.86-1.95-3.28-1.95c-0.27,0-0.53,0.05-0.8,0.17    c-0.46,0.2-0.8,0.55-1.04,0.98c-1.33-2.17-2.95-3.27-3.04-3.33c-0.36-0.24-0.82-0.22-1.16,0.04s-0.48,0.71-0.34,1.11    c0.35,1.05,0.57,2.53,0.71,3.97l-1.86-3.73c-1.56-3.12,1.34-7.2,1.82-7.84c0.63-0.48,4.63-3.37,7.74-1.81l3.73,1.87    c-1.44-0.14-2.91-0.36-3.97-0.71c-0.4-0.14-0.85,0-1.11,0.34c-0.26,0.34-0.28,0.81-0.04,1.16c0.06,0.1,1.17,1.72,3.33,3.05    c-0.42,0.24-0.78,0.58-0.98,1.04c-0.73,1.68,1.16,3.49,1.78,4.08c1.43,1.37,3.72,3.91,7.02,8.54    C53.51,54.66,50.55,52.25,48.7,50.31z"></path></g></g></svg>