<svg xmlns="http://www.w3.org/2000/svg" viewBox="0 0 64 64" x="0px" y="0px"><g><circle cx="32" cy="32" r="1"></circle><circle cx="23" cy="50" r="1"></circle><circle cx="32" cy="23" r="1"></circle><circle cx="50" cy="41" r="1"></circle><path d="M60,32a18.976,18.976,0,0,0-8.039-15.492A20.973,20.973,0,0,1,32,44a3.05,3.05,0,1,1,2.892-2.244,18.928,18.928,0,0,0,14.249-26.9,18.8,18.8,0,0,0-5.249-1.615A2.994,2.994,0,1,1,41,11a20.9,20.9,0,0,1,6.492,1.039,18.947,18.947,0,0,0-30.984,0A20.973,20.973,0,0,1,44,32a3.05,3.05,0,1,1-2.244-2.892,18.928,18.928,0,0,0-26.9-14.249,18.8,18.8,0,0,0-1.615,5.249A2.994,2.994,0,1,1,11,23a20.9,20.9,0,0,1,1.039-6.492,18.947,18.947,0,0,0,0,30.984A20.973,20.973,0,0,1,32,20a3.05,3.05,0,1,1-2.892,2.244,18.928,18.928,0,0,0-14.249,26.9,18.8,18.8,0,0,0,5.249,1.615A2.994,2.994,0,1,1,23,53a20.9,20.9,0,0,1-6.492-1.039,18.947,18.947,0,0,0,30.984,0A20.973,20.973,0,0,1,20,32a3.05,3.05,0,1,1,2.244,2.892,18.928,18.928,0,0,0,26.9,14.249,18.8,18.8,0,0,0,1.615-5.249A2.994,2.994,0,1,1,53,41a20.9,20.9,0,0,1-1.039,6.492A18.976,18.976,0,0,0,60,32ZM32,29a3,3,0,1,1-3,3A3,3,0,0,1,32,29Z"></path><circle cx="23" cy="32" r="1"></circle><circle cx="14" cy="23" r="1"></circle><circle cx="41" cy="14" r="1"></circle><circle cx="32" cy="41" r="1"></circle><circle cx="41" cy="32" r="1"></circle><circle cx="12" cy="5" r="1"></circle><circle cx="55" cy="5" r="1"></circle><circle cx="5" cy="53" r="1"></circle><circle cx="54" cy="59" r="1"></circle><polygon points="13 56 11 56 11 58 9 58 9 60 11 60 11 62 13 62 13 60 15 60 15 58 13 58 13 56"></polygon><polygon points="60 12 60 10 58 10 58 12 56 12 56 14 58 14 58 16 60 16 60 14 62 14 62 12 60 12"></polygon><polygon points="60 48 58 48 58 50 56 50 56 52 58 52 58 54 60 54 60 52 62 52 62 50 60 50 60 48"></polygon><polygon points="4 16 6 16 6 14 8 14 8 12 6 12 6 10 4 10 4 12 2 12 2 14 4 14 4 16"></polygon></g></svg>