<svg xmlns="http://www.w3.org/2000/svg" xmlns:xlink="http://www.w3.org/1999/xlink" version="1.1" x="0px" y="0px" viewBox="0 0 100 100" enable-background="new 0 0 100 100" xml:space="preserve"><g><path d="M68.67,39.845c0.712-3.741,0.216-6.87-1.473-9.301c-0.454-0.653-0.996-1.251-1.619-1.794v-9.511c0-1.654-1.346-3-3-3   h-3.041c-1.347-4.282-4.971-6.967-9.862-6.967s-8.515,2.685-9.862,6.967h-3.041c-1.654,0-3,1.346-3,3v9.511   c-0.624,0.543-1.166,1.142-1.619,1.794c-1.689,2.431-2.185,5.56-1.473,9.301c-0.09,1.249-0.596,9.813,1.917,14.498   c-0.415,1.3-1.351,4.949,0.42,6.974c0.65,0.742,1.53,1.264,2.596,1.58c0.085,3.803,0.689,6.58,0.857,7.274   c-0.199,3.63-0.347,11.534,1.932,13.622l0.038,0.266c0.015,0.109,0.03,0.218,0.046,0.327c-1.149,0.008-3.17,0.265-4.249,1.833   c-0.861,1.25-0.877,2.981-0.05,5.146l0.246,0.643h13.748v-7.334c0.022-0.174,0.086-0.697,0.169-1.451   c1.277-2.369,1.087-5.987,0.89-9.5c-0.072-1.286-0.141-2.5-0.145-3.549l0.581-6.065l0.578,5.969c0,1.145-0.068,2.359-0.141,3.645   c-0.197,3.514-0.387,7.131,0.89,9.5c0.083,0.754,0.147,1.277,0.169,1.451v7.334h13.748l0.246-0.643   c0.828-2.164,0.811-3.895-0.05-5.146c-1.079-1.568-3.1-1.825-4.249-1.833c0.016-0.109,0.031-0.218,0.046-0.327l0.038-0.266   c2.279-2.088,2.131-9.991,1.932-13.622c0.168-0.694,0.772-3.471,0.857-7.274c1.066-0.316,1.944-0.837,2.595-1.581   c1.771-2.024,0.834-5.673,0.419-6.973C69.266,49.658,68.76,41.094,68.67,39.845z M52.223,69.707h8.713   c-0.017,0.071-0.027,0.111-0.028,0.116l-0.04,0.152l0.009,0.156c0.011,0.192,0.018,0.383,0.027,0.575h-8.67   c0.004-0.243,0.017-0.484,0.016-0.728L52.223,69.707z M38.445,69.823c-0.001-0.005-0.012-0.045-0.028-0.116h8.717l-0.035,0.368   c0,0.204,0.012,0.423,0.015,0.632h-8.666c0.009-0.192,0.017-0.383,0.027-0.575l0.009-0.157L38.445,69.823z M32.674,40.037h4.525v1   h-4.576C32.641,40.573,32.661,40.224,32.674,40.037z M39.15,51.815c0.007-0.021,0.002-0.041,0.007-0.061h21.038   c0.005,0.021,0,0.041,0.007,0.061c0.103,0.314,0.185,0.626,0.275,0.939H38.875C38.965,52.441,39.047,52.129,39.15,51.815z    M62.153,40.037h4.525c0.013,0.187,0.033,0.536,0.052,1h-4.577V40.037z M60.119,20.138c0-0.658-0.054-1.287-0.138-1.898h2.597   c0.551,0,1,0.449,1,1v8.124c-1.374-0.768-2.997-1.343-4.826-1.723C59.639,24.138,60.119,22.293,60.119,20.138z M49.676,11.272   c5.129,0,8.443,3.48,8.443,8.865c0,3.592-1.489,6.042-4.262,7.185c1.233-1.332,2.016-3.236,2.032-5.358   c0.374-0.859,1.625-4.343-1.211-7.125c-1.36-1.335-2.526-1.862-4.591-1.862c-4.722,0-5.626,2.874-5.626,2.874   c-2.024,2.001-1.357,4.084-0.925,4.964c-0.044,0.354-0.075,0.714-0.075,1.083c0,2.149,0.788,4.079,2.035,5.425   c-2.773-1.142-4.262-3.593-4.262-7.185C41.232,14.752,44.547,11.272,49.676,11.272z M45.723,20.097   c0.825-0.719,1.581-1.702,1.824-2.791c0.057-0.042,0.116-0.081,0.174-0.121c0.58,0.783,2.795,1.624,5.496,1.832   c0.422,0.833,0.674,1.818,0.674,2.88c0,2.951-1.891,5.353-4.216,5.353s-4.216-2.401-4.216-5.353   C45.46,21.263,45.562,20.662,45.723,20.097z M35.773,19.239c0-0.551,0.449-1,1-1h2.597c-0.083,0.611-0.138,1.241-0.138,1.898   c0,2.155,0.48,4,1.367,5.502c-1.83,0.379-3.452,0.955-4.826,1.723V19.239z M33.797,31.686c1.908-2.746,5.441-3.833,8.069-4.261   c0.036-0.006,0.064-0.028,0.099-0.038c0.145,0.14,0.303,0.268,0.458,0.397l0,0.026c-0.005,0.217,0.053,0.543,0.363,0.86   c0.737,0.755,3.592,1.848,6.885,1.848h0.074c3.23,0,6.083-1.092,6.821-1.848c0.31-0.317,0.368-0.643,0.363-0.814l-0.002-0.072   c0.156-0.129,0.314-0.257,0.459-0.397c0.035,0.01,0.063,0.032,0.099,0.038c2.628,0.428,6.162,1.515,8.069,4.261   c1.38,1.986,1.761,4.628,1.136,7.851h-4.538v-5.655c0-0.552-0.448-1-1-1s-1,0.448-1,1v17.372H39.199V33.882c0-0.552-0.448-1-1-1   s-1,0.448-1,1v5.655h-4.538C32.036,36.314,32.417,33.672,33.797,31.686z M35.62,60.776c-0.44-0.199-0.813-0.454-1.097-0.777   c-1.037-1.186-0.337-4.115,0.048-5.244h1.745C35.884,56.872,35.68,58.911,35.62,60.776z M36.542,53.755h-1.998   c-0.003-0.006-0.003-0.014-0.007-0.021c-1.937-3.179-2.02-9.262-1.933-12.197h4.594v9.827   C36.941,52.167,36.729,52.964,36.542,53.755z M38.425,71.207h8.701c0.026,0.868,0.067,1.751,0.116,2.625   c0.186,3.293,0.372,6.691-0.694,8.536h-6.737c-0.019-0.01-0.031-0.028-0.05-0.038C38.797,81.873,38.208,76.807,38.425,71.207z    M35.885,87.352c0.601-0.873,2.061-0.967,2.66-0.967c0.261,0,1.042,0.069,1.047,0.069l1.34,0.116l-0.275-1.316   c-0.097-0.463-0.166-0.971-0.235-1.469l-0.059-0.417h5.959c-0.079,0.695-0.131,1.107-0.132,1.112l-0.003,1.958h-1.89   c-0.276,0-0.5,0.224-0.5,0.5s0.224,0.5,0.5,0.5h1.889l-0.001,0.854H35.607C35.633,87.944,35.703,87.615,35.885,87.352z    M46.181,90.006H35.835c-0.119-0.396-0.2-0.812-0.231-1.214h10.58L46.181,90.006z M49.676,58.141c-0.741,0-1.411,0.584-1.573,1.451   l-0.921,9.615h-8.874c-0.415-2.001-1.527-8.745,0.419-15.953h21.896c1.94,7.193,0.832,13.948,0.419,15.953h-8.869L51.235,59.5   C51.087,58.725,50.417,58.141,49.676,58.141z M63.518,90.006H53.171v-1.214h10.578C63.718,89.194,63.637,89.61,63.518,90.006z    M63.468,87.352c0.182,0.264,0.252,0.593,0.277,0.94H53.171v-0.854h1.885c0.276,0,0.5-0.224,0.5-0.5s-0.224-0.5-0.5-0.5h-1.885   v-1.829l-0.008-0.128c-0.001-0.005-0.054-0.417-0.132-1.112h5.959l-0.059,0.417c-0.069,0.498-0.138,1.006-0.235,1.469L58.42,86.57   l1.34-0.116c0.004,0,0.786-0.069,1.047-0.069C61.407,86.385,62.867,86.479,63.468,87.352z M59.591,82.331   c-0.02,0.009-0.031,0.027-0.05,0.038h-6.737c-1.066-1.845-0.879-5.243-0.694-8.536c0.048-0.859,0.088-1.741,0.113-2.625h8.705   C61.145,76.807,60.556,81.873,59.591,82.331z M64.83,59.998c-0.284,0.324-0.657,0.579-1.097,0.778   c-0.06-1.865-0.265-3.904-0.696-6.021h1.744C65.168,55.881,65.872,58.807,64.83,59.998z M64.814,53.734   c-0.004,0.006-0.004,0.014-0.007,0.021h-1.997c-0.187-0.792-0.4-1.589-0.658-2.394v-9.824h4.595   C66.835,44.472,66.754,50.551,64.814,53.734z"></path><path d="M44.736,41.09h9.88c0.276,0,0.5-0.224,0.5-0.5v-4.925c0-0.276-0.224-0.5-0.5-0.5h-9.88c-0.276,0-0.5,0.224-0.5,0.5v4.925   C44.236,40.866,44.459,41.09,44.736,41.09z M45.236,36.165h8.88v3.925h-8.88V36.165z"></path><circle cx="52.498" cy="38.127" r="1"></circle><circle cx="46.854" cy="43.787" r="1"></circle><path d="M52.497,42.787h-2.696c-0.552,0-1,0.448-1,1s0.448,1,1,1h2.696c0.552,0,1-0.448,1-1S53.049,42.787,52.497,42.787z"></path></g></svg>