<svg xmlns="http://www.w3.org/2000/svg" xmlns:xlink="http://www.w3.org/1999/xlink" version="1.1" x="0px" y="0px" viewBox="-105 347 100 100"  xml:space="preserve"><path d="M-19,356.4c-1,1-2,2-2.8,3c-2.4-0.1-4.6,0.8-6.4,2.5l-3.3,3.3c-0.4,0.4-0.3,1.1,0.2,1.4l2.4,1.2c0.8,0.5,1.8,0.3,2.5-0.4  l0.3-0.3c0,0.3,0.1,0.5,0.3,0.7c0.2,0.2,0.4,0.2,0.7,0.3l-0.3,0.3c-0.7,0.7-0.8,1.7-0.4,2.5l1.2,2.4c0.2,0.5,0.9,0.6,1.4,0.2  l3.3-3.3c1.7-1.7,2.6-4,2.5-6.4c1-0.8,2-1.7,3-2.8c5-5,6.8-11.4,6.8-11.4S-14,351.4-19,356.4z M-19.5,363.9c-0.7,0.6-1.7,0.6-2.4,0  c-0.7-0.7-0.7-1.7,0-2.4s1.7-0.7,2.4,0C-18.8,362.1-18.8,363.2-19.5,363.9z M-15.9,360.3c-0.7,0.7-1.7,0.6-2.4,0  c-0.7-0.7-0.7-1.7,0-2.4s1.7-0.6,2.4,0C-15.3,358.6-15.3,359.6-15.9,360.3z M-14.7,356.7c-0.7-0.6-0.7-1.7,0-2.4  c0.7-0.6,1.7-0.6,2.4,0c0.7,0.6,0.7,1.7,0,2.4C-13,357.3-14,357.3-14.7,356.7z"></path><path d="M-65.5,423.4l5-21l-21,5.1l50.8-36.5c-16.7-15.9-43-15.6-59.4,0.8c-16.6,16.6-16.6,43.5,0,60.2c16.6,16.6,43.6,16.6,60.2,0  c16.4-16.4,16.6-42.7,0.8-59.4L-65.5,423.4z"></path></svg>