<svg xmlns="http://www.w3.org/2000/svg" data-name="Layer 1" viewBox="0 0 100 100" x="0px" y="0px"><title>20</title><g data-name="Group"><path data-name="Compound Path" d="M50,82.3a32.2,32.2,0,0,0,21.4-8.1l5.2,1.2a48.1,48.1,0,0,0,9.2,1.1c4.2,0,7.8-.9,9.2-3.7,3-5.9-6.5-14.8-12.8-19.8.1-1,.1-2,.1-3A32.3,32.3,0,0,0,28.6,25.8C20.8,23.7,8,21.3,5.1,27.2S8.4,39.3,17.8,46.9c-.1,1-.1,2-.1,3.1A32.4,32.4,0,0,0,50,82.3Zm0-2A30.4,30.4,0,0,1,19.7,50q0-.8,0-1.6A155.5,155.5,0,0,0,43.4,63.1,154.3,154.3,0,0,0,69.1,73.5,30.2,30.2,0,0,1,50,80.3Zm43.2-8.4c-1.4,2.7-7.4,3.3-16.2,1.6l-3.9-.9a32.3,32.3,0,0,0,8.8-17.2C90.5,62.4,94.8,68.7,93.2,71.9ZM80.3,50a30.2,30.2,0,0,1-9.4,22A149.4,149.4,0,0,1,44.3,61.3,149.5,149.5,0,0,1,19.9,46.2,30.3,30.3,0,0,1,80.3,50ZM6.8,28.1c1.6-3.2,9.2-3.4,20-.7a32.3,32.3,0,0,0-8.8,17.3C9.4,37.5,5.2,31.3,6.8,28.1Z"></path></g></svg>