<svg xmlns:dc="http://purl.org/dc/elements/1.1/" xmlns:cc="http://creativecommons.org/ns#" xmlns:rdf="http://www.w3.org/1999/02/22-rdf-syntax-ns#" xmlns:svg="http://www.w3.org/2000/svg" xmlns="http://www.w3.org/2000/svg" xmlns:sodipodi="http://sodipodi.sourceforge.net/DTD/sodipodi-0.dtd" xmlns:inkscape="http://www.inkscape.org/namespaces/inkscape" viewBox="0 0 25.399999 25.400001" version="1.1" x="0px" y="0px"><g transform="translate(0,-271.59998)"><path  d="M 48 2 A 45.999997 45.999997 0 0 0 2 48 A 45.999997 45.999997 0 0 0 3.90625 61.011719 A 30.950518 30.950518 0 0 1 25.607422 31.820312 A 30.950518 30.950518 0 0 0 23.431641 43.140625 A 30.950518 30.950518 0 0 0 54.380859 74.091797 A 30.950518 30.950518 0 0 0 63.619141 72.644531 A 30.950518 30.950518 0 0 1 35.453125 92.244141 A 45.999997 45.999997 0 0 0 48 94 A 45.999997 45.999997 0 0 0 94 48 A 45.999997 45.999997 0 0 0 48 2 z M 53.775391 13.470703 C 56.104918 13.522296 58.980151 14.131352 61.648438 15.671875 C 61.96348 15.864895 62.281121 16.070038 62.597656 16.283203 C 64.046977 15.017326 66.035813 14.544614 67.910156 15.046875 C 69.91269 15.583379 71.477092 17.149837 72.013672 19.152344 C 69.008093 18.055449 67.693147 18.745235 66.849609 19.933594 C 67.557677 20.734891 68.162299 21.574104 68.599609 22.431641 C 69.114797 23.548226 68.391759 23.026999 67.246094 25.134766 C 65.954538 27.213657 66.710281 27.542486 65.582031 27.65625 C 64.54135 27.675148 63.530334 27.584266 62.548828 27.40625 C 61.988358 28.706748 62.102269 30.168751 64.496094 32.173828 C 62.493534 32.710408 60.356575 32.137803 58.890625 30.671875 C 57.547766 29.329047 56.958781 27.423995 57.28125 25.574219 C 56.932963 25.396468 56.589843 25.210334 56.251953 25.017578 C 50.830659 21.887676 48.419222 15.917155 49.134766 14.677734 C 49.33948 14.323215 49.884112 14.013757 50.671875 13.794922 C 51.262919 13.631561 51.990326 13.52043 52.8125 13.482422 C 53.120815 13.468169 53.442601 13.463333 53.775391 13.470703 z M 70.376953 24.673828 C 71.022747 24.691167 71.685899 24.875064 72.005859 25.048828 C 74.46942 26.471178 75.322137 29.606315 75.240234 29.748047 C 75.175514 29.860148 72.018232 30.719262 69.554688 29.296875 C 69.074328 29.019571 68.18522 28.038737 68.056641 27.185547 C 67.986984 26.723726 67.969266 26.834001 68.494141 25.853516 C 69.063092 24.922731 68.995 24.981004 69.429688 24.810547 C 69.530446 24.772374 69.637181 24.74338 69.75 24.720703 L 69.75 24.71875 C 69.947766 24.680756 70.161689 24.668048 70.376953 24.673828 z M 75.613281 48.171875 C 76.2169 48.224758 77.409575 49.166972 77.865234 49.289062 C 78.385988 49.428598 80.27536 49.120995 80.544922 49.587891 C 80.814484 50.054786 79.604379 51.53784 79.464844 52.058594 C 79.325308 52.579348 79.630958 54.468719 79.164062 54.738281 C 78.69717 55.007843 77.216067 53.797739 76.695312 53.658203 C 76.174561 53.518667 74.285187 53.824317 74.015625 53.357422 C 73.746063 52.890527 74.956167 51.409426 75.095703 50.888672 C 75.235239 50.367918 74.927636 48.478546 75.394531 48.208984 C 75.452893 48.175289 75.52705 48.16432 75.613281 48.171875 z M 65.466797 54.904297 C 65.935855 54.945391 66.860761 55.676608 67.214844 55.771484 C 67.619509 55.879914 69.087405 55.643046 69.296875 56.005859 C 69.506345 56.368673 68.565461 57.519162 68.457031 57.923828 C 68.348601 58.328494 68.587423 59.796389 68.224609 60.005859 C 67.861796 60.21533 66.709351 59.274446 66.304688 59.166016 C 65.900022 59.057586 64.43408 59.296407 64.224609 58.933594 C 64.015139 58.57078 64.95407 57.418338 65.0625 57.013672 C 65.17093 56.609006 64.932108 55.143064 65.294922 54.933594 C 65.340274 54.90741 65.399789 54.898426 65.466797 54.904297 z M 4.0058594 61.402344 A 45.999997 45.999997 0 0 0 4.6484375 63.220703 A 46.040002 46.040002 0 0 1 4.0058594 61.402344 z M 72.722656 62.583984 C 73.268606 62.631815 74.345687 63.483321 74.757812 63.59375 C 75.228814 63.719955 76.937832 63.442946 77.181641 63.865234 C 77.425449 64.287523 76.331283 65.628607 76.205078 66.099609 C 76.078874 66.570611 76.355883 68.277676 75.933594 68.521484 C 75.511305 68.765293 74.170221 67.671126 73.699219 67.544922 C 73.228217 67.418717 71.521152 67.695725 71.277344 67.273438 C 71.033535 66.851149 72.127702 65.512018 72.253906 65.041016 C 72.380111 64.570014 72.103102 62.860995 72.525391 62.617188 C 72.578177 62.586711 72.644663 62.577151 72.722656 62.583984 z M 5.5507812 65.693359 A 45.999997 45.999997 0 0 0 6.4746094 67.660156 A 46.040002 46.040002 0 0 1 5.5507812 65.693359 z M 7.5273438 69.837891 A 45.999997 45.999997 0 0 0 8.6894531 71.777344 A 46.040002 46.040002 0 0 1 7.5273438 69.837891 z M 9.9042969 73.759766 A 45.999997 45.999997 0 0 0 11.392578 75.759766 A 46.040002 46.040002 0 0 1 9.9042969 73.759766 z M 12.642578 77.40625 A 45.999997 45.999997 0 0 0 14.447266 79.384766 A 46.040002 46.040002 0 0 1 12.642578 77.40625 z M 15.759766 80.792969 A 45.999997 45.999997 0 0 0 17.722656 82.554688 A 46.040002 46.040002 0 0 1 15.759766 80.792969 z M 19.199219 83.851562 A 45.999997 45.999997 0 0 0 21.330078 85.408203 A 46.040002 46.040002 0 0 1 19.199219 83.851562 z M 22.923828 86.546875 A 45.999997 45.999997 0 0 0 25.175781 87.871094 A 46.040002 46.040002 0 0 1 22.923828 86.546875 z M 26.900391 88.861328 A 45.999997 45.999997 0 0 0 29.201172 89.919922 A 46.040002 46.040002 0 0 1 26.900391 88.861328 z M 31.105469 90.771484 A 45.999997 45.999997 0 0 0 33.419922 91.566406 A 46.040002 46.040002 0 0 1 31.105469 90.771484 z " transform="matrix(0.26458333,0,0,0.26458333,0,271.59998)"></path></g></svg>