<svg xmlns="http://www.w3.org/2000/svg" xmlns:xlink="http://www.w3.org/1999/xlink" version="1.1" x="0px" y="0px" viewBox="0 0 100 100"  xml:space="preserve"><path d="M89.01,50.47c-0.566-0.013-1.017,0.409-1.038,0.961c-0.05,1.297-0.167,2.603-0.347,3.88  c-0.077,0.547,0.304,1.053,0.851,1.13c0.047,0.007,0.094,0.01,0.141,0.01c0.49,0,0.918-0.36,0.989-0.86  c0.189-1.344,0.312-2.718,0.365-4.083C89.992,50.955,89.562,50.49,89.01,50.47z"></path><path d="M12.818,38.117c-0.533-0.157-1.085,0.15-1.239,0.682c-0.38,1.309-0.695,2.651-0.938,3.991  c-0.099,0.543,0.262,1.063,0.806,1.162c0.061,0.011,0.12,0.016,0.179,0.016c0.475,0,0.896-0.339,0.983-0.822  c0.23-1.271,0.53-2.547,0.891-3.79C13.654,38.825,13.349,38.271,12.818,38.117z"></path><path d="M14.239,35.381c0.385,0,0.752-0.224,0.917-0.6c0.519-1.187,1.104-2.358,1.74-3.483c0.272-0.48,0.103-1.091-0.377-1.362  c-0.481-0.271-1.092-0.104-1.363,0.378c-0.67,1.184-1.287,2.417-1.833,3.667c-0.221,0.506,0.01,1.096,0.516,1.316  C13.97,35.354,14.105,35.381,14.239,35.381z"></path><path d="M11.304,54.94c0.549-0.057,0.949-0.547,0.893-1.097C12.066,52.562,12,51.253,12,49.953c0-0.661,0.017-1.319,0.05-1.973  c0.028-0.552-0.396-1.021-0.948-1.05c-0.521-0.037-1.021,0.396-1.049,0.948C10.018,48.565,10,49.257,10,49.953  c0,1.367,0.07,2.744,0.208,4.094c0.052,0.515,0.487,0.898,0.993,0.898C11.235,54.945,11.269,54.943,11.304,54.94z"></path><path d="M40.857,13.064c0.077,0,0.155-0.009,0.233-0.027c1.261-0.302,2.549-0.541,3.829-0.712c0.547-0.073,0.932-0.576,0.859-1.123  c-0.073-0.548-0.578-0.929-1.124-0.859c-1.347,0.18-2.703,0.432-4.029,0.749c-0.537,0.129-0.869,0.668-0.74,1.205  C39.996,12.756,40.405,13.064,40.857,13.064z"></path><path d="M15.972,66.871c-0.246-0.495-0.846-0.693-1.341-0.448c-0.494,0.246-0.695,0.847-0.448,1.341  c0.607,1.218,1.286,2.419,2.017,3.57c0.19,0.3,0.514,0.464,0.845,0.464c0.183,0,0.369-0.05,0.535-0.155  c0.466-0.297,0.604-0.914,0.308-1.381C17.194,69.168,16.549,68.027,15.972,66.871z"></path><path d="M22.051,24.231c0.374-0.406,0.349-1.038-0.058-1.413c-0.405-0.373-1.038-0.348-1.413,0.058c-0.922,1-1.805,2.061-2.622,3.15  c-0.331,0.441-0.242,1.068,0.2,1.399c0.18,0.135,0.391,0.2,0.599,0.2c0.304,0,0.604-0.138,0.801-0.4  C20.335,26.19,21.174,25.183,22.051,24.231z"></path><path d="M20.756,74.196c-0.353-0.424-0.985-0.482-1.408-0.129c-0.425,0.353-0.483,0.983-0.13,1.408  c0.87,1.046,1.805,2.061,2.778,3.015c0.195,0.191,0.447,0.286,0.7,0.286c0.259,0,0.518-0.101,0.714-0.3  c0.387-0.395,0.38-1.027-0.014-1.414C22.471,76.155,21.583,75.191,20.756,74.196z"></path><path d="M14.083,62.383C13.659,61.159,13.295,59.9,13,58.642c-0.126-0.538-0.666-0.869-1.202-0.745  c-0.538,0.126-0.872,0.664-0.746,1.202c0.311,1.324,0.694,2.649,1.141,3.938c0.143,0.414,0.53,0.673,0.945,0.673  c0.108,0,0.219-0.018,0.327-0.055C13.987,63.475,14.264,62.904,14.083,62.383z"></path><path d="M87.309,42.709c0.245,1.267,0.428,2.563,0.542,3.854c0.046,0.521,0.482,0.912,0.995,0.912c0.029,0,0.059-0.001,0.089-0.004  c0.55-0.049,0.957-0.534,0.908-1.084c-0.12-1.359-0.312-2.725-0.57-4.06c-0.105-0.542-0.632-0.9-1.172-0.791  C87.558,41.642,87.204,42.166,87.309,42.709z"></path><path d="M51.785,89.878c1.365-0.06,2.738-0.189,4.081-0.388c0.546-0.08,0.924-0.589,0.844-1.135  c-0.081-0.547-0.594-0.929-1.135-0.844c-1.275,0.188-2.58,0.312-3.876,0.368c-0.552,0.024-0.979,0.491-0.956,1.043  c0.023,0.536,0.466,0.956,0.998,0.956C51.755,89.879,51.77,89.879,51.785,89.878z"></path><path d="M46.666,89.78c0.028,0.002,0.055,0.003,0.083,0.003c0.516,0,0.953-0.396,0.996-0.919c0.045-0.55-0.365-1.033-0.915-1.078  c-1.287-0.104-2.585-0.278-3.858-0.518c-0.542-0.094-1.065,0.256-1.167,0.8c-0.102,0.542,0.256,1.064,0.799,1.167  C43.943,89.486,45.31,89.669,46.666,89.78z"></path><path d="M60.604,88.459c0.09,0,0.181-0.012,0.271-0.037c1.309-0.369,2.616-0.811,3.885-1.314c0.513-0.204,0.764-0.785,0.56-1.299  c-0.203-0.514-0.782-0.763-1.298-0.561c-1.205,0.479-2.446,0.898-3.688,1.248c-0.532,0.15-0.841,0.702-0.691,1.233  C59.767,88.171,60.168,88.459,60.604,88.459z"></path><path d="M66.261,14.514c-0.243,0.496-0.039,1.095,0.458,1.338c1.162,0.57,2.307,1.207,3.404,1.892  c0.165,0.104,0.348,0.152,0.529,0.152c0.333,0,0.659-0.167,0.849-0.47c0.292-0.469,0.15-1.086-0.318-1.378  c-1.154-0.722-2.359-1.392-3.583-1.991C67.103,13.811,66.504,14.018,66.261,14.514z"></path><path d="M37.637,87.971c0.102,0.033,0.206,0.049,0.308,0.049c0.422,0,0.814-0.269,0.951-0.691c0.17-0.525-0.118-1.09-0.643-1.26  c-1.226-0.397-2.45-0.865-3.637-1.391c-0.507-0.227-1.096,0.004-1.319,0.51c-0.224,0.505,0.005,1.095,0.51,1.318  C35.056,87.06,36.345,87.552,37.637,87.971z"></path><path d="M84.704,67.778c-0.485-0.265-1.092-0.089-1.358,0.396c-0.623,1.134-1.312,2.249-2.046,3.313  c-0.314,0.455-0.2,1.077,0.254,1.392c0.174,0.119,0.372,0.177,0.567,0.177c0.317,0,0.63-0.15,0.824-0.432  c0.774-1.121,1.499-2.294,2.154-3.487C85.365,68.652,85.188,68.045,84.704,67.778z"></path><path d="M71.729,81.103c-1.065,0.742-2.177,1.437-3.305,2.062c-0.483,0.268-0.658,0.876-0.39,1.359  c0.183,0.329,0.524,0.515,0.875,0.515c0.164,0,0.331-0.04,0.484-0.126c1.188-0.658,2.358-1.389,3.479-2.17  c0.453-0.315,0.564-0.939,0.249-1.393C72.806,80.899,72.183,80.788,71.729,81.103z"></path><path d="M31.534,15.611c0.176,0.348,0.528,0.549,0.894,0.549c0.151,0,0.305-0.034,0.45-0.107c1.155-0.583,2.354-1.113,3.562-1.574  c0.516-0.197,0.775-0.775,0.578-1.291c-0.196-0.516-0.775-0.774-1.291-0.578c-1.273,0.486-2.535,1.044-3.75,1.658  C31.482,14.517,31.285,15.118,31.534,15.611z"></path><path d="M27.083,80.238c-0.441-0.332-1.069-0.246-1.401,0.194c-0.333,0.44-0.247,1.067,0.194,1.401  c1.089,0.823,2.23,1.599,3.392,2.303c0.162,0.098,0.341,0.145,0.518,0.145c0.338,0,0.668-0.171,0.856-0.481  c0.287-0.473,0.136-1.087-0.336-1.374C29.201,81.757,28.117,81.021,27.083,80.238z"></path><path d="M50,11.989c1.223,0,2.457,0.059,3.668,0.174c0.033,0.004,0.064,0.005,0.096,0.005c0.51,0,0.945-0.388,0.995-0.905  c0.052-0.55-0.351-1.038-0.9-1.09C52.584,10.051,51.286,9.989,50,9.989L49.757,9.99c-0.552,0.007-0.994,0.461-0.987,1.013  c0.007,0.553,0.468,0.969,1.013,0.987L50,11.989z"></path><path d="M83.229,30.545c0.179,0,0.36-0.048,0.524-0.148c0.47-0.29,0.616-0.906,0.326-1.377c-0.716-1.161-1.5-2.296-2.328-3.375  c-0.336-0.438-0.964-0.52-1.402-0.184c-0.438,0.337-0.52,0.964-0.184,1.402c0.787,1.024,1.531,2.104,2.212,3.207  C82.566,30.376,82.894,30.545,83.229,30.545z"></path><path d="M27.558,16.867c-1.129,0.766-2.229,1.598-3.271,2.473c-0.423,0.354-0.478,0.985-0.123,1.408  c0.198,0.236,0.481,0.357,0.766,0.357c0.227,0,0.455-0.077,0.643-0.234c0.99-0.831,2.036-1.621,3.108-2.35  c0.457-0.31,0.576-0.932,0.266-1.389C28.636,16.675,28.015,16.556,27.558,16.867z"></path><path d="M57.72,11.74c-0.123,0.539,0.215,1.074,0.754,1.197c1.26,0.285,2.521,0.642,3.746,1.058  c0.106,0.036,0.215,0.053,0.321,0.053c0.417,0,0.806-0.263,0.947-0.679c0.178-0.523-0.103-1.091-0.625-1.269  c-1.291-0.438-2.619-0.812-3.946-1.114C58.379,10.867,57.842,11.202,57.72,11.74z"></path><path d="M86.484,33.546c-0.228-0.504-0.82-0.726-1.323-0.501c-0.503,0.228-0.728,0.819-0.5,1.323  c0.533,1.183,1.01,2.403,1.416,3.628c0.139,0.42,0.53,0.686,0.949,0.686c0.104,0,0.21-0.017,0.315-0.051  c0.524-0.174,0.808-0.74,0.634-1.264C87.547,36.077,87.046,34.792,86.484,33.546z"></path><path d="M87.865,59.378c-0.532-0.146-1.083,0.165-1.23,0.697c-0.345,1.247-0.758,2.49-1.229,3.694  c-0.201,0.515,0.053,1.095,0.567,1.296c0.12,0.047,0.243,0.068,0.364,0.068c0.4,0,0.777-0.241,0.932-0.636  c0.496-1.268,0.932-2.577,1.294-3.89C88.709,60.076,88.397,59.525,87.865,59.378z"></path><path d="M78.284,75.308c-0.863,0.961-1.788,1.89-2.748,2.76c-0.409,0.371-0.44,1.004-0.069,1.413  c0.197,0.218,0.469,0.328,0.741,0.328c0.239,0,0.479-0.086,0.671-0.259c1.01-0.917,1.984-1.895,2.893-2.906  c0.369-0.411,0.335-1.043-0.076-1.412C79.286,74.862,78.654,74.897,78.284,75.308z"></path><path d="M73.936,19.173c-0.35,0.428-0.287,1.058,0.141,1.407c1,0.818,1.969,1.699,2.883,2.619c0.196,0.196,0.453,0.295,0.709,0.295  c0.255,0,0.51-0.097,0.705-0.291c0.392-0.389,0.394-1.022,0.004-1.414c-0.962-0.968-1.983-1.896-3.036-2.756  C74.916,18.683,74.286,18.746,73.936,19.173z"></path><path d="M50,20.012c-16.524,0-29.968,13.432-29.968,29.941S33.476,79.895,50,79.895s29.968-13.432,29.968-29.941  S66.524,20.012,50,20.012z M63.177,25.316c1.742,0.934,3.372,2.049,4.87,3.316C67.511,29.474,66.573,30,65.554,30  c-1.628,0-2.953-1.323-2.953-2.95C62.601,26.416,62.808,25.818,63.177,25.316z M35.185,26.27c0.841,0.93,1.159,2.239,0.807,3.467  c-0.269,0.941-0.888,1.721-1.743,2.195c-0.854,0.477-1.843,0.59-2.782,0.319c-0.779-0.222-1.436-0.696-1.912-1.336  C31.219,29.133,33.111,27.57,35.185,26.27z M27.726,66.827c-1.183-1.555-2.206-3.237-3.046-5.022  c0.822-0.585,1.898-0.718,2.848-0.323c0.729,0.302,1.296,0.87,1.598,1.599c0.301,0.729,0.301,1.53-0.001,2.258  C28.852,65.994,28.355,66.509,27.726,66.827z M29.015,68.395c0.87-0.541,1.556-1.326,1.956-2.289  c0.507-1.222,0.508-2.567,0.002-3.79c-0.506-1.222-1.458-2.175-2.679-2.682c-1.456-0.604-3.083-0.461-4.405,0.315  c-1.195-3.106-1.857-6.474-1.857-9.996c0-6.62,2.321-12.706,6.186-17.498c0.71,0.816,1.635,1.415,2.699,1.719  c0.517,0.148,1.042,0.222,1.564,0.222c0.949,0,1.887-0.241,2.739-0.715c1.322-0.734,2.278-1.94,2.694-3.394  c0.503-1.759,0.108-3.619-0.985-5.027c3.904-2.071,8.35-3.249,13.07-3.249c4.045,0,7.888,0.869,11.363,2.419  c-0.49,0.779-0.762,1.676-0.762,2.619c0,2.729,2.222,4.95,4.953,4.95c1.592,0,3.055-0.773,3.977-2.02  c5.2,5.077,8.437,12.153,8.437,19.973c0,5.051-1.355,9.789-3.711,13.882c-0.794-0.651-1.742-1.089-2.784-1.235  c-1.497-0.209-2.986,0.176-4.193,1.086c-1.207,0.911-1.988,2.237-2.198,3.735c-0.256,1.824,0.404,3.626,1.701,4.869  c-4.678,3.517-10.49,5.605-16.783,5.605C41.648,77.895,34.144,74.213,29.015,68.395z M68.342,71.019  c-0.962-0.803-1.458-2.055-1.28-3.321c0.136-0.969,0.641-1.827,1.422-2.416c0.78-0.589,1.743-0.842,2.71-0.702  c0.763,0.107,1.451,0.451,1.999,0.971C71.822,67.581,70.185,69.416,68.342,71.019z"></path><path d="M38.913,49.081c0-2.982-2.429-5.409-5.414-5.409s-5.414,2.427-5.414,5.409c0,2.983,2.429,5.41,5.414,5.41  S38.913,52.064,38.913,49.081z M33.5,52.491c-1.882,0-3.414-1.53-3.414-3.41s1.531-3.409,3.414-3.409s3.414,1.529,3.414,3.409  S35.382,52.491,33.5,52.491z"></path><path d="M55.845,49.955c0-2.983-2.429-5.41-5.414-5.41s-5.414,2.427-5.414,5.41c0,2.982,2.429,5.409,5.414,5.409  S55.845,52.938,55.845,49.955z M50.431,53.364c-1.882,0-3.414-1.529-3.414-3.409s1.531-3.41,3.414-3.41s3.414,1.53,3.414,3.41  S52.313,53.364,50.431,53.364z"></path><path d="M72.566,52.693c0-2.543-2.071-4.612-4.616-4.612s-4.616,2.069-4.616,4.612c0,2.544,2.071,4.613,4.616,4.613  S72.566,55.237,72.566,52.693z M65.335,52.693c0-1.44,1.173-2.612,2.616-2.612s2.616,1.172,2.616,2.612  c0,1.441-1.173,2.613-2.616,2.613S65.335,54.135,65.335,52.693z"></path><path d="M66.948,39.674c0-2.543-2.071-4.612-4.616-4.612s-4.616,2.069-4.616,4.612s2.071,4.612,4.616,4.612  S66.948,42.217,66.948,39.674z M62.333,42.286c-1.442,0-2.616-1.172-2.616-2.612s1.173-2.612,2.616-2.612s2.616,1.172,2.616,2.612  S63.775,42.286,62.333,42.286z"></path><path d="M56,60.333c-2.545,0-4.616,2.069-4.616,4.613c0,2.543,2.071,4.612,4.616,4.612s4.616-2.069,4.616-4.612  C60.616,62.402,58.545,60.333,56,60.333z M56,67.559c-1.442,0-2.616-1.172-2.616-2.612c0-1.441,1.173-2.613,2.616-2.613  s2.616,1.172,2.616,2.613C58.616,66.387,57.442,67.559,56,67.559z"></path><path d="M41.513,57.441c-3.65,0-6.62,2.967-6.62,6.614s2.97,6.614,6.62,6.614s6.62-2.967,6.62-6.614S45.163,57.441,41.513,57.441z   M41.513,68.67c-2.547,0-4.62-2.07-4.62-4.614s2.072-4.614,4.62-4.614s4.62,2.07,4.62,4.614S44.06,68.67,41.513,68.67z"></path><path d="M47.132,40.674c3.65,0,6.62-2.967,6.62-6.614s-2.97-6.614-6.62-6.614s-6.62,2.967-6.62,6.614S43.482,40.674,47.132,40.674z   M47.132,29.445c2.547,0,4.62,2.07,4.62,4.614s-2.072,4.614-4.62,4.614s-4.62-2.07-4.62-4.614S44.585,29.445,47.132,29.445z"></path></svg>