<svg xmlns="http://www.w3.org/2000/svg" xmlns:xlink="http://www.w3.org/1999/xlink" version="1.1" x="0px" y="0px" viewBox="0 0 66 66"  xml:space="preserve"><path d="M63.47,45.6c-6.22,5.24-13.86,8.69-22.1,9.97c-0.91,0.14-1.93,0.28-3,0.38c-0.22-2.68-2.32-4.8-4.9-4.8  c-2.48,0-4.51,1.95-4.87,4.48c-3.09-0.68-5.72-2.1-6.93-4.78c-0.82-1.82-0.84-3.8-0.06-5.72c0.94-2.31,2.99-4.36,5.43-5.51  c0.45,0.55,0.97,1.04,1.55,1.48c-0.73,2.22,0.68,4.66,2.53,5.74c1.45,0.85,3.1,1.08,4.62,1.08c0.62,0,1.22-0.04,1.77-0.09  c9.68-0.86,18.98-6.47,24.25-14.63c0.22-0.34,0.12-0.8-0.22-1.02c-0.34-0.22-0.8-0.12-1.02,0.22c-5.04,7.79-13.91,13.14-23.15,13.97  c-1.68,0.15-3.82,0.19-5.52-0.79c-1.23-0.72-2.2-2.26-1.96-3.65c1.1,0.55,2.36,0.89,3.78,0.92c0.07,0,0.13,0,0.2,0  c3.33,0,6.41-2.03,7.99-4.89c0.08,0.03,0.17,0.05,0.26,0.05c0.04,0,0.08,0,0.13-0.01c7.4-1.28,15.04-7.38,17.85-14.22  c2.68-0.11,4.83-2.13,4.83-4.61c0-2.38-1.98-4.33-4.51-4.58c-0.33-0.91-0.76-1.81-1.32-2.67c-2.03-3.13-6.26-4.95-12.94-5.55  c-0.41-0.03-0.76,0.26-0.8,0.67c-0.04,0.4,0.26,0.76,0.67,0.8c6.2,0.56,10.07,2.16,11.84,4.89c0.4,0.62,0.72,1.27,0.99,1.92  c-2.29,0.44-4.02,2.3-4.02,4.53c0,2.13,1.59,3.91,3.73,4.45c-2.69,6.08-9.4,11.45-16.03,12.81c0.25-0.74,0.4-1.52,0.43-2.32  c0.06-1.47-0.27-2.88-0.91-4.15c2.24-1.06,3.98-3.15,4.77-5.76c0.81-2.69,0.49-5.46-0.87-7.61c-2.11-3.32-5.41-5.42-9.81-6.26  c-0.23-0.04-0.46-0.07-0.69-0.1c-0.37-3.31-3.23-5.89-6.69-5.89c-3.71,0-6.73,2.97-6.73,6.63c0,0.12,0.01,0.24,0.02,0.36  c-5.56,1.5-10.63,3.97-13.7,6.21c-0.33,0.24-0.4,0.7-0.16,1.03c0.24,0.33,0.7,0.4,1.03,0.16c2.94-2.14,7.78-4.51,13.08-5.96  c0.8,2.78,3.4,4.83,6.47,4.83c3.45,0,6.31-2.58,6.69-5.88c0.14,0.02,0.28,0.04,0.42,0.06c3.99,0.76,6.96,2.64,8.84,5.6  c1.14,1.79,1.4,4.12,0.71,6.4c-0.69,2.28-2.19,4.07-4.13,4.93c0,0,0,0,0,0c-0.32-0.43-0.67-0.84-1.08-1.22  c-0.16-0.15-0.34-0.28-0.51-0.42c-5-8.27-17.17-6.25-23.59-3.75c-1.18,0.46-2.32,1.02-3.41,1.65c-0.74-0.47-1.63-0.75-2.59-0.75  c-2.49,0-4.52,1.84-4.52,4.1c0,0.74,0.23,1.42,0.61,2.01c-2.26,2.58-4.02,5.59-5.08,8.88c-0.13,0.39,0.09,0.8,0.47,0.93  c0.08,0.02,0.15,0.04,0.23,0.04c0.31,0,0.6-0.2,0.7-0.51c0.99-3.04,2.6-5.84,4.67-8.25c0.79,0.62,1.81,1,2.93,1  c2.49,0,4.52-1.84,4.52-4.1c0-0.85-0.29-1.64-0.78-2.29c0.9-0.5,1.82-0.96,2.78-1.34c5.14-2.01,14.19-3.72,19.49,0.53  c-1.33-0.39-2.75-0.53-4.16-0.37c-4.29,0.48-6.37,3.11-7.06,5.9c-0.11-0.03-0.22-0.05-0.34-0.03c-5.25,0.92-9.86,3.79-12.64,7.88  c-3.02,4.42-3.68,10.06-1.73,14.71c2.04,4.87,6.93,8.22,11.96,8.22c0.07,0,0.13,0,0.2,0c0.41-0.01,0.73-0.34,0.72-0.75  c-0.01-0.4-0.34-0.72-0.74-0.72c0,0-0.01,0-0.01,0c-4.46,0.07-8.95-2.93-10.78-7.32c-1.73-4.14-1.11-9.36,1.59-13.32  c2.54-3.72,6.73-6.34,11.53-7.22c-0.03,0.4-0.05,0.8-0.03,1.2c0.07,1.72,0.6,3.48,1.53,5.02c-2.66,1.32-4.89,3.6-5.93,6.16  c-0.93,2.3-0.91,4.68,0.08,6.88c1.47,3.28,4.57,4.98,8.27,5.73c0-0.01,0-0.01,0-0.02c0.35,2.54,2.39,4.51,4.87,4.51  c2.4,0,4.4-1.82,4.85-4.23c1.12-0.11,2.22-0.25,3.28-0.41c8.51-1.33,16.4-4.89,22.82-10.3c0.31-0.26,0.35-0.73,0.09-1.04  C64.24,45.38,63.78,45.34,63.47,45.6z M56.3,19.17c0-1.74,1.61-3.16,3.58-3.16c1.97,0,3.58,1.42,3.58,3.16s-1.61,3.16-3.58,3.16  C57.9,22.32,56.3,20.91,56.3,19.17z M28.76,16.11c-2.9,0-5.26-2.31-5.26-5.16c0-2.84,2.36-5.16,5.26-5.16s5.26,2.31,5.26,5.16  C34.02,13.8,31.66,16.11,28.76,16.11z M10.11,30.95c-1.68,0-3.05-1.18-3.05-2.63c0-1.45,1.37-2.63,3.05-2.63s3.05,1.18,3.05,2.63  C13.16,29.77,11.79,30.95,10.11,30.95z M26.12,33.34c-0.13-3.06,1.38-6.51,6.02-7.03c0.34-0.04,0.67-0.06,1.01-0.06  c2.26,0,4.47,0.83,6.06,2.31c1.1,1.02,2.39,2.8,2.29,5.49c-0.15,3.93-3.89,7.44-7.79,7.32C29,41.26,26.28,37.15,26.12,33.34z   M33.47,60.2c-1.91,0-3.47-1.7-3.47-3.79c0-2.09,1.56-3.79,3.47-3.79s3.47,1.7,3.47,3.79C36.94,58.5,35.38,60.2,33.47,60.2z"></path><path d="M31.98,39.52c1.07,0.49,1.81,0.53,1.83,0.45c0.03-0.11-0.65-0.31-1.59-0.88c-0.94-0.56-2.14-1.55-2.97-3  c-0.82-1.45-1.06-2.99-1.06-4.08c-0.01-1.1,0.16-1.79,0.05-1.82c-0.08-0.03-0.42,0.63-0.55,1.8c-0.13,1.16,0.04,2.86,0.95,4.45  C29.55,38.02,30.92,39.04,31.98,39.52z"></path></svg>