<svg xmlns="http://www.w3.org/2000/svg" xmlns:xlink="http://www.w3.org/1999/xlink" version="1.1" x="0px" y="0px" viewBox="0 0 100 100"  xml:space="preserve"><path d="M66.1484375,33.8110352c-8.8818359-8.8808594-23.3325195-8.8808594-32.2133789,0  c-4.4227905,4.4225464-6.6398315,10.2265015-6.6576538,16.0360107c-0.00177,0.0245361-0.0142212,0.0454712-0.0142212,0.0704346  s0.0124512,0.0458374,0.0142212,0.0703735c0.0177612,5.8096313,2.2348633,11.6137695,6.6576538,16.0365601  c4.440918,4.440918,10.2729492,6.6606445,16.1064453,6.6606445c5.8325195,0,11.6669922-2.2207031,16.1069336-6.6606445  c4.3022461-4.3022461,6.671875-10.0224609,6.671875-16.1064453C72.8203125,43.8334961,70.4506836,38.1132812,66.1484375,33.8110352z   M68.6279907,59.1723633H31.4558105c-1.2922974-2.6013184-1.9991455-5.4142456-2.1348877-8.2548828h41.4420166  C70.6271973,53.7581177,69.9204102,56.5710449,68.6279907,59.1723633z M29.3209229,48.9174805  c0.1420288-2.9721069,0.895874-5.9193115,2.3040771-8.6196289h36.8337402  c1.4082642,2.7003174,2.1621094,5.647522,2.3041992,8.6196289H29.3209229z M35.3491211,35.2250977  c4.0507812-4.0507812,9.371582-6.0756836,14.6923828-6.0756836s10.6420898,2.0249023,14.6928711,6.0756836  c0.9573364,0.9573364,1.7923584,1.9902954,2.5234375,3.0727539H32.8258667  C33.5569458,37.2153931,34.3918457,36.1824341,35.3491211,35.2250977z M64.734375,64.6103516  c-8.1020508,8.1010742-21.2841797,8.1010742-29.3852539,0c-1.0645752-1.0646362-1.9805298-2.2208862-2.7653198-3.4379883h34.9160767  C66.7150269,62.3894653,65.7990112,63.5457153,64.734375,64.6103516z"></path><path d="M50,22.6323242c3.5107422,0,6.3666992-2.8422852,6.3666992-6.3364258S53.5107422,9.9594727,50,9.9594727  s-6.3666992,2.8422852-6.3666992,6.3364258S46.4892578,22.6323242,50,22.6323242z M50,11.9594727  c2.4077148,0,4.3666992,1.9453125,4.3666992,4.3364258S52.4077148,20.6323242,50,20.6323242  s-4.3666992-1.9453125-4.3666992-4.3364258S47.5922852,11.9594727,50,11.9594727z"></path><path d="M73.815918,32.5073242c0.0058594,0,0.012207,0,0.0180664,0c1.690918,0,3.2783203-0.6567383,4.4711914-1.8500977  c1.1977539-1.1972656,1.8549805-2.7919922,1.8500977-4.4892578c-0.0048828-1.6953125-0.6694336-3.2910156-1.8710938-4.4926758  s-2.7973633-1.8662109-4.4926758-1.8710938c-0.0063477,0-0.0126953,0-0.0185547,0  c-1.690918,0-3.2783203,0.65625-4.4711914,1.8496094c-1.1977539,1.1972656-1.8544922,2.7919922-1.8496094,4.4897461  c0.0043945,1.6953125,0.6689453,3.2910156,1.8710938,4.4926758C70.5249023,31.8378906,72.1206055,32.5024414,73.815918,32.5073242z   M70.7158203,23.0678711c0.8417969-0.8413086,1.9482422-1.2617188,3.0571289-1.2617188  c1.1196289,0,2.2416992,0.4282227,3.097168,1.2832031c0.8251953,0.8256836,1.2817383,1.9208984,1.2851562,3.0839844  c0.003418,1.1611328-0.4458008,2.2514648-1.2641602,3.0698242c-0.8154297,0.8154297-1.9008789,1.2641602-3.0571289,1.2641602  c-0.0043945,0-0.0083008,0-0.0126953,0c-1.1630859-0.003418-2.2583008-0.4599609-3.0839844-1.2851562  c-0.8256836-0.8256836-1.2822266-1.9208984-1.2851562-3.0844727C69.4487305,24.9765625,69.8974609,23.8862305,70.7158203,23.0678711  z"></path><path d="M77.3266602,49.9594727c0,3.5102539,2.8427734,6.3662109,6.3369141,6.3662109S90,53.4697266,90,49.9594727  c0-3.5107422-2.8422852-6.3666992-6.3364258-6.3666992S77.3266602,46.4487305,77.3266602,49.9594727z M83.6635742,45.5927734  C86.0546875,45.5927734,88,47.5517578,88,49.9594727s-1.9453125,4.3662109-4.3364258,4.3662109  c-2.3916016,0-4.3369141-1.9584961-4.3369141-4.3662109S81.2719727,45.5927734,83.6635742,45.5927734z"></path><path d="M73.7734375,80.1147461c0.0058594,0,0.0117188,0,0.0180664-0.0004883  c1.6953125-0.0043945,3.2910156-0.6689453,4.4926758-1.8706055s1.8662109-2.7973633,1.8710938-4.4926758  c0.0048828-1.6977539-0.6523438-3.2924805-1.8500977-4.4897461c-2.4707031-2.4707031-6.5004883-2.4624023-8.9819336,0.0209961  c-1.2021484,1.2016602-1.8666992,2.7973633-1.8710938,4.4926758c-0.0048828,1.6977539,0.6518555,3.2924805,1.8496094,4.4897461  C70.4951172,79.4580078,72.0825195,80.1147461,73.7734375,80.1147461z M70.7373047,70.6962891  c0.8549805-0.8549805,1.9770508-1.2827148,3.0961914-1.2827148c1.109375,0,2.2158203,0.4204102,3.0576172,1.2617188  c0.8183594,0.8183594,1.2675781,1.9086914,1.2641602,3.0698242c-0.003418,1.1635742-0.4599609,2.2587891-1.2851562,3.0844727  c-1.7021484,1.7016602-4.4628906,1.7128906-6.1542969,0.0209961c-0.8183594-0.8183594-1.2670898-1.9086914-1.2636719-3.0698242  C69.4550781,72.6171875,69.9116211,71.5219727,70.7373047,70.6962891z"></path><path d="M56.3666992,83.6225586c0-3.4941406-2.855957-6.3364258-6.3666992-6.3364258s-6.3666992,2.8422852-6.3666992,6.3364258  S46.4892578,89.9594727,50,89.9594727S56.3666992,87.1166992,56.3666992,83.6225586z M50,87.9594727  c-2.4077148,0-4.3666992-1.9453125-4.3666992-4.3369141c0-2.3911133,1.9589844-4.3364258,4.3666992-4.3364258  s4.3666992,1.9453125,4.3666992,4.3364258C54.3666992,86.0141602,52.4077148,87.9594727,50,87.9594727z"></path><path d="M26.2084961,80.1142578c0.0063477,0.0004883,0.012207,0.0004883,0.0180664,0.0004883  c1.690918-0.0004883,3.2783203-0.6567383,4.4716797-1.8500977c1.1977539-1.1972656,1.8544922-2.7919922,1.8496094-4.4897461  c-0.0043945-1.6953125-0.6689453-3.2910156-1.8710938-4.4926758c-2.4819336-2.4819336-6.5107422-2.4912109-8.9819336-0.0209961  c-1.1977539,1.1972656-1.8549805,2.7919922-1.8500977,4.4897461c0.0048828,1.6953125,0.6694336,3.2910156,1.8710938,4.4926758  S24.5131836,80.1098633,26.2084961,80.1142578z M23.1088867,70.675293c0.8417969-0.8417969,1.9482422-1.2617188,3.0576172-1.2617188  c1.1191406,0,2.2412109,0.4277344,3.0961914,1.2827148c0.8256836,0.8256836,1.2822266,1.9208984,1.2851562,3.0844727  c0.003418,1.1611328-0.4453125,2.2514648-1.2636719,3.0698242c-1.6914062,1.6914062-4.4521484,1.6811523-6.1542969-0.0209961  c-0.8251953-0.8256836-1.2817383-1.9208984-1.2851562-3.0844727C21.8413086,72.5839844,22.2905273,71.4936523,23.1088867,70.675293z  "></path><path d="M16.3364258,56.3256836c3.4941406,0,6.3369141-2.855957,6.3369141-6.3662109  c0-3.5107422-2.8427734-6.3666992-6.3369141-6.3666992S10,46.4487305,10,49.9594727  C10,53.4697266,12.8422852,56.3256836,16.3364258,56.3256836z M16.3364258,45.5927734  c2.3916016,0,4.3369141,1.9589844,4.3369141,4.3666992s-1.9453125,4.3662109-4.3369141,4.3662109  C13.9453125,54.3256836,12,52.3671875,12,49.9594727S13.9453125,45.5927734,16.3364258,45.5927734z"></path><path d="M26.1660156,32.5073242c0.0058594,0,0.012207,0,0.0180664,0c1.6953125-0.0048828,3.2910156-0.6694336,4.4926758-1.8710938  c1.2021484-1.2016602,1.8666992-2.7973633,1.8710938-4.4926758c0.0048828-1.6977539-0.6518555-3.2924805-1.8496094-4.4897461  c-1.1933594-1.1933594-2.7802734-1.8496094-4.4711914-1.8496094c-0.0058594,0-0.012207,0-0.0185547,0  c-1.6953125,0.0048828-3.2910156,0.6694336-4.4926758,1.8710938s-1.8662109,2.7973633-1.8710938,4.4926758  c-0.0048828,1.6972656,0.6523438,3.2919922,1.8500977,4.4892578C22.8876953,31.8505859,24.4750977,32.5073242,26.1660156,32.5073242  z M23.1298828,23.0893555c0.8554688-0.8549805,1.9775391-1.2832031,3.097168-1.2832031  c1.1088867,0,2.2158203,0.4204102,3.0571289,1.2617188c0.8183594,0.8183594,1.2670898,1.9086914,1.2636719,3.0698242  c-0.0029297,1.1635742-0.4594727,2.2587891-1.2851562,3.0844727c-0.8256836,0.8251953-1.9208984,1.2817383-3.0839844,1.2851562  c-1.1621094-0.003418-2.2514648-0.4458008-3.0698242-1.2641602s-1.2675781-1.9086914-1.2641602-3.0698242  C21.8481445,25.0102539,22.3046875,23.9150391,23.1298828,23.0893555z"></path><path d="M33.625,21.5405273c0.1650391,0,0.3320312-0.0405273,0.4863281-0.1264648  c2.0766602-1.1586914,4.2822266-2.0893555,6.5556641-2.765625c0.5292969-0.1577148,0.8310547-0.7143555,0.6733398-1.2436523  s-0.7133789-0.8291016-1.2436523-0.6733398c-2.4135742,0.7182617-4.7553711,1.7060547-6.9599609,2.9355469  c-0.4824219,0.2695312-0.6552734,0.878418-0.3862305,1.3608398C32.9335938,21.355957,33.2739258,21.5405273,33.625,21.5405273z"></path><path d="M58.8613281,18.5029297c2.2871094,0.6489258,4.5048828,1.5507812,6.5908203,2.6801758  c0.1513672,0.0820312,0.3144531,0.1206055,0.4750977,0.1206055c0.3554688,0,0.6992188-0.1894531,0.8803711-0.5239258  c0.2631836-0.4858398,0.0825195-1.0927734-0.4033203-1.3554688c-2.2148438-1.1992188-4.5688477-2.15625-6.9970703-2.8452148  c-0.53125-0.1494141-1.0844727,0.1577148-1.2348633,0.6889648C58.0214844,17.7993164,58.3300781,18.3520508,58.8613281,18.5029297z"></path><path d="M78.8061523,32.5849609c-0.4824219,0.269043-0.6552734,0.8779297-0.3857422,1.3603516  c1.1577148,2.074707,2.0878906,4.2807617,2.765625,6.5561523c0.1293945,0.434082,0.5273438,0.7148438,0.9580078,0.7148438  c0.0947266,0,0.190918-0.0136719,0.2861328-0.0419922c0.5292969-0.1577148,0.8305664-0.7143555,0.6728516-1.2441406  c-0.7192383-2.4155273-1.7075195-4.7568359-2.9365234-6.9594727C79.8984375,32.4887695,79.2895508,32.315918,78.8061523,32.5849609z  "></path><path d="M80.4101562,66.2387695c1.1987305-2.2148438,2.1557617-4.5693359,2.8452148-6.9975586  c0.1508789-0.53125-0.1577148-1.0839844-0.6889648-1.2348633c-0.5302734-0.1503906-1.0834961,0.1582031-1.2348633,0.6889648  c-0.6494141,2.2875977-1.5512695,4.5048828-2.6801758,6.5913086c-0.2626953,0.4858398-0.0820312,1.0927734,0.4033203,1.3554688  c0.1513672,0.0820312,0.3144531,0.1206055,0.4750977,0.1206055C79.8852539,66.7626953,80.2294922,66.5732422,80.4101562,66.2387695z  "></path><path d="M65.8886719,78.2543945c-2.0766602,1.1586914-4.2822266,2.0893555-6.5556641,2.765625  c-0.5292969,0.1577148-0.8310547,0.7143555-0.6733398,1.2436523c0.1293945,0.434082,0.5268555,0.715332,0.9580078,0.715332  c0.0947266,0,0.1904297-0.0136719,0.2856445-0.0419922c2.4135742-0.7182617,4.7553711-1.7060547,6.9599609-2.9355469  c0.4824219-0.2695312,0.6552734-0.878418,0.3862305-1.3608398C66.980957,78.1586914,66.3710938,77.9858398,65.8886719,78.2543945z"></path><path d="M34.5478516,78.4853516c-0.4858398-0.2626953-1.0917969-0.0825195-1.3554688,0.4033203  c-0.2631836,0.4858398-0.0825195,1.0927734,0.4033203,1.3554688c2.2148438,1.1992188,4.5688477,2.15625,6.9970703,2.8457031  c0.0913086,0.0258789,0.1831055,0.0385742,0.2734375,0.0385742c0.4360352,0,0.8364258-0.2875977,0.9614258-0.7275391  c0.1508789-0.53125-0.1577148-1.0839844-0.6889648-1.2348633C38.8515625,80.5166016,36.6337891,79.6147461,34.5478516,78.4853516z"></path><path d="M21.1938477,67.0834961c0.4824219-0.269043,0.6552734-0.8779297,0.3857422-1.3603516  c-1.1577148-2.0751953-2.0883789-4.28125-2.765625-6.5556641c-0.1582031-0.5297852-0.7167969-0.8300781-1.2436523-0.6733398  c-0.5292969,0.1577148-0.8310547,0.7143555-0.6733398,1.2436523c0.7192383,2.4150391,1.7070312,4.7568359,2.9365234,6.9599609  c0.1826172,0.328125,0.5229492,0.5126953,0.8740234,0.5126953C20.8725586,67.2104492,21.0395508,67.1699219,21.1938477,67.0834961z"></path><path d="M17.4335938,41.6621094c0.0913086,0.0258789,0.1831055,0.0385742,0.2734375,0.0385742  c0.4360352,0,0.8364258-0.2875977,0.9614258-0.7275391c0.6494141-2.2875977,1.5512695-4.5053711,2.6801758-6.5908203  c0.2626953-0.4858398,0.0825195-1.0927734-0.4033203-1.3554688c-0.4858398-0.2631836-1.0922852-0.081543-1.3554688,0.4033203  c-1.1987305,2.2143555-2.1557617,4.5683594-2.8452148,6.9970703C16.59375,40.9584961,16.9023438,41.5112305,17.4335938,41.6621094z"></path></svg>