<svg xmlns="http://www.w3.org/2000/svg" data-name="Layer 1" viewBox="0 0 64 64" x="0px" y="0px"><title>space_9</title><path d="M46,19a5,5,0,1,1-5-5A5,5,0,0,1,46,19ZM27.9,38.54c-4-3.37-7.84-6.54-15.52-6.54A53.27,53.27,0,0,0,0,33.3,31.69,31.69,0,0,0,4.29,48H24a2,2,0,1,1,0,4H7a32,32,0,0,0,54.82-8.53A49.48,49.48,0,0,1,46,46C36.86,46,32.1,42,27.9,38.54ZM64,32a32.21,32.21,0,0,1-.69,6.63A44.88,44.88,0,0,1,46,42c-7.67,0-11.48-3.17-15.52-6.54C26.27,32,21.51,28,12.38,28A59,59,0,0,0,.12,29.17,32,32,0,0,1,64,32ZM50,19a9,9,0,1,0-9,9A9,9,0,0,0,50,19Z"></path></svg>