<svg xmlns="http://www.w3.org/2000/svg" xmlns:xlink="http://www.w3.org/1999/xlink" version="1.1" x="0px" y="0px" viewBox="0 0 100 100"  xml:space="preserve"><path d="M82.221,15.198c0-2.878-2.342-5.219-5.22-5.219s-5.219,2.341-5.219,5.219s2.341,5.219,5.219,5.219  S82.221,18.076,82.221,15.198z M77.001,18.417c-1.774,0-3.219-1.444-3.219-3.219s1.444-3.219,3.219-3.219  c1.775,0,3.22,1.444,3.22,3.219S78.776,18.417,77.001,18.417z"></path><path d="M84.781,24.632c-2.878,0-5.22,2.342-5.22,5.22s2.342,5.219,5.22,5.219S90,32.729,90,29.852S87.659,24.632,84.781,24.632z   M84.781,33.07c-1.775,0-3.22-1.444-3.22-3.219c0-1.775,1.444-3.22,3.22-3.22c1.774,0,3.219,1.444,3.219,3.22  C88,31.626,86.556,33.07,84.781,33.07z"></path><path d="M15.219,75.924c2.878,0,5.22-2.341,5.22-5.219s-2.342-5.219-5.22-5.219S10,67.827,10,70.705S12.341,75.924,15.219,75.924z   M15.219,67.486c1.775,0,3.22,1.444,3.22,3.219s-1.444,3.219-3.22,3.219c-1.774,0-3.219-1.444-3.219-3.219  S13.444,67.486,15.219,67.486z"></path><path d="M81.221,79.312c-2.878,0-5.22,2.341-5.22,5.219s2.342,5.219,5.22,5.219s5.219-2.341,5.219-5.219  S84.099,79.312,81.221,79.312z M81.221,87.749c-1.775,0-3.22-1.444-3.22-3.219s1.444-3.219,3.22-3.219  c1.774,0,3.219,1.444,3.219,3.219S82.995,87.749,81.221,87.749z"></path><path d="M10.541,21.059l5.458,2.821l0.77,6.097c0.048,0.378,0.306,0.695,0.665,0.82c0.107,0.037,0.218,0.055,0.327,0.055  c0.259,0,0.513-0.101,0.703-0.289l4.371-4.319l6.035,1.152c0.372,0.071,0.756-0.076,0.985-0.38s0.267-0.711,0.096-1.052l-2.757-5.49  l2.96-5.386c0.184-0.333,0.162-0.742-0.056-1.054c-0.219-0.312-0.597-0.475-0.971-0.416l-6.074,0.926l-4.206-4.48  c-0.262-0.278-0.659-0.383-1.021-0.272c-0.364,0.111-0.634,0.419-0.695,0.795l-0.997,6.063l-5.561,2.615  c-0.345,0.162-0.567,0.506-0.574,0.887S10.202,20.884,10.541,21.059z M17.462,18.235c0.298-0.141,0.508-0.418,0.561-0.743  l0.754-4.582l3.179,3.386c0.226,0.24,0.558,0.354,0.88,0.304l4.591-0.699l-2.237,4.07c-0.159,0.288-0.165,0.636-0.018,0.931  l2.084,4.149l-4.562-0.871c-0.323-0.06-0.655,0.039-0.891,0.271l-3.304,3.265l-0.581-4.607c-0.041-0.327-0.24-0.612-0.533-0.764  l-4.126-2.133L17.462,18.235z"></path><path d="M44.5,74.526c-0.219-0.312-0.599-0.475-0.971-0.416l-5.253,0.8l-3.638-3.874c-0.261-0.277-0.657-0.383-1.02-0.272  c-0.364,0.111-0.634,0.419-0.695,0.795l-0.863,5.243l-4.808,2.262c-0.345,0.162-0.567,0.506-0.574,0.887s0.202,0.732,0.541,0.907  l4.719,2.439l0.666,5.271c0.048,0.378,0.306,0.695,0.665,0.82c0.107,0.037,0.218,0.055,0.327,0.055c0.259,0,0.513-0.101,0.703-0.289  l3.779-3.733l5.22,0.995c0.373,0.07,0.755-0.075,0.985-0.38c0.229-0.304,0.267-0.711,0.096-1.052l-2.384-4.747l2.56-4.657  C44.739,75.247,44.718,74.838,44.5,74.526z M39.973,80.665l1.711,3.407l-3.746-0.715c-0.322-0.059-0.655,0.039-0.891,0.271  l-2.712,2.68l-0.478-3.783c-0.041-0.327-0.24-0.612-0.533-0.764l-3.387-1.751l3.45-1.623c0.298-0.141,0.508-0.418,0.561-0.743  l0.62-3.763l2.61,2.78c0.225,0.24,0.556,0.355,0.879,0.304l3.77-0.573l-1.837,3.342C39.831,80.022,39.825,80.37,39.973,80.665z"></path><path d="M64.547,56.146c-2.41-1.021-5.192,0.109-6.213,2.513c-0.494,1.165-0.504,2.453-0.029,3.626  c0.475,1.174,1.377,2.092,2.542,2.586c0.602,0.255,1.227,0.375,1.843,0.375c1.846,0,3.604-1.085,4.37-2.888  c0.494-1.165,0.504-2.453,0.029-3.626C66.614,57.558,65.712,56.64,64.547,56.146z M65.218,61.576c-0.59,1.39-2.202,2.041-3.59,1.452  c-0.674-0.285-1.195-0.815-1.47-1.494c-0.274-0.678-0.268-1.422,0.018-2.095c0.589-1.39,2.198-2.042,3.59-1.452  C65.156,58.576,65.808,60.187,65.218,61.576z"></path><path d="M51.748,50.719c-1.165-0.493-2.452-0.504-3.626-0.029s-2.092,1.377-2.586,2.542s-0.504,2.453-0.029,3.626  c0.475,1.174,1.377,2.092,2.542,2.586c0.596,0.252,1.222,0.378,1.85,0.378c0.601,0,1.202-0.115,1.776-0.348  c1.174-0.475,2.092-1.378,2.586-2.543s0.505-2.453,0.03-3.626C53.816,52.131,52.913,51.213,51.748,50.719z M52.419,56.149  c-0.285,0.674-0.815,1.195-1.494,1.47c-0.676,0.275-1.421,0.268-2.095-0.018c-1.391-0.589-2.042-2.199-1.452-3.589  c0.441-1.043,1.457-1.67,2.524-1.67c0.355,0,0.717,0.07,1.064,0.218c0.674,0.285,1.195,0.815,1.47,1.494  C52.711,54.732,52.705,55.477,52.419,56.149z"></path><path d="M38.95,45.293c-1.165-0.493-2.455-0.505-3.626-0.03c-1.174,0.475-2.092,1.377-2.586,2.542  c-1.019,2.405,0.108,5.192,2.513,6.213c0.595,0.252,1.222,0.378,1.849,0.378c0.602,0,1.203-0.116,1.777-0.349  c1.174-0.475,2.092-1.377,2.586-2.542C42.482,49.099,41.354,46.312,38.95,45.293z M39.621,50.724  c-0.285,0.674-0.815,1.195-1.494,1.47c-0.678,0.272-1.421,0.268-2.095-0.018c-1.39-0.59-2.041-2.2-1.452-3.59  c0.285-0.674,0.815-1.195,1.494-1.47c0.678-0.273,1.423-0.268,2.095,0.019C39.559,47.724,40.21,49.334,39.621,50.724z"></path><path d="M41.273,30.018c-1.631,1.669-2.831,3.645-3.567,5.874c-0.174,0.524,0.111,1.09,0.636,1.263  c0.104,0.035,0.21,0.051,0.313,0.051c0.42,0,0.811-0.266,0.949-0.687c0.641-1.937,1.683-3.654,3.099-5.103  c0.387-0.396,0.379-1.028-0.016-1.414C42.294,29.615,41.659,29.624,41.273,30.018z"></path><path d="M61.667,26.062c-5.295-2.245-11.189-1.875-16.17,1.012c-0.478,0.277-0.641,0.889-0.363,1.367  c0.186,0.319,0.521,0.498,0.866,0.498c0.17,0,0.343-0.043,0.501-0.135c4.433-2.57,9.677-2.896,14.385-0.9  c0.507,0.213,1.095-0.021,1.312-0.53C62.413,26.865,62.175,26.278,61.667,26.062z"></path><path d="M76.137,55.369l-0.126-0.054l1.042-2.459c5.193-12.25-0.547-26.442-12.797-31.637c-12.252-5.191-26.441,0.548-31.637,12.797  l-1.043,2.46l-0.126-0.054c-2.453-1.04-5.164-1.063-7.636-0.063c-2.47,0.999-4.403,2.9-5.444,5.354  c-1.04,2.454-1.062,5.166-0.062,7.636c0.999,2.471,2.9,4.404,5.354,5.444l4.183,1.774l-6.525,4.055  c-0.469,0.292-0.612,0.908-0.321,1.378c0.189,0.305,0.517,0.472,0.851,0.472c0.18,0,0.362-0.049,0.527-0.15l7.673-4.769  c0.015-0.009,0.023-0.025,0.038-0.035l31.836,13.499c0.003,0.017-0.003,0.033,0.001,0.05l1.907,8.831  c0.102,0.469,0.516,0.789,0.977,0.789c0.07,0,0.141-0.007,0.212-0.022c0.54-0.116,0.883-0.648,0.767-1.188l-1.622-7.509l4.183,1.774  c1.268,0.537,2.584,0.791,3.88,0.791c3.888,0,7.59-2.285,9.2-6.082C83.574,63.385,81.201,57.518,76.137,55.369z M34.461,34.798  c4.764-11.235,17.78-16.501,29.014-11.736c11.235,4.764,16.5,17.779,11.736,29.014l-1.042,2.459l-40.75-17.277L34.461,34.798z   M79.585,67.668c-1.717,4.05-6.405,5.949-10.457,4.23L24.442,52.951c-4.05-1.716-5.947-6.407-4.23-10.457  c0.832-1.962,2.378-3.482,4.353-4.281c0.967-0.391,1.979-0.586,2.992-0.586c1.056,0,2.111,0.213,3.112,0.638l44.687,18.946  C79.404,58.928,81.302,63.619,79.585,67.668z"></path></svg>