<svg xmlns="http://www.w3.org/2000/svg" data-name="Layer 1" viewBox="0 0 60 60" x="0px" y="0px"><defs></defs><g data-name="Icon Atom"><path  d="M56.82,3.17C54.67,1,51.63,0,48,0,42.84,0,36.49,2.13,30,6,23.53,2.13,17.2,0,12,0,8.43,0,5.39,1,3.25,3.17-2,8.41-.48,19,6.08,30-.54,41-2.07,51.57,3.18,56.83,5.33,59,8.37,60,12,60c5.19,0,11.53-2.13,18-6,6.48,3.89,12.81,6,18,6,3.6,0,6.63-1,8.78-3.17C62,51.59,60.48,41,53.93,30.05,60.55,19,62.08,8.43,56.82,3.17ZM48,5c2.35,0,4.12.57,5.25,1.7,3,3,2.09,10.29-2.43,18.66a72.89,72.89,0,0,0-7.48-8.77,72.6,72.6,0,0,0-8.73-7.48C39.49,6.48,44.16,5,48,5ZM6.8,6.69C7.92,5.57,9.68,5,12,5c3.86,0,8.51,1.48,13.34,4.1A74.15,74.15,0,0,0,9.17,25.26C4.7,16.93,3.83,9.67,6.8,6.69ZM12,55c-2.36,0-4.12-.57-5.25-1.7-3-3-2.09-10.29,2.43-18.66a72.89,72.89,0,0,0,7.48,8.77,72.53,72.53,0,0,0,8.72,7.48C20.51,53.52,15.85,55,12,55Zm8.21-15.12A66.73,66.73,0,0,1,12,30a67.16,67.16,0,0,1,8.15-9.84A68.15,68.15,0,0,1,30,12a68.5,68.5,0,0,1,9.82,8.17A67.36,67.36,0,0,1,48,30a66.58,66.58,0,0,1-8.15,9.83A68.67,68.67,0,0,1,30,48.05,68,68,0,0,1,20.19,39.88Zm33,13.42C52.08,54.43,50.33,55,48,55c-3.85,0-8.5-1.48-13.33-4.1a73.78,73.78,0,0,0,8.75-7.49,73.43,73.43,0,0,0,7.44-8.67C55.3,43.07,56.17,50.33,53.21,53.3ZM30,25a5,5,0,1,0,5,5A5,5,0,0,0,30,25Z"></path></g></svg>