<svg xmlns="http://www.w3.org/2000/svg" viewBox="0 0 128 128" x="0px" y="0px"><title>22</title><g data-name="1"><path d="M62.04846,21.44066a10.23365,10.23365,0,1,1,7.18472,12.56473A10.233,10.233,0,0,1,62.04846,21.44066ZM25.58854,64.59341a7.675,7.675,0,1,0-9.42222,5.38853A7.67491,7.67491,0,0,0,25.58854,64.59341Zm91.54631-8.95036c-2.76038,10.13724-22.54018,25.09027-40.918,35.41126C62.89219,98.53886,41.794,108.21009,29.034,108.2114c-4.51332,0-7.98307-1.21093-9.69865-4.15453a7.99208,7.99208,0,0,1-.61594-6.30387c1.46168-5.36931,7.71793-12.088,15.98992-18.75415A34.584,34.584,0,0,1,86.8997,49.65346c13.32529-4.82883,25.80376-6.85558,29.61769-.31427A7.99764,7.99764,0,0,1,117.13485,55.64305ZM40.38012,98.46286c-.39358-.58472-.78075-1.17558-1.13644-1.79717A34.58943,34.58943,0,0,1,35.79824,88.104c-6.5114,5.76441-9.78078,10.20911-9.77416,12.07283C27.54314,101.11961,32.6509,100.73038,40.38012,98.46286ZM60.393,57.43105a3.1979,3.1979,0,0,0-4.36462-1.18818A26.72207,26.72207,0,0,0,42.61257,77.68939,3.19853,3.19853,0,0,0,45.589,81.09568c.07242.00511.14614.00739.21856.00739A3.1982,3.1982,0,0,0,48.995,78.11929,20.3395,20.3395,0,0,1,59.20491,61.79567,3.19842,3.19842,0,0,0,60.393,57.43105Zm49.43588-4.21213c-1.60576-.99828-7.22175-.50617-15.71126,2.12268a34.57931,34.57931,0,0,1,5.26361,6.93207c.46909.8199.88108,1.65516,1.2644,2.49758C106.77092,59.25868,109.835,55.02684,109.82891,53.21892ZM53.68924,110.37246A34.61618,34.61618,0,0,0,103.86846,81.726,188.94916,188.94916,0,0,1,79.92539,97.80034,188.61286,188.61286,0,0,1,53.68924,110.37246Z"></path></g></svg>