<svg xmlns="http://www.w3.org/2000/svg" data-name="Layer 1" viewBox="0 0 48 48" x="0px" y="0px"><title>space_45</title><path d="M38,31.07A18.69,18.69,0,0,0,46.5,29,21.64,21.64,0,1,1,22,2.5,18.72,18.72,0,0,0,38,31.07ZM4.33,38.77a2.41,2.41,0,1,0,2.4,2.4A2.4,2.4,0,0,0,4.33,38.77Zm.48-30.3A2.41,2.41,0,1,0,2.4,10.88,2.41,2.41,0,0,0,4.81,8.47ZM30.29,23.38a2.41,2.41,0,1,0-2.4-2.4A2.41,2.41,0,0,0,30.29,23.38ZM48,20.55l-1.93-.28-.87-1.76-.86,1.76-1.94.28,1.4,1.36-.33,1.93,1.73-.91,1.73.91-.33-1.93ZM31.37,10.19,33.66,9,36,10.19l-.44-2.56,1.85-1.81-2.56-.37L33.66,3.13,32.51,5.45,30,5.82,31.8,7.63Z"></path></svg>