<svg xmlns:dc="http://purl.org/dc/elements/1.1/" xmlns:cc="http://creativecommons.org/ns#" xmlns:rdf="http://www.w3.org/1999/02/22-rdf-syntax-ns#" xmlns:svg="http://www.w3.org/2000/svg" xmlns="http://www.w3.org/2000/svg" xmlns:sodipodi="http://sodipodi.sourceforge.net/DTD/sodipodi-0.dtd" xmlns:inkscape="http://www.inkscape.org/namespaces/inkscape" viewBox="0 0 25.399999 25.400001" version="1.1" x="0px" y="0px"><g transform="translate(0,-271.59998)"><path  d="M 48 2 A 45.999995 45.999995 0 0 0 2 48 A 45.999995 45.999995 0 0 0 48 94 A 45.999995 45.999995 0 0 0 94 48 A 45.999995 45.999995 0 0 0 48 2 z M 32.337891 17.099609 A 9.6507934 9.6507934 0 0 1 41.990234 26.751953 A 9.6507934 9.6507934 0 0 1 32.337891 36.402344 A 9.6507934 9.6507934 0 0 1 22.6875 26.751953 A 9.6507934 9.6507934 0 0 1 32.337891 17.099609 z M 69.205078 27.40625 A 19.036575 19.036575 0 0 1 81.121094 32.914062 A 19.036575 19.036575 0 0 1 81.121094 59.837891 A 19.036575 19.036575 0 0 1 54.199219 59.837891 A 19.036575 19.036575 0 0 1 48.708984 47.935547 A 19.036575 19.036575 0 0 0 63.710938 42.427734 A 19.036575 19.036575 0 0 0 69.205078 27.40625 z M 32.103516 64.492188 C 32.68552 64.469951 33.239321 64.522818 33.767578 64.669922 C 34.471873 64.866079 35.042051 65.283596 35.28125 65.757812 C 35.520415 66.231992 35.495641 66.745959 35.320312 67.298828 C 34.952222 68.459435 33.928756 69.749235 32.503906 71.021484 A 6.0952376 6.0952376 0 0 1 32.507812 71.111328 A 6.0952376 6.0952376 0 0 1 26.412109 77.207031 A 6.0952376 6.0952376 0 0 1 23.279297 76.330078 C 22.988109 76.421956 22.695575 76.517957 22.414062 76.589844 C 21.582978 76.801875 20.798282 76.930041 20.023438 76.933594 C 19.24856 76.937147 18.44107 76.793655 17.847656 76.429688 C 17.254241 76.065832 16.989824 75.551947 16.953125 75.050781 C 16.916389 74.549616 17.07154 74.035191 17.353516 73.486328 C 17.900187 72.422299 18.958635 71.229646 20.423828 69.994141 A 6.0952376 6.0952376 0 0 0 20.365234 70.394531 A 6.0952376 6.0952376 0 0 1 26.412109 65.015625 A 6.0952376 6.0952376 0 0 1 28.582031 65.421875 A 6.0952376 6.0952376 0 0 0 28.503906 65.388672 A 0.80722638 1.2459478 88.575423 0 1 28.951172 65.148438 C 30.085133 64.777004 31.133508 64.529248 32.103516 64.492188 z M 28.990234 65.595703 A 6.0952376 6.0952376 0 0 1 29.130859 65.664062 A 6.0952376 6.0952376 0 0 0 28.990234 65.595703 z M 29.544922 65.890625 A 6.0952376 6.0952376 0 0 1 29.642578 65.951172 A 6.0952376 6.0952376 0 0 0 29.544922 65.890625 z M 32.470703 66.130859 C 32.080215 66.13004 31.347655 66.210062 30.384766 66.490234 A 6.0952376 6.0952376 0 0 1 31.933594 68.542969 C 32.412205 67.964133 32.756535 67.43258 32.890625 67.009766 C 33.007155 66.64232 32.970717 66.397535 32.916016 66.289062 C 32.861315 66.179457 32.853029 66.184533 32.744141 66.154297 C 32.694266 66.140398 32.60116 66.131133 32.470703 66.130859 z M 20.332031 70.859375 A 6.0952376 6.0952376 0 0 0 20.324219 70.982422 A 6.0952376 6.0952376 0 0 1 20.332031 70.859375 z M 20.548828 72.765625 C 20.187293 73.199664 19.895547 73.609218 19.714844 73.960938 C 19.500934 74.377327 19.425457 74.721752 19.441406 74.939453 C 19.457352 75.157154 19.523933 75.219764 19.572266 75.25 C 19.620597 75.279858 19.727966 75.323815 20.064453 75.322266 C 20.40094 75.320754 20.920318 75.248898 21.550781 75.087891 C 21.612648 75.072096 21.686249 75.044825 21.75 75.027344 A 6.0952376 6.0952376 0 0 1 20.548828 72.765625 z M 52.205078 78.072266 C 52.253477 78.068025 52.295368 78.072885 52.328125 78.091797 C 52.59018 78.243094 52.417776 79.303419 52.496094 79.595703 C 52.574411 79.887987 53.25286 80.720367 53.101562 80.982422 C 52.950271 81.244477 51.88994 81.072073 51.597656 81.150391 C 51.305372 81.228708 50.474945 81.907157 50.212891 81.755859 C 49.950836 81.604562 50.121286 80.54619 50.042969 80.253906 C 49.964651 79.961622 49.286203 79.129236 49.4375 78.867188 C 49.588797 78.605133 50.649122 78.777536 50.941406 78.699219 C 51.197155 78.630691 51.866285 78.101947 52.205078 78.072266 z M 57.996094 81.867188 C 58.19973 81.984752 58.066095 82.808029 58.126953 83.035156 C 58.187812 83.262283 58.715226 83.907692 58.597656 84.111328 C 58.480087 84.314965 57.65681 84.181329 57.429688 84.242188 C 57.20256 84.303041 56.555199 84.83046 56.351562 84.712891 C 56.147931 84.595321 56.281562 83.772049 56.220703 83.544922 C 56.159845 83.317795 55.63243 82.672387 55.75 82.46875 C 55.86757 82.265113 56.690842 82.398749 56.917969 82.337891 C 57.145096 82.277032 57.792457 81.749618 57.996094 81.867188 z M 53.828125 86.160156 C 53.8719 86.156321 53.909826 86.162582 53.939453 86.179688 C 54.176472 86.316526 54.020962 87.274707 54.091797 87.539062 C 54.162632 87.803422 54.775514 88.55595 54.638672 88.792969 C 54.501829 89.029987 53.543657 88.874482 53.279297 88.945312 C 53.014937 89.016147 52.262409 89.630983 52.025391 89.494141 C 51.788372 89.357298 51.943882 88.397172 51.873047 88.132812 C 51.802212 87.868457 51.187376 87.115925 51.324219 86.878906 C 51.461061 86.641888 52.421187 86.797397 52.685547 86.726562 C 52.916862 86.664586 53.521699 86.187002 53.828125 86.160156 z " transform="matrix(0.26458333,0,0,0.26458333,0,271.59998)"></path></g></svg>