<svg xmlns="http://www.w3.org/2000/svg" xmlns:xlink="http://www.w3.org/1999/xlink" version="1.1" x="0px" y="0px" viewBox="0 0 100 100"  xml:space="preserve"><path d="M19.3129883,28.6337891c5.144043,0,9.3291016-4.1796875,9.3291016-9.3173828  C28.6420898,14.1796875,24.4570312,10,19.3129883,10s-9.3291016,4.1796875-9.3291016,9.3164062  C9.9838867,24.4541016,14.1689453,28.6337891,19.3129883,28.6337891z M19.3129883,12  c4.0415039,0,7.3291016,3.2822266,7.3291016,7.3164062c0,4.0351562-3.2875977,7.3173828-7.3291016,7.3173828  s-7.3291016-3.2822266-7.3291016-7.3173828C11.9838867,15.2822266,15.2714844,12,19.3129883,12z"></path><path d="M66.875,10.1152344c-0.4926758-0.2509766-1.0947266-0.0556641-1.3452148,0.4355469  c-0.2509766,0.4921875-0.0561523,1.0947266,0.4360352,1.3457031c19.4904785,9.9534912,27.3977661,33.7138672,17.9289551,53.3227539  c-0.8569946-0.3498535-1.7926025-0.5463867-2.7741699-0.5463867c-4.0576172,0-7.3583984,3.296875-7.3583984,7.3486328  c0,1.815918,0.6665649,3.4770508,1.7636108,4.7608643C63.244873,88.5849609,44.9677734,91.3730469,29.6787109,83.7290039  c0.9176636-2.1790771,1.0966187-4.680542,0.3125-7.1010742c-0.840332-2.5947266-2.6416016-4.7080078-5.0712891-5.9482422  c-2.4311523-1.2402344-5.1982422-1.4619141-7.7929688-0.6201172c-2.5957031,0.8398438-4.7084961,2.6416016-5.9492188,5.0712891  s-1.4609375,5.1972656-0.6201172,7.7939453c0.840332,2.5947266,2.6416016,4.7080078,5.0712891,5.9482422  c1.4599609,0.7451172,3.0410156,1.1230469,4.6342773,1.1220703c1.0585938,0,2.1225586-0.1660156,3.1586914-0.5019531  c2.2540283-0.7299805,4.0736694-2.1795654,5.3052368-4.006958c6.0514526,3.0368652,12.5481567,4.522583,18.9901733,4.522583  c10.7033081,0,21.2410278-4.0922852,29.2994995-11.8908691c1.1731567,0.7901611,2.5853882,1.2521973,4.1038208,1.2521973  c4.0576172,0,7.3583984-3.296875,7.3583984-7.3486328c0-2.3547363-1.1192627-4.4489746-2.8496094-5.7947998  C95.6726074,45.6157227,87.3800659,20.5871582,66.875,10.1152344z M22.8056641,87.5908203  c-2.0864258,0.6748047-4.3129883,0.4990234-6.2670898-0.4990234s-3.4023438-2.6962891-4.0786133-4.7841797  c-0.6762695-2.0869141-0.4990234-4.3134766,0.4990234-6.2675781c0.9975586-1.9541016,2.6967773-3.4023438,4.7841797-4.078125  c0.8334961-0.2695312,1.6889648-0.4033203,2.5405273-0.4033203c1.2807617,0,2.5527344,0.3027344,3.7265625,0.9023438  c1.9541016,0.9980469,3.4023438,2.6962891,4.0786133,4.7841797C29.484375,81.5537109,27.1142578,86.1943359,22.8056641,87.5908203z   M86.4790039,72.0214844c0,2.9492188-2.4038086,5.3486328-5.3583984,5.3486328s-5.3583984-2.3994141-5.3583984-5.3486328  s2.4038086-5.3486328,5.3583984-5.3486328S86.4790039,69.0722656,86.4790039,72.0214844z"></path><path d="M49,77.2998047c15.6044922,0,28.2998047-12.6953125,28.2998047-28.2998047S64.6044922,20.7001953,49,20.7001953  S20.7001953,33.3955078,20.7001953,49S33.3955078,77.2998047,49,77.2998047z M26.4803467,35.4296875h45.0393066  C73.7554321,39.1260986,75.1018677,43.4151611,75.2744141,48H22.7255859  C22.8981323,43.4151611,24.2445679,39.1260986,26.4803467,35.4296875z M75.2744141,50  c-0.1725464,4.5848389-1.5189819,8.8739014-3.7547607,12.5703125H26.4803467  C24.2445679,58.8739014,22.8981323,54.5848389,22.7255859,50H75.2744141z M49,75.2998047  c-8.678833,0-16.3860474-4.2277832-21.178772-10.7294922H70.178772C65.3860474,71.0720215,57.678833,75.2998047,49,75.2998047z   M49,22.7001953c8.678833,0,16.3860474,4.2277832,21.178772,10.7294922H27.821228  C32.6139526,26.9279785,40.321167,22.7001953,49,22.7001953z"></path></svg>