<svg xmlns="http://www.w3.org/2000/svg" xmlns:xlink="http://www.w3.org/1999/xlink" version="1.1" x="0px" y="0px" viewBox="0 0 100 100" enable-background="new 0 0 100 100" xml:space="preserve"><ellipse transform="matrix(0.9398 -0.3418 0.3418 0.9398 -9.2373 16.2877)" cx="41.597" cy="34.354" rx="2.638" ry="0.975"></ellipse><ellipse transform="matrix(0.9398 -0.3416 0.3416 0.9398 -7.5606 19.9788)" cx="52.942" cy="31.455" rx="2.638" ry="0.975"></ellipse><ellipse transform="matrix(0.9398 -0.3417 0.3417 0.9398 -5.1959 23.2821)" cx="63.497" cy="26.392" rx="2.638" ry="0.976"></ellipse><ellipse transform="matrix(0.9398 -0.3418 0.3418 0.9398 -2.7712 25.3068)" cx="70.434" cy="20.518" rx="2.639" ry="0.975"></ellipse><ellipse transform="matrix(0.9398 -0.3417 0.3417 0.9398 -0.9383 25.4892)" cx="71.892" cy="15.408" rx="2.638" ry="0.975"></ellipse><ellipse transform="matrix(0.9398 -0.3418 0.3418 0.9398 -9.7693 13.1767)" cx="32.503" cy="34.308" rx="2.638" ry="0.976"></ellipse><ellipse transform="matrix(0.9398 -0.3417 0.3417 0.9398 -9.0129 11.4854)" cx="28.099" cy="31.329" rx="2.638" ry="0.975"></ellipse><ellipse transform="matrix(0.9398 -0.3416 0.3416 0.9398 -7.1791 11.6746)" cx="29.556" cy="26.22" rx="2.638" ry="0.975"></ellipse><ellipse transform="matrix(0.9398 -0.3418 0.3418 0.9398 -0.1838 23.8174)" cx="67.488" cy="12.43" rx="2.638" ry="0.975"></ellipse><path d="M68.228,59.991l-7.689-25.718c6.313-2.784,11.866-6.104,15.995-9.602c5.732-4.857,8.129-9.62,6.746-13.412  c-1.396-3.83-6.375-5.94-14.019-5.94c-3.833,0-8.147,0.522-12.682,1.509C54.328,5.654,51.789,5,49.148,5  c-1.877,0-3.731,0.328-5.51,0.975c-4.043,1.47-7.272,4.424-9.09,8.32c-0.101,0.215-0.194,0.434-0.285,0.651  c-4.182,2.194-7.879,4.609-10.84,7.118c-5.732,4.857-8.128,9.62-6.747,13.412c1.396,3.832,6.375,5.942,14.018,5.942  c2.629,0,5.486-0.246,8.485-0.718l-5.301,18.524L5,69.728v8.911L49.999,95L95,78.639v-8.911L68.228,59.991z M37.328,15.589  c1.407-3.014,3.858-5.329,6.93-6.567c7.062,1.879,11.227,6.656,11.559,13.236c-1.605,0.918-3.442,1.762-5.366,2.462  c-3.447,1.253-6.854,1.943-9.596,1.943c-2.444,0-3.767-0.576-3.962-1.112C35.701,22.281,35.855,18.742,37.328,15.589z   M30.694,38.355c-6.077,0-10.24-1.468-11.136-3.927c-0.884-2.427,1.302-6.176,5.849-10.028c2.189-1.854,4.816-3.658,7.76-5.355  c-0.327,2.52-0.051,5.098,0.844,7.553c0.52,1.428,2.128,3.129,6.844,3.129c3.09,0,6.87-0.756,10.646-2.129  c2.424-0.881,4.732-1.98,6.677-3.177c4.564-2.804,6.793-5.832,6.203-8.386c-0.008-0.148-0.038-0.298-0.091-0.444  c-0.9-2.468-2.375-4.618-4.237-6.327c3.276-0.578,6.386-0.881,9.209-0.881c6.077,0,10.241,1.467,11.138,3.926  c0.885,2.426-1.303,6.175-5.85,10.027c-5.071,4.297-12.46,8.335-20.804,11.369C45.496,36.704,37.31,38.355,30.694,38.355z   M42.545,40.085c3.96-0.817,8.102-1.994,12.249-3.502c0.98-0.356,1.947-0.729,2.901-1.111l6.941,23.214l-14.638-5.322l-12.561,4.567  L42.545,40.085z M36.397,61.569l13.602-4.946l15.732,5.721l0.833,2.786c-3.735-1.845-9.308-2.954-15.563-2.954  c-6.294,0-11.897,1.124-15.632,2.99L36.397,61.569z M33.892,70.13c1.429-2.37,7.911-4.891,17.108-4.891s15.68,2.52,17.107,4.89  c0.183,0.303,0.271,0.586,0.271,0.866c0,2.403-6.611,5.756-17.379,5.756c-10.767,0-17.378-3.353-17.378-5.756  C33.622,70.715,33.71,70.432,33.892,70.13z M51,79.814c9.912,0,20.445-3.091,20.445-8.819c0-0.772-0.203-1.528-0.602-2.253  l-1.523-5.093l19.664,7.15L49.999,84.973L11.016,70.8l21.821-7.936l-1.685,5.886c-0.395,0.722-0.597,1.476-0.597,2.245  C30.555,76.724,41.089,79.814,51,79.814z M8.067,72.987l40.398,14.688v3.506L8.067,76.494V72.987z"></path></svg>