<svg xmlns="http://www.w3.org/2000/svg" xmlns:xlink="http://www.w3.org/1999/xlink" version="1.1" x="0px" y="0px" viewBox="0 0 1024 1024"  xml:space="preserve"><g><path d="M960,358.5v307c0,4.7-3.8,8.5-8.5,8.5h-879c-4.7,0-8.5-3.8-8.5-8.5v-307c0-4.7,3.8-8.5,8.5-8.5h98   c4.7,0,8.5,3.8,8.5,8.5v192c0,4.7,3.8,8.5,8.5,8.5h649c4.7,0,8.5-3.8,8.5-8.5v-192c0-4.7,3.8-8.5,8.5-8.5h98   C956.2,350,960,353.8,960,358.5z"></path><g><path d="M950,358.5c0,12.6,0,25.2,0,37.7c0,29.1,0,58.3,0,87.4c0,32.9,0,65.9,0,98.8c0,23.4,0,46.9,0,70.3    c0,2.9,0,5.7,0,8.6c0,0.7-0.4,3.4,0,4c-0.8-0.9,2-0.9,1.1-1.3c-0.4-0.2-1.6,0-2.1,0c-8.6,0-17.2,0-25.7,0c-16.7,0-33.4,0-50,0    c-23.2,0-46.4,0-69.6,0c-28.3,0-56.6,0-84.8,0c-31.5,0-63,0-94.5,0c-33.3,0-66.6,0-99.8,0c-33.5,0-67,0-100.4,0    c-32.1,0-64.2,0-96.3,0c-29.1,0-58.3,0-87.4,0c-24.7,0-49.4,0-74.1,0c-18.4,0-36.9,0-55.3,0c-10.7,0-21.5,0-32.2,0    c-1.3,0-4.7-0.7-5.9,0c-0.8,0.4,1.8,0.5,1.1,1.3c0.4-0.6,0-3.2,0-3.9c0-19.1,0-38.3,0-57.4c0-31.7,0-63.3,0-95    c0-31.4,0-62.8,0-94.2c0-17.9,0-35.8,0-53.7c0-0.4,0.3-2.3,0-2.6c1.4,1.5-3.2,1-0.4,1.5c1.4,0.3,3.2,0,4.6,0c13.9,0,27.9,0,41.8,0    c14.4,0,28.8,0,43.2,0c1.8,0,3.6,0.1,5.4,0c2.1-0.1,1.5,0.6,0.7-0.4c-0.6-0.8,0-1.5-0.4-0.5c-0.2,0.7,0,1.9,0,2.6c0,24,0,48,0,72    c0,30.9,0,61.7,0,92.6c0,7.7-0.1,15.4,0,23.1c0.2,11.3,8.1,19.4,19.4,19.6c9.1,0.2,18.2,0,27.3,0c19.5,0,39.1,0,58.6,0    c27.1,0,54.2,0,81.3,0c31.7,0,63.5,0,95.2,0c33.7,0,67.4,0,101,0c32.4,0,64.7,0,97.1,0c28.3,0,56.6,0,85,0c21.4,0,42.8,0,64.2,0    c11.6,0,23.1,0,34.7,0c5.9,0,11.6-0.6,16.3-5c7-6.7,5.9-15.9,5.9-24.6c0-28.1,0-56.3,0-84.4c0-28.2,0-56.4,0-84.7    c0-3.2,0-6.4,0-9.5c0-4.2-0.3,0.2-1.4-0.8c1.1,1,7.8,0,9.2,0c6.7,0,13.5,0,20.2,0c15.5,0,31,0,46.6,0c5.5,0,11,0,16.5,0    c1.4,0,3.1,0.3,4.5,0C952.4,359.6,950.1,360.3,950,358.5c0.4,5.4,4.3,10,10,10c5.1,0,10.4-4.6,10-10c-0.9-11-8.6-18.3-19.7-18.5    c-4.3-0.1-8.6,0-12.8,0c-15.9,0-31.9,0-47.8,0c-11.6,0-23.3-0.2-34.9,0c-10.8,0.2-19.2,7.5-19.7,18.5c-0.1,1.4,0,2.8,0,4.3    c0,25.3,0,50.5,0,75.8c0,30.6,0,61.1,0,91.7c0,4.5,0,9,0,13.4c0,1.4-0.7,5.2,0,6.4c-0.2-0.3,1.8-0.8,1.1-1.2c-0.6-0.3-2.2,0-2.8,0    c-11.4,0-22.9,0-34.3,0c-21.6,0-43.3,0-64.9,0c-28.6,0-57.3,0-85.9,0c-32.9,0-65.8,0-98.7,0c-33.8,0-67.7,0-101.5,0    c-32.1,0-64.2,0-96.3,0c-27,0-54.1,0-81.1,0c-19.3,0-38.5,0-57.8,0c-5.7,0-11.4,0-17.1,0c-1.8,0-6.1-0.8-7.8,0    c-0.3,0.2,1,1.4,1.1,1.1c0.7-1.6,0-5.3,0-7c0-11,0-21.9,0-32.9c0-32.5,0-64.9,0-97.4c0-13.1,0-26.1,0-39.2c0-5.8,0.5-12-0.3-17.8    c-1.4-10.1-10.2-15.7-19.8-15.8c-4.5-0.1-9,0-13.6,0c-15.9,0-31.8,0-47.7,0c-11.4,0-22.9-0.3-34.3,0c-10.7,0.3-18.8,7.6-19.4,18.5    c0,1,0,2,0,3c0,18.5,0,37.1,0,55.6c0,31.9,0,63.9,0,95.8c0,31.7,0,63.4,0,95c0,18.3,0,36.6,0,54.8c0,11.2,6.6,20.6,18.7,21.1    c1.8,0.1,3.5,0,5.3,0c10.6,0,21.1,0,31.7,0c18.4,0,36.9,0,55.3,0c24.9,0,49.7,0,74.6,0c29.4,0,58.8,0,88.2,0c32.6,0,65.2,0,97.7,0    c34,0,68,0,102,0c33.6,0,67.1,0,100.7,0c31.8,0,63.7,0,95.5,0c28.2,0,56.4,0,84.5,0c23.1,0,46.3,0,69.4,0c16.3,0,32.5,0,48.8,0    c7.9,0,15.7,0.1,23.6,0c10.9-0.1,19.4-7.3,19.9-18.6c0.2-4,0-8.1,0-12.2c0-23.7,0-47.5,0-71.2c0-33.1,0-66.2,0-99.3    c0-29.4,0-58.8,0-88.1c0-12,0-24,0-36.1C970,345.6,950,345.6,950,358.5z"></path></g></g></svg>