<svg xmlns="http://www.w3.org/2000/svg" xmlns:xlink="http://www.w3.org/1999/xlink" version="1.1" x="0px" y="0px" viewBox="0 0 66 66"  xml:space="preserve"><path d="M64.55,40.77c-0.32-0.25-0.79-0.2-1.04,0.12c-2.15,2.72-5.46,6.55-8.96,9.36c-12.34,9.93-23.94,13.25-35.46,10.16  c-3.04-0.82-6.5-3.45-8.7-6.52c0.17-0.1,0.35-0.21,0.5-0.33c2.87-2.28,3.29-6.29,2.43-9.26c-0.88-3.04-2.99-5.02-5.65-5.31  c-0.12-0.01-0.23-0.01-0.35-0.01c0.54-2.77,1.61-5.6,3.24-8.44c6.13-10.69,18.38-18.48,28.54-18.1c3.22,0.12,5.55,1.03,7.34,2.87  c2.89,2.97,4.1,6.73,3.48,10.87c-0.72,4.84-3.87,9.74-8.09,12.79c1.43-4.03,0.99-9.97-2.06-13.48c-2.15-2.47-5.12-3.44-8.16-2.66  c-0.24,0.06-0.46,0.15-0.69,0.23c-0.12,0-0.24,0.01-0.35,0.06c-0.35,0.17-0.69,0.35-1.04,0.54c-0.13,0.07-0.27,0.14-0.39,0.22  C21.6,28.23,14.13,37.8,18.27,46.36c1.74,3.61,4.58,5.87,8.42,6.72c1.11,0.24,2.28,0.36,3.47,0.36c6.29,0,13.38-3.14,17.86-6.82  c3.26-2.68,6-5.39,8.24-8.13c0.56,0.41,1.19,0.69,1.87,0.82c0.28,0.05,0.55,0.08,0.82,0.08c0.94,0,1.83-0.3,2.57-0.88  c2.01-1.57,2.68-4.96,1.46-7.4c0,0,0,0,0,0c-0.35-0.69-0.77-1.26-1.25-1.7c1.42-3.58,2-7.2,1.69-10.82  c-0.47-5.42-2.36-9.48-5.63-12.08c-5.38-4.27-13.14-3.84-20.03-2.85C22.74,5.8,9.82,14.26,1.36,27.46c-0.22,0.34-0.12,0.8,0.22,1.02  c0.34,0.22,0.8,0.12,1.02-0.22C10.83,15.42,23.39,7.2,37.96,5.11c6.58-0.94,13.97-1.38,18.9,2.54c2.94,2.33,4.65,6.05,5.08,11.05  c0.28,3.3-0.21,6.61-1.47,9.89c-0.42-0.17-0.86-0.28-1.32-0.29c-1.66-0.05-3.36,0.97-4.33,2.61c-1.1,1.87-1.06,4.17,0.13,6.15  c0.08,0.13,0.18,0.23,0.27,0.35c-2.19,2.7-4.89,5.39-8.14,8.05c-5.05,4.14-13.57,7.59-20.08,6.16c-3.38-0.74-5.87-2.73-7.4-5.92  c-2.84-5.88,0.73-12.54,5.67-17.11c-0.15,0.4-0.27,0.81-0.36,1.24c-0.91,4.2-0.14,10.19,3.7,13.42c1.43,1.2,3.17,1.83,4.99,1.83  c0.43,0,0.87-0.04,1.32-0.11c2.19-0.36,4.18-1.61,5.58-3.47c0.06-0.02,0.12-0.02,0.18-0.06c5.53-3.05,9.84-9.11,10.73-15.07  c0.69-4.62-0.66-8.81-3.89-12.12c-2.04-2.1-4.77-3.18-8.34-3.31c-10.66-0.39-23.49,7.71-29.88,18.84c-1.79,3.12-2.94,6.24-3.48,9.3  c-1.47,0.33-2.69,1.28-3.53,2.78c-1.71,3.07-1.41,7.6,0.7,10.3C4,53.5,5.53,54.37,7.15,54.57c0.22,0.03,0.44,0.04,0.66,0.04  c0.4,0,0.79-0.06,1.17-0.15c2.4,3.5,6.23,6.44,9.73,7.38c2.91,0.78,5.82,1.18,8.74,1.18c9.14,0,18.38-3.84,28.03-11.61  c3.61-2.9,6.99-6.82,9.19-9.6C64.92,41.49,64.87,41.02,64.55,40.77z M56.1,31.67c0.68-1.16,1.82-1.89,2.92-1.89  c0.03,0,0.06,0,0.08,0c1.04,0.04,1.92,0.72,2.56,1.98c0.9,1.79,0.4,4.44-1.05,5.57c-0.62,0.49-1.41,0.67-2.22,0.52  c-0.9-0.17-1.69-0.73-2.18-1.55C55.31,34.78,55.26,33.09,56.1,31.67z M34.67,43.53c-1.86,0.31-3.68-0.19-5.11-1.4  c-3.23-2.71-4.06-8.08-3.21-11.97c0.46-2.09,1.76-3.89,3.52-4.99c0.16-0.09,0.31-0.18,0.47-0.26c0.52-0.28,1.07-0.51,1.64-0.66  c0.56-0.14,1.11-0.21,1.65-0.21c1.88,0,3.65,0.84,5.02,2.41c3.08,3.54,3.12,10.17,1.1,13.5C38.6,41.89,36.74,43.19,34.67,43.53z   M7.32,53.1c-1.22-0.15-2.41-0.83-3.18-1.83c-1.74-2.23-1.99-6.13-0.57-8.68c0.57-1.01,1.61-2.17,3.45-2.17  c0.16,0,0.33,0.01,0.5,0.03c2.04,0.22,3.68,1.81,4.38,4.25c0.7,2.41,0.39,5.85-1.93,7.69C9.06,53.13,8.03,53.19,7.32,53.1z"></path><path d="M35.25,27.34c-1.25-0.55-2.57-0.44-3.37-0.06c-0.82,0.39-1.08,0.92-1.01,0.96c0.08,0.08,0.45-0.28,1.19-0.5  c0.72-0.22,1.84-0.23,2.91,0.24c1.08,0.48,1.93,1.22,2.55,1.75c0.62,0.53,1.03,0.86,1.1,0.79c0.07-0.06-0.2-0.5-0.75-1.14  C37.33,28.75,36.49,27.88,35.25,27.34z"></path><path d="M39.83,16.66c2.06,0.7,3.64,1.98,4.6,3.03c0.98,1.06,1.41,1.86,1.51,1.81c0.07-0.03-0.21-0.93-1.14-2.13  c-0.91-1.19-2.54-2.62-4.75-3.38c-2.21-0.75-4.38-0.62-5.83-0.23c-1.46,0.38-2.24,0.92-2.2,0.99c0.05,0.1,0.88-0.26,2.3-0.51  C35.74,16,37.78,15.96,39.83,16.66z"></path><path d="M23.77,57.14c-2.11-0.7-3.83-1.81-4.91-2.79c-1.09-0.98-1.6-1.75-1.69-1.69c-0.07,0.04,0.3,0.93,1.35,2.05  c1.03,1.12,2.81,2.37,5.03,3.1c2.22,0.73,4.34,0.86,5.84,0.83c1.51-0.03,2.42-0.2,2.42-0.29c-0.01-0.1-0.93-0.11-2.41-0.21  C27.93,58.04,25.89,57.84,23.77,57.14z"></path><path d="M58.33,22.43c0.07,0.04,0.44-0.48,0.72-1.46c0.29-0.97,0.42-2.4,0.09-3.93c-0.34-1.52-1.06-2.77-1.72-3.53  c-0.66-0.77-1.21-1.09-1.26-1.02c-0.07,0.08,0.34,0.53,0.87,1.32c0.53,0.79,1.12,1.97,1.43,3.38c0.3,1.41,0.26,2.73,0.11,3.67  C58.42,21.81,58.23,22.39,58.33,22.43z"></path><path d="M42.87,45.08c-3.74,2.3-7.35,2.83-7.3,3.05c0.01,0.08,0.93,0.07,2.36-0.26c1.43-0.32,3.37-1.02,5.31-2.19  c1.93-1.17,3.44-2.58,4.39-3.7c0.95-1.12,1.39-1.92,1.32-1.97C48.78,39.87,46.64,42.83,42.87,45.08z"></path><path d="M57.41,53.67c-1.02,1-2.6,2.19-4.53,3.23c-1.92,1.04-3.77,1.8-5.1,2.38c-1.33,0.57-2.15,0.94-2.12,1.04  c0.03,0.09,0.91-0.12,2.3-0.57c1.38-0.46,3.28-1.15,5.26-2.22c1.98-1.07,3.59-2.38,4.55-3.5c0.98-1.12,1.37-1.95,1.3-1.99  C58.97,51.96,58.44,52.69,57.41,53.67z"></path><path d="M24.69,11.05c-0.05-0.17-3.17,0.81-6.41,3.15c-3.25,2.32-5.18,4.96-5.04,5.06c0.16,0.14,2.28-2.23,5.45-4.49  C21.84,12.5,24.78,11.25,24.69,11.05z"></path></svg>