<svg xmlns="http://www.w3.org/2000/svg" data-name="Layer 1" viewBox="0 0 512 512" x="0px" y="0px"><path d="M375.68,276.85h-75.6a6.37,6.37,0,0,0-6.38,6.38v55.21a6.37,6.37,0,0,0,6.38,6.38h75.6a6.37,6.37,0,0,0,6.37-6.38V283.23A6.37,6.37,0,0,0,375.68,276.85Zm-6.38,55.22H306.45V289.6H369.3Z"></path><path d="M464.46,483.26H409.3V414.52a31.77,31.77,0,0,0,20.26,7.36h.53c18.2,0,33-15.61,33-34.8V312.94a77.52,77.52,0,0,0-13.21-43.61c0-.2,0-.4,0-.61V206.57c0-14.67-10.93-26.55-24.88-27l-21.89-.78a5.08,5.08,0,0,0-.78,0c-8.69-28.63-34-49.41-63.88-49.41h-1.23c-29.85,0-55.2,20.79-63.88,49.44l-21.54.77c-14,.5-24.88,12.38-24.88,27v31H160.51a33,33,0,0,0-10.27,1.63V146.71a46.07,46.07,0,0,0,20.39,4.91c15.6,0,29.14-8.41,41.64-16.17,19-11.78,35.38-22,57.94-5.64a6.38,6.38,0,0,0,10.12-5.16V32.17A6.4,6.4,0,0,0,277.69,27c-29.48-21.34-52.15-7.27-72.14,5.14-19,11.78-35.4,22-58,5.65A6.37,6.37,0,0,0,137.49,43V246.74a37.73,37.73,0,0,0-12,27.82v.62a37.74,37.74,0,0,0,12,27.82V483.26h-90a6.38,6.38,0,1,0,0,12.75H464.46a6.38,6.38,0,1,0,0-12.75ZM150.24,56.18V54.24c24.66,11.94,44.38-.31,62-11.26,18.24-11.32,34.09-21.15,55.31-7.45v77.84c-24.66-12-44.39.31-62,11.25-18.25,11.32-34.11,21.17-55.31,7.46ZM424.58,192.26c7.06.26,12.59,6.54,12.59,14.31v48.22A69.3,69.3,0,0,0,405.59,239v-38.5a75.08,75.08,0,0,0-.55-8.92Zm-141.67,8.22c0-32.21,24.39-58.42,54.35-58.42h1.23c30,0,54.35,26.21,54.35,58.42v37.13h-17.6V217.85c0-21.57-16.62-39.12-37.05-39.12h-.62c-20.44,0-37.06,17.55-37.06,39.12V237.6h-17.6Zm79.58,17.37V237.6H313.26V217.85c0-14.54,10.9-26.37,24.31-26.37h.62C351.59,191.48,362.49,203.31,362.49,217.85ZM239.71,206.57c0-7.77,5.52-14,12.58-14.31l18.41-.66a76.43,76.43,0,0,0-.54,8.88V237.6H239.71Zm26.75,276.69H150.24V310.51a33.3,33.3,0,0,0,10.27,1.62h106Zm136.46-178.8a6.37,6.37,0,0,0-6.37,6.37v76.25a37.89,37.89,0,0,0,.3,4.67,6.27,6.27,0,0,0-.3,1.95v89.56h-52.3V406.45a6.38,6.38,0,1,0-12.75,0v76.81H279.21V305.76a6.38,6.38,0,0,0-6.38-6.38H160.51A20.94,20.94,0,0,1,148,295.23a6.35,6.35,0,0,0-.64-.49,24.89,24.89,0,0,1-9.18-19.56v-.62a24.89,24.89,0,0,1,9.23-19.6,5.93,5.93,0,0,0,.56-.43,21,21,0,0,1,12.5-4.18h231.7c18.26,0,35.63,9.42,46.47,25.17l.34.49a65.67,65.67,0,0,1,11.33,36.93v74.14c0,12.16-9.09,22.05-20.26,22.05h-.53c-11.18,0-20.26-9.89-20.26-22.05V310.83A6.38,6.38,0,0,0,402.92,304.46Z"></path></svg>