<svg xmlns="http://www.w3.org/2000/svg" xmlns:xlink="http://www.w3.org/1999/xlink" xmlns:serif="http://www.serif.com/" viewBox="0 0 24 24" version="1.1" xml:space="preserve"  x="0px" y="0px" fill-rule="evenodd" clip-rule="evenodd" stroke-linejoin="round" stroke-miterlimit="2"><g><g><path d="M4.5,10.344l0,2c0,0.829 0.672,1.5 1.5,1.5l12,0c0.828,0 1.5,-0.671 1.5,-1.5l0,-2c0,-0.276 -0.224,-0.5 -0.5,-0.5c-0.276,0 -0.5,0.224 -0.5,0.5l0,2c-0,0.276 -0.224,0.5 -0.5,0.5c-0,0 -12,0 -12,0c-0.276,0 -0.5,-0.224 -0.5,-0.5c0,0 0,-2 0,-2c0,-0.276 -0.224,-0.5 -0.5,-0.5c-0.276,0 -0.5,0.224 -0.5,0.5Z"></path></g></g></svg>