<svg xmlns="http://www.w3.org/2000/svg" xmlns:xlink="http://www.w3.org/1999/xlink" version="1.1" x="0px" y="0px" viewBox="0 0 100 100"  xml:space="preserve"><path d="M23.703,53.644l0.901,1.648c0.175,0.32,0.512,0.52,0.877,0.52s0.702-0.2,0.877-0.52l0.901-1.648  c0.809-1.477,2.017-2.685,3.492-3.492L32.4,49.25c0.321-0.176,0.521-0.512,0.521-0.877c0-0.366-0.199-0.702-0.521-0.877  l-1.648-0.901c-1.476-0.807-2.684-2.015-3.492-3.492l-0.901-1.648c-0.35-0.641-1.404-0.641-1.754,0l-0.901,1.648  c-0.809,1.477-2.017,2.685-3.492,3.492l-1.648,0.901c-0.321,0.175-0.521,0.512-0.521,0.877c0,0.365,0.199,0.702,0.521,0.877  l1.648,0.902C21.687,50.958,22.895,52.167,23.703,53.644z M21.126,48.372l0.044-0.024c1.812-0.991,3.295-2.474,4.287-4.287  l0.024-0.044l0.024,0.044c0.992,1.813,2.475,3.296,4.287,4.287l0.044,0.024l-0.044,0.024c-1.812,0.991-3.295,2.474-4.287,4.287  l-0.024,0.044l-0.024-0.044c-0.992-1.813-2.475-3.296-4.287-4.287L21.126,48.372z"></path><path d="M14.192,83.866c1.592,0.87,2.895,2.173,3.767,3.767l0.965,1.765c0.175,0.32,0.512,0.52,0.877,0.52s0.702-0.199,0.877-0.52  l0.967-1.765c0.87-1.593,2.173-2.896,3.766-3.767l1.766-0.965c0.321-0.175,0.521-0.512,0.521-0.877s-0.199-0.702-0.521-0.877  L25.41,80.18c-1.593-0.871-2.896-2.174-3.767-3.767l-0.966-1.765c-0.351-0.643-1.404-0.641-1.755,0l-0.964,1.765  c-0.872,1.594-2.175,2.896-3.767,3.767l-1.766,0.965c-0.321,0.175-0.521,0.512-0.521,0.877s0.199,0.702,0.521,0.877L14.192,83.866z   M15.151,81.935c1.929-1.055,3.506-2.632,4.562-4.562l0.087-0.161l0.088,0.161c1.055,1.929,2.633,3.507,4.562,4.562l0.16,0.088  l-0.16,0.088c-1.93,1.055-3.508,2.633-4.562,4.562l-0.089,0.161l-0.088-0.161c-1.056-1.93-2.633-3.508-4.562-4.562l-0.16-0.088  L15.151,81.935z"></path><path d="M73.693,19.236l1.885,1.031c1.712,0.936,3.112,2.336,4.049,4.048l1.03,1.884c0.175,0.32,0.512,0.52,0.877,0.52  s0.702-0.199,0.877-0.52l1.031-1.884c0.937-1.712,2.337-3.112,4.048-4.048l1.885-1.031c0.321-0.175,0.521-0.512,0.521-0.877  s-0.199-0.702-0.521-0.877l-1.885-1.03c-1.712-0.937-3.111-2.336-4.048-4.049l-1.031-1.884c-0.35-0.642-1.404-0.641-1.754,0  l-1.03,1.884c-0.937,1.712-2.337,3.112-4.049,4.049l-1.884,1.03c-0.321,0.175-0.521,0.512-0.521,0.877  C73.174,18.724,73.373,19.061,73.693,19.236z M76.537,18.206c2.049-1.12,3.724-2.795,4.844-4.844l0.153-0.281l0.154,0.281  c1.12,2.048,2.794,3.723,4.843,4.844l0.279,0.153l-0.279,0.153c-2.049,1.121-3.723,2.795-4.843,4.843l-0.154,0.281l-0.153-0.281  c-1.12-2.048-2.795-3.723-4.843-4.843l-0.28-0.153L76.537,18.206z"></path><path d="M23.603,32.801l2.006,1.098c1.835,1.004,3.335,2.504,4.338,4.338l1.098,2.007c0.175,0.321,0.512,0.52,0.877,0.52  s0.702-0.199,0.877-0.52l1.098-2.007c1.004-1.834,2.504-3.334,4.338-4.338l2.007-1.098c0.321-0.175,0.521-0.512,0.521-0.877  s-0.199-0.702-0.521-0.877l-2.006-1.098c-1.835-1.003-3.335-2.503-4.339-4.338l-1.098-2.006c-0.35-0.642-1.404-0.642-1.754,0  l-1.099,2.007c-1.002,1.833-2.502,3.333-4.336,4.337l-2.007,1.098c-0.321,0.175-0.521,0.512-0.521,0.877  S23.281,32.626,23.603,32.801z M26.569,31.704c2.171-1.188,3.945-2.963,5.131-5.133l0.221-0.403l0.221,0.403  c1.188,2.17,2.962,3.945,5.133,5.133l0.402,0.22l-0.403,0.22c-2.17,1.188-3.944,2.962-5.132,5.133l-0.221,0.403l-0.22-0.402  c-1.187-2.17-2.961-3.945-5.133-5.133l-0.402-0.22L26.569,31.704z"></path><path d="M42.542,75.331c0.602,0,1.208-0.033,1.813-0.066C47.886,83.897,56.391,90,66.304,90C79.37,90,90,79.402,90,66.375  c0-9.909-6.153-18.407-14.848-21.91c0.508-9.271-2.947-18.334-9.513-24.899c-12.736-12.737-33.461-12.736-46.197,0  c-12.736,12.737-12.736,33.46,0,46.197C25.595,71.915,33.904,75.331,42.542,75.331z M49.748,78.548  c-0.152,0.365-0.402,0.669-0.717,0.893c-0.841-1.102-1.578-2.286-2.197-3.538c0.544-0.285,1.195-0.326,1.781-0.084  c0.519,0.215,0.922,0.618,1.135,1.135C49.963,77.468,49.962,78.035,49.748,78.548z M61.781,87.524c0.099-0.7,0.501-1.334,1.13-1.702  c1.118-0.654,2.563-0.278,3.218,0.837c0.241,0.411,0.347,0.873,0.315,1.337c-0.047,0-0.093,0.004-0.141,0.004  C64.753,88,63.24,87.834,61.781,87.524z M80.681,82.551c-0.606-0.581-0.915-1.422-0.794-2.273c0.203-1.444,1.549-2.447,2.993-2.252  c0.489,0.068,0.933,0.273,1.305,0.578C83.181,80.058,82.003,81.382,80.681,82.551z M88,66.375c0,3.823-1.005,7.415-2.758,10.534  c-0.611-0.447-1.314-0.757-2.084-0.865c-2.542-0.36-4.895,1.418-5.251,3.954c-0.199,1.409,0.268,2.802,1.211,3.812  c-3.053,2.235-6.711,3.695-10.681,4.083c0.011-0.781-0.176-1.553-0.582-2.245c-1.209-2.066-3.88-2.762-5.951-1.554  c-1.098,0.641-1.837,1.716-2.073,2.922c-3.695-1.154-6.966-3.268-9.521-6.048c0.558-0.43,1.008-0.985,1.285-1.652  c0.42-1.007,0.421-2.117,0.004-3.126c-0.418-1.011-1.205-1.799-2.218-2.219c-1.098-0.454-2.314-0.4-3.348,0.097  c-0.917-2.392-1.424-4.985-1.424-7.694c0-5.039,1.743-9.676,4.652-13.357c0.558,0.572,1.245,1.006,2.034,1.232  c0.425,0.122,0.854,0.18,1.275,0.18c2.023,0,3.891-1.332,4.474-3.369c0.389-1.356,0.13-2.788-0.648-3.915  c2.972-1.528,6.339-2.396,9.908-2.396c3.055,0,5.963,0.636,8.602,1.777c-0.324,0.592-0.513,1.251-0.513,1.944  c0,2.254,1.838,4.087,4.098,4.087c1.233,0,2.377-0.555,3.144-1.471C85.565,55.004,88,60.411,88,66.375z M54.65,48.149  c0.52,0.659,0.709,1.534,0.472,2.361c-0.402,1.402-1.864,2.221-3.278,1.817c-0.504-0.144-0.943-0.428-1.276-0.815  C51.784,50.233,53.154,49.102,54.65,48.149z M80.144,49.735c-0.391,0.506-0.993,0.823-1.653,0.823c-1.156,0-2.098-0.937-2.098-2.087  c0-0.385,0.11-0.75,0.305-1.072C77.923,48.068,79.076,48.852,80.144,49.735z M20.856,20.98c11.957-11.957,31.412-11.957,43.369,0  c6.024,6.024,9.253,14.29,8.951,22.787C71,43.108,68.693,42.75,66.304,42.75c-13.065,0-23.695,10.598-23.695,23.625  c0,2.409,0.366,4.735,1.041,6.926c-8.499,0.31-16.756-2.916-22.793-8.953C8.9,52.392,8.9,32.937,20.856,20.98z"></path><path d="M56.207,64.283c0-2.452-2-4.447-4.458-4.447s-4.458,1.995-4.458,4.447s2,4.447,4.458,4.447S56.207,66.735,56.207,64.283z   M51.749,66.73c-1.355,0-2.458-1.098-2.458-2.447s1.103-2.447,2.458-2.447s2.458,1.098,2.458,2.447S53.104,66.73,51.749,66.73z"></path><path d="M72.286,65.644c0-2.855-2.329-5.178-5.191-5.178s-5.191,2.323-5.191,5.178s2.329,5.179,5.191,5.179  S72.286,68.499,72.286,65.644z M67.095,68.822c-1.76,0-3.191-1.426-3.191-3.179c0-1.752,1.432-3.178,3.191-3.178  s3.191,1.426,3.191,3.178C70.286,67.396,68.854,68.822,67.095,68.822z"></path><path d="M76.535,69.639c0,2.108,1.72,3.824,3.833,3.824s3.833-1.715,3.833-3.824c0-2.109-1.72-3.824-3.833-3.824  S76.535,67.53,76.535,69.639z M82.201,69.639c0,1.005-0.822,1.824-1.833,1.824s-1.833-0.818-1.833-1.824  c0-1.006,0.822-1.824,1.833-1.824S82.201,68.633,82.201,69.639z"></path><path d="M78.168,54.369c-2.463,0-4.466,1.999-4.466,4.455s2.003,4.455,4.466,4.455c2.462,0,4.465-1.999,4.465-4.455  S80.63,54.369,78.168,54.369z M78.168,61.278c-1.359,0-2.466-1.101-2.466-2.455s1.106-2.455,2.466-2.455s2.465,1.101,2.465,2.455  S79.527,61.278,78.168,61.278z"></path><path d="M71.834,75.485c-2.113,0-3.833,1.715-3.833,3.824c0,2.109,1.72,3.824,3.833,3.824s3.833-1.715,3.833-3.824  C75.667,77.2,73.947,75.485,71.834,75.485z M71.834,81.133c-1.011,0-1.833-0.818-1.833-1.824c0-1.005,0.822-1.824,1.833-1.824  s1.833,0.818,1.833,1.824C73.667,80.314,72.845,81.133,71.834,81.133z"></path><path d="M59.654,72.011c-2.979,0-5.402,2.417-5.402,5.389c0,2.971,2.424,5.389,5.402,5.389c2.979,0,5.403-2.417,5.403-5.389  C65.058,74.428,62.634,72.011,59.654,72.011z M59.654,80.789c-1.876,0-3.402-1.52-3.402-3.389s1.526-3.389,3.402-3.389  c1.877,0,3.403,1.521,3.403,3.389S61.531,80.789,59.654,80.789z"></path><path d="M64.679,58.819c2.979,0,5.403-2.417,5.403-5.389s-2.424-5.389-5.403-5.389c-2.979,0-5.402,2.417-5.402,5.389  S61.7,58.819,64.679,58.819z M64.679,50.041c1.877,0,3.403,1.521,3.403,3.389s-1.526,3.389-3.403,3.389  c-1.876,0-3.402-1.521-3.402-3.389S62.803,50.041,64.679,50.041z"></path></svg>