<svg xmlns="http://www.w3.org/2000/svg" xmlns:xlink="http://www.w3.org/1999/xlink" version="1.1" x="0px" y="0px" viewBox="0 0 64 64"  xml:space="preserve"><g><path d="M33.586,29l0.707,0.707L38,33.414L42.414,29l-3.707-3.707L38,24.586l-3-3L30.586,26L33.586,29z M39.586,29L38,30.586   L36.414,29L38,27.414L39.586,29z M36.586,26L35,27.586L33.414,26L35,24.414L36.586,26z"></path><rect x="0.343" y="54" transform="matrix(0.7071 -0.7071 0.7071 0.7071 -37.1335 20.3518)" width="11.314" height="2"></rect><rect x="2.172" y="49" transform="matrix(0.7071 -0.7071 0.7071 0.7071 -33.8909 18.1802)" width="5.657" height="2"></rect><rect x="9.964" y="58.5" transform="matrix(0.7071 -0.7071 0.7071 0.7071 -38.1188 26.9731)" width="7.071" height="2"></rect><rect x="8.172" y="55" transform="matrix(0.7071 -0.7071 0.7071 0.7071 -36.3762 24.1802)" width="5.657" height="2"></rect><path d="M44,1C33.523,1,25,9.523,25,20c0,1.915,0.281,3.759,0.805,5.506L23.528,28H9.586l-4,4l7.5,7.5l-5.5,5.5l5,5l0.707,0.707   L19,56.414l5.5-5.5l7.5,7.5l4-4V40.472l2.495-2.278C40.242,38.719,42.085,39,44,39c10.477,0,19-8.523,19-19S54.477,1,44,1z    M30,13.5c0,1.379-1.122,2.5-2.5,2.5c-0.002,0-0.003,0-0.005,0c0.371-1.531,0.941-2.982,1.696-4.321   C29.691,12.143,30,12.791,30,13.5z M46.97,22.478c-0.067,0.598-0.179,1.185-0.312,1.766l-6.902-6.902   c0.581-0.133,1.168-0.245,1.766-0.312c1.498-0.166,2.968,0.349,4.033,1.415C46.621,19.511,47.136,20.98,46.97,22.478z    M37.587,18.001l8.411,8.411c-0.868,2.238-2.239,4.266-4.039,5.91L25.953,46.937c-0.107-0.997-0.527-1.925-1.246-2.644   C23.874,43.459,22.766,43,21.586,43h-0.172c-0.156,0-0.306,0.029-0.459,0.045C20.971,42.892,21,42.742,21,42.586v-0.172   c0-1.179-0.459-2.287-1.292-3.121c-0.719-0.72-1.647-1.139-2.645-1.246L31.678,22.04C33.321,20.24,35.349,18.869,37.587,18.001z    M17,45.586L13.414,42l1.293-1.293C15.163,40.251,15.769,40,16.414,40h0.172c0.645,0,1.251,0.251,1.707,0.707   C18.749,41.163,19,41.77,19,42.414v0.172c0,0.645-0.251,1.251-0.708,1.707l0,0L17,45.586z M17.269,34.855L12.414,30h9.288   L17.269,34.855z M10,30.414l5.919,5.919l-1.514,1.658L8.414,32L10,30.414z M10.414,45L12,43.414L15.586,47L14,48.586L10.414,45z    M15.414,50L17,48.414L20.586,52L19,53.586L15.414,50z M22,50.586L18.414,47l1.293-1.293C20.163,45.251,20.769,45,21.414,45h0.172   c0.645,0,1.251,0.251,1.707,0.707C23.749,46.163,24,46.77,24,47.414v0.172c0,0.645-0.251,1.251-0.707,1.707L22,50.586z    M26.009,49.595l1.658-1.514L33.586,54L32,55.586L26.009,49.595z M34,51.586l-4.855-4.855L34,42.298V51.586z M45.283,36.935   C45.651,36.064,46.44,35,48,35c1.173,0,1.947,0.364,2.431,0.728C48.823,36.388,47.091,36.799,45.283,36.935z M52.348,34.792   C51.677,34.039,50.332,33,48,33c-2.866,0-4.395,2.232-4.85,3.966c-0.991-0.046-1.958-0.172-2.896-0.378l3.055-2.789   c3.168-2.893,5.175-6.835,5.649-11.101c0.233-2.104-0.492-4.17-1.988-5.667c-1.498-1.499-3.568-2.222-5.668-1.989   c-4.266,0.475-8.208,2.481-11.101,5.65l-2.789,3.054C27.148,22.541,27,21.291,27,20c0-0.69,0.053-1.366,0.134-2.034   C27.256,17.977,27.379,18,27.5,18c2.481,0,4.5-2.019,4.5-4.5c0-1.396-0.646-2.678-1.704-3.518C33.392,5.759,38.374,3,44,3   c9.374,0,17,7.626,17,17c0,3.74-1.228,7.19-3.283,10H51v2h5.029C54.94,33.091,53.699,34.027,52.348,34.792z"></path><rect x="34" y="9" width="2" height="2"></rect><rect x="38" y="5" width="2" height="2"></rect><rect x="49" y="15" width="2" height="2"></rect><path d="M54,28c1.654,0,3-1.346,3-3s-1.346-3-3-3s-3,1.346-3,3S52.346,28,54,28z M54,24c0.551,0,1,0.448,1,1s-0.449,1-1,1   s-1-0.448-1-1S53.449,24,54,24z"></path><path d="M55,16c1.654,0,3-1.346,3-3h-2c0,0.552-0.449,1-1,1s-1-0.448-1-1s0.449-1,1-1v-2c-1.654,0-3,1.346-3,3S53.346,16,55,16z"></path><path d="M43,8c-1.654,0-3,1.346-3,3h2c0-0.552,0.449-1,1-1s1,0.448,1,1s-0.449,1-1,1v2c1.654,0,3-1.346,3-3S44.654,8,43,8z"></path><rect x="49" y="6" width="2" height="2"></rect><rect x="57" y="18" width="2" height="2"></rect></g></svg>