<svg xmlns="http://www.w3.org/2000/svg" version="1.1" viewBox="0 0 25.399999 25.400001" x="0px" y="0px"><g transform="translate(0 -271.6)"><path  d="m48 2a46 46 0 0 0 -46 46 46 46 0 0 0 46 46 46 46 0 0 0 46 -46 46 46 0 0 0 -0.176 -3.75 27.518 27.518 0 0 1 -1.699 3.646 27.518 27.518 0 0 1 -37.59 10.075 27.518 27.518 0 0 1 -9.349 -8.897 27.518 27.518 0 0 0 25.257 -13.695 27.518 27.518 0 0 0 -0.06 -27.545 46 46 0 0 0 -22.383 -5.834zm-5.33 13.789c0.822 0.038 1.55 0.149 2.141 0.313 0.787 0.218 1.334 0.53 1.539 0.884 0.715 1.24-1.698 7.21-7.12 10.34-0.337 0.193-0.681 0.379-1.029 0.557 0.323 1.85-0.264 3.755-1.607 5.097-1.466 1.466-3.603 2.039-5.606 1.502 2.394-2.005 2.508-3.467 1.948-4.767-0.982 0.178-1.993 0.269-3.034 0.25-1.128-0.114-0.374-0.443-1.666-2.522-1.145-2.107-1.866-1.586-1.351-2.703 0.437-0.857 1.042-1.698 1.75-2.5-0.844-1.188-2.161-1.878-5.166-0.781 0.536-2.003 2.101-3.567 4.103-4.104 1.875-0.502 3.863-0.029 5.313 1.237 0.316-0.213 0.634-0.419 0.949-0.612 3.049-1.76 6.369-2.305 8.836-2.191zm-17.563 11.193c0.215-0.005 0.428 0.008 0.625 0.045h0.002c0.113 0.023 0.22 0.052 0.321 0.09 0.434 0.171 0.364 0.114 0.933 1.045 0.525 0.981 0.507 0.868 0.438 1.33-0.129 0.853-1.016 1.836-1.496 2.113-2.464 1.423-5.623 0.564-5.688 0.452-0.082-0.142 0.771-3.277 3.235-4.7 0.32-0.173 0.985-0.357 1.63-0.375zm-1.564 28.012c0.604 0.053 1.796 0.995 2.252 1.117 0.521 0.14 2.408-0.168 2.678 0.299 0.269 0.467-0.941 1.95-1.08 2.471-0.14 0.521 0.168 2.408-0.299 2.678-0.467 0.269-1.95-0.941-2.471-1.08-0.521-0.14-2.408 0.168-2.678-0.299-0.269-0.467 0.941-1.95 1.08-2.471 0.14-0.521-0.168-2.408 0.299-2.678 0.059-0.033 0.133-0.044 0.219-0.037zm-10.148 6.733c0.469 0.041 1.395 0.772 1.75 0.867 0.404 0.108 1.872-0.131 2.082 0.232 0.209 0.363-0.732 1.515-0.84 1.92-0.109 0.405 0.13 1.873-0.233 2.082-0.363 0.21-1.515-0.731-1.92-0.84-0.404-0.108-1.872 0.131-2.082-0.232-0.209-0.363 0.732-1.515 0.84-1.92 0.109-0.405-0.13-1.873 0.233-2.082 0.045-0.026 0.103-0.033 0.17-0.027zm7.257 7.679c0.546 0.048 1.623 0.9 2.036 1.01 0.471 0.126 2.18-0.151 2.423 0.272 0.244 0.422-0.85 1.761-0.976 2.232s0.151 2.18-0.272 2.424c-0.422 0.244-1.763-0.851-2.234-0.977s-2.18 0.151-2.424-0.271c-0.244-0.423 0.852-1.764 0.979-2.235 0.126-0.471-0.153-2.178 0.269-2.422 0.053-0.03 0.121-0.04 0.199-0.033zm29.379 3.059a8.2116 8.2116 0 0 1 8.213 8.213 8.2116 8.2116 0 0 1 -8.213 8.211 8.2116 8.2116 0 0 1 -8.211 -8.211 8.2116 8.2116 0 0 1 8.211 -8.213z" fill-rule="evenodd" transform="matrix(.26458 0 0 .26458 0 271.6)"></path></g></svg>