<svg xmlns="http://www.w3.org/2000/svg" xmlns:xlink="http://www.w3.org/1999/xlink" version="1.1" x="0px" y="0px" viewBox="0 0 100 100" enable-background="new 0 0 100 100" xml:space="preserve"><g><path d="M90.378,9.504c-1.715-6.403-5.358-7.219-6.701-7.296c-1.52,1.131-4.17,4.059-2.562,10.066   c1.363,5.087,4.271,6.737,6.272,7.255C87.388,19.529,92.504,17.438,90.378,9.504z M85.143,6.207   c-0.703,0.744-0.951,2.399-0.741,3.314c0.401,1.746-2.286,2.472-2.688,0.72c-0.446-1.941,0.061-4.522,1.45-5.993   C84.4,2.939,86.374,4.905,85.143,6.207z"></path><path d="M51.469,20.392c-1.288-4.808-0.439-6.731,0.457-8.157l0.378-0.601l-21.57,5.778c0,0-3.663,1.821-1.784,8.836   c1.879,7.016,5.962,6.762,5.962,6.762l21.703-5.814l-0.534-0.34C55.223,26.312,52.611,24.653,51.469,20.392z M35.216,16.788   l15.891-4.256c-0.578,1.069-1.023,2.474-0.787,4.822l-17.273,4.627C32.943,18.276,34.941,16.952,35.216,16.788z M34.632,27.897   c-0.417-0.771-0.799-1.713-1.11-2.873c-0.247-0.921-0.377-1.737-0.437-2.477l17.302-4.635c0.107,0.775,0.28,1.64,0.544,2.625   c0.281,1.049,0.649,1.943,1.056,2.711L34.632,27.897z M39.106,31.31c-0.304-0.004-2.458-0.144-4.181-2.915l17.345-4.646   c1.017,1.705,2.214,2.693,2.991,3.234L39.106,31.31z"></path><path d="M14.444,24.082l-3.341,0.895c0,0-3.012,1.373-1.641,6.493c1.372,5.12,4.667,4.803,4.667,4.803l2.808-0.752   c-1.272-1.216-2.296-2.896-2.829-4.885C13.476,28.275,13.659,25.948,14.444,24.082z"></path><path d="M27.646,20.545L15.122,23.9c-0.884,1.81-1.121,4.183-0.476,6.591c0.541,2.017,1.605,3.704,2.918,4.861l13.107-3.511   c-0.998-0.868-2.195-3.081-2.728-5.07C27.311,24.412,27.128,22.413,27.646,20.545z"></path><path d="M61.797,17.085c-0.887-3.307-0.318-6.681,1.316-9.5l-2.637,0.707c-1.79,2.789-2.458,6.213-1.561,9.565   c0.918,3.425,3.288,6.101,6.325,7.605l2.624-0.703C64.953,23.144,62.702,20.463,61.797,17.085z"></path><path d="M65.215,16.169c-0.886-3.308-0.317-6.682,1.316-9.5l-2.637,0.707c-1.789,2.789-2.458,6.213-1.561,9.565   c0.918,3.426,3.288,6.101,6.325,7.605l2.624-0.703C68.372,22.229,66.121,19.547,65.215,16.169z"></path><path d="M80.514,12.489c-1.502-5.606,0.559-8.676,2.196-10.154L67.313,6.46c-1.789,2.79-2.458,6.213-1.56,9.565   c0.917,3.425,3.288,6.101,6.325,7.605l14.285-3.827C84.309,19.063,81.776,17.198,80.514,12.489z"></path><path d="M58.379,18c-0.886-3.307-0.317-6.681,1.316-9.5l-3.424,0.917c0,0-5.059,2.364-3.006,10.029   c2.053,7.665,7.616,7.183,7.616,7.183l3.565-0.955C61.536,24.06,59.284,21.378,58.379,18z"></path><polygon points="42.235,32.951 42.235,41.36 49.235,41.36 49.235,30.932  "></polygon><rect x="37.235" y="42.36" width="19" height="5"></rect><polygon points="37.167,97.36 38.211,97.36 43.85,49.36 40.508,49.36  "></polygon><polygon points="45.938,97.36 47.19,97.36 47.921,49.36 45.346,49.36  "></polygon><polygon points="49.418,49.36 54.986,97.36 56.099,97.36 52.758,49.36  "></polygon></g></svg>