<svg xmlns="http://www.w3.org/2000/svg" xmlns:xlink="http://www.w3.org/1999/xlink" version="1.1" x="0px" y="0px" viewBox="0 0 100 100" enable-background="new 0 0 100 100" xml:space="preserve"><path d="M85.542,51.546c0-3.572-4.222-6.565-12.205-8.655c-0.842-0.222-1.7,0.283-1.922,1.125c-0.22,0.841,0.282,1.701,1.125,1.922  c6.808,1.781,9.854,4.1,9.854,5.608c0,2.046-4.523,4.577-12.554,6.271c0.402-1.617,0.64-3.299,0.64-5.039  c0-11.54-9.388-20.928-20.928-20.928c-11.539,0-20.928,9.389-20.928,20.928c0,1.74,0.237,3.422,0.639,5.039  c-8.027-1.693-12.552-4.226-12.552-6.271c0-1.537,3.132-3.89,10.128-5.68c0.842-0.216,1.35-1.073,1.135-1.916  c-0.215-0.842-1.071-1.349-1.916-1.135c-8.174,2.093-12.495,5.111-12.495,8.73c0,4.655,7.134,7.917,16.868,9.7  c3.26,7.33,10.598,12.46,19.121,12.46c8.525,0,15.863-5.13,19.122-12.46C78.407,59.463,85.542,56.201,85.542,51.546z M61.313,39.278  H37.792c3.152-2.749,7.26-4.429,11.76-4.429C54.055,34.85,58.161,36.529,61.313,39.278z M31.743,54.777h5.832c0.553,0,1-0.447,1-1  c0-0.551-0.447-1-1-1h-5.951l0,0c0-1.557,0.22-3.059,0.594-4.5H55.45c0.553,0,1-0.448,1-1c0-0.552-0.447-1-1-1H32.862  c0.715-1.83,1.711-3.519,2.954-5.001c0,0,0.001,0.001,0.003,0.001h27.47c1.242,1.481,2.238,3.17,2.954,5h-6.154  c-0.553,0-1,0.448-1,1c0,0.552,0.447,1,1,1h6.729c0.023,0,0.041-0.011,0.063-0.013c0.376,1.444,0.599,2.951,0.599,4.512  c0,1.977-0.334,3.873-0.928,5.652c-4.758,0.774-10.473,1.266-17.002,1.266c-6.527,0-12.242-0.49-17.001-1.266  C32.161,57.26,31.884,56.04,31.743,54.777z M61.507,66.102H55.45c-0.554,0-1,0.447-1,1c0,0.551,0.446,1,1,1h3.36  c-2.707,1.642-5.869,2.604-9.26,2.604c-6.58,0-12.329-3.575-15.447-8.874c4.854,0.67,10.158,1.012,15.447,1.012  c5.289,0,10.596-0.342,15.449-1.012C64.061,63.432,62.88,64.867,61.507,66.102z"></path><path d="M72.143,37.914c3.311,0,6.002-2.693,6.002-6.003s-2.691-6.003-6.002-6.003c-3.312,0-6.004,2.693-6.004,6.003  S68.831,37.914,72.143,37.914z M72.143,29.057c1.573,0,2.854,1.281,2.854,2.854c0,1.573-1.28,2.854-2.854,2.854  c-1.574,0-2.854-1.281-2.854-2.854C69.288,30.338,70.566,29.057,72.143,29.057z"></path><path d="M63.214,54.777c0.552,0,1-0.447,1-1c0-0.551-0.448-1-1-1H49.749c-0.553,0-1,0.449-1,1c0,0.553,0.447,1,1,1H63.214z"></path></svg>