<svg xmlns:dc="http://purl.org/dc/elements/1.1/" xmlns:cc="http://creativecommons.org/ns#" xmlns:rdf="http://www.w3.org/1999/02/22-rdf-syntax-ns#" xmlns:svg="http://www.w3.org/2000/svg" xmlns="http://www.w3.org/2000/svg" xmlns:sodipodi="http://sodipodi.sourceforge.net/DTD/sodipodi-0.dtd" xmlns:inkscape="http://www.inkscape.org/namespaces/inkscape" version="1.1" x="0px" y="0px" viewBox="0 0 100 100"><g transform="translate(0,-952.36218)"><path d="m 29.318271,969.15528 c 5.99584,-3.7696 13.089358,-5.9504 20.683188,-5.9504 21.52277,0 38.99187,17.5107 38.99187,39.08472 0,7.6148 -2.17312,14.7243 -5.93626,20.7325 7.89998,10.8651 11.66908,19.0886 9.18559,21.5781 -2.48627,2.492 -10.70058,-1.2705 -21.55801,-9.2076 -5.99936,3.7727 -13.08234,5.9504 -20.68319,5.9504 -21.522778,0 -38.991878,-17.4793 -38.991878,-39.0534 0,-7.61191 2.17563,-14.72222 5.93627,-20.73242 -7.9181096,-10.8833 -11.6718696,-19.1171 -9.1855906,-21.6093 4.8168206,-3.0104 17.7199006,6.4256 21.5580106,9.2074 z m -18.37117,-6.013 c -2.0980696,2.1031 0.6522,8.6024 6.6861,17.3501 2.83086,-4.2149 6.44586,-7.8463 10.65403,-10.6794 -4.26975,-2.4628 -12.14113,-9.6483 -17.34013,-6.6707 z m 39.054358,2.0357 c -13.083288,0 -24.574388,6.8301 -31.149758,17.0995 1.57173,2.1953 3.34808,4.5112 5.28015,6.9213 4.78128,-9.4698 14.568838,-16.0034 25.869608,-16.0034 16.00108,0 28.99396,13.055 28.99396,29.09422 0,11.3176 -6.47369,21.134 -15.90294,25.9313 2.39379,1.9242 4.69392,3.6939 6.87357,5.2614 10.23504,-6.5919 17.0277,-18.0813 17.0277,-31.1927 0,-20.49082 -16.5502,-37.11162 -36.99229,-37.11162 z m 0,10.053 c -10.85938,0 -20.207528,6.4016 -24.494898,15.6589 4.83903,5.90211 10.61987,12.30502 17.090188,18.79082 6.473,6.4884 12.85189,12.2828 18.7461,17.1309 9.24313,-4.2902 15.65298,-13.631 15.65298,-24.522 0,-14.95602 -12.07397,-27.05862 -26.99437,-27.05862 z m -31.774628,8.0487 c -3.31547,5.5611 -5.21766,12.05771 -5.21766,19.00992 0,20.4909 16.55019,37.0804 36.992288,37.0804 6.93786,0 13.41886,-1.9361 18.9648,-5.2614 -2.19799,-1.6521 -4.50504,-3.4685 -6.87357,-5.4179 -3.68262,1.699 -7.77409,2.662 -12.09123,2.662 -16.001088,0 -28.993958,-13.0239 -28.993958,-29.0631 0,-4.32751 0.96066,-8.42691 2.6557,-12.12002 -1.95038,-2.3772 -3.78381,-4.6804 -5.43637,-6.8899 z m 6.84232,8.61241 c -1.32531,3.1976 -2.06207,6.7169 -2.06207,10.39751 0,14.9559 12.07397,27.0274 26.994378,27.0274 3.68443,0 7.1741,-0.7312 10.37284,-2.0671 -5.85086,-4.9106 -12.0921,-10.6176 -18.40242,-16.9429 -6.307398,-6.3224 -12.006698,-12.56371 -16.902728,-18.41491 z m 57.300568,32.16351 c -2.83106,4.213 -6.47664,7.8486 -10.68528,10.6794 8.73564,6.0567 15.24068,8.7752 17.34014,6.6707 2.09806,-2.1031 -0.62096,-8.6027 -6.65486,-17.3501 z"   fill-opacity="1" stroke="none" marker="none" visibility="visible" display="inline" overflow="visible"></path></g></svg>