<svg xmlns="http://www.w3.org/2000/svg" data-name="Layer 1" viewBox="0 0 512 512" x="0px" y="0px"><title>Alien</title><g data-name="Group"><path data-name="Compound Path" d="M118.8,326.765a102.036,102.036,0,0,1,13.12,34.437l6.264,33.828A118.468,118.468,0,0,0,254.628,492h2.744A118.49,118.49,0,0,0,373.82,395.057l6.264-33.842a102.088,102.088,0,0,1,13.12-34.444l26.671-44.011A101.755,101.755,0,0,0,433.991,218.6c-6.325-54.378-27.421-104.352-59.4-140.712C341.819,40.628,299.7,20.107,256,20.107s-85.819,20.52-118.59,57.781c-31.98,36.361-53.076,86.333-59.4,140.712a101.747,101.747,0,0,0,14.116,64.156ZM93.9,220.448c5.953-51.177,25.671-98.053,55.522-131.994C179.113,54.7,216.963,36.107,256,36.107S332.887,54.7,362.576,88.454c29.851,33.941,49.569,80.817,55.522,131.994a85.675,85.675,0,0,1-11.906,54.015l-26.671,44.009a118,118,0,0,0-15.169,39.817l-6.265,33.828A102.466,102.466,0,0,1,257.372,476h-2.744a102.486,102.486,0,0,1-100.715-83.857L147.648,358.3a118.048,118.048,0,0,0-15.169-39.824l-26.671-44.011A85.688,85.688,0,0,1,93.9,220.448Z"></path><path data-name="Compound Path" d="M289,282.473a112.062,112.062,0,0,0,15.632.98,130.94,130.94,0,0,0,14.977-.849c22.806-2.641,41.36-11.355,53.658-25.2,28.9-32.532,22.223-90.589,21.924-93.044a8,8,0,0,0-6.724-6.942,125.85,125.85,0,0,0-30.61-.131c-22.805,2.641-41.36,11.355-53.658,25.2-28.9,32.532-22.222,90.588-21.924,93.044A8,8,0,0,0,289,282.473Zm27.162-89.36c18.346-20.655,50.221-21.237,63.643-20.452a169.41,169.41,0,0,1-.442,23.99c-1.384,15.152-5.64,36.147-18.058,50.127-18.343,20.651-50.211,21.236-63.631,20.452C296.9,252.273,297.073,214.6,316.162,193.113Z"></path><path data-name="Compound Path" d="M192.391,282.6a130.94,130.94,0,0,0,14.977.849,112.1,112.1,0,0,0,15.632-.98,8,8,0,0,0,6.725-6.942c.3-2.456,6.972-60.512-21.924-93.044h0c-12.3-13.845-30.853-22.559-53.658-25.2a125.913,125.913,0,0,0-30.61.131,8,8,0,0,0-6.724,6.942c-.3,2.455-6.972,60.512,21.924,93.044C151.031,271.249,169.585,279.963,192.391,282.6Zm-60.183-109.96c13.405-.814,45.207-.272,63.63,20.468,19.1,21.5,19.266,59.195,18.487,74.135-13.4.814-45.207.272-63.63-20.469C131.6,225.278,131.429,187.583,132.208,172.644Z"></path></g></svg>