<svg xmlns:dc="http://purl.org/dc/elements/1.1/" xmlns:cc="http://creativecommons.org/ns#" xmlns:rdf="http://www.w3.org/1999/02/22-rdf-syntax-ns#" xmlns:svg="http://www.w3.org/2000/svg" xmlns="http://www.w3.org/2000/svg" xmlns:sodipodi="http://sodipodi.sourceforge.net/DTD/sodipodi-0.dtd" xmlns:inkscape="http://www.inkscape.org/namespaces/inkscape" version="1.1" x="0px" y="0px" viewBox="0 0 100 100"><g transform="translate(0,-952.36218)"><path d="m 47.000023,965.36466 c -8.97727,0 -17.24979,3.0534 -23.84375,8.1592 -0.86595,-0.717 -1.95849,-1.1566 -3.15625,-1.1566 -2.73774,0 -5,2.2632 -5,5.0018 0,1.1902 0.44865,2.2626 1.15625,3.1261 -5.11317,6.5996 -8.1562495,14.8944 -8.1562495,23.88394 0,10.0232 3.7827295,19.1668 9.9999995,26.0721 -0.60555,0.8275 -1,1.8469 -1,2.9385 0,2.7388 2.26226,5.0019 5,5.0019 1.35344,0 2.59504,-0.5793 3.5,-1.4693 6.16247,4.0745 13.56237,6.4399 21.5,6.4399 21.52726,0 39,-17.448 39,-38.9831 0,-9.27774 -3.24137,-17.80844 -8.65625,-24.50904 1.05161,-1.5829 1.65625,-3.4701 1.65625,-5.5021 0,-5.5012 -4.50084,-10.0037 -10,-10.0037 -3.1179,0 -5.91233,1.4327 -7.75,3.6889 -1.3903,-0.5469 -2.81876,-1.0208 -4.28125,-1.4068 0.058,-2.9165 -2.06032,-5.3404 -4.9688,-5.2832 -2.91045,0.085 -4.41571,2.2083 -4.99995,4.0015 z m -5e-5,1.9696 c 0.28125,2.4779 2.96215,3.977 4.99995,4.0326 1.94891,0 3.61529,-1.1649 4.4375,-2.8135 1.25635,0.332 2.48643,0.7315 3.6875,1.188 -0.71957,1.3789 -1.125,2.9713 -1.125,4.6266 0,5.5013 4.50084,10.0037 10,10.0037 2.74958,0 5.2499,-1.1253 7.0625,-2.9386 4.97344,6.3073 7.9375,14.2845 7.9375,22.94604 0,20.4538 -16.55362,37.0135 -37,37.0135 -7.53706,0 -14.53007,-2.2611 -20.375,-6.1272 0.23818,-0.5802 0.375,-1.215 0.375,-1.8757 0,-2.7387 -2.26227,-5.0018 -5,-5.0018 -0.92765,0 -1.78241,0.2687 -2.53125,0.7191 -5.89066,-6.5548 -9.4686995,-15.2124 -9.4686995,-24.7279 0,-8.51784 2.8602795,-16.37464 7.6874995,-22.63344 0.69775,0.373 1.47417,0.6253 2.3125,0.6253 2.73773,0 5,-2.2631 5,-5.0019 0,-0.8343 -0.25573,-1.6176 -0.625,-2.3133 6.25285,-4.843 14.10277,-7.7215 22.625,-7.7215 z m 35,12.0355 c 0,2.7389 2.26227,5.0019 5,5.0019 2.737734,0 5.000004,-2.263 5.000004,-5.0019 0,-2.7387 -2.26227,-5.0018 -5.000004,-5.0018 -3.24909,0.069 -4.93844,2.888 -5,5.0018 z m -35,-0.031 c -13.78343,0 -25,11.2519 -25,25.04054 0,13.7886 11.21657,25.0092 25,25.0092 13.78343,0 25,-11.2206 25,-25.0092 0,-13.78864 -11.21657,-25.04054 -25,-25.04054 z m 34,54.05114 c 0,2.7388 2.26227,5.0019 5,5.0019 2.73773,0 5.000004,-2.2631 5.000004,-5.0019 0,-2.7387 -2.262273,-5.0018 -5.000004,-5.0018 -3.12409,0.1317 -4.93844,2.8879 -5,5.0018 z"   fill-opacity="1" stroke="none" marker="none" visibility="visible" display="inline" overflow="visible"></path></g></svg>