<svg xmlns="http://www.w3.org/2000/svg" xmlns:xlink="http://www.w3.org/1999/xlink" version="1.1" x="0px" y="0px" viewBox="0 0 100 100"  xml:space="preserve"><path d="M32.796,89.918c9.041,0,16.869-5.42,20.552-13.254c1.349,0.168,2.694,0.259,4.029,0.259c8.628,0,16.853-3.464,23.057-9.827  c12.732-13.056,12.732-34.301,0-47.357c-6.176-6.333-14.388-9.82-23.125-9.82c-8.737,0-16.949,3.487-23.125,9.82  c-6.448,6.612-9.89,15.696-9.529,25.022C16.095,48.125,10,56.628,10,66.566C10,79.442,20.226,89.918,32.796,89.918z M32.796,87.918  c-7.179,0-13.52-3.756-17.258-9.453h34.516C46.315,84.162,39.975,87.918,32.796,87.918z M14.387,56.667h36.818  c1.374,2.682,2.192,5.7,2.338,8.899H12.049C12.195,62.367,13.013,59.349,14.387,56.667z M50.758,49.917  c0-2.619,2.067-4.75,4.607-4.75c2.54,0,4.607,2.131,4.607,4.75s-2.067,4.75-4.607,4.75C52.825,54.667,50.758,52.536,50.758,49.917z   M53.542,67.566c-0.145,3.199-0.963,6.216-2.337,8.898H14.386c-1.374-2.682-2.192-5.7-2.337-8.898H53.542z M67.387,72.114  c-2.54,0-4.607-2.131-4.607-4.75s2.067-4.75,4.607-4.75s4.607,2.131,4.607,4.75S69.927,72.114,67.387,72.114z M55.699,17.607  c0,2.619-2.067,4.75-4.607,4.75s-4.607-2.131-4.607-4.75s2.067-4.75,4.607-4.75S55.699,14.988,55.699,17.607z M35.615,21.135  c2.819-2.89,6.091-5.143,9.649-6.701c-0.496,0.947-0.779,2.027-0.779,3.174c0,3.722,2.964,6.75,6.607,6.75s6.607-3.028,6.607-6.75  c0-2.316-1.148-4.362-2.893-5.578c0.828-0.068,1.662-0.111,2.502-0.111c8.193,0,15.897,3.273,21.694,9.217  c11.981,12.287,11.981,32.278,0,44.564c-1.736,1.78-3.642,3.315-5.673,4.598c0.422-0.888,0.666-1.881,0.666-2.933  c0-3.722-2.964-6.75-6.607-6.75s-6.607,3.028-6.607,6.75c0,3.028,1.963,5.597,4.657,6.449c-3.617,1.015-7.433,1.335-11.289,0.925  c0.931-2.545,1.444-5.298,1.444-8.172c0-3.676-0.836-7.156-2.32-10.253c0.659,0.226,1.362,0.353,2.094,0.353  c3.643,0,6.607-3.028,6.607-6.75s-2.964-6.75-6.607-6.75c-3.643,0-6.607,3.028-6.607,6.749c-4.115-4.141-9.751-6.701-15.962-6.701  c-2.136,0-4.202,0.309-6.164,0.875C26.457,35.519,29.687,27.215,35.615,21.135z M32.796,45.215c7.179,0,13.519,3.755,17.257,9.452  H15.539C19.277,48.97,25.617,45.215,32.796,45.215z"></path><path d="M69.254,44.215c0,3.722,2.964,6.75,6.607,6.75s6.607-3.028,6.607-6.75s-2.964-6.75-6.607-6.75S69.254,40.493,69.254,44.215z   M75.861,39.465c2.54,0,4.607,2.131,4.607,4.75s-2.067,4.75-4.607,4.75s-4.607-2.131-4.607-4.75S73.321,39.465,75.861,39.465z"></path><path d="M68.441,33.619c3.643,0,6.607-3.028,6.607-6.75s-2.964-6.75-6.607-6.75s-6.607,3.028-6.607,6.75  S64.798,33.619,68.441,33.619z M68.441,22.119c2.54,0,4.607,2.131,4.607,4.75s-2.067,4.75-4.607,4.75s-4.607-2.131-4.607-4.75  S65.901,22.119,68.441,22.119z"></path><path d="M42.596,40.536c3.644,0,6.607-3.028,6.607-6.75s-2.964-6.75-6.607-6.75c-3.643,0-6.607,3.028-6.607,6.75  S38.953,40.536,42.596,40.536z M42.596,29.036c2.541,0,4.607,2.131,4.607,4.75s-2.067,4.75-4.607,4.75  c-2.54,0-4.607-2.131-4.607-4.75S40.056,29.036,42.596,29.036z"></path></svg>