<svg xmlns="http://www.w3.org/2000/svg" xmlns:xlink="http://www.w3.org/1999/xlink" version="1.1" x="0px" y="0px" viewBox="0 0 1000 1000" enable-background="new 0 0 1000 1000" xml:space="preserve"><metadata><?xpacket begin="&#65279;" id="W5M0MpCehiHzreSzNTczkc9d"?><x:xmpmeta xmlns:x="adobe:ns:meta/" x:xmptk="Adobe XMP Core 5.5-c014 79.151739, 2013/04/03-12:12:15        "></x:xmpmeta><?xpacket end="w"?></metadata><path  d="M567.3,199.6c-2.6-11.7-5.5-23.7-8.7-36.1c-10.8-40.9-25-83.3-42.2-126c-1.4-2.9-2.6-5.8-3.8-8.7l-1.1-2.7  l0.2,4.3l-1.3-0.7l0.5-1.5l-0.5-0.2l-0.5-0.2l0,0c-1.1,3.1-2.3,6.4-3.8,9.6C490,76.9,476,118.5,464.6,161.2l0.1,0l-0.1,0  c-3.2,12.7-6.2,25.3-8.9,37.7c6-2.1,13.4-4.3,22.1-5.8C497.8,189.4,528.6,188,567.3,199.6z"></path><path  d="M487.2,762.1c0.1,2.2,0.1,4.6,0.1,7c-17.2,41-25.8,74.3-25.5,98.9c0.3,24.8,9.6,41.5,27.6,49.7  c6.9,2,13.3,3.1,19,3.3v0l0.6,0l0.3,0l0.5,0v0c5.8-0.1,12.2-1.3,19.1-3.3c18-8.2,27.3-24.9,27.6-49.7c0.3-24.6-8.3-57.9-25.5-98.9  c0-2.1,0-4.1,0.1-6.1C509.6,749.6,493.3,757.9,487.2,762.1z"></path><path  d="M693.3,735c-27.6-45.6-69.6-94.3-124.9-144.7c6.8-32.1,11.7-62.3,15-92.5l0.1-0.5l-0.2,0l0.1-0.5  c0-0.4,0.1-0.8,0.1-1.2c3.1-29,4.8-55.3,5.5-80.5l0.1,0l0-0.6c0-4,0.1-8.1,0.1-12.1c0.1-26.9-0.7-51-2.4-73.9  c-1.9-22.1-4.8-51.2-9.9-80.6c-2-12.2-4.3-24.5-7-37.1c-57.5-18.8-98.2-7.9-116.6-0.2c-2.8,13.3-5.3,26.3-7.4,39.1l0,0.3  c-4,24-6.8,48.3-8.6,72.4l-0.1-0.3l-0.1,2.4l0,0.3c0,0.2-0.1,0.3-0.1,0.5c0,0,0,0.1,0,0.1c-1.7,21.6-2.7,43.7-2.7,65.6  c0,7.3,0,14.6,0.2,21.8l0.1,0.5h0c0.7,28.1,2.4,54.5,5.5,80.8c0,0.4,0.1,0.8,0.1,1.2l0.1,0.5l-0.2,0l0,0.5  c2.8,27.6,7.7,57.8,15,92.2c-55.4,50.6-97.4,99.3-125,144.8c-27.7,45.7-41.6,89.6-41.3,130.3c0,7.4,0.4,14.8,1.2,21.9  c5.2,55.7,17.5,82.8,37.8,82.8c1.7,0,3.4-0.2,5.1-0.6c1.2,0.3,2.3,0.5,3.5,0.5c16,0,31-30.6,45.9-93.7c6.9-28.7,18.8-53.5,35.2-73.6  c16.4-20.1,38-36.1,63.9-47.7c1-0.4,2-0.8,3-1.2c2.8-1.7,6.5-3.4,10.9-4.7c8.6-2.5,21.6-3.4,36.7,4.4c0-0.1,0-0.1,0-0.2  c3.6,1.1,7,2.3,10,3.7c51.6,22.5,85,63.2,99.2,120.9c14.6,62.1,30.1,93.6,45.8,93.6c1.1,0,2.2-0.1,3.3-0.4c1.8,0.4,3.6,0.6,5.4,0.6  c0,0,0,0,0,0c20,0,32.8-28,37.9-83.1c0.8-7.1,1.2-14.3,1.2-21.6C734.8,824.6,720.9,780.7,693.3,735z"></path></svg>