<svg xmlns="http://www.w3.org/2000/svg" xmlns:xlink="http://www.w3.org/1999/xlink" version="1.1" x="0px" y="0px" viewBox="0 0 64 64" enable-background="new 0 0 64 64" xml:space="preserve"><g><g><path d="M61.961,33.858c-0.358-1.906-3.013-2.99-7.879-3.23c-3.118-7.102-10.12-12.07-18.254-12.07    c-10.709,0-19.453,8.607-19.942,19.369c-4.461,2.057-6.547,4.06-6.19,5.955c0.356,1.903,3.014,2.987,7.881,3.23    c3.118,7.1,10.119,12.066,18.252,12.066c10.709,0,19.453-8.606,19.943-19.366C60.23,37.757,62.316,35.755,61.961,33.858z     M35.828,20.558c7.504,0,13.942,4.704,16.637,11.365c0.007,0.02,0.013,0.038,0.021,0.058c0.808,2.017,1.267,4.211,1.313,6.509    c-4.506,1.904-10.693,3.684-17.146,4.912c-6.532,1.246-12.92,1.871-17.7,1.754c-0.708-1.964-1.115-4.075-1.115-6.286    C17.839,28.772,25.909,20.558,35.828,20.558z M11.66,43.513c-0.066-0.354,0.629-1.592,4.242-3.379    c0.104,1.706,0.398,3.358,0.894,4.925C12.834,44.747,11.723,43.842,11.66,43.513z M35.828,57.179    c-6.98,0-13.031-4.076-16.012-10.006c0.119,0.001,0.23,0.007,0.352,0.007c4.765,0,10.661-0.63,16.861-1.813    c6.185-1.178,12.153-2.858,16.699-4.683C52.83,49.931,45.146,57.179,35.828,57.179z M55.755,37.604    c-0.104-1.705-0.398-3.357-0.893-4.924c3.96,0.31,5.071,1.217,5.134,1.547C60.062,34.581,59.367,35.818,55.755,37.604z"></path><path d="M4.972,17.506c-0.133,0.413,0.017,0.864,0.369,1.117c0.354,0.253,0.829,0.249,1.177-0.008l4.14-3.056l4.139,3.056    c0.176,0.13,0.385,0.195,0.594,0.195c0.204,0,0.408-0.063,0.583-0.188c0.353-0.253,0.502-0.704,0.369-1.117l-1.588-4.974    l4.155-3.069c0.347-0.257,0.49-0.707,0.355-1.117c-0.136-0.41-0.519-0.688-0.95-0.688h-5.119l-1.586-4.963    C11.478,2.281,11.092,2,10.657,2s-0.82,0.281-0.952,0.695L8.119,7.658H3c-0.432,0-0.814,0.277-0.95,0.688    c-0.135,0.409,0.009,0.86,0.355,1.117l4.154,3.069L4.972,17.506z M6.035,9.658H8.85c0.435,0,0.82-0.281,0.952-0.695l0.855-2.677    l0.855,2.677c0.132,0.414,0.518,0.695,0.952,0.695h2.813l-2.29,1.691c-0.344,0.255-0.488,0.701-0.357,1.109l0.865,2.711    l-2.245-1.658c-0.354-0.26-0.834-0.26-1.188,0L7.817,15.17l0.865-2.711c0.131-0.408-0.014-0.854-0.357-1.109L6.035,9.658z"></path><path d="M51.92,16.188l-0.848,2.656c-0.132,0.413,0.019,0.864,0.371,1.116c0.352,0.253,0.828,0.249,1.176-0.008l2.199-1.624    l2.196,1.624c0.177,0.13,0.386,0.195,0.595,0.195c0.204,0,0.408-0.063,0.582-0.188c0.353-0.252,0.503-0.703,0.371-1.116    l-0.848-2.656l2.216-1.635c0.348-0.257,0.491-0.707,0.356-1.117s-0.519-0.688-0.95-0.688h-2.722l-0.844-2.645    c-0.133-0.415-0.518-0.696-0.953-0.696c-0.435,0-0.82,0.281-0.952,0.695l-0.846,2.646H50.3c-0.432,0-0.814,0.277-0.95,0.688    c-0.135,0.41,0.009,0.86,0.356,1.117L51.92,16.188z M53.751,14.748c0.435,0,0.82-0.281,0.952-0.695l0.115-0.358l0.114,0.357    c0.132,0.415,0.517,0.696,0.952,0.696h0.412l-0.347,0.256c-0.345,0.255-0.489,0.7-0.359,1.108l0.126,0.393l-0.304-0.225    c-0.354-0.26-0.837-0.26-1.188,0l-0.307,0.227l0.126-0.395c0.13-0.408-0.015-0.854-0.359-1.108l-0.347-0.256H53.751z"></path><ellipse cx="37.675" cy="5.076" rx="1.582" ry="1.609"></ellipse><ellipse cx="5.761" cy="56.569" rx="1.582" ry="1.609"></ellipse><ellipse cx="52.972" cy="59.036" rx="1.931" ry="1.964"></ellipse></g></g></svg>