<svg xmlns="http://www.w3.org/2000/svg" xmlns:xlink="http://www.w3.org/1999/xlink" version="1.1" x="0px" y="0px" viewBox="145 347 100 100"  xml:space="preserve"><path d="M195,349.5c-26.2,0-47.5,21.3-47.5,47.5c0,8.1,2,15.7,5.6,22.4c-1.5,1.5-2.4,3.6-2.4,5.9c0,4.6,3.7,8.3,8.3,8.3  c1.6,0,3-0.4,4.3-1.2c8.4,7.5,19.5,12.2,31.7,12.2c26.2,0,47.5-21.3,47.5-47.5C242.5,370.9,221.2,349.5,195,349.5z M154.4,425.3  c0-2.6,2.1-4.7,4.7-4.7c2.6,0,4.7,2.1,4.7,4.7c0,2.6-2.1,4.7-4.7,4.7C156.5,429.9,154.4,427.8,154.4,425.3z M195,440.9  c-11.1,0-21.3-4.2-29-11c0.9-1.3,1.4-2.9,1.4-4.6c0-4.6-3.7-8.3-8.3-8.3c-1,0-1.9,0.2-2.8,0.5c-3.2-6.1-5.1-13-5.1-20.4  c0-24.2,19.7-43.8,43.8-43.8s43.8,19.7,43.8,43.8S219.2,440.9,195,440.9z"></path><path d="M195,378.8c-1.1,0-2.2,0.1-3.3,0.3c-1.5-2-3.9-3.3-6.6-3.3c-4.6,0-8.3,3.7-8.3,8.3c0,1.9,0.7,3.7,1.8,5.1  c-1.1,2.4-1.8,5-1.8,7.8c0,10.1,8.2,18.3,18.3,18.3c10.1,0,18.3-8.2,18.3-18.3S205.1,378.8,195,378.8z M185.1,379.4  c2.6,0,4.7,2.1,4.7,4.7c0,2.6-2.1,4.7-4.7,4.7c-2.6,0-4.7-2.1-4.7-4.7C180.4,381.5,182.5,379.4,185.1,379.4z M195,411.6  c-8.1,0-14.6-6.6-14.6-14.6c0-1.9,0.4-3.8,1.1-5.5c1.1,0.5,2.3,0.8,3.6,0.8c4.6,0,8.3-3.7,8.3-8.3c0-0.5-0.1-1-0.2-1.5  c0.6-0.1,1.2-0.1,1.8-0.1c8.1,0,14.6,6.6,14.6,14.6S203.1,411.6,195,411.6z"></path><path d="M234.3,397c0-4.3-3.2-7.8-7.4-8.3c-3.7-14.1-16.5-24.6-31.8-24.6c-18.1,0-32.9,14.7-32.9,32.9c0,18.1,14.7,32.9,32.9,32.9  c15.3,0,28.2-10.5,31.8-24.6C231,404.8,234.3,401.3,234.3,397z M195,426.3c-16.1,0-29.2-13.1-29.2-29.2c0-16.1,13.1-29.2,29.2-29.2  c13.4,0,24.7,9.1,28.2,21.4c-3.2,1.1-5.5,4.2-5.5,7.8s2.3,6.7,5.5,7.8C219.8,417.2,208.4,426.3,195,426.3z M226,401.7  c-2.6,0-4.7-2.1-4.7-4.7s2.1-4.7,4.7-4.7c2.6,0,4.7,2.1,4.7,4.7S228.5,401.7,226,401.7z"></path></svg>