<svg xmlns="http://www.w3.org/2000/svg" xmlns:xlink="http://www.w3.org/1999/xlink" version="1.1" x="0px" y="0px" viewBox="0 0 100 100" enable-background="new 0 0 100 100" xml:space="preserve"><g><rect x="45.834" y="19.864"  width="8.104" height="28.437"></rect><g><path  d="M86.641,33.063h-0.803l-0.846-5.406h-5.894l-0.847,5.406h-0.803v6.445    c-1.066-1.265-2.223-2.453-3.449-3.563L58.315,2.414l-3.65-0.676V5.93L53.72,6.878v10.144l2.905,2.909v7.32    c0,0-0.003,0-0.007-0.002v24.14h-13.86v-24.14c-0.003,0.002-0.007,0.002-0.01,0.003l0.018-0.01v-7.329l2.909-2.909V6.859    l-0.949-0.945V1.72l-3.65,0.677L25.397,35.922c-5.042,4.543-8.807,10.476-10.68,17.201l4.585,2.923l-5.78,3.685    c-0.09,1.04-0.139,2.092-0.139,3.155c0,0.372,0.018,0.74,0.031,1.111l5.888,3.754l-5.008,3.193    c1.314,5.799,4.034,11.055,7.755,15.432L42.665,65.76c-0.601-1.124-0.974-2.387-0.974-3.748c0-4.418,3.581-7.995,7.997-7.995    c4.415,0,7.996,3.577,7.996,7.995c0,1.318-0.35,2.544-0.916,3.642L77.4,86.286c3.675-4.354,6.366-9.564,7.676-15.311l-5.057-3.225    l5.946-3.789c0.01-0.359,0.027-0.717,0.027-1.076c0-1.051-0.049-2.09-0.138-3.118l-5.836-3.722l4.631-2.953    c-0.715-2.552-1.702-4.99-2.928-7.283l4.918-3.555V33.063z M25.19,65.17c-1.797,0-3.252-1.455-3.252-3.251    s1.455-3.251,3.252-3.251c1.793,0,3.248,1.455,3.248,3.251S26.983,65.17,25.19,65.17z M34.35,65.17    c-1.797,0-3.252-1.455-3.252-3.251s1.455-3.251,3.252-3.251c1.793,0,3.248,1.455,3.248,3.251S36.144,65.17,34.35,65.17z     M65.674,65.17c-1.793,0-3.247-1.455-3.247-3.251s1.454-3.251,3.247-3.251c1.798,0,3.253,1.455,3.253,3.251    S67.472,65.17,65.674,65.17z M74.834,65.17c-1.794,0-3.247-1.455-3.247-3.251s1.453-3.251,3.247-3.251    c1.799,0,3.253,1.455,3.253,3.251S76.633,65.17,74.834,65.17z"></path><path  d="M55.763,67.156c-1.467,1.729-3.629,2.852-6.074,2.852c-2.404,0-4.535-1.083-6.002-2.762L23.234,87.697    c6.62,7.062,16.011,11.491,26.454,11.491c10.484,0,19.91-4.464,26.533-11.573L55.763,67.156z M39.468,88.746    c-1.589,0-2.878-1.288-2.878-2.878c0-1.589,1.289-2.879,2.878-2.879c1.59,0,2.878,1.29,2.878,2.879    C42.346,87.458,41.058,88.746,39.468,88.746z M42.89,78.163c-1.589,0-2.878-1.288-2.878-2.878c0-1.589,1.289-2.88,2.878-2.88    s2.881,1.291,2.881,2.88C45.771,76.875,44.479,78.163,42.89,78.163z M49.688,90.985c-1.59,0-2.878-1.288-2.878-2.878    c0-1.589,1.288-2.879,2.878-2.879s2.878,1.29,2.878,2.879C52.566,89.697,51.278,90.985,49.688,90.985z M49.688,81.216    c-1.59,0-2.878-1.287-2.878-2.878c0-1.59,1.288-2.879,2.878-2.879s2.878,1.289,2.878,2.879    C52.566,79.929,51.278,81.216,49.688,81.216z M53.605,75.285c0-1.589,1.292-2.88,2.881-2.88c1.59,0,2.878,1.291,2.878,2.88    c0,1.59-1.288,2.878-2.878,2.878C54.897,78.163,53.605,76.875,53.605,75.285z M59.908,88.746c-1.59,0-2.881-1.288-2.881-2.878    c0-1.589,1.291-2.879,2.881-2.879s2.878,1.29,2.878,2.879C62.786,87.458,61.498,88.746,59.908,88.746z"></path><path  d="M53.687,62.012c0-2.211-1.79-3.997-3.998-3.997c-2.208,0-3.999,1.786-3.999,3.997    c0,2.208,1.79,3.998,3.999,3.998C51.896,66.01,53.687,64.22,53.687,62.012z"></path></g></g></svg>