<svg xmlns="http://www.w3.org/2000/svg" xmlns:xlink="http://www.w3.org/1999/xlink" xml:space="preserve" version="1.1"  viewBox="0 0 270 141" x="0px" y="0px" fill-rule="evenodd" clip-rule="evenodd"><defs></defs><g><path  d="M182 123c-12,11 -29,18 -47,18 -18,0 -35,-7 -47,-18 30,3 64,3 94,0z"></path><path  d="M135 0c39,0 70,33 70,70 0,4 0,8 -1,12l-1 1c-22,5 -46,7 -68,7 -22,0 -47,-2 -68,-7l-2 -1c0,-4 0,-8 0,-12 0,-14 3,-22 9,-33 12,-23 34,-37 61,-37z"></path><path  d="M0 73c0,-22 33,-32 71,-38 -2,3 -3,5 -4,8 -19,5 -32,9 -32,22 0,38 200,38 200,0 0,-13 -13,-17 -32,-22 -1,-3 -2,-5 -4,-8 38,6 71,16 71,38 1,65 -269,65 -270,0z"></path></g></svg>