<svg xmlns="http://www.w3.org/2000/svg" xmlns:xlink="http://www.w3.org/1999/xlink" viewBox="0 0 20 20" version="1.1" x="0px" y="0px"><title>ad-space</title><desc>Created with Sketch.</desc><g stroke="none" stroke-width="1"  fill-rule="evenodd"><g transform="translate(-40.000000, -980.000000)" ><g transform="translate(40.000000, 880.000000)"><path d="M16,120 L16,119 L19,119 L19,116 L20,116 L20,120 L16,120 L16,120 Z M19,101 L16,101 L16,100 L20,100 L20,104 L19,104 L19,101 L19,101 Z M1,104 L0,104 L0,100 L4,100 L4,101 L1,101 L1,104 L1,104 Z M3,103 L17,103 L17,117 L3,117 L3,103 L3,103 Z M4,116 L16,116 L16,104 L4,104 L4,116 L4,116 Z M1,119 L4,119 L4,120 L0,120 L0,116 L1,116 L1,119 L1,119 Z"></path></g></g></g></svg>