<svg xmlns="http://www.w3.org/2000/svg" xmlns:xlink="http://www.w3.org/1999/xlink" version="1.1" x="0px" y="0px" viewBox="0 0 100 100" enable-background="new 0 0 100 100" xml:space="preserve"><path fill-rule="evenodd" clip-rule="evenodd" d="M50.103,2.209c1.926,6.175,5.158,11.406,6.492,17.604  c1.162,5.398,1.801,10.803,1.695,16.283c-0.324,16.684-0.773,33.369-1.144,50.054c-0.041,1.857,0.134,3.564-2.627,3.546  c-2.677-0.021-1.19,1.87-1.053,3.017c0.187,1.529,2.006,3.277,0.566,4.483c-1.958,1.636-4.69,1.149-6.993,0.539  c-2.345-0.623-0.981-2.521-0.601-3.801c0.645-2.182,2.103-4.419-2.018-4.524c-1.25-0.031-1.276-1.393-1.273-2.434  c0.055-19.62-1.747-39.222-0.809-58.844c0.343-7.171,2.7-13.948,5.699-20.466C48.851,5.906,49.537,4.45,50.103,2.209z   M56.445,31.862c0.094-3.384-2.786-6.446-6.152-6.551c-3.22-0.098-6.165,2.634-6.344,5.889c-0.193,3.478,2.503,6.525,5.887,6.651  C53.348,37.982,56.354,35.259,56.445,31.862z"></path><path fill-rule="evenodd" clip-rule="evenodd" d="M41.271,78.121c0.092,1.393,0.235,2.789,0.268,4.185  c0.307,13.099,2.771,9.516-10.581,15.691c3.353-7.073,6.463-13.635,9.575-20.196C40.779,77.906,41.025,78.013,41.271,78.121z"></path><path fill-rule="evenodd" clip-rule="evenodd" d="M69.513,98.355c-3.617-1.742-6.524-3.206-9.487-4.546  c-1.62-0.732-1.711-2-1.633-3.475c0.225-4.065,0.405-8.135,1.38-12.497C62.904,84.434,66.035,91.03,69.513,98.355z"></path></svg>