<svg xmlns:dc="http://purl.org/dc/elements/1.1/" xmlns:cc="http://creativecommons.org/ns#" xmlns:rdf="http://www.w3.org/1999/02/22-rdf-syntax-ns#" xmlns:svg="http://www.w3.org/2000/svg" xmlns="http://www.w3.org/2000/svg" xmlns:sodipodi="http://sodipodi.sourceforge.net/DTD/sodipodi-0.dtd" xmlns:inkscape="http://www.inkscape.org/namespaces/inkscape" version="1.1" x="0px" y="0px" viewBox="0 0 100 100"><g transform="translate(0,-952.36218)"><path  d="m 51.482351,961.36256 c -2.90908,0 -5.3639,2.153 -5.83676,4.9416 -8.16195,0.1877 -15.71073,2.9316 -21.86471,7.4432 -1.05135,-0.9389 -2.42387,-1.5133 -3.92206,-1.5133 -3.2396,0 -5.92941,2.6901 -5.92941,5.9299 0,1.5002 0.57237,2.8705 1.51324,3.9224 -4.67682,6.3803 -7.44265,14.2537 -7.44265,22.76224 0,9.5354 3.45787,18.2587 9.20294,24.9859 -0.80877,1.0145 -1.29706,2.2971 -1.29706,3.6753 0,3.24 2.68981,5.93 5.92941,5.93 1.68749,0 3.20597,-0.7576 4.29265,-1.9149 5.92201,3.7037 12.91815,5.8373 20.41324,5.8373 21.27399,0 38.54117,-17.2379 38.54117,-38.5136 0,-8.80134 -2.96388,-16.91794 -7.93676,-23.41084 1.25934,-1.774 2.00735,-3.9152 2.00735,-6.2387 0,-5.9691 -4.90204,-10.8716 -10.87059,-10.8716 -3.49696,0 -6.62284,1.6678 -8.61617,4.2622 -0.75242,-0.273 -1.51197,-0.5147 -2.2853,-0.7413 0.0548,-4.1966 -2.79739,-6.5209 -5.89853,-6.4858 z m -5.83676,6.9182 c 0.48535,2.7742 2.93808,4.9416 5.83676,4.9416 2.35744,0 4.423,-1.4348 5.37353,-3.4591 0.58483,0.1719 1.1572,0.3561 1.72941,0.5559 -0.74144,1.4664 -1.17353,3.1357 -1.17353,4.8799 0,5.969 4.90205,10.8715 10.87059,10.8715 2.93773,0 5.60256,-1.2014 7.56618,-3.1194 4.55901,6.1044 7.25735,13.688 7.25735,21.89744 0,20.2075 -16.35887,36.5678 -36.5647,36.5678 -7.0912,0 -13.7002,-2.0408 -19.30147,-5.5285 0.33046,-0.7345 0.525,-1.5297 0.525,-2.3781 0,-3.2398 -2.68981,-5.9299 -5.92942,-5.9299 -1.15229,0 -2.23312,0.3422 -3.15,0.9266 -5.42062,-6.3764 -8.70882,-14.6225 -8.70882,-23.6579 0,-8.05074 2.61013,-15.48484 7.01029,-21.52684 0.85415,0.4811 1.83506,0.7721 2.87206,0.7721 3.23961,0 5.92942,-2.69 5.92942,-5.9299 0,-1.0363 -0.26078,-2.0185 -0.74118,-2.8722 5.80986,-4.2397 12.89588,-6.8254 20.59853,-7.011 z m 40.425,5.9299 c -3.23961,0 -5.92941,2.6901 -5.92941,5.9299 0,3.24 2.6898,5.93 5.92941,5.93 3.239598,0 5.929408,-2.69 5.929408,-5.93 0,-3.2398 -2.68981,-5.9299 -5.929408,-5.9299 z m -39.52941,4.9416 c -14.15536,0 -25.69412,11.5397 -25.69412,25.69634 0,14.1566 11.53876,25.6963 25.69412,25.6963 14.15535,0 25.69411,-11.5397 25.69411,-25.6963 0,-14.15664 -11.53876,-25.69634 -25.69411,-25.69634 z m 0,5.9299 c 4.4609,0 8.55863,1.4795 11.85882,3.9533 -1.73327,-2e-4 -3.54342,0 -5.25,0 -1.5525,0.081 -2.89167,1.5668 -2.81081,3.1194 0.0808,1.5526 1.56716,2.8917 3.11963,2.8105 l 10.19118,0 c 1.67519,2.9058 2.65588,6.27434 2.65588,9.88324 0,1.0063 -0.0725,2 -0.21617,2.965 -6.27779,0 -12.61608,0 -18.86912,0 -1.5525,0.081 -2.89167,1.5667 -2.81081,3.1194 0.0808,1.5525 1.56715,2.8916 3.11963,2.8105 l 1.01912,0 c -0.64335,1.8246 1.0012,4.0406 2.93382,3.9533 l 10.06765,0 c -3.61907,4.2254 -8.98271,6.9182 -15.00882,6.9182 -10.61902,0 -19.22181,-8.2897 -19.73383,-18.7781 l 13.80441,0 c 1.90336,0.03 3.47568,-2.1584 2.84118,-3.9532 l 1.11177,0 c 1.56629,0.022 3.00693,-1.3984 3.00693,-2.96504 0,-1.5666 -1.44064,-2.9871 -3.00693,-2.965 l -15.68824,0 c 3.24238,-6.4628 9.91446,-10.8715 17.66471,-10.8715 z m 38.54117,42.49774 c -3.2396,0 -5.92941,2.6901 -5.92941,5.9299 0,3.24 2.68981,5.93 5.92941,5.93 3.23961,0 5.929408,-2.69 5.929408,-5.93 0,-3.2398 -2.689798,-5.9299 -5.929408,-5.9299 z"  fill-opacity="1" stroke="none" marker="none" visibility="visible" display="inline" overflow="visible"></path></g></svg>