<svg xmlns="http://www.w3.org/2000/svg" xmlns:xlink="http://www.w3.org/1999/xlink" version="1.1" x="0px" y="0px" viewBox="0 0 64 64"  xml:space="preserve"><g><g><path d="M58,43.764C57.469,43.289,56.768,41,56,41s-1.469,2.289-2,2.764c-0.614,0.549-4,1.348-4,2.236    c0,0.768,3.289,1.469,3.764,2c0.549,0.614,1.348,7,2.236,7c0.768,0,1.469-6.289,2-6.764c0.614-0.549,2-1.348,2-2.236    C60,45.112,58.614,44.313,58,43.764z"></path><path d="M47.18,21.36l0.62,0.62l7.27-7.28c1.88-1.87,2.79-3.54,3.05-5.58c0.16-1.27-0.04-2.17-0.58-2.67    c-0.97-0.91-3.18-0.73-4.91-0.44c0.19,0.52,0.29,1.14,0.28,1.81c0,0.88-0.2,2.55-1.47,3.8c-1.31,1.29-2.3,1.72-3.05,1.72    c-0.57,0-0.99-0.24-1.3-0.55c-0.97-0.98-0.41-2.2,0-3.09c0.37-0.79,0.71-1.53,0.47-2.25c-0.06-0.19-0.2-0.39-0.41-0.6    c-2.07,0.34-4.03,1.29-5.68,2.76l-3.46,3.08c0.55,0.3,1.07,0.66,1.54,1.08c0.16,0.14,0.32,0.28,0.47,0.43l0.71,0.71    c0.07,0.07,0.13,0.15,0.17,0.24c0.05,0.09,0.08,0.18,0.1,0.28c0.07,0.31-0.03,0.65-0.27,0.89l-4.95,4.95l1.31,1.31    c0.05-0.11,0.12-0.21,0.2-0.29l7-7c0.39-0.39,1.03-0.39,1.42,0c0.39,0.39,0.39,1.03,0,1.42l-7,7c-0.09,0.08-0.19,0.15-0.29,0.2    l1.04,1.05h0.01c0.14-0.34,0.36-0.67,0.64-0.95l2.65-2.65C43.98,20.15,45.96,20.15,47.18,21.36z"></path><path d="M44.67,22.93c0.07-0.05,0.14-0.1,0.2-0.14c0.09-0.07,0.2-0.13,0.3-0.18c0.02-0.01,0.03-0.02,0.05-0.03    c0.06-0.03,0.11-0.06,0.17-0.08c-0.01,0-0.03,0-0.04,0.01c-0.12-0.04-0.25-0.06-0.38-0.06c-0.29,0-0.57,0.11-0.79,0.33l-2.65,2.65    c-0.3,0.3-0.4,0.72-0.29,1.1c0,0.01,0,0.01,0,0.02c0.02-0.04,0.04-0.08,0.06-0.12l0.01-0.01c0.05-0.09,0.11-0.18,0.18-0.27    c0.09-0.13,0.19-0.25,0.3-0.36l2.65-2.65C44.52,23.06,44.59,22.99,44.67,22.93z"></path><path d="M47.19,24.38h-0.01c-0.43-0.25-0.97-0.18-1.32,0.18l-2.65,2.65c-0.11,0.11-0.19,0.23-0.25,0.37    c-0.07,0.17-0.1,0.37-0.07,0.56c0.01,0.11,0.04,0.22,0.09,0.32l0.01,0.01l4.05,4.06c1.77-2.36,1.87-5.68,0.15-8.14V24.38z"></path><path d="M38.6,15.62c-0.78-0.78-1.69-1.34-2.73-1.69c-2.21-0.74-4.59-0.34-6.41,1.03l4.9,4.9L38.6,15.62z"></path><path d="M50.91,7.78c0-0.64-0.13-1.18-0.29-1.36c0-0.01-0.01-0.01-0.01-0.01c-0.09,0.02-0.18,0.04-0.27,0.05    c-0.21,0.04-0.41,0.08-0.59,0.12l-0.18,0.03l-0.18,0.03v0.01c0.02,0.06,0.04,0.1,0.06,0.16c0.5,1.48-0.1,2.78-0.54,3.73    c-0.11,0.23-0.26,0.56-0.33,0.77c0.19-0.09,0.66-0.33,1.46-1.12C50.7,9.55,50.91,8.58,50.91,7.78z"></path><path d="M38.34,26.66l-4.42-4.42c-0.02-0.02-0.03-0.03-0.05-0.04c-0.53-0.49-1.37-0.47-1.89,0.04l-1.86,1.86l6.37,6.36l1.85-1.85    c0.52-0.52,0.54-1.35,0.05-1.89C38.38,26.7,38.36,26.68,38.34,26.66z"></path><path d="M32,32h-5l2-4c0,0-7.29,4.32-10,5c-0.78,0.2-1.5,0.34-2.19,0.47C16.93,33,17,32.51,17,32c0-3.31-2.69-6-6-6s-6,2.69-6,6    c0,1.65,0.66,3.14,1.74,4.22C5.15,36.75,4,38.23,4,40c0,2.01,1.49,3.66,3.43,3.94C5.34,45.59,4,48.14,4,51c0,4.97,4.03,9,9,9    c1.12,0,2.2-0.22,3.19-0.59C17.05,59.79,18,60,19,60c3.5,0,6.39-2.57,6.91-5.92C26.58,53.23,27,52.17,27,51    c0-0.35-0.04-0.68-0.1-1.01c0.03,0,0.06,0.01,0.1,0.01c1.66,0,3-1.34,3-3c0-1.66-1.34-3-3-3c-1.47,0-2.69,1.06-2.94,2.45    C23.43,46.17,22.73,46,22,46c-0.18,0-0.35,0.03-0.52,0.05C22.33,43.9,23.47,41.79,25,40C26.31,38.47,32,32,32,32z M13.68,36.05    l3-1c0.53-0.17,1.09,0.11,1.27,0.63c0.17,0.53-0.11,1.09-0.63,1.27l-3,1C14.21,37.98,14.1,38,14,38c-0.42,0-0.81-0.26-0.95-0.68    C12.88,36.79,13.16,36.23,13.68,36.05z M15.39,40.21l5-3.89c0.43-0.34,1.06-0.26,1.4,0.18c0.34,0.43,0.26,1.06-0.18,1.4l-5,3.89    C16.43,41.93,16.21,42,16,42c-0.3,0-0.59-0.13-0.79-0.39C14.87,41.18,14.95,40.55,15.39,40.21z M18,45c-0.26,0-0.51-0.1-0.71-0.29    c-0.39-0.39-0.39-1.03,0-1.42l3-3c0.39-0.39,1.03-0.39,1.42,0c0.39,0.39,0.39,1.03,0,1.42l-3,3C18.51,44.9,18.26,45,18,45z     M23,36.56c-0.3,0-0.59-0.14-0.79-0.39c-0.34-0.44-0.26-1.06,0.18-1.4l2-1.56c0.43-0.34,1.06-0.26,1.4,0.18    c0.34,0.43,0.26,1.06-0.18,1.4l-2,1.55C23.43,36.49,23.21,36.56,23,36.56z"></path><circle cx="11" cy="10" r="4"></circle><circle cx="20" cy="18" r="2"></circle></g></g></svg>