<svg xmlns="http://www.w3.org/2000/svg" xmlns:xlink="http://www.w3.org/1999/xlink" viewBox="0 0 66 58" version="1.1" x="0px" y="0px"><title>space, brackets, floor, ceiling, height</title><desc>Created with Sketch.</desc><g stroke="none" stroke-width="1"  fill-rule="evenodd"><g transform="translate(-57.000000, -781.000000)"  fill-rule="nonzero"><path d="M121,837 L121,826 C121,825.447715 121.447715,825 122,825 C122.552285,825 123,825.447715 123,826 L123,838 C123,838.552285 122.552285,839 122,839 L58,839 C57.4477153,839 57,838.552285 57,838 L57,826 C57,825.447715 57.4477153,825 58,825 C58.5522847,825 59,825.447715 59,826 L59,837 L121,837 Z M121,783 L59,783 L59,794 C59,794.552285 58.5522847,795 58,795 C57.4477153,795 57,794.552285 57,794 L57,782 C57,781.447715 57.4477153,781 58,781 L122,781 C122.552285,781 123,781.447715 123,782 L123,794 C123,794.552285 122.552285,795 122,795 C121.447715,795 121,794.552285 121,794 L121,783 Z"></path></g></g></svg>