<svg xmlns="http://www.w3.org/2000/svg" xmlns:xlink="http://www.w3.org/1999/xlink" version="1.1" x="0px" y="0px" viewBox="0 0 280 280" enable-background="new 0 0 280 280" xml:space="preserve"><g><path d="M120.1238,157.4813c1.1652-11.8499,8.1153-20.2329,17.615-26.9617c6.3137-4.4722,14.5326-9.8921,22.4355-10.8022   c7.9867-0.9194,6.0767,6.8525,2.8256,11.3328c-3.0038,4.1396-6.9478,7.658-10.7519,11.0449   c-4.6665,4.155-9.6162,7.8135-15.5583,9.8894c-3.0717,1.0732-10.4811,4.6772-13.1714,1.5347   c-0.4293-0.5015-1.0948,0.02-1.0261,0.5601c0.9325,7.3247,15.2817,0.8638,18.819-0.7285   c8.6678-3.9011,22.4012-16.9063,26.0063-23.5068c3.7191-6.8091,1.019-14.0532-7.4066-12.9897   c-8.3502,1.0537-16.8214,6.5161-23.4881,11.27c-9.3227,6.6479-19.1935,16.9226-17.9262,29.3369   C118.5899,158.3734,120.0317,158.4178,120.1238,157.4813z"></path><path d="M124.2589,111.296c-3.755,1.7451-6.7719,5.6035-9.656,8.3218c-5.2061,4.9067-9.9329,9.4512-13.5536,15.7454   c-5.1668,8.9822-11.1932,25.3811-1.7977,33.8835c10.9725,9.9294,31.3768,2.125,42.7165-2.8276   c15.4616-6.7529,26.7435-18.4141,38.8524-29.7871c7.7442-7.2739,21.6951-19.8979,28.98-32.3057   c-4.72,13.647-9.8645,26.5779-19.32,38.1167c-44.2609,54.0127-131.1138,74.887-112.531,20.1755   c4.429-13.0398,21.9625-34.6518,31.5276-43.2663c5.3671-4.8335,12.0985-7.9004,17.3104-12.8018   c0.3245-0.3049-0.1467-0.7473-0.4892-0.55c-4.5292,2.6099-9.2701,4.5554-13.5164,7.6682   c-11.0533,8.1018-25.1913,25.2961-32.0073,37.3469c-7.5539,13.3555-14.1245,35.2878,3.5506,43.687   c14.7436,7.0061,33.527-0.134,47.5227-5.8037c31.6852-12.8357,57.2042-36.3118,69.1624-57.0554   c15.6964-7.3655,29.0635-17.5684,38.5483-32.4551c8.5944-13.4893,20.8947-33.8716,5.9556-47.3057   c-7.4252-6.6772-16.4951-7.3401-26.0096-7.0222c-9.6811,0.3232-19.2618,2.2522-28.3318,5.6538   C166.0191,60.1486,141.7202,80.245,124.2589,111.296z M228.2713,47.931c8.1506,0.7771,16.5992,5.3267,20.059,13.1121   c4.1122,9.2534-1.0501,19.344-5.2368,27.6033c-8.5479,16.8628-21.2183,30.1543-37.2208,39.6941   c2.3097-2.1226,4.341-4.6055,6.5024-6.9709c13.0825-14.3184,25.5624-42.4968,7.3417-50.1282   c-9.4352-3.9517-21.384-0.875-30.8199,1.5835c-14.6753,3.8235-28.8858,11.0593-39.4935,22.0581   c-5.9219,6.1401-12.2518,11.7847-17.3657,18.6377c-8.4407,11.3123-7.6475,7.3784-16.9661,25.9766   c-0.0692,0.1382,0.1569,0.2595,0.2387,0.1289c7.9628-12.7161,16.9054-26.0908,28.1764-36.0842   c4.9535-4.3921,8.8798-9.6833,14.1809-13.748c5.8927-4.5183,12.5514-8.1174,19.4532-10.8369   c9.5675-3.7695,20.5556-6.6455,30.9049-6.8948c4.5762-0.1101,9.7236,0.4478,13.5513,3.1897   c15.4727,11.0837-5.0422,41.5447-19.2057,54.1599c4.8521-9.0955,9.9249-21.5281,10.8172-32.2563   c0.2825-0.8013,0.5435-1.6089,0.7614-2.429c0.1039-0.3911-0.4918-0.6606-0.721-0.3306   c-4.9025,7.0593-9.0046,14.4221-14.5878,21.0217c-5.2548,6.2117-11.0847,11.9434-17.0139,17.5056   c-13.4715,12.6377-26.7828,26.2385-44.3381,32.988c-9.3803,3.6064-20.1611,7.5544-30.2794,5.0405   c-17.359-4.3127-11.1478-29.1904,3.4738-44.5713c2.4315-2.5576,5.0805-4.8293,7.4649-7.4441   c1.5943-1.7485,3.2712-3.8926,5.1946-5.551c-2.11,4.0098-3.8592,8.1006-5.4804,12.3652c-1.6271,4.28-3.9515,8.4131-3.8128,13.1147   c0.0253,0.8569,1.3062,0.8442,1.3284-0.0095c0.1106-4.2341,2.3456-8.0662,3.9059-11.9036   C137.055,82.7526,181.2689,43.4486,228.2713,47.931z"></path><path d="M159.3909,63.6095c0.1949,0.0112,0.1913-0.2822-0.0106-0.271c-0.1125,0.0063-0.2251,0.0127-0.3377,0.019   c-0.1317,0.0076-0.1252,0.2249,0.0059,0.2324C159.1626,63.5963,159.2768,63.6029,159.3909,63.6095z"></path><path d="M260.2395,55.9489c-0.7188-0.0647-1.1223,0.7437-0.9892,1.3379c7.3804,32.9604-16.8129,57.0593-37.2663,79.1819   c-25.2602,27.3215-45.1915,41.0398-73.7598,57.8401c-14.8068,8.707-51.6682,23.9883-68.8142,23.5571   c-46.0126-1.156-28.9123-51.8311,2.1906-85.6875c22.7518-24.7656,50.2239-45.438,76.5111-66.239   c0.6158-0.228,0.254-0.9534-0.2252-0.793c-9.9302,3.3213-19.2696,8.21-28.7336,12.6431   c-9.5113,4.4553-18.6917,9.3784-27.6514,14.8562c-25.1135,15.3538-18.5975,10.7798-47.2889,36.3069   c-13.455,11.9709-26.144,25.3113-33.5459,41.9707c-6.3005,14.1809-13.4262,32.2844-4.063,46.7297   c8.2526,12.7319,23.9368,16.7893,38.2607,17.2876c19.6326,0.6826,39.1738-4.3196,57.5624-10.7576   c35.8572-12.554,52.8541-23.7585,78.7706-41.7869c8.5427-5.9424,17.475-11.3696,25.7343-17.7112   c28.299-21.7288,54.4458-54.5012,50.6022-92.051c0.0816-0.0483,0.1386-0.1321,0.1237-0.26   C267.1497,68.0265,266.1494,56.4806,260.2395,55.9489z M222.1915,157.0985c-13.9422,12.0432-30.046,21.9441-45.3012,32.2371   c-41.123,27.7458-117.5543,59.2212-150.765,35.3765c-17.8123-12.7891-11.5247-33.5938-4.4745-50.5049   c9.7176-23.3093,29.4526-40.3853,53.4657-61.1033c8.0385-6.9355,16.875-12.27,25.8953-17.7939   c18.2556-11.1799,47.2777-25.3975,53.6511-28.0198c-13.6143,8.938-26.5186,19.0195-38.9598,29.5005   c-25.8572,21.7832-49.1234,42.0337-62.4062,72.6894c-13.6547,31.5132,0.3005,56.533,36.4782,49.8931   c16.0963-2.9541,31.9067-9.4841,46.8526-15.9922c7.9117-3.4453,15.1561-7.9272,22.4553-12.4824   c7.3563-4.5906,14.952-8.8103,22.0528-13.801c13.6253-9.5769,26.1139-20.8311,37.7142-32.7544   c25.0682-25.7661,49.8335-49.9558,42.9053-85.292c2.1307,2.5129,4.3458,9.0935,5.0591,12.1873   C268.5859,106.0685,247.4393,135.2897,222.1915,157.0985z"></path></g></svg>