<svg xmlns="http://www.w3.org/2000/svg" viewBox="0 0 90 90"  x="0px" y="0px"><path d="M44.9821 73.3128C37.7302 73.3128 30.4835 70.5535 24.9647 65.0347C13.9271 53.9971 13.9271 36.0374 24.9647 24.9998C36.0023 13.9674 53.9671 13.9622 64.9995 24.9998C76.0371 36.0374 76.0371 53.9971 64.9995 65.0347C59.4807 70.5535 52.2288 73.3128 44.9821 73.3128ZM44.9821 19.3344C38.4004 19.3344 31.8228 21.8372 26.8119 26.8481C16.7953 36.8699 16.7953 53.1697 26.8119 63.1863C36.8337 73.2028 53.1345 73.2028 63.151 63.1863C73.1676 53.1645 73.1676 36.8647 63.151 26.8481C58.1401 21.8372 51.5586 19.3344 44.9821 19.3344ZM64.0727 64.1131H64.0829H64.0727Z" ></path><path d="M26.0122 55.7461C24.7137 55.7461 23.3414 55.2434 22.3779 54.4371C20.7338 53.06 20.4873 51.086 21.7388 49.2743C22.8278 47.6982 24.4567 46.3264 26.0276 44.9965C27.4203 43.8236 29.3205 42.2108 29.3205 41.4307C29.3205 40.5981 29.4676 33.2467 34.5361 30.6392C36.4787 29.6391 36.4315 23.3454 35.7927 19.4027C35.6775 18.6905 36.1595 18.0203 36.8716 17.8999C37.5995 17.7847 38.2533 18.2664 38.3737 18.9785C38.6931 20.9211 40.0602 30.7334 35.7352 32.9588C32.7297 34.5034 31.9386 39.1739 31.9386 41.4254C31.9386 43.4204 29.9809 45.075 27.7137 46.9861C26.2738 48.2061 24.7816 49.4628 23.8915 50.7561C23.415 51.4473 23.4621 51.929 24.0538 52.4264C24.9387 53.1647 26.4041 53.2799 26.7549 52.929C28.5404 51.1435 30.6977 51.2431 32.2633 51.3111C32.5617 51.3269 32.8498 51.3373 33.1325 51.3373C33.1849 51.3006 33.3633 51.0441 33.4994 50.8609C34.1434 49.9603 35.2219 48.4522 38.196 48.4522C42.4529 48.4522 46.9513 46.7977 46.9513 45.2373C46.9513 44.7922 46.9504 44.6875 45.2434 44.6037C44.0601 44.5461 42.5839 44.4676 41.5734 43.457C40.0182 41.9019 40.9453 40.2002 41.5631 39.0745C42.0396 38.2053 42.527 37.3047 42.527 36.1737C42.527 34.7757 41.9868 33.4771 41.4161 32.1C40.8297 30.6863 40.2222 29.2202 40.2222 27.6075C40.2222 26.3613 40.8765 25.8116 41.264 25.5969C42.7196 24.7801 44.7463 26.0315 46.7046 27.2358C47.1811 27.529 47.8311 27.9269 48.0353 28.0002C48.5589 28.1416 49.0247 28.4662 49.5169 28.8118C50.5851 29.5553 51.5898 30.2569 53.3596 29.5763C55.1817 28.8746 56.7739 24.4083 57.3237 21.4604C57.4546 20.7483 58.1354 20.277 58.8475 20.4132C59.5543 20.5441 60.0253 21.2248 59.8944 21.9369C59.7321 22.8113 58.2026 30.5188 54.3017 32.0163C51.2334 33.1996 49.2178 31.7911 48.0187 30.9533C47.7831 30.7858 47.4592 30.5606 47.3335 30.5188C46.8518 30.3878 46.291 30.0528 45.338 29.4611C44.7726 29.1155 43.626 28.4086 42.8773 28.0997C42.9977 29.0841 43.4066 30.0685 43.836 31.1C44.4486 32.5818 45.145 34.2625 45.145 36.1737C45.145 37.9749 44.4009 39.331 43.8616 40.3259C43.6469 40.7186 43.3217 41.3102 43.3375 41.4987C43.3375 41.4987 43.3589 41.5354 43.4269 41.6035C43.7306 41.9019 44.6104 41.9491 45.3853 41.9909C46.8462 42.0642 49.5744 42.2056 49.5744 45.2373C49.5744 49.6408 41.9135 51.065 38.2011 51.065C36.5727 51.065 36.1591 51.6462 35.6355 52.3793C35.1904 53.0024 34.5159 53.9501 33.144 53.9501C32.8246 53.9501 32.4935 53.9344 32.1584 53.9187C30.7761 53.8559 29.5875 53.8088 28.6136 54.7774C27.9277 55.4529 26.9914 55.7461 26.0122 55.7461Z" ></path><path d="M45.238 73.3235C44.7301 73.3235 44.2484 73.0251 44.0338 72.5277C43.751 71.8627 44.0604 71.0982 44.7253 70.8154C47.846 69.4907 48.081 68.1818 48.081 66.3439C48.081 64.5008 49.8041 63.8305 51.0608 63.3436C52.9091 62.6262 53.721 62.155 53.721 60.7046C53.721 59.3223 53.0611 58.4008 52.3647 57.4164C51.2494 55.8508 49.8667 53.8978 52.1077 50.6776C53.799 48.2533 56.4644 47.1014 59.2395 47.5883C61.4073 47.9706 63.0934 49.2901 63.5437 50.9604C63.973 52.5626 67.1828 56.0393 69.1044 57.851C69.628 58.3484 69.6543 59.1757 69.1568 59.6993C68.6594 60.2229 67.832 60.2491 67.3084 59.7517C66.7429 59.2176 61.7744 54.4737 61.0151 51.6358C60.8633 51.0703 60.0516 50.3844 58.7845 50.1644C57.9467 50.0178 55.8197 49.9184 54.2489 52.1751C53.0551 53.8821 53.4799 54.4738 54.4956 55.9032C55.3125 57.0551 56.3339 58.4898 56.3339 60.7046C56.3339 64.0976 53.6259 65.1501 52.008 65.7784C51.5263 65.9669 50.8046 66.2496 50.6632 66.4276C50.6946 69.208 49.8517 71.4752 45.7519 73.2188C45.5843 73.2868 45.4108 73.3235 45.238 73.3235Z" ></path><path d="M71.7381 49.9235C71.4606 49.9235 71.1837 49.8344 70.9481 49.6564C70.5921 49.3841 67.4707 46.9389 66.722 44.1376C66.4602 43.169 66.4609 43.1689 65.3823 43.0276C64.932 42.97 64.366 42.8967 63.7115 42.7187C62.1773 42.3102 60.5901 41.8809 59.8675 40.4934C59.3963 39.5875 59.4073 38.4879 59.8995 37.1318C61.1614 33.655 68.1669 33.8645 70.277 34.0164C70.9943 34.0635 71.5399 34.6918 71.4876 35.4092C71.4405 36.1317 70.7958 36.6605 70.0942 36.6239C66.7588 36.3935 62.7479 36.9486 62.3552 38.0272C62.041 38.8964 62.1458 39.2105 62.1877 39.2838C62.3814 39.6556 63.4963 39.954 64.3864 40.1896C64.8734 40.3205 65.3034 40.3782 65.7223 40.4305C67.3141 40.64 68.5856 40.996 69.2454 43.4517C69.6904 45.1063 71.7701 46.986 72.5345 47.5673C73.1105 48.0071 73.2198 48.8239 72.78 49.3999C72.5234 49.7507 72.1308 49.9235 71.7381 49.9235Z" ></path><path d="M44.9824 85C34.3009 85 24.2625 80.8426 16.7121 73.2922C9.1617 65.7418 5 55.6991 5 45.0228C5 34.3465 9.15646 24.3037 16.7121 16.7534C29.1058 4.35963 47.8716 1.45887 63.407 9.52762C64.0458 9.85749 64.2982 10.6481 63.9631 11.2922C63.628 11.931 62.8416 12.1823 62.2028 11.8472C47.678 4.30205 30.1427 7.01957 18.5605 18.6017C11.5024 25.6599 7.61802 35.0429 7.61802 45.0228C7.61802 55.0027 11.5024 64.3857 18.5605 71.4439C25.6187 78.5021 35.0025 82.3872 44.9824 82.3872C54.9623 82.3872 64.3448 78.5021 71.403 71.4439C83.0218 59.8251 85.6712 41.6298 77.8381 27.1993C77.4925 26.5657 77.7287 25.7698 78.3622 25.4242C79.001 25.0787 79.7857 25.3143 80.1365 25.9479C88.5195 41.389 85.6869 60.8513 73.2566 73.287C65.7009 80.8373 55.6587 85 44.9824 85Z" ></path><path d="M72.3304 25.4036C70.3512 25.4036 68.3671 24.6496 66.8592 23.1416C63.8432 20.1257 63.8432 15.2143 66.8592 12.1983C69.8751 9.18235 74.7857 9.18235 77.8017 12.1983C79.2625 13.6592 80.0694 15.6017 80.0694 17.67C80.0694 19.7382 79.2625 21.6808 77.8017 23.1416C76.2885 24.6496 74.3096 25.4036 72.3304 25.4036ZM72.3253 12.5491C71.0163 12.5491 69.7013 13.0465 68.7012 14.0466C66.7063 16.0416 66.7063 19.2932 68.7012 21.2933C70.7014 23.2883 73.9532 23.2883 75.9481 21.2933C76.9168 20.3247 77.4514 19.0366 77.4514 17.67C77.4514 16.3034 76.9168 15.0153 75.9481 14.0466C74.948 13.0518 73.6396 12.5491 72.3253 12.5491Z" ></path></svg>