<svg xmlns="http://www.w3.org/2000/svg" xmlns:xlink="http://www.w3.org/1999/xlink" version="1.1" x="0px" y="0px" viewBox="0 0 100 100"  xml:space="preserve"><path d="M70.01,26.32c0.78,0.68,1.5,1.35,2.15,2.05c5.41-1.23,8.64-0.8,9.9,1.33c1.23,2.13-0.03,5.16-3.83,9.27  c-4.99,5.41-14.03,12.15-24.2,17.99C43.68,62.93,33.6,67.29,26.34,68.92c-1.98,0.45-3.68,0.68-5.11,0.68c-2.43,0-4.06-0.65-4.84-2  c-1.2-2.08,0.1-5.19,3.76-9.2c-0.25-0.95-0.48-1.93-0.65-2.88C12,62.9,8.57,69.42,10.55,72.78c2.08,3.61,10.4,3.71,21.75,0.23  c7.74-2.38,16.26-6.19,24.61-11.02c8.37-4.81,15.94-10.27,21.85-15.81c8.72-8.07,12.8-15.31,10.7-18.94  C87.53,23.87,80.16,23.57,70.01,26.32z"></path><path d="M35.51,74.56c4.38,2.58,9.35,3.96,14.48,3.96c15.74,0,28.51-12.78,28.51-28.51v-0.23c-5.74,5.04-12.7,9.97-20.35,14.36  C50.52,68.57,42.77,72.1,35.51,74.56z"></path><path d="M22.73,58.37c0.88,2.81,2.18,5.44,3.88,7.89c6.89-1.7,16.56-5.91,26.16-11.45c9.6-5.54,18.09-11.8,23.03-16.94  c-1.3-2.71-2.93-5.16-4.94-7.29c-1.2-1.3-2.63-2.58-4.26-3.78c-4.86-3.46-10.6-5.31-16.61-5.31c-15.71,0-28.51,12.8-28.51,28.51  c0,0.93,0.05,1.88,0.15,2.78C21.8,54.66,22.15,56.54,22.73,58.37z"></path></svg>