<svg xmlns="http://www.w3.org/2000/svg" xmlns:xlink="http://www.w3.org/1999/xlink" version="1.1" x="0px" y="0px" viewBox="0 0 100 100"  xml:space="preserve"><path d="M14.184,53.591c-2.412,2.144-3.395,4.112-2.918,5.879c0.771,2.855,5.261,4.08,11.642,4.127  c5.047,9.917,15.348,16.73,27.217,16.73c14.756,0,27.099-10.525,29.919-24.462c6.103-1.708,10.081-4.056,10.081-7  c0-1.781-1.384-3.387-4.123-4.8c1.857-1.773,2.982-3.656,2.494-5.462c-0.743-2.751-4.779-4.146-11.998-4.146  c-5.298-9.07-15.132-15.182-26.373-15.182c-14.034,0-25.878,9.522-29.432,22.442c-7.01,1.886-10.568,4.291-10.568,7.149  C10.125,50.668,11.626,52.245,14.184,53.591z M13.196,58.948c-0.242-0.896,0.527-2.424,2.998-4.432  c1.199,0.486,2.54,0.937,4.011,1.349c0.405,2.001,1.005,3.931,1.781,5.77C16.818,61.517,13.632,60.562,13.196,58.948z   M19.861,53.738c-0.642-0.19-1.251-0.385-1.819-0.584c0.507-0.346,1.051-0.7,1.651-1.067C19.734,52.641,19.79,53.192,19.861,53.738z   M22.383,56.424c6.023,1.432,13.652,2.321,21.471,2.632c-7.749,1.667-14.492,2.481-19.673,2.581  C23.421,59.978,22.815,58.235,22.383,56.424z M50.125,78.327c-10.74,0-20.109-5.968-24.974-14.759  c7.646-0.243,17.427-1.919,26.752-4.395c9.334-0.106,18.789-1.043,25.964-2.749C74.872,68.969,63.574,78.327,50.125,78.327z   M80.081,43.941c0.758,0.222,1.452,0.448,2.09,0.675c-0.537,0.378-1.139,0.773-1.791,1.178C80.298,45.17,80.2,44.552,80.081,43.941z   M78.651,49.801c0,1.534-0.125,3.039-0.36,4.508c-4.797,1.204-11.149,2.15-18.616,2.595c7.29-2.329,13.857-5.018,18.959-7.787  C78.639,49.345,78.651,49.572,78.651,49.801z M88.125,48.865c0,1.666-2.808,3.412-7.736,4.872c0.167-1.29,0.262-2.602,0.262-3.937  c0-0.603-0.022-1.201-0.057-1.796c1.302-0.775,2.59-1.622,3.742-2.514C87.047,46.743,88.125,47.967,88.125,48.865z M86.565,39.124  c0.232,0.857-0.444,2.246-2.536,4.049c-1.289-0.515-2.78-1.001-4.473-1.456c-0.501-1.822-1.162-3.578-1.976-5.247  C83.715,36.611,86.235,37.902,86.565,39.124z M50.125,21.274c14.75,0,26.921,11.253,28.38,25.625  c-0.251,0.142-0.495,0.282-0.76,0.426c-6.585,3.584-15.71,7.043-25.693,9.74c-0.139,0.038-0.275,0.072-0.413,0.109  c-0.502,0.004-1.004,0.009-1.513,0.009c-11.637,0-21.433-1.185-28.167-2.874c-0.234-1.469-0.36-2.974-0.36-4.508  C21.599,34.071,34.396,21.274,50.125,21.274z M20.169,43.94c-0.371,1.898-0.57,3.856-0.57,5.86c0,0.005,0,0.01,0,0.015  c-1.443,0.84-2.701,1.658-3.775,2.454c-2.39-1.095-3.699-2.268-3.699-3.404C12.125,47.593,14.267,45.67,20.169,43.94z"></path><path d="M10.661,21.293l1.325,0.725c1.154,0.631,2.097,1.575,2.729,2.729l0.725,1.324c0.176,0.32,0.512,0.52,0.877,0.52  s0.702-0.199,0.877-0.52l0.725-1.325c0.631-1.153,1.575-2.097,2.729-2.729l1.325-0.725c0.32-0.175,0.52-0.512,0.52-0.877  s-0.2-0.702-0.52-0.877l-1.325-0.725c-1.154-0.632-2.098-1.575-2.729-2.729l-0.725-1.325c-0.351-0.643-1.404-0.643-1.755,0  l-0.725,1.325c-0.631,1.153-1.575,2.098-2.729,2.729l-1.325,0.725c-0.321,0.175-0.52,0.512-0.52,0.877S10.34,21.118,10.661,21.293z   M16.316,17.313c0.759,1.279,1.823,2.344,3.103,3.103c-1.28,0.759-2.344,1.823-3.103,3.103c-0.759-1.28-1.823-2.344-3.103-3.103  C14.493,19.657,15.557,18.594,16.316,17.313z"></path><path d="M84.331,76.926c-1.154-0.632-2.098-1.575-2.729-2.73l-0.725-1.324c-0.352-0.641-1.403-0.641-1.755,0l-0.725,1.325  c-0.631,1.154-1.574,2.098-2.728,2.729l-1.325,0.724c-0.321,0.176-0.521,0.512-0.521,0.878c0,0.365,0.199,0.702,0.52,0.877  l1.325,0.725c1.154,0.632,2.098,1.575,2.729,2.73l0.725,1.324c0.176,0.32,0.512,0.52,0.877,0.52s0.702-0.199,0.877-0.52l0.725-1.325  c0.631-1.154,1.574-2.098,2.729-2.729l1.325-0.725c0.321-0.175,0.52-0.512,0.52-0.877c0-0.366-0.2-0.702-0.521-0.878L84.331,76.926z   M80,81.63c-0.758-1.28-1.822-2.344-3.102-3.104c1.28-0.759,2.343-1.822,3.102-3.103c0.758,1.28,1.822,2.344,3.102,3.103  C81.822,79.286,80.758,80.35,80,81.63z"></path><path d="M74.127,23.376l1.858,1.018c1.686,0.921,3.064,2.3,3.987,3.985l1.016,1.858c0.175,0.321,0.512,0.521,0.877,0.521  s0.702-0.199,0.877-0.521l1.016-1.858c0.922-1.686,2.301-3.064,3.987-3.986l1.858-1.017c0.321-0.175,0.52-0.512,0.52-0.877  s-0.199-0.702-0.52-0.877l-1.858-1.018c-1.686-0.921-3.064-2.3-3.987-3.985l-1.016-1.858c-0.351-0.643-1.404-0.643-1.755,0  l-1.016,1.858c-0.922,1.686-2.301,3.064-3.987,3.986l-1.858,1.017c-0.321,0.175-0.52,0.512-0.52,0.877S73.807,23.201,74.127,23.376z   M76.945,22.36c2.022-1.105,3.676-2.759,4.783-4.782l0.139-0.254l0.139,0.254c1.106,2.023,2.76,3.677,4.782,4.781l0.254,0.14  l-0.254,0.139c-2.022,1.105-3.676,2.759-4.783,4.782l-0.139,0.254l-0.139-0.254c-1.106-2.023-2.76-3.677-4.782-4.781l-0.254-0.14  L76.945,22.36z"></path><path d="M26.047,79.987c-1.687-0.923-3.065-2.301-3.986-3.988l-1.017-1.857c-0.353-0.642-1.404-0.642-1.755,0.001L18.273,76  c-0.922,1.687-2.301,3.065-3.987,3.987l-1.858,1.017c-0.321,0.175-0.52,0.512-0.52,0.877c0,0.366,0.2,0.702,0.521,0.878l1.858,1.015  c1.686,0.923,3.065,2.302,3.987,3.987l1.016,1.858c0.175,0.321,0.512,0.521,0.877,0.521s0.702-0.199,0.877-0.521l1.017-1.858  c0.921-1.686,2.3-3.063,3.986-3.986l1.858-1.016c0.321-0.176,0.521-0.512,0.521-0.878c0-0.365-0.199-0.702-0.52-0.877L26.047,79.987  z M25.087,82.02c-2.023,1.106-3.677,2.761-4.782,4.782l-0.139,0.254l-0.139-0.254c-1.106-2.022-2.759-3.676-4.782-4.783  l-0.253-0.138l0.253-0.14c2.022-1.105,3.676-2.759,4.782-4.782l0.139-0.254l0.139,0.254c1.105,2.022,2.759,3.677,4.782,4.782  l0.254,0.14L25.087,82.02z"></path><path d="M65.532,14.451h1.312v1.312c0,0.553,0.448,1,1,1s1-0.447,1-1v-1.312h1.312c0.552,0,1-0.447,1-1s-0.448-1-1-1h-1.312v-1.312  c0-0.553-0.448-1-1-1s-1,0.447-1,1v1.312h-1.312c-0.552,0-1,0.447-1,1S64.979,14.451,65.532,14.451z"></path><path d="M27.923,17.314h1.312v1.312c0,0.553,0.448,1,1,1s1-0.447,1-1v-1.312h1.312c0.552,0,1-0.447,1-1s-0.448-1-1-1h-1.312v-1.312  c0-0.553-0.448-1-1-1s-1,0.447-1,1v1.312h-1.312c-0.552,0-1,0.447-1,1S27.371,17.314,27.923,17.314z"></path><path d="M70.156,90.139c0.552,0,1-0.447,1-1v-1.312h1.312c0.552,0,1-0.447,1-1s-0.448-1-1-1h-1.312v-1.312c0-0.553-0.448-1-1-1  s-1,0.447-1,1v1.312h-1.312c-0.552,0-1,0.447-1,1s0.448,1,1,1h1.312v1.312C69.156,89.691,69.604,90.139,70.156,90.139z"></path></svg>