<svg xmlns:dc="http://purl.org/dc/elements/1.1/" xmlns:cc="http://creativecommons.org/ns#" xmlns:rdf="http://www.w3.org/1999/02/22-rdf-syntax-ns#" xmlns:svg="http://www.w3.org/2000/svg" xmlns="http://www.w3.org/2000/svg" xmlns:sodipodi="http://sodipodi.sourceforge.net/DTD/sodipodi-0.dtd" xmlns:inkscape="http://www.inkscape.org/namespaces/inkscape" version="1.1" x="0px" y="0px" viewBox="0 0 100 100"><g transform="translate(0,-952.36218)"><path d="m 52.469881,962.36237 c -1.84129,0 -3.366,1.2811 -3.79744,2.995 -0.38162,-0.011 -0.75802,-0.031 -1.14232,-0.031 -9.23357,0 -17.71855,3.251 -24.35919,8.6761 -0.65465,-0.4811 -1.44692,-0.7719 -2.31551,-0.7719 -2.17081,0 -3.95181,1.7811 -3.95181,3.9522 0,0.8686 0.29069,1.6609 0.77184,2.3158 -5.42466,6.6411 -8.67545,15.1268 -8.67545,24.36123 0,10.2516 4.02052,19.5596 10.55873,26.4607 -0.4831,0.78 -0.61328,1.7568 -0.67921,2.1922 0,2.171 1.78099,3.9521 3.95181,3.9521 1.01548,0 1.92177,-0.4127 2.62424,-1.0497 6.25414,4.3762 13.86721,6.9471 22.07455,6.9471 21.2679,0 38.53012,-17.2328 38.53012,-38.5024 0,-9.54283 -3.47681,-18.27483 -9.23117,-25.00973 0.83177,-1.3524 1.32756,-2.9322 1.32756,-4.6314 0,-4.8994 -3.99259,-8.8923 -8.89157,-8.8923 -2.66922,0 -5.06766,1.1852 -6.69955,3.0567 -1.96804,-0.8357 -4.0249,-1.5363 -6.14382,-2.0378 -0.18992,-2.6708 -2.13046,-3.8666 -3.95181,-3.9831 z m 0,1.9761 c 1.10296,0 1.9759,0.873 1.9759,1.976 0,1.1031 -0.87294,1.9761 -1.9759,1.9761 -1.10296,0 -1.9759,-0.873 -1.9759,-1.9761 0,-1.103 0.87294,-1.976 1.9759,-1.976 z m -4.93976,2.9332 c 0.38282,0 0.76235,0.019 1.14232,0.031 0.44168,1.6993 1.96658,2.9642 3.79744,2.9642 1.46251,0 2.74374,-0.8155 3.42696,-2.0069 1.91541,0.4485 3.77135,1.0231 5.55723,1.7599 -0.67734,1.254 -1.08058,2.678 -1.08058,4.1991 0,4.8993 3.99259,8.8924 8.89157,8.8924 2.48071,0 4.74477,-1.0084 6.35994,-2.6554 5.27718,6.3418 8.45934,14.5037 8.45934,23.40413 0,20.2016 -16.35418,36.5571 -36.55422,36.5571 -7.81352,0 -15.02605,-2.4697 -20.9631,-6.6383 0.13464,-0.3962 0.21611,-0.8261 0.21611,-1.2659 0,-2.171 -1.78099,-3.9521 -3.9518,-3.9521 -0.64847,0 -1.24885,0.1824 -1.79067,0.4632 -6.2235,-6.5522 -10.06476,-15.4028 -10.06476,-25.1642 0,-8.75864 3.08545,-16.79794 8.21235,-23.09533 0.50634,0.2374 1.07437,0.3705 1.66717,0.3705 2.17082,0 3.95181,-1.7812 3.95181,-3.9522 0,-0.5929 -0.13319,-1.161 -0.37048,-1.6673 6.29349,-5.1428 14.32675,-8.2439 23.09337,-8.2439 z m 21.73494,0.031 c 3.83112,0 6.91566,3.0849 6.91566,6.9163 0,3.8314 -3.08454,6.9163 -6.91566,6.9163 -3.83112,0 -6.91566,-3.0849 -6.91566,-6.9163 0,-3.8314 3.08454,-6.9163 6.91566,-6.9163 z m -48.40964,7.9041 c 1.10296,0 1.97591,0.873 1.97591,1.9761 0,1.103 -0.87295,1.9761 -1.97591,1.9761 -1.10296,0 -1.9759,-0.8731 -1.9759,-1.9761 0,-1.1031 0.87294,-1.9761 1.9759,-1.9761 z m 66.19277,0 c -2.17081,0 -3.9518,1.7811 -3.9518,3.9522 0,2.1711 1.78099,3.9522 3.9518,3.9522 2.17082,0 3.951808,-1.78111 3.951808,-3.9522 0,-2.1711 -1.780988,-3.9522 -3.951808,-3.9522 z m 0,1.9761 c 1.10296,0 1.97591,0.873 1.97591,1.9761 0,1.103 -0.87295,1.9761 -1.97591,1.9761 -1.10296,0 -1.9759,-0.8731 -1.9759,-1.9761 0,-1.1031 0.87294,-1.9761 1.9759,-1.9761 z m -39.51807,2.964 c -13.08344,0 -23.71084,10.6285 -23.71084,23.71303 0,13.0845 10.6274,23.6819 23.71084,23.6819 13.08344,0 23.71084,-10.5974 23.71084,-23.6819 0,-13.08453 -10.6274,-23.71303 -23.71084,-23.71303 z m 38.53012,48.41383 c -2.17082,0 -3.95181,1.7811 -3.95181,3.9521 0,2.171 1.78099,3.9521 3.95181,3.9521 2.17082,0 3.951808,-1.7811 3.951808,-3.9521 0,-2.171 -1.780988,-3.9521 -3.951808,-3.9521 z m -63.22891,1.9761 c 1.10295,0 1.9759,0.8729 1.9759,1.976 0,1.1031 -0.87295,1.976 -1.9759,1.976 -1.10296,0 -1.97591,-0.8729 -1.97591,-1.976 0,-1.1031 0.87295,-1.976 1.97591,-1.976 z m 63.22891,0 c 1.10296,0 1.9759,0.8729 1.9759,1.976 0,1.1031 -0.87294,1.976 -1.9759,1.976 -1.10296,0 -1.9759,-0.8729 -1.9759,-1.976 0,-1.1031 0.87294,-1.976 1.9759,-1.976 z"   fill-opacity="1" stroke="none" marker="none" visibility="visible" display="inline" overflow="visible"></path></g></svg>