<svg xmlns="http://www.w3.org/2000/svg" xmlns:xlink="http://www.w3.org/1999/xlink" version="1.1" x="0px" y="0px" viewBox="0 0 100 100" enable-background="new 0 0 100 100" xml:space="preserve"><path d="M94.6923828,37.371582c-0.1191406-0.7294922-0.2998047-1.1518555-0.5419922-1.2661133  c-0.4189453-0.4975586-1.1181641-0.8486328-2.0986328-1.0551758c-0.0986328-0.0361328-0.5556641-0.1142578-1.3720703-0.2333984  C83.9853516,34.4599609,80.5097656,34.2988281,80.25,34.3325195h-0.0849609l-16.0830078,0.5751953  c-1.1015625,0.0859375-1.9785156,0.1577148-2.6328125,0.2148438l-6.7988281-15.3574219  c-0.0673828-0.1166992-0.1298828-0.2236328-0.1962891-0.3383789c-0.7753906-2.0996094-1.5556641-4.2631836-2.3408203-6.5063477  c-0.0830078-0.2963867-0.3847656-0.8764648-0.9082031-1.7412109c-0.2167969-0.309082-0.4423828-0.5668945-0.6767578-0.7729492  c-0.4033203-0.4038086-0.9765625-0.6191406-1.71875-0.6450195l-0.5078125,0.1518555  c-2.3300781,1.9472656-5.4208984,7.1098633-9.2724609,15.4907227c-1.8388672,4.019043-3.3095703,7.5693359-4.4208984,10.6635742  l-0.6474609,0.1713867c-4.3339844,0.2236328-9.1845703,0.7973633-14.5605469,1.7275391  c-3.9208984,1.0771484-7.0292969,2.1342773-9.3242188,3.1713867l-1.5683594,0.7739258  c-0.9443359,0.5136719-1.6845703,1.0219727-2.2226563,1.5249023c-0.5371094,0.503418-0.8710938,1.0019531-1.0019531,1.4951172  c0.0146484,0.5039063,0.1914063,1.0424805,0.5302734,1.6157227c0.3388672,0.5727539,0.8378906,1.1796875,1.4990234,1.8222656  l1.1123047,0.9882813c1.0019531,0.9804688,3.9335938,2.8432617,8.7958984,5.590332  c3.1445313,1.7480469,7.0830078,3.5908203,11.8027344,5.5292969c-0.3076172,1.1162109-0.6289063,2.2949219-0.9658203,3.5380859  L26.046875,74.8388672l-1.4121094,10.5253906c0.0615234,2.8007813,0.2460938,4.3554688,0.5537109,4.6679688  c0.6542969,0.4414063,1.6650391,0.1757813,3.03125-0.796875c2.8886719-2.2285156,6.0253906-4.5527344,9.4091797-6.9726563  c4.2216797-2.3203125,9.0244141-5.0332031,14.4179688-8.1464844c0.0634766-0.0332031,0.125-0.0625,0.1875-0.0957031  c0.4833984,0.3925781,1.0126953,0.7695313,1.5917969,1.1308594c13.5595703,6.9589844,21.1767578,10.9765625,22.8525391,12.0527344  c3.7910156,1.7089844,6.1035156,1.9335938,6.9365234,0.6738281c0.3808594-0.4394531,0.0498047-2.125-0.9931641-5.0566406  c-0.578125-1.3535156-2.7216797-5.4042969-6.4316406-12.1503906c-2.1748047-4.6865234-3.8984375-8.4804688-5.1738281-11.3876953  c2.8857422-2.0576172,6.6298828-5.0878906,11.2382813-9.0991211c4.2148438-3.7148438,7.2490234-6.4306641,9.1044922-8.1494141  c0.2802734-0.2177734,0.8105469-0.7993164,1.5908203-1.7431641c0.2734375-0.3666992,0.4951172-0.7211914,0.6669922-1.0634766  c0.1416016-0.1386719,0.2734375-0.2749023,0.3867188-0.4091797C94.5683594,37.9882813,94.7978516,37.5058594,94.6923828,37.371582z"></path></svg>