<svg xmlns="http://www.w3.org/2000/svg" viewBox="0 0 64 64" x="0px" y="0px"><title>Space-science-chemistry-education-school</title><g><circle cx="56" cy="56" r="2"></circle><circle cx="57" cy="7" r="2"></circle><path d="M56,53a3,3,0,1,0,3,3A3,3,0,0,0,56,53Zm0,4a1,1,0,1,1,1-1A1,1,0,0,1,56,57Z"></path><path d="M5,7a1.052,1.052,0,0,0,.71-.29l.12-.15a.757.757,0,0,0,.09-.18.636.636,0,0,0,.06-.18A1.5,1.5,0,0,0,6,6a1.052,1.052,0,0,0-.29-.71,1.017,1.017,0,0,0-1.09-.21,1.155,1.155,0,0,0-.33.21,1.155,1.155,0,0,0-.21.33A1,1,0,0,0,4,6a1.033,1.033,0,0,0,.29.71A1.052,1.052,0,0,0,5,7Z"></path><path d="M32,25a6.954,6.954,0,0,0-6.065,3.494c.028.016.053.036.08.052s.053.034.08.051a4.1,4.1,0,0,1,.443.317l.109.094a3.757,3.757,0,0,1,.376.381c.023.026.047.049.069.076a3.98,3.98,0,0,1,.362.519c.018.031.031.064.048.095a4.1,4.1,0,0,1,.218.465c.024.062.045.124.066.187a4.278,4.278,0,0,1,.118.438c.013.063.029.125.039.188a3.65,3.65,0,0,1,0,1.285c-.01.065-.026.127-.039.191a4.251,4.251,0,0,1-.117.433c-.022.065-.043.129-.068.193a4.114,4.114,0,0,1-.206.441c-.022.04-.039.082-.062.121a4.184,4.184,0,0,1-.349.5c-.034.041-.071.077-.106.117a4.2,4.2,0,0,1-.324.33c-.051.046-.1.09-.157.133a4.237,4.237,0,0,1-.361.26c-.052.033-.1.069-.156.1-.022.013-.041.029-.063.041A7,7,0,1,0,32,25Z"></path><path d="M47.95,40.243h0A1.969,1.969,0,0,0,47,40a2.007,2.007,0,1,0,.95.243Z"></path><path d="M32,15a17,17,0,0,0,0,34,16.809,16.809,0,0,0,11.728-4.695,4.03,4.03,0,0,1-.327-.56c-.016-.034-.026-.07-.042-.1A3.985,3.985,0,0,1,43.136,43c-.017-.068-.034-.135-.048-.2A3.962,3.962,0,0,1,47,38a3.981,3.981,0,0,1,.794.087c.024,0,.05,0,.074.008A16.754,16.754,0,0,0,49,32,17.019,17.019,0,0,0,32,15ZM18.98,32.2a.636.636,0,0,1-.06.18.556.556,0,0,1-.09.17c-.04.06-.08.11-.12.16a1.155,1.155,0,0,1-.33.21A1,1,0,0,1,18,33a1,1,0,0,1-.71-1.71,1,1,0,0,1,1.09-.21,1.155,1.155,0,0,1,.33.21A1.052,1.052,0,0,1,19,32,1.355,1.355,0,0,1,18.98,32.2ZM32,41a8.926,8.926,0,0,1-8.041-5,4,4,0,0,1,0-7.992A8.991,8.991,0,1,1,32,41Z"></path><path d="M24.376,30.033A2.328,2.328,0,0,0,24,30a2,2,0,0,0,0,4,2.328,2.328,0,0,0,.386-.036,2,2,0,0,0-.01-3.931Z"></path><path d="M16,53a3,3,0,1,0,2.543,4.588,2.91,2.91,0,0,0,.428-1.166A3.094,3.094,0,0,0,19,56,3,3,0,0,0,16,53Z"></path><path d="M32,4A27.9,27.9,0,0,0,17.288,8.166a5.949,5.949,0,0,1,.341.776c.026.072.046.147.07.22a6.042,6.042,0,0,1,.175.676c.017.086.035.17.048.256A5.831,5.831,0,0,1,18,11a5.951,5.951,0,0,1-6.972,5.912c-.1-.016-.187-.038-.281-.058a6.31,6.31,0,0,1-.691-.192c-.09-.031-.18-.06-.269-.095a6.039,6.039,0,0,1-.869-.419,27.991,27.991,0,0,0,3.766,36.114l.02-.014a4.84,4.84,0,0,1,.639-.473c.052-.033.106-.064.159-.095a5.083,5.083,0,0,1,.671-.329c.02-.007.037-.018.057-.025A5,5,0,0,1,15,51.11c.064-.013.128-.024.192-.035a4.969,4.969,0,0,1,5.747,5.7c-.012.082-.035.162-.052.243a4.824,4.824,0,0,1-.129.507c-.012.037-.017.077-.029.114A27.652,27.652,0,0,0,32,60,28,28,0,0,0,32,4ZM51,42a4,4,0,0,1-4,4,3.955,3.955,0,0,1-1.754-.417A18.973,18.973,0,1,1,51,32a18.713,18.713,0,0,1-1.366,7A3.979,3.979,0,0,1,51,42Z"></path><path d="M9.352,14A4,4,0,1,0,8,11,4.038,4.038,0,0,0,9.352,14Z"></path><path d="M10.92,59.62a.757.757,0,0,0-.09-.18l-.12-.15a1.155,1.155,0,0,0-.33-.21.916.916,0,0,0-.76,0A.96.96,0,0,0,9,60a1,1,0,0,0,.08.38.933.933,0,0,0,.21.33,1.155,1.155,0,0,0,.33.21A1,1,0,0,0,10,61a1.052,1.052,0,0,0,.71-.29.933.933,0,0,0,.21-.33A1,1,0,0,0,11,60a1.355,1.355,0,0,0-.02-.2A.636.636,0,0,0,10.92,59.62Z"></path><path d="M60.38,58.08a.956.956,0,0,0-.58-.06.636.636,0,0,0-.18.06.757.757,0,0,0-.18.09,1.576,1.576,0,0,0-.15.12,1.014,1.014,0,0,0,0,1.42l.15.12a.757.757,0,0,0,.18.09.636.636,0,0,0,.18.06A1.355,1.355,0,0,0,60,60a1,1,0,0,0,.38-.08,1.032,1.032,0,0,0,.33-.21c.04-.05.08-.1.12-.16a.556.556,0,0,0,.09-.17.636.636,0,0,0,.06-.18A1.5,1.5,0,0,0,61,59a1.052,1.052,0,0,0-.29-.71A1.032,1.032,0,0,0,60.38,58.08Z"></path><path d="M50.62,45.08a1.155,1.155,0,0,0-.33.21,1.014,1.014,0,0,0,0,1.42,1.155,1.155,0,0,0,.33.21A.838.838,0,0,0,51,47a1,1,0,0,0,.71-1.71,1.032,1.032,0,0,0-.33-.21A1,1,0,0,0,50.62,45.08Z"></path><path d="M57,10a3,3,0,1,0-3-3A3,3,0,0,0,57,10Zm0-4a1,1,0,1,1-1,1A1,1,0,0,1,57,6Z"></path></g></svg>