<svg xmlns="http://www.w3.org/2000/svg" xmlns:xlink="http://www.w3.org/1999/xlink" version="1.1" x="0px" y="0px" viewBox="0 0 100 100"  xml:space="preserve"><g><path d="M57.7100945,19.0307617h-0.0009766c-0.5517578,0-0.9990234,0.4472656-1,0.9990234l-0.0029297,2.8823242   c-0.0009766,0.5522461,0.4462891,1.0004883,0.9990234,1.0009766h0.0009766c0.5517578,0,0.9990234-0.4472656,1-0.9990234   l0.0029297-2.8823242C58.7100945,19.4794922,58.2628288,19.03125,57.7100945,19.0307617z"></path><path d="M57.7061882,24.5180664c-0.0009766,0-0.0009766,0-0.0009766,0c-0.5517578,0-1,0.4472656-1,0.9990234l-0.0175781,23.9853516   c0,0.5527344,0.4472656,1.0004883,0.9990234,1.0009766c0.0009766,0,0.0009766,0,0.0009766,0c0.5517578,0,1-0.4472656,1-0.9990234   l0.0175781-23.9853516C58.7052116,24.9663086,58.257946,24.5185547,57.7061882,24.5180664z"></path><path d="M69.4805984,53.9301758c0-1.0062866-0.5315552-1.9038086-1.3199463-2.3883667l0.019165-33.9714966v-0.0004883   c0-3.3442383-2.2197266-6.3295898-5.3876915-7.2563477C62.1104851,10.1054688,61.3868523,10,60.6368523,10   c-3.9827881,0.0107422-7.2468262,3.1325073-7.5200806,7.0596924c-0.2475586-0.1280518-0.5073242-0.234314-0.7767944-0.3165283   c-0.4443359-0.1347656-0.8984375-0.203125-1.3496094-0.203125c-2.550293,0-4.6321411,2.0692749-4.6830444,4.6279297   c-0.0006714,0.0090332-0.0059814,0.0162964-0.0064087,0.0253906l-0.1385498,2.9458618   c-0.1074219,0.5658569-0.2929077,1.1208496-0.569458,1.6498413l-2.1894531,4.2177734   c-1.1044922,2.1171875-1.8779297,4.3764648-2.2978516,6.7163086c-0.0003052,0.0015869,0.0004883,0.0031128,0.0001831,0.0046997   c-0.2514038,1.3424683-0.3850098,2.7536011-0.3956909,4.1989136l-0.0386963,11.0388794l-9.8968506,11.0470581   c-0.1699219,0.1899414-0.2607422,0.4370117-0.2548828,0.6914063l0.2109375,8.7597656   c0.0078125,0.3256836,0.1738281,0.6264648,0.4443359,0.8076172c0.1669922,0.1113281,0.3603516,0.168457,0.5556641,0.168457   c0.1220703,0,0.2441406-0.0219727,0.3603516-0.0668945l8.5106201-3.2861328l-0.0115967,1.9394531   c-0.0009766,0.265625,0.1044922,0.5209961,0.2919922,0.7094727c0.1875,0.1879883,0.4423828,0.2939453,0.7080078,0.2939453   l1.6286011,0.0013428c-0.0010986,0.1640015-0.0083008,0.3288574,0.0032349,0.4908447   c0.2646484,3.6899414,3.8623047,6.300293,4.015625,6.409668c0.1748047,0.1245117,0.3779297,0.1860352,0.5810547,0.1860352   c0.2529297,0,0.5039063-0.0957031,0.6962891-0.2827148c0.1339111-0.1295776,3.22052-3.1791382,3.0407715-6.7969971   l1.4990845,0.0012207l-0.0046997,2.0072021c-0.0009766,0.2661133,0.1044922,0.5209961,0.2919922,0.7094727   c0.1875,0.1879883,0.4423828,0.2939453,0.7080078,0.2939453l0.8841553-0.0026855   c-0.4393921,1.3796387-0.6168823,2.7321167-0.5101318,4.0310059c0.4541016,5.6142578,6.0166016,9.574707,6.2529297,9.7407227   C60.8487663,89.9389648,61.0489616,90,61.2511101,90c0.1552734,0,0.3105469-0.0361328,0.453125-0.1083984   c0.3300781-0.1679688,0.5400391-0.503418,0.546875-0.8730469c0.0283203-1.5419922,0.2333984-3.0488281,0.6113281-4.5024414   l0.6269531,1.1796875c0.1757813,0.3320313,0.5107384,0.5229492,0.9003868,0.5307617   c0.3759766-0.0068359,0.7167969-0.2236328,0.8808594-0.5620117c0.0634766-0.1298828,1.5507813-3.2260742,1.2636719-6.6162109   c-0.0835571-1.0070801-0.3459473-2.0232544-0.7654419-3.0343628l1.3738403-0.0042114   c0.5507813-0.0014648,0.9970703-0.4487305,0.9970703-1v-3.585022c0.8016968-0.5020142,1.3203125-1.3898926,1.3203125-2.374939   v-2.6298828c0-0.6854248-0.2507324-1.3195801-0.6605835-1.8120728c0.4176636-0.4945068,0.6703491-1.1259155,0.6703491-1.8041382   l0.0107422-2.6196289c0-0.0053711,0-0.0107422,0-0.0166016c-0.0089111-0.6887817-0.2579346-1.3158569-0.6734009-1.8058472   c0.4193726-0.4958496,0.6734009-1.126709,0.6734009-1.8015747V53.9301758z M40.6422844,57.9674683l-0.1148071,10.0037231   l-7.8310547,3.0239258l-0.1679688-6.9428711l8.1273804-9.0736694l-0.0160522,2.9760132   C40.639782,57.9591675,40.6422234,57.9628906,40.6422844,57.9674683z M55.0765495,41.8654785l0.0134277-22.5949707   c0-0.0022583-0.0009155-0.0043335-0.0009155-0.0065918l0.0009155-1.6740723c0-3.0737305,2.4912109-5.581543,5.5498047-5.5898438   c0.5488281,0,1.0761719,0.0761719,1.5791016,0.2299805c2.3320274,0.6821289,3.9609337,2.8779297,3.9609337,5.3393555   l-0.0185547,33.5515747l-11.0898399,0.0171509L55.0765495,41.8654785z M45.1778679,30.9306641l1.105896-2.1303101   l-0.0140991,6.5922241c0.0087891,0.3881836-0.0976563,0.4570313-0.4003906,0.4672852l-2.5458984,0.0268555   C43.7325554,34.1699219,44.3546257,32.5073242,45.1778679,30.9306641z M47.7159538,77.7265625   c-0.8935547-0.8266602-2.3642578-2.4580078-2.5-4.3466797c-0.0068359-0.1035156-0.0107422-0.2084961-0.0097656-0.3144531   l1.484375-0.0004883l2.8701172,0.0068359C49.6856804,74.9643555,48.4786491,76.7807617,47.7159538,77.7265625z    M52.6586418,51.3606567c-0.0804443,0.0333252-0.1551514,0.0753784-0.2315063,0.1156006   c-0.0644531,0.0339355-0.1307983,0.06427-0.1920776,0.1028442c-0.0731201,0.0461426-0.1394043,0.1004028-0.2077637,0.15271   c-0.0565186,0.0432129-0.1156616,0.0828247-0.1685791,0.1300049c-0.0657349,0.0585938-0.1231079,0.1246338-0.1829834,0.1889038   c-0.0467529,0.0501709-0.0969849,0.0968018-0.1399536,0.1501465c-0.0567017,0.0704956-0.1038208,0.147644-0.1536255,0.2232056   c-0.0363159,0.0551147-0.0771484,0.1067505-0.1095581,0.1643066c-0.046875,0.0831909-0.0823975,0.1722412-0.1207275,0.2601318   c-0.0245361,0.0562744-0.0547485,0.1095581-0.0756226,0.1675415c-0.0358276,0.0994263-0.0584717,0.2037354-0.0830078,0.3075562   c-0.012146,0.0513916-0.0308228,0.1003418-0.0401001,0.1526489c-0.027832,0.1577759-0.0428467,0.3193359-0.0428467,0.4837036   v2.6298828c0,0.1600952,0.015625,0.3170776,0.0415039,0.4710083c0.0080566,0.0478516,0.022583,0.0932617,0.03302,0.1404419   c0.0233765,0.105835,0.0490723,0.2103882,0.0839233,0.3117065c0.0167847,0.0483398,0.0375366,0.0942383,0.0568237,0.1414795   c0.0404053,0.0996094,0.0843506,0.1964722,0.1353149,0.2901001c0.020813,0.0378418,0.0429077,0.0742798,0.0653687,0.111084   c0.0623779,0.1030273,0.1306763,0.2009277,0.2052612,0.2944946c0.0103149,0.0128174,0.0176392,0.027832,0.0281982,0.0404663   c-0.0202026,0.0238037-0.034668,0.052002-0.0540771,0.0764771c-0.0680542,0.0859985-0.1322632,0.1744995-0.1895752,0.2681274   c-0.027832,0.0454102-0.0523071,0.0922852-0.0775146,0.1394043c-0.0463257,0.0865479-0.0881958,0.1750488-0.1253052,0.2665405   c-0.020813,0.0513306-0.0410156,0.102356-0.0588379,0.1550903c-0.0332031,0.0983887-0.059082,0.1992798-0.0814819,0.3019409   c-0.010376,0.0476685-0.0235596,0.0939941-0.0314941,0.1424561c-0.0250244,0.1521606-0.0408936,0.3070068-0.0408936,0.4653931   l-0.0107422,2.637207c0.0021362,0.1625977,0.0194702,0.3222656,0.0484009,0.4785767   c0.0103149,0.0560303,0.0294189,0.1088867,0.0430298,0.1638794c0.024231,0.0977173,0.0473022,0.1956177,0.0814819,0.2894897   c0.0246582,0.0679932,0.0575562,0.1314697,0.0871582,0.1971436c0.0337524,0.074707,0.0654907,0.1500854,0.1054077,0.2213745   c0.0413818,0.0742188,0.0900269,0.1428833,0.1376343,0.2128906c0.0376587,0.0550537,0.0732422,0.1109619,0.114624,0.163269   c0.017334,0.0220337,0.0303345,0.0473022,0.0482788,0.0687866c-0.022583,0.0271606-0.0391235,0.059021-0.0606689,0.0870361   c-0.053894,0.0698242-0.1038208,0.1418457-0.151123,0.2166138c-0.0341797,0.0541382-0.067688,0.1079712-0.0983276,0.1644287   c-0.0444336,0.0817871-0.0826416,0.1665039-0.1191406,0.2526245c-0.0234375,0.0554199-0.048584,0.1094971-0.0686035,0.1665649   c-0.034729,0.0986328-0.0603638,0.2005615-0.0844116,0.3034668c-0.0115356,0.0491943-0.0270996,0.0965576-0.0360718,0.1466064   c-0.027771,0.1549072-0.0454102,0.3129272-0.0476685,0.4741821v2.6298828c0,0.1843872,0.019104,0.3643799,0.0529175,0.5393677   c0.0114136,0.059021,0.0334473,0.1136475,0.0485229,0.1713257c0.02948,0.1130981,0.0579224,0.2264404,0.100647,0.3336182   c0.026062,0.0654297,0.0617676,0.1248779,0.0924683,0.1878052c0.0454102,0.0929565,0.0890503,0.1864624,0.144043,0.2733765   c0.0390015,0.0615845,0.0856323,0.1166992,0.1292114,0.1748657c0.0596313,0.0797119,0.1183472,0.1594849,0.1859741,0.2323608   c0.0131836,0.0141602,0.0227661,0.0313721,0.0362549,0.0452881l-5.0830078-0.0180664l-4.0029297,0.0097656l0.0440063-12.5128784   l0.0722046-6.204895c0.0009766-0.0961914-0.0126953-0.1889648-0.0390625-0.2763672L42.7100945,40.9375   c0.0078125-1.0405273,0.0839844-2.0615234,0.2285156-3.0463867l2.9746094-0.0317383   c1.4423828-0.0478516,2.3886719-1.0571289,2.3564453-2.4873047l0.0302734-14.1269531   c0.0078125-1.7485352,1.71875-3.1162109,3.4580078-2.5883789c0.527771,0.1609497,0.9912109,0.4848022,1.3309326,0.923584   l-0.0179443,31.6425171c-0.0696411,0.0168457-0.133728,0.0453491-0.2010498,0.0671997   C52.7990227,51.3129883,52.726757,51.3323975,52.6586418,51.3606567z M64.1856766,82.7436523l-0.6591759-1.2412109   c-0.1826172-0.3442383-0.5556641-0.5532227-0.9384766-0.5292969c-0.3886719,0.0214844-0.7304688,0.2675781-0.8740234,0.6298828   c-0.6796875,1.7143555-1.125,3.5117188-1.3320313,5.3652344c-1.5166016-1.4282227-3.7177734-3.996582-3.9638672-7.0532227   c-0.0957031-1.1552734,0.0869141-2.3789063,0.5439453-3.6459961l3.9130859-0.015625   c0.0234375,0.0014648,0.0546875,0.0043945,0.0693359,0.0024414l2.7460938-0.0078125   c0.4843712,0.9980469,0.7695274,1.9936523,0.8505821,2.9672852C64.6495438,80.4936523,64.4444656,81.7490234,64.1856766,82.7436523   z M66.1397781,74.0126953l-11.0869102,0.0371094l0.0063477-2.0072021c0-0.0009155,0.0004883-0.0016479,0.0004883-0.0025635   V71.878418l11.0800743-0.0175781V74.0126953z M67.4600906,69.0498047c0,0.3686523-0.234375,0.6801758-0.6367188,0.7915039   c-0.0205078,0.0068359-0.078125,0.0185547-0.1650391,0.0185547l-12.3317833,0.0195923l-0.6818848-0.0020142   c-0.0322266-0.0024414-0.0644531-0.0043945-0.0966797-0.0053711c-0.3710938-0.0595703-0.6582031-0.4008789-0.6582031-0.7919922   v-2.6162109c0.0048218-0.3483887,0.2141113-0.6547852,0.5200806-0.7728271   c0.059021-0.015625,0.1218872-0.0326538,0.1596069-0.0391846l13.0819054-0.041748   c0.0003662,0,0.0007324,0.0002441,0.0010986,0.0002441c0.0234375,0,0.0488281,0,0.0761719,0   c0.0211792,0.0012207,0.0648193,0.0102539,0.1148071,0.0231934c0.0174561,0.0045166,0.0275269,0.0062256,0.0502319,0.0129395   c0.328125,0.0874023,0.5664063,0.4125977,0.5664063,0.7734375V69.0498047z M67.4698563,62.7998047   c0,0.3618164-0.2412109,0.6811523-0.5927734,0.7783203c-0.0605469,0.0170898-0.1289063,0.0283203-0.2089844,0.0317383   l-12.9677696,0.0200195c-0.0283203,0-0.0664063-0.003418-0.0996094-0.003418c-0.0117188,0-0.0234375,0.0004883-0.0332031,0.0019531   c-0.0419922-0.0053711-0.0830078-0.0180664-0.0976563-0.0214844c-0.3310547-0.0927734-0.5751953-0.425293-0.5800781-0.7729492   l0.0107422-2.6240234c0-0.3300781,0.1845703-0.6171875,0.4707031-0.7319336   c0.0351563-0.0136719,0.1464844-0.050293,0.1796875-0.0678711c0.0263672-0.0039063,0.1337891-0.0141602,0.1591797-0.0200195   l12.9307823-0.0302124c0.0072021,0.0002441,0.0131226,0.0042725,0.0203857,0.0043335c0.0097656,0,0.0195313,0,0.0283203,0   c0.0247803,0,0.0479126,0.0005493,0.0757446,0.0042114c0.0037842,0.0006104,0.0100708,0.0023193,0.0140381,0.0030518   c0.0256348,0.0040283,0.0531616,0.0092773,0.0918579,0.0205688c0.0021362,0.0006104,0.0043335,0.0003052,0.0064697,0.0009155   c0.0037231,0.0009155,0.0053101,0.0010376,0.0091553,0.0020142c0.3535156,0.0961914,0.5859375,0.40625,0.59375,0.7910156   L67.4698563,62.7998047z M67.4805984,56.5600586c0,0.3623047-0.2402344,0.6757813-0.5625,0.7695313   c-0.0023804,0.0005493-0.0102539,0.0020752-0.0133057,0.0028076c-0.005249,0.0013428-0.0107422-0.0008545-0.0159912,0.0006104   c-0.0437622,0.012085-0.0803223,0.0154419-0.1182251,0.0205688c-0.0335693,0.0036621-0.0667725,0.0087891-0.102478,0.0062866   l-12.958004,0.0302734c-0.0361328,0-0.0761719-0.003418-0.1308594-0.0141602   c-0.0419922-0.0078125-0.0820313-0.0117188-0.1611328-0.0405273c-0.3037109-0.105957-0.5078125-0.4052734-0.5078125-0.7456055   v-2.6298828c0-0.3916016,0.2714844-0.7207031,0.6416016-0.7963867c0.0507813-0.0092773,0.1015625-0.0234375,0.1582031-0.0234375   h0.3603516l12.6220665-0.0200195c0.0189819,0,0.0968018,0.0144653,0.1349487,0.0169678l0.0808716,0.0206299   c0.3427734,0.0888672,0.5722656,0.3994141,0.5722656,0.7724609V56.5600586z"></path></g></svg>