<svg xmlns="http://www.w3.org/2000/svg" xmlns:xlink="http://www.w3.org/1999/xlink" version="1.1" x="0px" y="0px" viewBox="0 0 512 512"  xml:space="preserve"><g><g><g><path d="M298.913,298.633c-3.637,0-6.595-2.958-6.595-6.595c0-3.636,2.958-6.594,6.595-6.594c3.636,0,6.594,2.958,6.594,6.594     C305.507,295.675,302.549,298.633,298.913,298.633z M298.913,291.76c-0.148,0-0.279,0.131-0.279,0.278     c0,0.148,0.131,0.278,0.279,0.278c0.143,0,0.278-0.136,0.278-0.278S299.056,291.76,298.913,291.76z"></path></g><g><path d="M328.809,307.313c-3.59,0-6.51-2.921-6.51-6.512c0-3.637,2.92-6.594,6.51-6.594c3.638,0,6.596,2.957,6.596,6.594     C335.404,304.392,332.446,307.313,328.809,307.313z M328.809,300.522c-0.191,0-0.193,0.275-0.193,0.278     c0,0.062,0.048,0.195,0.193,0.195c0.167,0,0.275-0.154,0.28-0.195C329.089,300.658,328.952,300.522,328.809,300.522z"></path></g><g><path d="M286.793,280.247c-4.515,0-8.052-3.536-8.052-8.052c0-4.394,3.612-7.969,8.052-7.969c4.395,0,7.971,3.575,7.971,7.969     C294.764,276.636,291.188,280.247,286.793,280.247z M286.793,270.543c-0.989,0-1.735,0.711-1.735,1.652     c0,1.006,0.73,1.736,1.735,1.736c0.943,0,1.654-0.746,1.654-1.736C288.447,271.269,287.721,270.543,286.793,270.543z"></path></g><g><path d="M415.425,453.702c-0.003,0.001-0.01,0-0.018,0H96.592c-1.094,0-2.11-0.566-2.686-1.498     c-0.575-0.93-0.628-2.092-0.139-3.071l159.364-318.815c0.535-1.069,1.627-1.746,2.823-1.746c0,0,0.001,0,0.002,0     c1.194,0,2.287,0.674,2.823,1.743l17.183,34.28c0.221,0.439,0.335,0.924,0.335,1.415v26.117c0,0.554-0.146,1.099-0.423,1.579     c-12.289,21.294-23.09,30.177-30.237,36.055c-5.142,4.229-7.988,6.569-8.841,10.919l36.336-0.08c0.003,0,0.005,0,0.008,0     c0.836,0,1.639,0.332,2.229,0.922c0.594,0.593,0.928,1.397,0.928,2.235v6.293h21.752c1.744,0,3.158,1.414,3.158,3.158v3.975     h19.095c1.199,0,2.295,0.679,2.828,1.754l5.926,11.939c0.423,0.852,0.427,1.812,0.08,2.635c0.867,0.216,1.634,0.797,2.062,1.65     l86.893,173.688c0.312,0.49,0.492,1.071,0.492,1.695C418.583,452.288,417.17,453.702,415.425,453.702z M101.702,447.387h308.595     l-80.774-161.459c-2.322,3.367-6.205,5.576-10.595,5.576c-7.093,0-12.864-5.771-12.864-12.867c0-7.214,5.65-12.864,12.864-12.864     c0.185,0,0.367,0.004,0.551,0.012l-1.134-2.286H298.05c-1.743,0-3.157-1.414-3.157-3.158v-3.975h-21.752     c-1.744,0-3.158-1.414-3.158-3.158v-6.286l-36.614,0.081c-0.002,0-0.005,0-0.007,0c-0.836,0-1.639-0.332-2.23-0.922     c-0.594-0.593-0.928-1.396-0.928-2.235c0-9.569,4.791-13.509,11.422-18.963c7.114-5.851,16.824-13.835,28.356-33.604v-24.52     l-14.021-27.972L101.702,447.387z M318.928,272.088c-3.672,0-6.548,2.876-6.548,6.549c0,3.612,2.938,6.552,6.548,6.552     c3.549,0,6.548-3,6.548-6.552c0-0.479-0.045-0.876-0.134-1.181c-0.21-0.723-0.15-1.465,0.124-2.112     c-0.632-0.156-1.22-0.509-1.664-1.043C322.648,272.916,320.826,272.088,318.928,272.088z"></path></g><g><path d="M298.913,298.633c-3.637,0-6.595-2.958-6.595-6.595c0-3.636,2.958-6.594,6.595-6.594c3.636,0,6.594,2.958,6.594,6.594     C305.507,295.675,302.549,298.633,298.913,298.633z M298.913,291.76c-0.148,0-0.279,0.131-0.279,0.278     c0,0.148,0.131,0.278,0.279,0.278c0.143,0,0.278-0.136,0.278-0.278S299.056,291.76,298.913,291.76z"></path></g><g><path d="M328.809,307.313c-3.59,0-6.51-2.921-6.51-6.512c0-3.637,2.92-6.594,6.51-6.594c3.638,0,6.596,2.957,6.596,6.594     C335.404,304.392,332.446,307.313,328.809,307.313z M328.809,300.522c-0.191,0-0.193,0.275-0.193,0.278     c0,0.062,0.048,0.195,0.193,0.195c0.167,0,0.275-0.154,0.28-0.195C329.089,300.658,328.952,300.522,328.809,300.522z"></path></g><g><path d="M356.988,336.864H155.012c-1.094,0-2.11-0.566-2.686-1.497c-0.576-0.93-0.628-2.092-0.14-3.071l29.208-58.506     c0.535-1.071,1.628-1.748,2.826-1.748h98.708c0.978,0,1.901,0.453,2.499,1.228c0.301,0.39,0.862,0.662,1.365,0.662     c0.485,0,0.961-0.241,1.27-0.646c0.598-0.784,1.525-1.243,2.511-1.243h19.245c1.039,0,2.013,0.513,2.602,1.368     c0.589,0.856,0.719,1.948,0.348,2.919c-0.269,0.701-0.388,1.412-0.388,2.308c0,3.612,2.938,6.552,6.548,6.552     c3.549,0,6.548-3,6.548-6.552c0-0.479-0.045-0.876-0.134-1.181c-0.456-1.568,0.36-3.226,1.88-3.821     c1.52-0.598,3.243,0.064,3.977,1.525l28.614,57.133c0.489,0.979,0.438,2.142-0.138,3.073     C359.1,336.297,358.084,336.864,356.988,336.864z M160.118,330.549h191.757l-22.35-44.625c-2.323,3.368-6.207,5.58-10.598,5.58     c-7.093,0-12.864-5.771-12.864-12.867c0-0.094,0.001-0.187,0.003-0.278h-14.165c-1.42,1.202-3.237,1.889-5.108,1.889     c-1.902,0-3.746-0.687-5.183-1.889h-95.437L160.118,330.549z"></path></g><g><path d="M309.818,278.358h-19.245c-1.245,0-2.374-0.731-2.883-1.868s-0.302-2.466,0.528-3.395c0.199-0.224,0.229-0.659,0.229-0.9     c0-0.927-0.727-1.652-1.654-1.652c-0.989,0-1.735,0.711-1.735,1.652c0,0.496,0.195,0.851,0.359,1.061     c0.743,0.95,0.879,2.243,0.35,3.328c-0.528,1.086-1.631,1.774-2.838,1.774h-98.708c-1.095,0-2.111-0.566-2.687-1.498     c-0.576-0.931-0.627-2.094-0.138-3.072l29.21-58.419c0.535-1.07,1.628-1.746,2.825-1.746h41.748c1.263,0,2.403,0.752,2.901,1.913     c0.499,1.16,0.258,2.505-0.612,3.421c-4.537,4.773-8.567,8.094-11.805,10.763c-5.157,4.249-8.011,6.601-8.866,10.959l36.336-0.08     c0.003,0,0.005,0,0.008,0c0.836,0,1.638,0.332,2.229,0.922c0.594,0.593,0.928,1.397,0.928,2.235v6.293h21.752     c1.744,0,3.158,1.414,3.158,3.158v3.975h19.095c1.199,0,2.295,0.679,2.828,1.754l5.926,11.939     c0.712,1.435,0.237,3.175-1.104,4.05c-1.341,0.872-3.126,0.605-4.15-0.625c-1.153-1.385-2.976-2.213-4.874-2.213     c-2.783,0-5.197,1.654-6.15,4.215C312.317,277.538,311.137,278.358,309.818,278.358z M294.762,272.042h13.074     c2.275-3.869,6.422-6.27,11.092-6.27c0.185,0,0.367,0.004,0.551,0.012l-1.134-2.286H298.05c-1.743,0-3.157-1.414-3.157-3.158     v-3.975h-21.752c-1.744,0-3.158-1.414-3.158-3.158v-6.286l-36.614,0.081c-0.002,0-0.005,0-0.007,0     c-0.836,0-1.639-0.332-2.23-0.922c-0.594-0.593-0.928-1.396-0.928-2.235c0-9.571,4.8-13.525,11.443-18.999     c1.784-1.47,3.697-3.046,5.761-4.906h-32.025l-26.053,52.103h89.413c0.083-4.323,3.662-7.815,8.05-7.815     C291.137,264.227,294.68,267.719,294.762,272.042z"></path></g><g><path d="M415.425,453.702c-0.003,0.001-0.01,0-0.018,0H96.592c-1.094,0-2.11-0.566-2.686-1.498     c-0.576-0.93-0.628-2.093-0.138-3.072l29.208-58.419c0.535-1.069,1.628-1.746,2.825-1.746h260.396     c1.196,0,2.29,0.677,2.824,1.746l29.07,58.137c0.312,0.49,0.491,1.072,0.491,1.695     C418.583,452.288,417.17,453.702,415.425,453.702z M101.702,447.387h308.596l-26.053-52.104H127.753L101.702,447.387z"></path></g><g><path d="M255.957,453.702c-1.744,0-3.158-1.414-3.158-3.157V243.756c0-1.744,1.414-3.158,3.158-3.158     c1.743,0,3.157,1.414,3.157,3.158v206.789C259.114,452.288,257.7,453.702,255.957,453.702z"></path></g><g><path d="M233.362,247.002c-0.836,0-1.639-0.332-2.23-0.922c-0.594-0.593-0.928-1.396-0.928-2.235     c0-9.569,4.791-13.509,11.422-18.963c7.201-5.922,17.063-14.032,28.779-34.333c0.715-1.238,2.174-1.84,3.552-1.472     c1.381,0.37,2.341,1.621,2.341,3.05v51.63c0,1.742-1.409,3.154-3.15,3.158l-39.779,0.087     C233.367,247.002,233.364,247.002,233.362,247.002z M269.982,203.187c-9.827,14.634-18.365,21.655-24.345,26.573     c-5.142,4.229-7.988,6.569-8.841,10.919l33.186-0.073V203.187z"></path></g><g><path d="M337.243,104.392c-0.004,0-0.01,0.001-0.018,0H298.05c-1.743,0-3.157-1.414-3.157-3.158     c0-29.5,11.743-42.937,22.654-42.937l0.116,0c6.151,0.055,12.063,4.517,16.223,12.24c4.211,7.819,6.456,18.308,6.497,30.352     c0.013,0.113,0.019,0.228,0.019,0.345C340.401,102.978,338.988,104.392,337.243,104.392z M301.259,98.076h32.752     c-0.755-20.673-8.863-33.396-16.401-33.463C309.987,64.613,301.969,76.314,301.259,98.076z"></path></g><g><path d="M337.226,238.411H298.05c-1.743,0-3.157-1.414-3.157-3.158v-134.02c0-1.744,1.414-3.158,3.157-3.158h39.176     c1.744,0,3.158,1.414,3.158,3.158v134.02C340.384,236.998,338.97,238.411,337.226,238.411z M301.208,232.096h32.86V104.392     h-32.86V232.096z"></path></g><g><path d="M337.226,115.477H298.05c-1.743,0-3.157-1.414-3.157-3.158v-11.085c0-1.744,1.414-3.158,3.157-3.158h39.176     c1.744,0,3.158,1.414,3.158,3.158v11.085C340.384,114.063,338.97,115.477,337.226,115.477z M301.208,109.161h32.86v-4.769h-32.86     V109.161z"></path></g><g><path d="M318.156,152.673c-7.569,0-13.727-6.158-13.727-13.727c0-7.519,6.157-13.635,13.727-13.635     c7.565,0,13.72,6.117,13.72,13.635C331.876,146.516,325.722,152.673,318.156,152.673z M318.156,131.627     c-4.086,0-7.41,3.284-7.41,7.319c0,4.087,3.324,7.411,7.41,7.411c4.082,0,7.403-3.324,7.403-7.411     C325.56,134.911,322.238,131.627,318.156,131.627z"></path></g><g><path d="M362.16,153.188c-0.003,0-0.011,0-0.018,0h-24.917c-1.743,0-3.157-1.414-3.157-3.158     c0-19.524,8.046-28.416,15.521-28.416c0.014,0,0.118,0,0.132,0c7.673,0,15.481,9.639,15.578,28.067     c0.013,0.114,0.019,0.23,0.019,0.348C365.318,151.775,363.905,153.188,362.16,153.188z M340.465,146.873h18.43     c-0.72-12.381-5.608-18.942-9.215-18.942C346.049,127.931,341.15,133.837,340.465,146.873z"></path></g><g><path d="M362.143,238.411h-24.917c-1.743,0-3.157-1.414-3.157-3.158v-85.223c0-1.744,1.414-3.158,3.157-3.158h24.917     c1.744,0,3.158,1.414,3.158,3.158v85.223C365.301,236.998,363.887,238.411,362.143,238.411z M340.384,232.096h18.602v-78.907     h-18.602V232.096z"></path></g><g><path d="M298.067,153.188c-0.004,0-0.011,0-0.018,0h-24.909c-1.744,0-3.158-1.414-3.158-3.158     c0-19.524,8.047-28.416,15.523-28.416c0.014,0,0.118,0,0.132,0c7.669,0,15.473,9.639,15.569,28.067     c0.013,0.114,0.019,0.23,0.019,0.348C301.226,151.775,299.813,153.188,298.067,153.188z M276.379,146.873h18.424     c-0.72-12.381-5.604-18.942-9.207-18.942C281.964,127.931,277.064,133.837,276.379,146.873z"></path></g><g><path d="M298.05,238.411h-24.909c-1.744,0-3.158-1.414-3.158-3.158v-85.223c0-1.744,1.414-3.158,3.158-3.158h24.909     c1.744,0,3.158,1.414,3.158,3.158v85.223C301.208,236.998,299.794,238.411,298.05,238.411z M276.298,232.096h18.595v-78.907     h-18.595V232.096z"></path></g><g><path d="M401.829,247.002c-0.003,0-0.005,0-0.007,0l-39.687-0.087c-1.741-0.004-3.15-1.417-3.15-3.158v-51.63     c0-1.429,0.96-2.681,2.341-3.05c1.384-0.37,2.838,0.235,3.552,1.473c11.706,20.29,21.538,28.402,28.717,34.325     c6.613,5.457,11.392,9.399,11.392,18.97c0,0.839-0.334,1.643-0.928,2.235C403.468,246.67,402.665,247.002,401.829,247.002z      M365.301,240.605l33.095,0.073c-0.85-4.358-3.689-6.7-8.82-10.933c-5.959-4.917-14.467-11.937-24.274-26.554V240.605z"></path></g><g><path d="M349.856,281.45c-4.394,0-7.969-3.575-7.969-7.968c0-4.44,3.575-8.053,7.969-8.053c4.44,0,8.053,3.612,8.053,8.053     C357.909,277.875,354.297,281.45,349.856,281.45z M349.856,271.745c-0.941,0-1.652,0.747-1.652,1.737     c0,0.926,0.726,1.651,1.652,1.651c0.941,0,1.737-0.757,1.737-1.651C351.594,272.524,350.814,271.745,349.856,271.745z"></path></g><g><path d="M286.793,280.247c-4.515,0-8.052-3.536-8.052-8.052c0-4.394,3.612-7.969,8.052-7.969c4.395,0,7.971,3.575,7.971,7.969     C294.764,276.636,291.188,280.247,286.793,280.247z M286.793,270.543c-0.989,0-1.735,0.711-1.735,1.652     c0,1.006,0.73,1.736,1.735,1.736c0.943,0,1.654-0.746,1.654-1.736C288.447,271.269,287.721,270.543,286.793,270.543z"></path></g><g><path d="M318.928,291.504c-7.093,0-12.864-5.771-12.864-12.867c0-7.214,5.65-12.864,12.864-12.864     c7.093,0,12.863,5.771,12.863,12.864C331.791,285.732,326.021,291.504,318.928,291.504z M318.928,272.088     c-3.672,0-6.548,2.877-6.548,6.549c0,3.612,2.938,6.552,6.548,6.552c3.549,0,6.548-3,6.548-6.552     C325.476,275.025,322.538,272.088,318.928,272.088z"></path></g><g><path d="M298.05,256.365h-24.909c-1.744,0-3.158-1.414-3.158-3.158v-17.954c0-1.744,1.414-3.158,3.158-3.158h24.909     c1.744,0,3.158,1.414,3.158,3.158v17.954C301.208,254.952,299.794,256.365,298.05,256.365z M276.298,250.049h18.595v-11.638     h-18.595V250.049z"></path></g><g><path d="M337.226,263.498H298.05c-1.743,0-3.157-1.414-3.157-3.158v-25.086c0-1.744,1.414-3.158,3.157-3.158h39.176     c1.744,0,3.158,1.414,3.158,3.158v25.086C340.384,262.084,338.97,263.498,337.226,263.498z M301.208,257.183h32.86v-18.771     h-32.86V257.183z"></path></g><g><path d="M362.143,256.365h-24.917c-1.743,0-3.157-1.414-3.157-3.158v-17.954c0-1.744,1.414-3.158,3.157-3.158h24.917     c1.744,0,3.158,1.414,3.158,3.158v17.954C365.301,254.952,363.887,256.365,362.143,256.365z M340.384,250.049h18.602v-11.638     h-18.602V250.049z"></path></g><g><path d="M328.809,307.313c-3.59,0-6.51-2.921-6.51-6.512c0-3.637,2.92-6.594,6.51-6.594c3.638,0,6.596,2.957,6.596,6.594     C335.404,304.392,332.446,307.313,328.809,307.313z M328.809,300.522c-0.191,0-0.193,0.275-0.193,0.278     c0,0.062,0.048,0.195,0.193,0.195c0.167,0,0.275-0.154,0.28-0.195C329.089,300.658,328.952,300.522,328.809,300.522z"></path></g><g><path d="M298.913,298.633c-3.637,0-6.595-2.958-6.595-6.595c0-3.636,2.958-6.594,6.595-6.594c3.636,0,6.594,2.958,6.594,6.594     C305.507,295.675,302.549,298.633,298.913,298.633z M298.913,291.76c-0.148,0-0.279,0.131-0.279,0.278     c0,0.148,0.131,0.278,0.279,0.278c0.143,0,0.278-0.136,0.278-0.278S299.056,291.76,298.913,291.76z"></path></g></g></g></svg>